G04 Layer: TopSilkscreenLayer*
G04 EasyEDA v6.5.8, 2022-07-18 23:19:08*
G04 1589dfe675ed41be9403e30dc75cfddf,10*
G04 Gerber Generator version 0.2*
G04 Scale: 100 percent, Rotated: No, Reflected: No *
G04 Dimensions in millimeters *
G04 leading zeros omitted , absolute positions ,4 integer and 5 decimal *
%FSLAX45Y45*%
%MOMM*%

%ADD10C,0.2032*%
%ADD11C,0.1524*%
%ADD12C,0.2000*%
%ADD13C,0.2540*%

%LPD*%
D10*
X79989Y-1105895D02*
G01*
X246359Y-1105895D01*
X1243162Y-92659D02*
G01*
X1243162Y-259029D01*
X1160104Y-175717D02*
G01*
X1326220Y-175717D01*
D11*
X668400Y-2118443D02*
G01*
X663066Y-2108029D01*
X652652Y-2097615D01*
X642493Y-2092535D01*
X621664Y-2092535D01*
X611250Y-2097615D01*
X600836Y-2108029D01*
X595502Y-2118443D01*
X590422Y-2134191D01*
X590422Y-2160099D01*
X595502Y-2175593D01*
X600836Y-2186007D01*
X611250Y-2196421D01*
X621664Y-2201501D01*
X642493Y-2201501D01*
X652652Y-2196421D01*
X663066Y-2186007D01*
X668400Y-2175593D01*
X713104Y-2092535D02*
G01*
X770254Y-2092535D01*
X739013Y-2134191D01*
X754506Y-2134191D01*
X764920Y-2139271D01*
X770254Y-2144351D01*
X775334Y-2160099D01*
X775334Y-2170513D01*
X770254Y-2186007D01*
X759840Y-2196421D01*
X744093Y-2201501D01*
X728598Y-2201501D01*
X713104Y-2196421D01*
X707770Y-2191341D01*
X702690Y-2180927D01*
X1904519Y-1116667D02*
G01*
X1899185Y-1106253D01*
X1888771Y-1095839D01*
X1878611Y-1090759D01*
X1857783Y-1090759D01*
X1847369Y-1095839D01*
X1836955Y-1106253D01*
X1831621Y-1116667D01*
X1826541Y-1132415D01*
X1826541Y-1158323D01*
X1831621Y-1173817D01*
X1836955Y-1184231D01*
X1847369Y-1194645D01*
X1857783Y-1199725D01*
X1878611Y-1199725D01*
X1888771Y-1194645D01*
X1899185Y-1184231D01*
X1904519Y-1173817D01*
X1990625Y-1090759D02*
G01*
X1938809Y-1163403D01*
X2016787Y-1163403D01*
X1990625Y-1090759D02*
G01*
X1990625Y-1199725D01*
X3378014Y-1165026D02*
G01*
X3372680Y-1154612D01*
X3362266Y-1144198D01*
X3352106Y-1139118D01*
X3331278Y-1139118D01*
X3320864Y-1144198D01*
X3310450Y-1154612D01*
X3305116Y-1165026D01*
X3300036Y-1180774D01*
X3300036Y-1206682D01*
X3305116Y-1222176D01*
X3310450Y-1232590D01*
X3320864Y-1243004D01*
X3331278Y-1248084D01*
X3352106Y-1248084D01*
X3362266Y-1243004D01*
X3372680Y-1232590D01*
X3378014Y-1222176D01*
X3474534Y-1139118D02*
G01*
X3422718Y-1139118D01*
X3417384Y-1185854D01*
X3422718Y-1180774D01*
X3438212Y-1175440D01*
X3453706Y-1175440D01*
X3469454Y-1180774D01*
X3479868Y-1190934D01*
X3484948Y-1206682D01*
X3484948Y-1217096D01*
X3479868Y-1232590D01*
X3469454Y-1243004D01*
X3453706Y-1248084D01*
X3438212Y-1248084D01*
X3422718Y-1243004D01*
X3417384Y-1237924D01*
X3412304Y-1227510D01*
X4503635Y-692642D02*
G01*
X4503635Y-801608D01*
X4503635Y-692642D02*
G01*
X4550371Y-692642D01*
X4565865Y-697722D01*
X4571199Y-703056D01*
X4576279Y-713470D01*
X4576279Y-728964D01*
X4571199Y-739378D01*
X4565865Y-744458D01*
X4550371Y-749792D01*
X4503635Y-749792D01*
X4610569Y-713470D02*
G01*
X4620983Y-708136D01*
X4636731Y-692642D01*
X4636731Y-801608D01*
X479986Y-644677D02*
G01*
X479986Y-753643D01*
X479986Y-644677D02*
G01*
X526722Y-644677D01*
X542216Y-649757D01*
X547550Y-655091D01*
X552630Y-665505D01*
X552630Y-680999D01*
X547550Y-691413D01*
X542216Y-696493D01*
X526722Y-701827D01*
X479986Y-701827D01*
X592254Y-670585D02*
G01*
X592254Y-665505D01*
X597334Y-655091D01*
X602668Y-649757D01*
X613082Y-644677D01*
X633656Y-644677D01*
X644070Y-649757D01*
X649404Y-655091D01*
X654484Y-665505D01*
X654484Y-675919D01*
X649404Y-686333D01*
X638990Y-701827D01*
X586920Y-753643D01*
X659818Y-753643D01*
G36*
X231038Y-1302613D02*
G01*
X121056Y-1452575D01*
X71018Y-1582623D01*
X61061Y-1702612D01*
X71018Y-1902612D01*
X131064Y-2072589D01*
X231038Y-2182622D01*
G37*
D12*
X4389907Y-1280007D02*
G01*
X4389907Y-1080109D01*
X4540021Y-1080109D01*
X4540021Y-1280007D01*
X4689881Y-1280007D01*
X4689881Y-1080109D01*
D13*
X1131163Y-1972589D02*
G01*
X951153Y-1972589D01*
X1041171Y-2062581D02*
G01*
X1041171Y-1882597D01*
X2400300Y-266700D02*
G01*
X2400300Y-2120900D01*
X2057400Y-2171700D02*
G01*
X2350300Y-2170899D01*
X2057400Y-215900D02*
G01*
X2350300Y-216700D01*
X1384300Y-2120900D02*
G01*
X1384300Y-266700D01*
X1727200Y-215900D02*
G01*
X1434299Y-216700D01*
X1727200Y-2171700D02*
G01*
X1434299Y-2170899D01*
X2882900Y-2120900D02*
G01*
X2882900Y-266700D01*
X3225800Y-215900D02*
G01*
X2932899Y-216700D01*
X3225800Y-2171700D02*
G01*
X2932899Y-2170899D01*
X3898900Y-266700D02*
G01*
X3898900Y-2120900D01*
X3556000Y-2171700D02*
G01*
X3848900Y-2170899D01*
X3556000Y-215900D02*
G01*
X3848900Y-216700D01*
X5060525Y-56936D02*
G01*
X5060525Y-956934D01*
X4010540Y-59933D02*
G01*
X4010540Y-959932D01*
X4010540Y-56936D02*
G01*
X5060525Y-56936D01*
X4007543Y-239918D02*
G01*
X5057528Y-239918D01*
X4010540Y-116931D02*
G01*
X5060525Y-116931D01*
X4010540Y-959932D02*
G01*
X5060525Y-959932D01*
X1090523Y-56936D02*
G01*
X1090523Y-956934D01*
X40538Y-59933D02*
G01*
X40538Y-959932D01*
X40538Y-56936D02*
G01*
X1090523Y-56936D01*
X37541Y-239918D02*
G01*
X1087526Y-239918D01*
X40538Y-116931D02*
G01*
X1090523Y-116931D01*
X40538Y-959932D02*
G01*
X1090523Y-959932D01*
G75*
G01*
X1384300Y-2120900D02*
G03*
X1434300Y-2170900I50000J0D01*
G75*
G01*
X1384300Y-266700D02*
G02*
X1434300Y-216700I50000J0D01*
G75*
G01*
X2400300Y-266700D02*
G03*
X2350300Y-216700I-50000J0D01*
G75*
G01*
X2400300Y-2120900D02*
G02*
X2350300Y-2170900I-50000J0D01*
G75*
G01*
X3898900Y-266700D02*
G03*
X3848900Y-216700I-50000J0D01*
G75*
G01*
X3898900Y-2120900D02*
G02*
X3848900Y-2170900I-50000J0D01*
G75*
G01*
X2882900Y-2120900D02*
G03*
X2932900Y-2170900I50000J0D01*
G75*
G01*
X2882900Y-266700D02*
G02*
X2932900Y-216700I50000J0D01*
G75*
G01
X1351178Y-1752600D02*
G03X1351178Y-1752600I-650011J0D01*
M02*
