G04 Layer: BottomSolderMaskLayer*
G04 EasyEDA v6.5.8, 2022-07-18 23:19:08*
G04 1589dfe675ed41be9403e30dc75cfddf,10*
G04 Gerber Generator version 0.2*
G04 Scale: 100 percent, Rotated: No, Reflected: No *
G04 Dimensions in millimeters *
G04 leading zeros omitted , absolute positions ,4 integer and 5 decimal *
%FSLAX45Y45*%
%MOMM*%

%ADD10C,0.6896*%
%ADD11C,2.1016*%
%ADD12C,2.2032*%

%LPD*%
D10*
X1611708Y-825500D02*
G01*
X1466009Y-825500D01*
X1611708Y-698500D02*
G01*
X1466009Y-698500D01*
X1611708Y-571500D02*
G01*
X1466009Y-571500D01*
X1611708Y-444500D02*
G01*
X1466009Y-444500D01*
X2166190Y-825500D02*
G01*
X2020491Y-825500D01*
X2166190Y-698500D02*
G01*
X2020491Y-698500D01*
X2166190Y-571500D02*
G01*
X2020491Y-571500D01*
X2166190Y-444500D02*
G01*
X2020491Y-444500D01*
G36*
X1407119Y-2013305D02*
G01*
X1405595Y-2013051D01*
X1404071Y-2012289D01*
X1403055Y-2011273D01*
X1402293Y-2009749D01*
X1402039Y-2008225D01*
X1402105Y-2008225D01*
X1402105Y-938123D01*
X1402039Y-938225D01*
X1402293Y-936701D01*
X1403055Y-935177D01*
X1404071Y-934161D01*
X1405595Y-933399D01*
X1407119Y-933145D01*
X1407185Y-933043D01*
X2245131Y-933043D01*
X2245121Y-933145D01*
X2246645Y-933399D01*
X2248169Y-934161D01*
X2249185Y-935177D01*
X2249947Y-936701D01*
X2250201Y-938225D01*
X2250211Y-938123D01*
X2250211Y-2008225D01*
X2250201Y-2008225D01*
X2249947Y-2009749D01*
X2249185Y-2011273D01*
X2248169Y-2012289D01*
X2246645Y-2013051D01*
X2245121Y-2013305D01*
G37*
G36*
X2672359Y-1807311D02*
G01*
X2672427Y-1807281D01*
X2670903Y-1807027D01*
X2669379Y-1806265D01*
X2668363Y-1805249D01*
X2667601Y-1803725D01*
X2667347Y-1802201D01*
X2667279Y-1802231D01*
X2667279Y-1652117D01*
X2667347Y-1652198D01*
X2667601Y-1650674D01*
X2668363Y-1649150D01*
X2669379Y-1648134D01*
X2670903Y-1647372D01*
X2672427Y-1647118D01*
X2672359Y-1647037D01*
X3022371Y-1647037D01*
X3022429Y-1647118D01*
X3023953Y-1647372D01*
X3025477Y-1648134D01*
X3026493Y-1649150D01*
X3027255Y-1650674D01*
X3027509Y-1652198D01*
X3027451Y-1652117D01*
X3027451Y-1802231D01*
X3027509Y-1802201D01*
X3027255Y-1803725D01*
X3026493Y-1805249D01*
X3025477Y-1806265D01*
X3023953Y-1807027D01*
X3022429Y-1807281D01*
X3022371Y-1807311D01*
G37*
G36*
X2672359Y-1299311D02*
G01*
X2672473Y-1299281D01*
X2670949Y-1299027D01*
X2669425Y-1298265D01*
X2668409Y-1297249D01*
X2667647Y-1295725D01*
X2667393Y-1294201D01*
X2667279Y-1294231D01*
X2667279Y-1144117D01*
X2667393Y-1144198D01*
X2667647Y-1142674D01*
X2668409Y-1141150D01*
X2669425Y-1140134D01*
X2670949Y-1139372D01*
X2672473Y-1139118D01*
X2672359Y-1139037D01*
X3022371Y-1139037D01*
X3022475Y-1139118D01*
X3023999Y-1139372D01*
X3025523Y-1140134D01*
X3026539Y-1141150D01*
X3027301Y-1142674D01*
X3027555Y-1144198D01*
X3027451Y-1144117D01*
X3027451Y-1294231D01*
X3027555Y-1294201D01*
X3027301Y-1295725D01*
X3026539Y-1297249D01*
X3025523Y-1298265D01*
X3023999Y-1299027D01*
X3022475Y-1299281D01*
X3022371Y-1299311D01*
G37*
G36*
X3469919Y-1733905D02*
G01*
X3469878Y-1733854D01*
X3468354Y-1733600D01*
X3466830Y-1732838D01*
X3465814Y-1731822D01*
X3465052Y-1730298D01*
X3464798Y-1728774D01*
X3464839Y-1728825D01*
X3464839Y-658723D01*
X3464798Y-658774D01*
X3465052Y-657250D01*
X3465814Y-655726D01*
X3466830Y-654710D01*
X3468354Y-653948D01*
X3469878Y-653694D01*
X3469919Y-653643D01*
X4307865Y-653643D01*
X4307880Y-653694D01*
X4309404Y-653948D01*
X4310928Y-654710D01*
X4311944Y-655726D01*
X4312706Y-657250D01*
X4312960Y-658774D01*
X4312945Y-658723D01*
X4312945Y-1728825D01*
X4312960Y-1728774D01*
X4312706Y-1730298D01*
X4311944Y-1731822D01*
X4310928Y-1732838D01*
X4309404Y-1733600D01*
X4307880Y-1733854D01*
X4307865Y-1733905D01*
G37*
G36*
X2692679Y-1019911D02*
G01*
X2692570Y-1019881D01*
X2691046Y-1019627D01*
X2689522Y-1018865D01*
X2688506Y-1017849D01*
X2687744Y-1016325D01*
X2687490Y-1014801D01*
X2687599Y-1014831D01*
X2687599Y-864717D01*
X2687490Y-864798D01*
X2687744Y-863274D01*
X2688506Y-861750D01*
X2689522Y-860734D01*
X2691046Y-859972D01*
X2692570Y-859718D01*
X2692679Y-859637D01*
X3042691Y-859637D01*
X3042572Y-859718D01*
X3044096Y-859972D01*
X3045620Y-860734D01*
X3046636Y-861750D01*
X3047398Y-863274D01*
X3047652Y-864798D01*
X3047771Y-864717D01*
X3047771Y-1014831D01*
X3047652Y-1014801D01*
X3047398Y-1016325D01*
X3046636Y-1017849D01*
X3045620Y-1018865D01*
X3044096Y-1019627D01*
X3042572Y-1019881D01*
X3042691Y-1019911D01*
G37*
G36*
X2692425Y-1527911D02*
G01*
X2692524Y-1527881D01*
X2691000Y-1527627D01*
X2689476Y-1526865D01*
X2688460Y-1525849D01*
X2687698Y-1524325D01*
X2687444Y-1522801D01*
X2687345Y-1522831D01*
X2687345Y-1372717D01*
X2687444Y-1372798D01*
X2687698Y-1371274D01*
X2688460Y-1369750D01*
X2689476Y-1368734D01*
X2691000Y-1367972D01*
X2692524Y-1367718D01*
X2692425Y-1367637D01*
X3042437Y-1367637D01*
X3042526Y-1367718D01*
X3044050Y-1367972D01*
X3045574Y-1368734D01*
X3046590Y-1369750D01*
X3047352Y-1371274D01*
X3047606Y-1372798D01*
X3047517Y-1372717D01*
X3047517Y-1522831D01*
X3047606Y-1522801D01*
X3047352Y-1524325D01*
X3046590Y-1525849D01*
X3045574Y-1526865D01*
X3044050Y-1527627D01*
X3042526Y-1527881D01*
X3042437Y-1527911D01*
G37*
G36*
X2383561Y-877163D02*
G01*
X2383599Y-877079D01*
X2382075Y-876825D01*
X2380551Y-876063D01*
X2379535Y-875047D01*
X2378773Y-873523D01*
X2378519Y-871999D01*
X2378481Y-872083D01*
X2378481Y-731113D01*
X2378519Y-730999D01*
X2378773Y-729475D01*
X2379535Y-727951D01*
X2380551Y-726935D01*
X2382075Y-726173D01*
X2383599Y-725919D01*
X2383561Y-726033D01*
X2518689Y-726033D01*
X2518600Y-725919D01*
X2520124Y-726173D01*
X2521648Y-726935D01*
X2522664Y-727951D01*
X2523426Y-729475D01*
X2523680Y-730999D01*
X2523769Y-731113D01*
X2523769Y-872083D01*
X2523680Y-871999D01*
X2523426Y-873523D01*
X2522664Y-875047D01*
X2521648Y-876063D01*
X2520124Y-876825D01*
X2518600Y-877079D01*
X2518689Y-877163D01*
G37*
G36*
X2383561Y-671169D02*
G01*
X2383599Y-671080D01*
X2382075Y-670826D01*
X2380551Y-670064D01*
X2379535Y-669048D01*
X2378773Y-667524D01*
X2378519Y-666000D01*
X2378481Y-666089D01*
X2378481Y-525119D01*
X2378519Y-525000D01*
X2378773Y-523476D01*
X2379535Y-521952D01*
X2380551Y-520936D01*
X2382075Y-520174D01*
X2383599Y-519920D01*
X2383561Y-520039D01*
X2518689Y-520039D01*
X2518600Y-519920D01*
X2520124Y-520174D01*
X2521648Y-520936D01*
X2522664Y-521952D01*
X2523426Y-523476D01*
X2523680Y-525000D01*
X2523769Y-525119D01*
X2523769Y-666089D01*
X2523680Y-666000D01*
X2523426Y-667524D01*
X2522664Y-669048D01*
X2521648Y-670064D01*
X2520124Y-670826D01*
X2518600Y-671080D01*
X2518689Y-671169D01*
G37*
G36*
X1112499Y-758581D02*
G01*
X1110975Y-758327D01*
X1109451Y-757565D01*
X1108435Y-756549D01*
X1107673Y-755025D01*
X1107419Y-753501D01*
X1107465Y-753465D01*
X1107465Y-612495D01*
X1107419Y-612500D01*
X1107673Y-610976D01*
X1108435Y-609452D01*
X1109451Y-608436D01*
X1110975Y-607674D01*
X1112499Y-607420D01*
X1112545Y-607415D01*
X1247419Y-607415D01*
X1247500Y-607420D01*
X1249024Y-607674D01*
X1250548Y-608436D01*
X1251564Y-609452D01*
X1252326Y-610976D01*
X1252580Y-612500D01*
X1252499Y-612495D01*
X1252499Y-753465D01*
X1252580Y-753501D01*
X1252326Y-755025D01*
X1251564Y-756549D01*
X1250548Y-757565D01*
X1249024Y-758327D01*
X1247500Y-758581D01*
X1247419Y-758545D01*
X1112545Y-758545D01*
G37*
G36*
X1112499Y-552582D02*
G01*
X1110975Y-552328D01*
X1109451Y-551566D01*
X1108435Y-550550D01*
X1107673Y-549026D01*
X1107419Y-547502D01*
X1107465Y-547471D01*
X1107465Y-406501D01*
X1107419Y-406501D01*
X1107673Y-404977D01*
X1108435Y-403453D01*
X1109451Y-402437D01*
X1110975Y-401675D01*
X1112499Y-401421D01*
X1247500Y-401421D01*
X1249024Y-401675D01*
X1250548Y-402437D01*
X1251564Y-403453D01*
X1252326Y-404977D01*
X1252580Y-406501D01*
X1252499Y-406501D01*
X1252499Y-547471D01*
X1252580Y-547502D01*
X1252326Y-549026D01*
X1251564Y-550550D01*
X1250548Y-551566D01*
X1249024Y-552328D01*
X1247500Y-552582D01*
X1247419Y-552551D01*
X1112545Y-552551D01*
G37*
G36*
X572541Y-842619D02*
G01*
X572500Y-842581D01*
X570976Y-842327D01*
X569452Y-841565D01*
X568436Y-840549D01*
X567674Y-839025D01*
X567420Y-837501D01*
X567461Y-837539D01*
X567461Y-702411D01*
X567420Y-702500D01*
X567674Y-700976D01*
X568436Y-699452D01*
X569452Y-698436D01*
X570976Y-697674D01*
X572500Y-697420D01*
X572541Y-697331D01*
X713511Y-697331D01*
X713501Y-697420D01*
X715025Y-697674D01*
X716549Y-698436D01*
X717565Y-699452D01*
X718327Y-700976D01*
X718581Y-702500D01*
X718591Y-702411D01*
X718591Y-837539D01*
X718581Y-837501D01*
X718327Y-839025D01*
X717565Y-840549D01*
X716549Y-841565D01*
X715025Y-842327D01*
X713501Y-842581D01*
X713511Y-842619D01*
G37*
G36*
X366547Y-842619D02*
G01*
X366501Y-842581D01*
X364977Y-842327D01*
X363453Y-841565D01*
X362437Y-840549D01*
X361675Y-839025D01*
X361421Y-837501D01*
X361467Y-837539D01*
X361467Y-702411D01*
X361421Y-702500D01*
X361675Y-700976D01*
X362437Y-699452D01*
X363453Y-698436D01*
X364977Y-697674D01*
X366501Y-697420D01*
X366547Y-697331D01*
X507517Y-697331D01*
X507502Y-697420D01*
X509026Y-697674D01*
X510550Y-698436D01*
X511566Y-699452D01*
X512328Y-700976D01*
X512582Y-702500D01*
X512597Y-702411D01*
X512597Y-837539D01*
X512582Y-837501D01*
X512328Y-839025D01*
X511566Y-840549D01*
X510550Y-841565D01*
X509026Y-842327D01*
X507502Y-842581D01*
X507517Y-842619D01*
G37*
G36*
X1191539Y-319125D02*
G01*
X1191602Y-319079D01*
X1190078Y-318825D01*
X1188554Y-318063D01*
X1187538Y-317047D01*
X1186776Y-315523D01*
X1186522Y-313999D01*
X1186459Y-314045D01*
X1186459Y-193903D01*
X1186522Y-194000D01*
X1186776Y-192476D01*
X1187538Y-190952D01*
X1188554Y-189936D01*
X1190078Y-189174D01*
X1191602Y-188920D01*
X1191539Y-188823D01*
X1331493Y-188823D01*
X1331605Y-188920D01*
X1333129Y-189174D01*
X1334653Y-189936D01*
X1335669Y-190952D01*
X1336431Y-192476D01*
X1336685Y-194000D01*
X1336573Y-193903D01*
X1336573Y-314045D01*
X1336685Y-313999D01*
X1336431Y-315523D01*
X1335669Y-317047D01*
X1334653Y-318063D01*
X1333129Y-318825D01*
X1331605Y-319079D01*
X1331493Y-319125D01*
G37*
G36*
X1538503Y-319125D02*
G01*
X1538594Y-319079D01*
X1537070Y-318825D01*
X1535546Y-318063D01*
X1534530Y-317047D01*
X1533768Y-315523D01*
X1533514Y-313999D01*
X1533423Y-314045D01*
X1533423Y-193903D01*
X1533514Y-194000D01*
X1533768Y-192476D01*
X1534530Y-190952D01*
X1535546Y-189936D01*
X1537070Y-189174D01*
X1538594Y-188920D01*
X1538503Y-188823D01*
X1678711Y-188823D01*
X1678597Y-188920D01*
X1680121Y-189174D01*
X1681645Y-189936D01*
X1682661Y-190952D01*
X1683423Y-192476D01*
X1683677Y-194000D01*
X1683791Y-193903D01*
X1683791Y-314045D01*
X1683677Y-313999D01*
X1683423Y-315523D01*
X1682661Y-317047D01*
X1681645Y-318063D01*
X1680121Y-318825D01*
X1678597Y-319079D01*
X1678711Y-319125D01*
G37*
G36*
X2826791Y-755243D02*
G01*
X2826750Y-755233D01*
X2825226Y-754979D01*
X2823702Y-754217D01*
X2822686Y-753201D01*
X2821924Y-751677D01*
X2821670Y-750153D01*
X2821711Y-750163D01*
X2821711Y-636879D01*
X2821670Y-636899D01*
X2821924Y-635375D01*
X2822686Y-633851D01*
X2823702Y-632835D01*
X2825226Y-632073D01*
X2826750Y-631819D01*
X2826791Y-631799D01*
X2964459Y-631799D01*
X2964449Y-631819D01*
X2965973Y-632073D01*
X2967497Y-632835D01*
X2968513Y-633851D01*
X2969275Y-635375D01*
X2969529Y-636899D01*
X2969539Y-636879D01*
X2969539Y-750163D01*
X2969529Y-750153D01*
X2969275Y-751677D01*
X2968513Y-753201D01*
X2967497Y-754217D01*
X2965973Y-754979D01*
X2964449Y-755233D01*
X2964459Y-755243D01*
G37*
G36*
X2826750Y-561980D02*
G01*
X2825226Y-561726D01*
X2823702Y-560964D01*
X2822686Y-559948D01*
X2821924Y-558424D01*
X2821670Y-556900D01*
X2821711Y-556869D01*
X2821711Y-443585D01*
X2821670Y-443646D01*
X2821924Y-442122D01*
X2822686Y-440598D01*
X2823702Y-439582D01*
X2825226Y-438820D01*
X2826750Y-438566D01*
X2826791Y-438505D01*
X2964459Y-438505D01*
X2964449Y-438566D01*
X2965973Y-438820D01*
X2967497Y-439582D01*
X2968513Y-440598D01*
X2969275Y-442122D01*
X2969529Y-443646D01*
X2969539Y-443585D01*
X2969539Y-556869D01*
X2969529Y-556900D01*
X2969275Y-558424D01*
X2968513Y-559948D01*
X2967497Y-560964D01*
X2965973Y-561726D01*
X2964449Y-561980D01*
X2964459Y-561949D01*
X2826791Y-561949D01*
G37*
G36*
X1157503Y-1051915D02*
G01*
X1157599Y-1051829D01*
X1156075Y-1051575D01*
X1154551Y-1050813D01*
X1153535Y-1049797D01*
X1152773Y-1048273D01*
X1152519Y-1046749D01*
X1152423Y-1046835D01*
X1152423Y-909167D01*
X1152519Y-909050D01*
X1152773Y-907526D01*
X1153535Y-906002D01*
X1154551Y-904986D01*
X1156075Y-904224D01*
X1157599Y-903970D01*
X1157503Y-904087D01*
X1270787Y-904087D01*
X1270853Y-903970D01*
X1272377Y-904224D01*
X1273901Y-904986D01*
X1274917Y-906002D01*
X1275679Y-907526D01*
X1275933Y-909050D01*
X1275867Y-909167D01*
X1275867Y-1046835D01*
X1275933Y-1046749D01*
X1275679Y-1048273D01*
X1274917Y-1049797D01*
X1273901Y-1050813D01*
X1272377Y-1051575D01*
X1270853Y-1051829D01*
X1270787Y-1051915D01*
G37*
G36*
X964463Y-1051915D02*
G01*
X964346Y-1051829D01*
X962822Y-1051575D01*
X961298Y-1050813D01*
X960282Y-1049797D01*
X959520Y-1048273D01*
X959266Y-1046749D01*
X959383Y-1046835D01*
X959383Y-909167D01*
X959266Y-909050D01*
X959520Y-907526D01*
X960282Y-906002D01*
X961298Y-904986D01*
X962822Y-904224D01*
X964346Y-903970D01*
X964463Y-904087D01*
X1077493Y-904087D01*
X1077600Y-903970D01*
X1079124Y-904224D01*
X1080648Y-904986D01*
X1081664Y-906002D01*
X1082426Y-907526D01*
X1082680Y-909050D01*
X1082573Y-909167D01*
X1082573Y-1046835D01*
X1082680Y-1046749D01*
X1082426Y-1048273D01*
X1081664Y-1049797D01*
X1080648Y-1050813D01*
X1079124Y-1051575D01*
X1077600Y-1051829D01*
X1077493Y-1051915D01*
G37*
G36*
X3080791Y-755243D02*
G01*
X3080750Y-755233D01*
X3079226Y-754979D01*
X3077702Y-754217D01*
X3076686Y-753201D01*
X3075924Y-751677D01*
X3075670Y-750153D01*
X3075711Y-750163D01*
X3075711Y-636879D01*
X3075670Y-636899D01*
X3075924Y-635375D01*
X3076686Y-633851D01*
X3077702Y-632835D01*
X3079226Y-632073D01*
X3080750Y-631819D01*
X3080791Y-631799D01*
X3218459Y-631799D01*
X3218449Y-631819D01*
X3219973Y-632073D01*
X3221497Y-632835D01*
X3222513Y-633851D01*
X3223275Y-635375D01*
X3223529Y-636899D01*
X3223539Y-636879D01*
X3223539Y-750163D01*
X3223529Y-750153D01*
X3223275Y-751677D01*
X3222513Y-753201D01*
X3221497Y-754217D01*
X3219973Y-754979D01*
X3218449Y-755233D01*
X3218459Y-755243D01*
G37*
G36*
X3080750Y-561980D02*
G01*
X3079226Y-561726D01*
X3077702Y-560964D01*
X3076686Y-559948D01*
X3075924Y-558424D01*
X3075670Y-556900D01*
X3075711Y-556869D01*
X3075711Y-443585D01*
X3075670Y-443646D01*
X3075924Y-442122D01*
X3076686Y-440598D01*
X3077702Y-439582D01*
X3079226Y-438820D01*
X3080750Y-438566D01*
X3080791Y-438505D01*
X3218459Y-438505D01*
X3218449Y-438566D01*
X3219973Y-438820D01*
X3221497Y-439582D01*
X3222513Y-440598D01*
X3223275Y-442122D01*
X3223529Y-443646D01*
X3223539Y-443585D01*
X3223539Y-556869D01*
X3223529Y-556900D01*
X3223275Y-558424D01*
X3222513Y-559948D01*
X3221497Y-560964D01*
X3219973Y-561726D01*
X3218449Y-561980D01*
X3218459Y-561949D01*
X3080791Y-561949D01*
G37*
D11*
G01*
X955039Y-1752600D03*
G01*
X447039Y-1752600D03*
D12*
G01*
X1892300Y-2171700D03*
G01*
X1892300Y-215900D03*
G01*
X3390900Y-215900D03*
G01*
X3390900Y-2171700D03*
D11*
G01*
X4289552Y-480009D03*
G01*
X4790439Y-480009D03*
G01*
X319557Y-480009D03*
G01*
X820445Y-480009D03*
M02*
