G04 Layer: TopLayer*
G04 EasyEDA v6.5.8, 2022-07-18 23:19:08*
G04 1589dfe675ed41be9403e30dc75cfddf,10*
G04 Gerber Generator version 0.2*
G04 Scale: 100 percent, Rotated: No, Reflected: No *
G04 Dimensions in millimeters *
G04 leading zeros omitted , absolute positions ,4 integer and 5 decimal *
%FSLAX45Y45*%
%MOMM*%

%ADD10C,2.0000*%
%ADD11C,0.7000*%

%LPD*%
G36*
X2290673Y-620014D02*
G01*
X2286762Y-619252D01*
X2283460Y-617016D01*
X2281275Y-613714D01*
X2280462Y-609854D01*
X2280462Y-360426D01*
X2279954Y-354025D01*
X2279954Y-331012D01*
X2278989Y-329996D01*
X2255062Y-329946D01*
X2249728Y-329488D01*
X1989175Y-327863D01*
X1985213Y-326999D01*
X1981911Y-324662D01*
X1979777Y-321208D01*
X1979117Y-317195D01*
X1980133Y-313232D01*
X1983181Y-309524D01*
X1993595Y-298094D01*
X2002688Y-285546D01*
X2009952Y-272237D01*
X1948688Y-272237D01*
X1948688Y-317398D01*
X1947824Y-321310D01*
X1945639Y-324612D01*
X1942338Y-326796D01*
X1938477Y-327558D01*
X1846072Y-326948D01*
X1842211Y-326186D01*
X1838858Y-323951D01*
X1836674Y-320700D01*
X1835912Y-316788D01*
X1835912Y-272237D01*
X1774647Y-272237D01*
X1781911Y-285546D01*
X1790954Y-298094D01*
X1801520Y-309626D01*
X1803552Y-312978D01*
X1804111Y-316788D01*
X1803247Y-320598D01*
X1801063Y-323799D01*
X1797761Y-325932D01*
X1793900Y-326644D01*
X1690065Y-325983D01*
X1686204Y-325221D01*
X1683004Y-322986D01*
X1680768Y-319684D01*
X1679956Y-315823D01*
X1679956Y-21132D01*
X1680768Y-17221D01*
X1683004Y-13919D01*
X1686306Y-11734D01*
X1690166Y-10972D01*
X4539843Y-10668D01*
X4543704Y-11430D01*
X4547006Y-13665D01*
X4549241Y-16967D01*
X4550054Y-20828D01*
X4550054Y-273964D01*
X4549495Y-280416D01*
X4549495Y-526288D01*
X4548682Y-530199D01*
X4546498Y-533501D01*
X4463440Y-616508D01*
X4460138Y-618744D01*
X4456277Y-619506D01*
X4344568Y-619506D01*
X4340148Y-618388D01*
X4335729Y-619506D01*
X4243324Y-619506D01*
X4239107Y-618490D01*
X4234840Y-619506D01*
X3250234Y-619506D01*
X3243986Y-620014D01*
G37*

%LPC*%
G36*
X4233214Y-597662D02*
G01*
X4233214Y-536346D01*
X4172102Y-536346D01*
X4177182Y-546354D01*
X4185818Y-559155D01*
X4195927Y-570890D01*
X4207357Y-581304D01*
X4219854Y-590346D01*
G37*
G36*
X4345940Y-597458D02*
G01*
X4352544Y-594258D01*
X4365650Y-586028D01*
X4377588Y-576275D01*
X4388358Y-565200D01*
X4397756Y-552907D01*
X4405680Y-539597D01*
X4407052Y-536346D01*
X4345940Y-536346D01*
G37*
G36*
X4345940Y-423672D02*
G01*
X4407052Y-423672D01*
X4405680Y-420420D01*
X4397756Y-407111D01*
X4388358Y-394817D01*
X4377588Y-383743D01*
X4365650Y-373989D01*
X4352544Y-365709D01*
X4345940Y-362559D01*
G37*
G36*
X4172102Y-423672D02*
G01*
X4233214Y-423672D01*
X4233214Y-362305D01*
X4219854Y-369671D01*
X4207357Y-378663D01*
X4195927Y-389128D01*
X4185818Y-400812D01*
X4177182Y-413664D01*
G37*
G36*
X3447287Y-333400D02*
G01*
X3450488Y-331978D01*
X3463747Y-324104D01*
X3476091Y-314756D01*
X3487216Y-303987D01*
X3496868Y-291947D01*
X3505149Y-278892D01*
X3508298Y-272237D01*
X3447287Y-272237D01*
G37*
G36*
X3334512Y-333400D02*
G01*
X3334512Y-272237D01*
X3273450Y-272237D01*
X3276650Y-278892D01*
X3284931Y-291947D01*
X3294583Y-303987D01*
X3305708Y-314756D01*
X3318001Y-324104D01*
X3331311Y-331978D01*
G37*
G36*
X1948688Y-159562D02*
G01*
X2009698Y-159562D01*
X2006549Y-152908D01*
X1998268Y-139852D01*
X1988616Y-127812D01*
X1977491Y-117043D01*
X1965147Y-107696D01*
X1951888Y-99822D01*
X1948688Y-98399D01*
G37*
G36*
X1774850Y-159562D02*
G01*
X1835912Y-159562D01*
X1835912Y-98399D01*
X1832711Y-99822D01*
X1819402Y-107696D01*
X1807108Y-117043D01*
X1795983Y-127812D01*
X1786331Y-139852D01*
X1778050Y-152908D01*
G37*
G36*
X3447287Y-159562D02*
G01*
X3508552Y-159562D01*
X3501288Y-146253D01*
X3492195Y-133705D01*
X3481781Y-122275D01*
X3470097Y-112166D01*
X3457244Y-103530D01*
X3447287Y-98399D01*
G37*
G36*
X3273247Y-159562D02*
G01*
X3334512Y-159562D01*
X3334512Y-98399D01*
X3324504Y-103530D01*
X3311702Y-112166D01*
X3299968Y-122275D01*
X3289554Y-133705D01*
X3280511Y-146253D01*
G37*

%LPD*%
G36*
X2680208Y-1999996D02*
G01*
X2676245Y-1999234D01*
X2672943Y-1997049D01*
X2670759Y-1993747D01*
X2669997Y-1989836D01*
X2669997Y-1620164D01*
X2670759Y-1616252D01*
X2672943Y-1613001D01*
X2676245Y-1610766D01*
X2680208Y-1610004D01*
X3248964Y-1610004D01*
X3249980Y-1608988D01*
X3249980Y-660146D01*
X3250793Y-656285D01*
X3252927Y-652983D01*
X3256229Y-650798D01*
X3260191Y-649986D01*
X4478985Y-649986D01*
X4480661Y-649274D01*
X4579264Y-550722D01*
X4579975Y-548995D01*
X4579975Y-290169D01*
X4580788Y-286258D01*
X4583023Y-282956D01*
X4586325Y-280771D01*
X4590186Y-280009D01*
X4929835Y-280009D01*
X4933746Y-280771D01*
X4937048Y-282956D01*
X4939182Y-286258D01*
X4939995Y-290169D01*
X4939995Y-1985772D01*
X4939182Y-1989683D01*
X4937048Y-1992985D01*
X4932984Y-1997049D01*
X4929682Y-1999234D01*
X4925822Y-1999996D01*
G37*

%LPC*%
G36*
X4734052Y-597662D02*
G01*
X4734052Y-536346D01*
X4672939Y-536346D01*
X4678070Y-546354D01*
X4686706Y-559155D01*
X4696815Y-570890D01*
X4708194Y-581304D01*
X4720742Y-590346D01*
G37*
G36*
X4846777Y-597458D02*
G01*
X4853482Y-594258D01*
X4866538Y-586028D01*
X4878527Y-576275D01*
X4889296Y-565200D01*
X4898644Y-552907D01*
X4906518Y-539597D01*
X4907940Y-536346D01*
X4846777Y-536346D01*
G37*
G36*
X4846777Y-423672D02*
G01*
X4907940Y-423672D01*
X4906518Y-420420D01*
X4898644Y-407111D01*
X4889296Y-394817D01*
X4878527Y-383743D01*
X4866538Y-373989D01*
X4853482Y-365709D01*
X4846777Y-362559D01*
G37*
G36*
X4672939Y-423672D02*
G01*
X4734052Y-423672D01*
X4734052Y-362305D01*
X4720742Y-369671D01*
X4708194Y-378663D01*
X4696815Y-389128D01*
X4686706Y-400812D01*
X4678070Y-413664D01*
G37*

%LPD*%
G36*
X764184Y-2259990D02*
G01*
X760272Y-2259228D01*
X757021Y-2257044D01*
X652932Y-2152954D01*
X650798Y-2149703D01*
X649986Y-2145792D01*
X649986Y-360222D01*
X650798Y-356311D01*
X652983Y-353009D01*
X656285Y-350824D01*
X660196Y-350062D01*
X745947Y-350621D01*
X750062Y-351485D01*
X753465Y-354025D01*
X755548Y-357682D01*
X755954Y-361899D01*
X754684Y-365912D01*
X751738Y-369062D01*
X738225Y-378663D01*
X726795Y-389128D01*
X716686Y-400812D01*
X708050Y-413664D01*
X702970Y-423672D01*
X764082Y-423672D01*
X764082Y-360934D01*
X764844Y-357022D01*
X767130Y-353720D01*
X770432Y-351536D01*
X774293Y-350774D01*
X866698Y-351332D01*
X870559Y-352145D01*
X873861Y-354330D01*
X875995Y-357632D01*
X876808Y-361492D01*
X876808Y-423672D01*
X937920Y-423672D01*
X936548Y-420420D01*
X928624Y-407111D01*
X919327Y-394817D01*
X908558Y-383743D01*
X896518Y-373989D01*
X890625Y-370281D01*
X887577Y-367233D01*
X886002Y-363169D01*
X886307Y-358851D01*
X888390Y-355041D01*
X891895Y-352450D01*
X896112Y-351536D01*
X2239873Y-359918D01*
X2243734Y-360730D01*
X2247036Y-362915D01*
X2249220Y-366217D01*
X2249982Y-370078D01*
X2249982Y-2249830D01*
X2249220Y-2253742D01*
X2247036Y-2257044D01*
X2243734Y-2259228D01*
X2239873Y-2259990D01*
X2009038Y-2259990D01*
X2004720Y-2259025D01*
X2001215Y-2256332D01*
X1999183Y-2252421D01*
X1999030Y-2248001D01*
X2000757Y-2243937D01*
X2002688Y-2241346D01*
X2009952Y-2228037D01*
X1948688Y-2228037D01*
X1948688Y-2249830D01*
X1947875Y-2253742D01*
X1945639Y-2257044D01*
X1942338Y-2259228D01*
X1938477Y-2259990D01*
X1846072Y-2259990D01*
X1842211Y-2259228D01*
X1838909Y-2257044D01*
X1836674Y-2253742D01*
X1835912Y-2249830D01*
X1835912Y-2228037D01*
X1774647Y-2228037D01*
X1781911Y-2241346D01*
X1783791Y-2243937D01*
X1785518Y-2248001D01*
X1785416Y-2252421D01*
X1783384Y-2256332D01*
X1779828Y-2259025D01*
X1775561Y-2259990D01*
G37*

%LPC*%
G36*
X1948688Y-2115362D02*
G01*
X2009698Y-2115362D01*
X2006549Y-2108708D01*
X1998268Y-2095652D01*
X1988616Y-2083612D01*
X1977491Y-2072843D01*
X1965147Y-2063496D01*
X1951888Y-2055622D01*
X1948688Y-2054199D01*
G37*
G36*
X1774850Y-2115362D02*
G01*
X1835912Y-2115362D01*
X1835912Y-2054199D01*
X1832711Y-2055622D01*
X1819402Y-2063496D01*
X1807108Y-2072843D01*
X1795983Y-2083612D01*
X1786331Y-2095652D01*
X1778050Y-2108708D01*
G37*
G36*
X1011377Y-1870252D02*
G01*
X1024686Y-1862937D01*
X1037234Y-1853946D01*
X1048664Y-1843481D01*
X1058722Y-1831797D01*
X1067409Y-1818944D01*
X1072540Y-1808937D01*
X1011377Y-1808937D01*
G37*
G36*
X898702Y-1870049D02*
G01*
X898702Y-1808937D01*
X837488Y-1808937D01*
X838962Y-1812188D01*
X846785Y-1825498D01*
X856183Y-1837791D01*
X866952Y-1848866D01*
X878941Y-1858619D01*
X892098Y-1866849D01*
G37*
G36*
X837488Y-1696262D02*
G01*
X898702Y-1696262D01*
X898702Y-1635150D01*
X892098Y-1638350D01*
X878941Y-1646580D01*
X866952Y-1656334D01*
X856183Y-1667408D01*
X846785Y-1679702D01*
X838962Y-1693011D01*
G37*
G36*
X1011377Y-1696262D02*
G01*
X1072540Y-1696262D01*
X1067409Y-1686255D01*
X1058722Y-1673402D01*
X1048664Y-1661718D01*
X1037234Y-1651254D01*
X1024686Y-1642262D01*
X1011377Y-1634947D01*
G37*
G36*
X764082Y-597662D02*
G01*
X764082Y-536346D01*
X702970Y-536346D01*
X708050Y-546354D01*
X716686Y-559155D01*
X726795Y-570890D01*
X738225Y-581304D01*
X750824Y-590346D01*
G37*
G36*
X876808Y-597458D02*
G01*
X883412Y-594258D01*
X896518Y-586028D01*
X908558Y-576275D01*
X919327Y-565200D01*
X928624Y-552907D01*
X936548Y-539597D01*
X937920Y-536346D01*
X876808Y-536346D01*
G37*

%LPD*%
G36*
X20675Y-2590546D02*
G01*
X16814Y-2589784D01*
X13462Y-2587548D01*
X11277Y-2584297D01*
X10515Y-2580386D01*
X10515Y-21285D01*
X11277Y-17373D01*
X13462Y-14122D01*
X16814Y-11887D01*
X20675Y-11125D01*
X1639366Y-10972D01*
X1643227Y-11734D01*
X1646478Y-13919D01*
X1648764Y-17221D01*
X1649475Y-21132D01*
X1649475Y-315518D01*
X1648764Y-319430D01*
X1646478Y-322732D01*
X1643227Y-324916D01*
X1639265Y-325678D01*
X650443Y-319481D01*
X643890Y-320141D01*
X637794Y-322072D01*
X632307Y-325221D01*
X627481Y-329438D01*
X623671Y-334568D01*
X621080Y-340360D01*
X619658Y-346608D01*
X619506Y-350266D01*
X619506Y-2149602D01*
X619861Y-2154631D01*
X621538Y-2160930D01*
X624484Y-2166569D01*
X628802Y-2171954D01*
X738124Y-2281275D01*
X741984Y-2284577D01*
X747572Y-2287828D01*
X753668Y-2289810D01*
X760577Y-2290521D01*
X1836216Y-2290521D01*
X1839722Y-2291130D01*
X1854149Y-2296515D01*
X1869186Y-2300122D01*
X1884527Y-2301951D01*
X1900021Y-2301951D01*
X1915363Y-2300122D01*
X1930450Y-2296515D01*
X1944827Y-2291130D01*
X1948332Y-2290521D01*
X2249728Y-2290521D01*
X2256332Y-2289810D01*
X2262378Y-2287879D01*
X2267915Y-2284679D01*
X2272639Y-2280412D01*
X2276398Y-2275230D01*
X2278989Y-2269439D01*
X2280361Y-2263190D01*
X2280462Y-660654D01*
X2281275Y-656793D01*
X2283460Y-653491D01*
X2286762Y-651256D01*
X2290673Y-650494D01*
X3209290Y-650494D01*
X3213252Y-651256D01*
X3216554Y-653491D01*
X3218688Y-656793D01*
X3219500Y-660654D01*
X3219500Y-1569313D01*
X3218688Y-1573225D01*
X3216554Y-1576527D01*
X3213252Y-1578711D01*
X3209290Y-1579473D01*
X2670251Y-1579473D01*
X2663647Y-1580184D01*
X2657551Y-1582166D01*
X2652064Y-1585315D01*
X2647340Y-1589582D01*
X2643581Y-1594764D01*
X2640990Y-1600555D01*
X2639720Y-1606804D01*
X2639466Y-1610258D01*
X2639466Y-1999742D01*
X2640177Y-2006346D01*
X2642108Y-2012391D01*
X2645308Y-2017928D01*
X2649575Y-2022652D01*
X2654706Y-2026412D01*
X2660548Y-2029002D01*
X2666796Y-2030323D01*
X2670251Y-2030526D01*
X3340354Y-2030526D01*
X3342538Y-2030933D01*
X3344672Y-2030526D01*
X3437077Y-2030526D01*
X3439261Y-2030933D01*
X3441395Y-2030526D01*
X4929581Y-2030526D01*
X4934661Y-2030120D01*
X4940909Y-2028443D01*
X4946548Y-2025548D01*
X4951933Y-2021179D01*
X4961331Y-2011832D01*
X4964531Y-2008022D01*
X4967782Y-2002383D01*
X4969814Y-1996338D01*
X4970475Y-1989480D01*
X4970475Y-280263D01*
X4969814Y-273659D01*
X4967884Y-267614D01*
X4964633Y-262077D01*
X4960416Y-257352D01*
X4955235Y-253593D01*
X4949393Y-251002D01*
X4943144Y-249682D01*
X4939690Y-249478D01*
X4590643Y-249478D01*
X4586782Y-248716D01*
X4583480Y-246532D01*
X4581245Y-243230D01*
X4580534Y-239318D01*
X4580534Y-20828D01*
X4581245Y-16916D01*
X4583480Y-13665D01*
X4586782Y-11430D01*
X4590643Y-10668D01*
X5079390Y-10617D01*
X5083302Y-11379D01*
X5086604Y-13614D01*
X5088788Y-16865D01*
X5089550Y-20777D01*
X5089804Y-2580386D01*
X5089042Y-2584297D01*
X5086858Y-2587548D01*
X5083556Y-2589784D01*
X5079695Y-2590546D01*
G37*

%LPC*%
G36*
X3447287Y-2289200D02*
G01*
X3450488Y-2287778D01*
X3463747Y-2279904D01*
X3476091Y-2270556D01*
X3487216Y-2259787D01*
X3496868Y-2247747D01*
X3505149Y-2234692D01*
X3508298Y-2228037D01*
X3447287Y-2228037D01*
G37*
G36*
X3334512Y-2289200D02*
G01*
X3334512Y-2228037D01*
X3273450Y-2228037D01*
X3276650Y-2234692D01*
X3284931Y-2247747D01*
X3294583Y-2259787D01*
X3305708Y-2270556D01*
X3318001Y-2279904D01*
X3331311Y-2287778D01*
G37*
G36*
X3273247Y-2115362D02*
G01*
X3334512Y-2115362D01*
X3334512Y-2054199D01*
X3324504Y-2059330D01*
X3311702Y-2067966D01*
X3299968Y-2078075D01*
X3289554Y-2089505D01*
X3280511Y-2102053D01*
G37*
G36*
X3447287Y-2115362D02*
G01*
X3508552Y-2115362D01*
X3501288Y-2102053D01*
X3492195Y-2089505D01*
X3481781Y-2078075D01*
X3470097Y-2067966D01*
X3457244Y-2059330D01*
X3447287Y-2054199D01*
G37*
G36*
X503377Y-1870252D02*
G01*
X516686Y-1862937D01*
X529234Y-1853946D01*
X540664Y-1843481D01*
X550722Y-1831797D01*
X559409Y-1818944D01*
X564540Y-1808937D01*
X503377Y-1808937D01*
G37*
G36*
X390702Y-1870049D02*
G01*
X390702Y-1808937D01*
X329488Y-1808937D01*
X330962Y-1812188D01*
X338785Y-1825498D01*
X348183Y-1837791D01*
X358952Y-1848866D01*
X370941Y-1858619D01*
X384098Y-1866849D01*
G37*
G36*
X329488Y-1696262D02*
G01*
X390702Y-1696262D01*
X390702Y-1635150D01*
X384098Y-1638350D01*
X370941Y-1646580D01*
X358952Y-1656334D01*
X348183Y-1667408D01*
X338785Y-1679702D01*
X330962Y-1693011D01*
G37*
G36*
X503377Y-1696262D02*
G01*
X564540Y-1696262D01*
X559409Y-1686255D01*
X550722Y-1673402D01*
X540664Y-1661718D01*
X529234Y-1651254D01*
X516686Y-1642262D01*
X503377Y-1634947D01*
G37*
G36*
X263194Y-597662D02*
G01*
X263194Y-536346D01*
X202031Y-536346D01*
X207213Y-546354D01*
X215798Y-559155D01*
X225907Y-570890D01*
X237388Y-581304D01*
X249885Y-590346D01*
G37*
G36*
X375869Y-597458D02*
G01*
X382524Y-594258D01*
X395579Y-586028D01*
X407619Y-576275D01*
X418388Y-565200D01*
X427735Y-552907D01*
X435609Y-539597D01*
X437032Y-536346D01*
X375869Y-536346D01*
G37*
G36*
X375869Y-423672D02*
G01*
X437032Y-423672D01*
X435609Y-420420D01*
X427735Y-407111D01*
X418388Y-394817D01*
X407619Y-383743D01*
X395579Y-373989D01*
X382524Y-365709D01*
X375869Y-362559D01*
G37*
G36*
X202031Y-423672D02*
G01*
X263194Y-423672D01*
X263194Y-362305D01*
X249885Y-369671D01*
X237388Y-378663D01*
X225907Y-389128D01*
X215798Y-400812D01*
X207213Y-413664D01*
G37*

%LPD*%
D10*
G01*
X955039Y-1752600D03*
G01*
X447039Y-1752600D03*
G01*
X1892300Y-2171700D03*
G01*
X1892300Y-215900D03*
G01*
X3390900Y-215900D03*
G01*
X3390900Y-2171700D03*
G01*
X4289552Y-480009D03*
G01*
X4790439Y-480009D03*
G01*
X319557Y-480009D03*
G01*
X820445Y-480009D03*
D11*
G01*
X1829993Y-1369999D03*
G01*
X1829993Y-1170000D03*
G01*
X1829993Y-1569999D03*
G01*
X1629994Y-1369999D03*
G01*
X2029993Y-1369999D03*
G01*
X1629994Y-1170000D03*
G01*
X2029993Y-1170000D03*
G01*
X1629994Y-1569999D03*
G01*
X2029993Y-1569999D03*
G01*
X1829993Y-1170000D03*
G01*
X1629994Y-1170000D03*
G01*
X2029993Y-1170000D03*
G01*
X1629994Y-1769998D03*
G01*
X1829993Y-1769998D03*
G01*
X2029993Y-1769998D03*
G01*
X3690010Y-889990D03*
G01*
X3890009Y-889990D03*
G01*
X4090009Y-889990D03*
G01*
X4090009Y-889990D03*
G01*
X3890009Y-889990D03*
G01*
X3690010Y-889990D03*
G01*
X3690010Y-1089990D03*
G01*
X3890009Y-1089990D03*
G01*
X4090009Y-1089990D03*
G01*
X4090009Y-1289989D03*
G01*
X4090009Y-1489989D03*
G01*
X3890009Y-1489989D03*
G01*
X3890009Y-1289989D03*
G01*
X3690010Y-1289989D03*
G01*
X3690010Y-1489989D03*
G01*
X2759989Y-1724990D03*
G01*
X2924987Y-1724990D03*
G01*
X2780004Y-940003D03*
G01*
X2950006Y-940003D03*
M02*
