G04 Layer: TopSolderMaskLayer*
G04 EasyEDA v6.5.23, 2023-04-11 19:59:39*
G04 c99d532640dc4cbf880a73e467a675c2,770f52a9c06342aeb7d9f723a0e8078a,10*
G04 Gerber Generator version 0.2*
G04 Scale: 100 percent, Rotated: No, Reflected: No *
G04 Dimensions in inches *
G04 leading zeros omitted , absolute positions ,3 integer and 6 decimal *
%FSLAX36Y36*%
%MOIN*%

%AMMACRO1*1,1,$1,$2,$3*1,1,$1,$4,$5*1,1,$1,0-$2,0-$3*1,1,$1,0-$4,0-$5*20,1,$1,$2,$3,$4,$5,0*20,1,$1,$4,$5,0-$2,0-$3,0*20,1,$1,0-$2,0-$3,0-$4,0-$5,0*20,1,$1,0-$4,0-$5,$2,$3,0*4,1,4,$2,$3,$4,$5,0-$2,0-$3,0-$4,0-$5,$2,$3,0*%
%AMMACRO2*1,1,$1,$2,$3*1,1,$1,$4,$5*20,1,$1,$2,$3,$4,$5,0*%
%ADD10MACRO1,0.004X0.031X0.0335X0.031X-0.0335*%
%ADD11C,0.0709*%
%ADD12MACRO1,0.004X0.031X0.031X0.031X-0.031*%
%ADD13MACRO1,0.004X0.0335X-0.0238X-0.0335X-0.0238*%
%ADD14MACRO1,0.004X0.0335X0.0238X-0.0335X0.0238*%
%ADD15MACRO1,0.004X0.0295X-0.0276X-0.0295X-0.0276*%
%ADD16MACRO2,0.0146X-0.0171X0.0171X0.0171X-0.0171*%
%ADD17MACRO2,0.0146X-0.0171X-0.0171X0.0171X0.0171*%
%ADD18MACRO1,0.004X-0.0295X0.0276X0.0295X0.0276*%
%ADD19MACRO1,0.004X-0.034X0.0292X0.034X0.0292*%
%ADD20MACRO1,0.004X-0.034X-0.0292X0.034X-0.0292*%
%ADD21MACRO1,0.004X-0.0335X0.0238X0.0335X0.0238*%
%ADD22MACRO1,0.004X-0.0335X-0.0238X0.0335X-0.0238*%
%ADD23MACRO1,0.004X-0.0295X0.0295X0.0295X0.0295*%
%ADD24MACRO1,0.004X-0.0295X-0.0295X-0.0295X0.0295*%
%ADD25MACRO1,0.004X0.031X-0.0132X0.031X0.0132*%
%ADD26O,0.026597999999999997X0.084138*%
%ADD27MACRO1,0.0039X-0.0059X0.0226X0.0059X0.0226*%
%ADD28MACRO1,0.0039X-0.0118X0.0226X0.0118X0.0226*%
%ADD29O,0.051244000000000005X0.08274000000000001*%
%ADD30O,0.051244000000000005X0.094551*%
%ADD31MACRO1,0.004X0.0492X0.0478X0.0492X-0.0478*%
%ADD32C,0.0660*%
%ADD33MACRO1,0.004X-0.031X0.031X0.031X0.031*%
%ADD34MACRO1,0.004X0.0034X-0.0447X-0.0447X0.0034*%
%ADD35MACRO1,0.004X0.0447X-0.0034X-0.0034X0.0447*%
%ADD36MACRO1,0.004X-0.0447X-0.0034X0.0034X0.0447*%
%ADD37MACRO1,0.004X-0.0034X-0.0447X0.0447X0.0034*%
%ADD38C,0.0749*%
%ADD39C,0.0150*%

%LPD*%
D10*
G01*
X50000Y-200000D03*
D11*
G01*
X50000Y-300000D03*
D10*
G01*
X940000Y-200000D03*
D11*
G01*
X940000Y-300000D03*
D10*
G01*
X50000Y-2400000D03*
D11*
G01*
X50000Y-2500000D03*
D12*
G01*
X940000Y-2400000D03*
D11*
G01*
X940000Y-2500000D03*
D13*
G01*
X810000Y-2481781D03*
D14*
G01*
X810000Y-2598218D03*
D15*
G01*
X790000Y-2389602D03*
G01*
X790000Y-2090396D03*
G01*
X750000Y-479602D03*
G01*
X750000Y-180396D03*
D16*
G01*
X458250Y-1135130D03*
G01*
X444320Y-1149049D03*
G01*
X430409Y-1162970D03*
G01*
X416479Y-1176890D03*
G01*
X402569Y-1190809D03*
G01*
X388650Y-1204730D03*
G01*
X374730Y-1218650D03*
G01*
X360809Y-1232569D03*
G01*
X346890Y-1246479D03*
G01*
X332970Y-1260409D03*
G01*
X319049Y-1274320D03*
G01*
X305130Y-1288250D03*
D17*
G01*
X305130Y-1371760D03*
G01*
X319049Y-1385679D03*
G01*
X332970Y-1399590D03*
G01*
X346890Y-1413520D03*
G01*
X360809Y-1427430D03*
G01*
X374730Y-1441359D03*
G01*
X388650Y-1455269D03*
G01*
X402569Y-1469190D03*
G01*
X416479Y-1483109D03*
G01*
X430409Y-1497029D03*
G01*
X444320Y-1510950D03*
G01*
X458250Y-1524869D03*
D16*
G01*
X541760Y-1524869D03*
G01*
X555679Y-1510950D03*
G01*
X569590Y-1497029D03*
G01*
X583520Y-1483109D03*
G01*
X597430Y-1469190D03*
G01*
X611359Y-1455269D03*
G01*
X625269Y-1441359D03*
G01*
X639190Y-1427430D03*
G01*
X653109Y-1413520D03*
G01*
X667029Y-1399590D03*
G01*
X680950Y-1385679D03*
G01*
X694869Y-1371760D03*
D17*
G01*
X694869Y-1288250D03*
G01*
X680950Y-1274320D03*
G01*
X667029Y-1260409D03*
G01*
X653109Y-1246479D03*
G01*
X639190Y-1232569D03*
G01*
X625269Y-1218650D03*
G01*
X611359Y-1204730D03*
G01*
X597430Y-1190809D03*
G01*
X583520Y-1176890D03*
G01*
X569590Y-1162970D03*
G01*
X555679Y-1149049D03*
G01*
X541760Y-1135130D03*
D18*
G01*
X239999Y-180397D03*
G01*
X239999Y-479603D03*
D19*
G01*
X420000Y-392697D03*
D20*
G01*
X420000Y-267302D03*
D19*
G01*
X200000Y-982697D03*
D20*
G01*
X200000Y-857302D03*
D21*
G01*
X580000Y-388218D03*
D22*
G01*
X580000Y-271781D03*
D23*
G01*
X720000Y-708900D03*
G01*
X720000Y-571099D03*
G01*
X495000Y-708900D03*
G01*
X495000Y-571099D03*
G01*
X270000Y-708900D03*
G01*
X270000Y-571099D03*
D24*
G01*
X278900Y-2090000D03*
G01*
X141099Y-2090000D03*
D25*
G01*
X303397Y-1979049D03*
G01*
X303397Y-1860940D03*
G36*
X160100Y-1959400D02*
G01*
X158299Y-1959299D01*
X156399Y-1959200D01*
X154600Y-1959000D01*
X152800Y-1958699D01*
X150999Y-1958299D01*
X147399Y-1957300D01*
X144000Y-1955900D01*
X142300Y-1955100D01*
X140700Y-1954299D01*
X139099Y-1953299D01*
X137600Y-1952300D01*
X136100Y-1951199D01*
X134600Y-1950000D01*
X133299Y-1948800D01*
X131900Y-1947500D01*
X130700Y-1946199D01*
X129499Y-1944800D01*
X127300Y-1941799D01*
X126300Y-1940199D01*
X125399Y-1938600D01*
X124600Y-1936999D01*
X123800Y-1935300D01*
X123099Y-1933600D01*
X122600Y-1931799D01*
X121999Y-1930000D01*
X121599Y-1928299D01*
X121300Y-1926399D01*
X120999Y-1924600D01*
X120799Y-1922800D01*
X120799Y-1917199D01*
X120999Y-1915399D01*
X121599Y-1911799D01*
X121999Y-1910000D01*
X122600Y-1908200D01*
X123099Y-1906399D01*
X123800Y-1904699D01*
X124600Y-1903000D01*
X125399Y-1901399D01*
X126300Y-1899800D01*
X127300Y-1898200D01*
X128400Y-1896700D01*
X129499Y-1895300D01*
X130700Y-1893800D01*
X131900Y-1892500D01*
X133299Y-1891199D01*
X134600Y-1890000D01*
X136100Y-1888800D01*
X137600Y-1887699D01*
X139099Y-1886700D01*
X142300Y-1884899D01*
X144000Y-1884099D01*
X147399Y-1882699D01*
X150999Y-1881700D01*
X152800Y-1881300D01*
X154600Y-1880999D01*
X156399Y-1880799D01*
X158299Y-1880700D01*
X160100Y-1880599D01*
X233099Y-1880599D01*
X235000Y-1880700D01*
X236799Y-1880799D01*
X238600Y-1880999D01*
X240500Y-1881300D01*
X242300Y-1881700D01*
X244000Y-1882199D01*
X245799Y-1882699D01*
X249200Y-1884099D01*
X250900Y-1884899D01*
X254099Y-1886700D01*
X255700Y-1887699D01*
X257100Y-1888800D01*
X258600Y-1890000D01*
X260000Y-1891199D01*
X261300Y-1892500D01*
X262500Y-1893800D01*
X263699Y-1895300D01*
X264899Y-1896700D01*
X265900Y-1898200D01*
X266900Y-1899800D01*
X267800Y-1901399D01*
X268699Y-1903200D01*
X269099Y-1905000D01*
X336399Y-1905000D01*
X336399Y-1935000D01*
X269099Y-1935000D01*
X268699Y-1936799D01*
X267800Y-1938600D01*
X266900Y-1940199D01*
X265900Y-1941799D01*
X264899Y-1943299D01*
X263699Y-1944800D01*
X262500Y-1946199D01*
X261300Y-1947500D01*
X260000Y-1948800D01*
X258600Y-1950000D01*
X257100Y-1951199D01*
X255700Y-1952300D01*
X252500Y-1954299D01*
X250900Y-1955100D01*
X249200Y-1955900D01*
X245799Y-1957300D01*
X244000Y-1957800D01*
X242300Y-1958299D01*
X240500Y-1958699D01*
X238600Y-1959000D01*
X236799Y-1959200D01*
X235000Y-1959299D01*
X233099Y-1959400D01*
G37*
D26*
G01*
X565000Y-1978969D03*
G01*
X615000Y-1978969D03*
G01*
X665000Y-1978969D03*
G01*
X715000Y-1978969D03*
G01*
X565000Y-1761030D03*
G01*
X615000Y-1761030D03*
G01*
X665000Y-1761030D03*
G01*
X715000Y-1761030D03*
D27*
G01*
X431104Y-2422573D03*
G01*
X450788Y-2422555D03*
G01*
X470472Y-2422643D03*
G01*
X490156Y-2422569D03*
G01*
X509847Y-2422630D03*
G01*
X529527Y-2422569D03*
G01*
X549211Y-2422569D03*
G01*
X568895Y-2422569D03*
D28*
G01*
X374019Y-2422729D03*
G01*
X405510Y-2422729D03*
G01*
X594491Y-2422571D03*
G01*
X625987Y-2422572D03*
D29*
G01*
X329929Y-2617449D03*
G01*
X670079Y-2617449D03*
D30*
G01*
X670079Y-2454070D03*
G01*
X329929Y-2454070D03*
D31*
G01*
X210000Y-2559000D03*
G01*
X210000Y-2320999D03*
D32*
G01*
X700000Y-60000D03*
G01*
X600000Y-60000D03*
G01*
X500000Y-60000D03*
G01*
X400000Y-60000D03*
D33*
G01*
X300000Y-60000D03*
D32*
G01*
X50000Y-2300000D03*
G01*
X50000Y-2200000D03*
G01*
X50000Y-2100000D03*
G01*
X50000Y-2000000D03*
G01*
X50000Y-1900000D03*
G01*
X50000Y-1800000D03*
G01*
X50000Y-1700000D03*
G01*
X50000Y-1600000D03*
G01*
X50000Y-1500000D03*
G01*
X50000Y-1400000D03*
G01*
X50000Y-1300000D03*
G01*
X50000Y-1200000D03*
G01*
X50000Y-1100000D03*
G01*
X50000Y-1000000D03*
G01*
X50000Y-900000D03*
G01*
X50000Y-800000D03*
G01*
X50000Y-700000D03*
G01*
X50000Y-600000D03*
G01*
X50000Y-500000D03*
D12*
G01*
X50000Y-400000D03*
D32*
G01*
X940000Y-2300000D03*
G01*
X940000Y-2200000D03*
G01*
X940000Y-2100000D03*
G01*
X940000Y-2000000D03*
G01*
X940000Y-1900000D03*
G01*
X940000Y-1800000D03*
G01*
X940000Y-1700000D03*
G01*
X940000Y-1600000D03*
G01*
X940000Y-1500000D03*
G01*
X940000Y-1400000D03*
G01*
X940000Y-1300000D03*
G01*
X940000Y-1200000D03*
G01*
X940000Y-1100000D03*
G01*
X940000Y-1000000D03*
G01*
X940000Y-900000D03*
G01*
X940000Y-800000D03*
G01*
X940000Y-700000D03*
G01*
X940000Y-600000D03*
G01*
X940000Y-500000D03*
D12*
G01*
X940000Y-400000D03*
D34*
G01*
X354333Y-1065666D03*
D35*
G01*
X265666Y-1154333D03*
D36*
G01*
X834333Y-1244333D03*
D37*
G01*
X745666Y-1155666D03*
D38*
G01*
X403939Y-920000D03*
G01*
X596060Y-920000D03*
M02*
