M48
METRIC,LZ,000.000
;FILE_FORMAT=3:3
;TYPE=PLATED
;Layer: PTH_Through
;EasyEDA v6.5.23, 2023-09-13 20:10:37
;8cb85547c76b4b6bafe6db91d84ccfe4,770f52a9c06342aeb7d9f723a0e8078a,10
;Gerber Generator version 0.2
;Holesize 1 = 0.889 mm
T01C0.889
%
G05
G90
T01
X001397Y-029845
X001397Y-027305
X001397Y-024765
X001397Y-022225
X001397Y-019685
X001397Y-017145
X001397Y-014605
X001397Y-012065
X001397Y-009525
X001397Y-006985
X004191Y-029845
X004191Y-027305
X004191Y-024765
X004191Y-022225
X004191Y-019685
X004191Y-017145
X004191Y-014605
X004191Y-012065
X004191Y-009525
X004191Y-006985
X006985Y-001397
X006985Y-004191
X001397Y-032385
X004191Y-032385
X029845Y-037973
X027305Y-037973
X024765Y-037973
X022225Y-037973
X019685Y-037973
X017145Y-037973
X014605Y-037973
X012065Y-037973
X009525Y-037973
X006985Y-037973
X029845Y-035179
X027305Y-035179
X024765Y-035179
X022225Y-035179
X019685Y-035179
X017145Y-035179
X014605Y-035179
X012065Y-035179
X009525Y-035179
X006985Y-035179
X032385Y-037973
X032385Y-035179
X037973Y-009525
X037973Y-012065
X037973Y-014605
X037973Y-017145
X037973Y-019685
X037973Y-022225
X037973Y-024765
X037973Y-027305
X037973Y-029845
X037973Y-032385
X035179Y-009525
X035179Y-012065
X035179Y-014605
X035179Y-017145
X035179Y-019685
X035179Y-022225
X035179Y-024765
X035179Y-027305
X035179Y-029845
X035179Y-032385
X037973Y-006985
X035179Y-006985
X009525Y-001397
X012065Y-001397
X014605Y-001397
X017145Y-001397
X019685Y-001397
X022225Y-001397
X024765Y-001397
X027305Y-001397
X029845Y-001397
X032385Y-001397
X009525Y-004191
X012065Y-004191
X014605Y-004191
X017145Y-004191
X019685Y-004191
X022225Y-004191
X024765Y-004191
X027305Y-004191
X029845Y-004191
X032385Y-004191
M30
