M48
INCH,LZ
;FILE_FORMAT=2:4
;TYPE=PLATED
;Layer: PTH_Through_Via
;EasyEDA v6.5.22, 2023-04-11 13:21:22
;98130e1011dd41a8879dcb9a727c9930,770f52a9c06342aeb7d9f723a0e8078a,10
;Gerber Generator version 0.2
;Holesize 1 = 0.0120 inch
T01C0.0120
%
G05
G90
T01
X007467Y-019323
X006794Y-007603
X005724Y-010853
X007022Y-012085
X007638Y-012523
X003653Y-020711
X002597Y-013300
X004536Y-013053
X007159Y-013560
X003795Y-019510
X005149Y-010330
X004651Y-016273
X007150Y-016736
X003529Y-018427
X005284Y-003298
X001377Y-018352
X003072Y-022065
X004508Y-023390
X002611Y-006595
X004874Y-006589
X007111Y-006599
X005650Y-017024
X001966Y-018641
X006012Y-023816
X005689Y-020828
X004123Y-005189
X001149Y-005220
X004500Y-012115
X008005Y-013205
X002512Y-008988
X004336Y-022297
X005318Y-014418
X002478Y-017754
X002363Y-018632
X006042Y-015474
X006751Y-016377
X006122Y-016968
X002700Y-006191
X004950Y-006188
X007200Y-006191
X003761Y-011337
X003116Y-010261
X003742Y-005543
X006521Y-013137
X005243Y-008827
X005517Y-006263
X006128Y-013850
X007735Y-014687
X005311Y-016905
X004531Y-006144
X004064Y-010882
X001328Y-009113
M30
