M48
INCH,LZ
;FILE_FORMAT=2:4
;TYPE=PLATED
;Layer: PTH_Through
;EasyEDA v6.5.22, 2023-04-11 13:21:22
;98130e1011dd41a8879dcb9a727c9930,770f52a9c06342aeb7d9f723a0e8078a,10
;Gerber Generator version 0.2
;Holesize 1 = 0.0280 inch
T01C0.0280
;Holesize 2 = 0.0320 inch
T02C0.0320
;Holesize 3 = 0.0350 inch
T03C0.0350
;Holesize 4 = 0.0350 inch
T04C0.0350
;Holesize 5 = 0.0430 inch
T05C0.0430
%
G05
G90
T01
X006701Y-024757G85X006701Y-024324
X003299Y-024757G85X003299Y-024324
T02
X003299Y-026332G85X003299Y-026017
X006701Y-026332G85X006701Y-026017
T03
X007000Y-000600
X006000Y-000600
X005000Y-000600
X004000Y-000600
X003000Y-000600
X000500Y-023000
X000500Y-022000
X000500Y-021000
X000500Y-020000
X000500Y-019000
X000500Y-018000
X000500Y-017000
X000500Y-016000
X000500Y-015000
X000500Y-014000
X000500Y-013000
X000500Y-012000
X000500Y-011000
X000500Y-010000
X000500Y-009000
X000500Y-008000
X000500Y-007000
X000500Y-006000
X000500Y-005000
X000500Y-004000
X009400Y-023000
X009400Y-022000
X009400Y-021000
X009400Y-020000
X009400Y-019000
X009400Y-018000
X009400Y-017000
X009400Y-016000
X009400Y-015000
X009400Y-014000
X009400Y-013000
X009400Y-012000
X009400Y-011000
X009400Y-010000
X009400Y-009000
X009400Y-008000
X009400Y-007000
X009400Y-006000
X009400Y-005000
X009400Y-004000
T04
X004039Y-009200
X005961Y-009200
T05
X000500Y-002000
X000500Y-003000
X009400Y-002000
X009400Y-003000
X000500Y-024000
X000500Y-025000
X009400Y-024000
X009400Y-025000
M30
