G04 Layer: TopSilkscreenLayer*
G04 EasyEDA v6.5.22, 2023-04-11 13:21:22*
G04 98130e1011dd41a8879dcb9a727c9930,770f52a9c06342aeb7d9f723a0e8078a,10*
G04 Gerber Generator version 0.2*
G04 Scale: 100 percent, Rotated: No, Reflected: No *
G04 Dimensions in inches *
G04 leading zeros omitted , absolute positions ,3 integer and 6 decimal *
%FSLAX36Y36*%
%MOIN*%

%ADD10C,0.0060*%
%ADD11C,0.0050*%
%ADD12C,0.0080*%
%ADD13C,0.0080*%
%ADD14C,0.0100*%
%ADD15C,0.0079*%
%ADD16C,0.0130*%
%ADD17C,0.0102*%
%ADD18C,0.0157*%
%ADD19C,0.0118*%
%ADD20C,0.0162*%

%LPD*%
G36*
X523180Y-2028020D02*
G01*
X520980Y-2028500D01*
X520000Y-2030000D01*
X520200Y-2030780D01*
X520780Y-2031420D01*
X521620Y-2031840D01*
X523900Y-2032120D01*
X525280Y-2032440D01*
X526640Y-2032940D01*
X528960Y-2034040D01*
X530280Y-2034340D01*
X531600Y-2034360D01*
X532760Y-2034100D01*
X535260Y-2033140D01*
X532940Y-2031819D01*
X531920Y-2031380D01*
X530900Y-2031140D01*
X529980Y-2031120D01*
X528700Y-2031500D01*
X528100Y-2031300D01*
X527560Y-2030820D01*
X527140Y-2030080D01*
X525600Y-2028560D01*
G37*
G36*
X503700Y-2036579D02*
G01*
X501360Y-2036759D01*
X500060Y-2037160D01*
X498240Y-2037340D01*
X489300Y-2037640D01*
X485880Y-2038040D01*
X482780Y-2038660D01*
X480400Y-2039379D01*
X478340Y-2040120D01*
X476060Y-2040720D01*
X473840Y-2041140D01*
X470280Y-2041380D01*
X465600Y-2042020D01*
X460260Y-2043080D01*
X455439Y-2044319D01*
X452760Y-2045200D01*
X451060Y-2045460D01*
X450420Y-2045400D01*
X447900Y-2045640D01*
X445040Y-2046940D01*
X442660Y-2048779D01*
X441680Y-2050640D01*
X441480Y-2051639D01*
X440920Y-2052580D01*
X440100Y-2053360D01*
X438140Y-2054319D01*
X437460Y-2054960D01*
X437120Y-2055700D01*
X437180Y-2056440D01*
X437040Y-2057960D01*
X435260Y-2059160D01*
X431820Y-2060040D01*
X426659Y-2060640D01*
X424040Y-2060860D01*
X421980Y-2061140D01*
X420340Y-2061560D01*
X419000Y-2062180D01*
X417819Y-2063120D01*
X416659Y-2064460D01*
X415379Y-2066260D01*
X412380Y-2070800D01*
X411060Y-2072500D01*
X410060Y-2073520D01*
X409500Y-2073700D01*
X408980Y-2073740D01*
X408120Y-2074420D01*
X407020Y-2075600D01*
X405820Y-2077160D01*
X404340Y-2079420D01*
X403660Y-2081180D01*
X403720Y-2082820D01*
X405080Y-2086440D01*
X405319Y-2087640D01*
X405080Y-2088500D01*
X403860Y-2089620D01*
X403540Y-2090200D01*
X403459Y-2090840D01*
X403780Y-2092000D01*
X403519Y-2092560D01*
X402920Y-2093040D01*
X402020Y-2093400D01*
X400740Y-2094120D01*
X399060Y-2095620D01*
X397220Y-2097700D01*
X395400Y-2100100D01*
X393340Y-2103300D01*
X392260Y-2105640D01*
X392020Y-2107560D01*
X393020Y-2111200D01*
X393080Y-2112580D01*
X392680Y-2113760D01*
X390940Y-2115920D01*
X390540Y-2116960D01*
X390560Y-2118000D01*
X390980Y-2119100D01*
X391700Y-2121460D01*
X391460Y-2124160D01*
X390319Y-2126960D01*
X387620Y-2130700D01*
X386860Y-2132120D01*
X386040Y-2133920D01*
X384340Y-2138460D01*
X382640Y-2143880D01*
X381060Y-2149780D01*
X379700Y-2155740D01*
X378680Y-2161300D01*
X378320Y-2163820D01*
X378074Y-2166720D01*
X390520Y-2166720D01*
X390620Y-2161020D01*
X390920Y-2155440D01*
X391440Y-2150140D01*
X392160Y-2145220D01*
X392580Y-2142960D01*
X393660Y-2138560D01*
X394980Y-2134080D01*
X396440Y-2129700D01*
X398080Y-2125400D01*
X399860Y-2121200D01*
X401800Y-2117100D01*
X403880Y-2113100D01*
X406100Y-2109200D01*
X408480Y-2105420D01*
X410959Y-2101740D01*
X413600Y-2098180D01*
X416340Y-2094720D01*
X419219Y-2091399D01*
X422220Y-2088180D01*
X425319Y-2085080D01*
X428540Y-2082120D01*
X431860Y-2079300D01*
X435280Y-2076600D01*
X438800Y-2074019D01*
X442420Y-2071600D01*
X446120Y-2069300D01*
X449900Y-2067160D01*
X453760Y-2065160D01*
X457700Y-2063300D01*
X461719Y-2061600D01*
X465800Y-2060040D01*
X469960Y-2058660D01*
X474159Y-2057420D01*
X478420Y-2056360D01*
X482740Y-2055440D01*
X487120Y-2054700D01*
X491520Y-2054139D01*
X495959Y-2053740D01*
X500460Y-2053520D01*
X504960Y-2053480D01*
X509500Y-2053620D01*
X514080Y-2053959D01*
X518660Y-2054460D01*
X523280Y-2055180D01*
X527880Y-2056080D01*
X532420Y-2057200D01*
X536900Y-2058500D01*
X541300Y-2059980D01*
X545640Y-2061660D01*
X549880Y-2063500D01*
X554060Y-2065520D01*
X558140Y-2067720D01*
X562120Y-2070080D01*
X566020Y-2072600D01*
X569800Y-2075280D01*
X573480Y-2078120D01*
X577040Y-2081100D01*
X580480Y-2084220D01*
X583820Y-2087480D01*
X587000Y-2090880D01*
X590060Y-2094420D01*
X593000Y-2098060D01*
X595780Y-2101840D01*
X598400Y-2105740D01*
X600880Y-2109740D01*
X603220Y-2113840D01*
X605380Y-2118060D01*
X607360Y-2122380D01*
X609200Y-2126780D01*
X610840Y-2131280D01*
X612300Y-2135860D01*
X613480Y-2140200D01*
X614360Y-2144480D01*
X615080Y-2149060D01*
X615620Y-2153880D01*
X616000Y-2158860D01*
X616180Y-2163940D01*
X616200Y-2169040D01*
X616020Y-2174100D01*
X615680Y-2179060D01*
X615160Y-2183840D01*
X614460Y-2188400D01*
X613580Y-2192620D01*
X612400Y-2197000D01*
X610920Y-2201700D01*
X609280Y-2206280D01*
X607460Y-2210760D01*
X605480Y-2215120D01*
X603340Y-2219380D01*
X601060Y-2223500D01*
X598620Y-2227520D01*
X596020Y-2231400D01*
X593280Y-2235160D01*
X590400Y-2238780D01*
X587380Y-2242280D01*
X584200Y-2245660D01*
X580900Y-2248880D01*
X577460Y-2251960D01*
X573900Y-2254920D01*
X570200Y-2257720D01*
X566400Y-2260380D01*
X562440Y-2262880D01*
X558380Y-2265240D01*
X554200Y-2267460D01*
X549920Y-2269500D01*
X545520Y-2271380D01*
X541000Y-2273120D01*
X536380Y-2274680D01*
X531660Y-2276080D01*
X526840Y-2277300D01*
X521920Y-2278360D01*
X517100Y-2279200D01*
X512380Y-2279780D01*
X507580Y-2280100D01*
X502740Y-2280160D01*
X497860Y-2280000D01*
X492960Y-2279600D01*
X488040Y-2278960D01*
X483120Y-2278100D01*
X478200Y-2277000D01*
X473320Y-2275700D01*
X468459Y-2274180D01*
X463660Y-2272440D01*
X458920Y-2270500D01*
X454260Y-2268340D01*
X449700Y-2266000D01*
X445220Y-2263440D01*
X440860Y-2260700D01*
X436640Y-2257780D01*
X432540Y-2254680D01*
X428600Y-2251380D01*
X425000Y-2248080D01*
X421700Y-2244760D01*
X418519Y-2241260D01*
X415480Y-2237600D01*
X412560Y-2233800D01*
X409780Y-2229860D01*
X407160Y-2225800D01*
X404700Y-2221620D01*
X402400Y-2217340D01*
X400280Y-2212980D01*
X398340Y-2208540D01*
X396580Y-2204040D01*
X395020Y-2199500D01*
X393660Y-2194920D01*
X392580Y-2190480D01*
X391760Y-2185820D01*
X391160Y-2180680D01*
X390740Y-2175220D01*
X390540Y-2169580D01*
X390520Y-2166720D01*
X378074Y-2166720D01*
X378040Y-2170120D01*
X378240Y-2174400D01*
X378600Y-2178860D01*
X379140Y-2183460D01*
X379860Y-2188160D01*
X380740Y-2192920D01*
X381760Y-2197720D01*
X382939Y-2202500D01*
X384260Y-2207240D01*
X385700Y-2211880D01*
X387260Y-2216420D01*
X388940Y-2220780D01*
X394560Y-2234020D01*
X411740Y-2243160D01*
X411900Y-2247820D01*
X411880Y-2249940D01*
X411620Y-2251260D01*
X411100Y-2251840D01*
X410280Y-2251780D01*
X409580Y-2251620D01*
X409020Y-2251660D01*
X408640Y-2251920D01*
X408500Y-2252340D01*
X409300Y-2253680D01*
X411180Y-2254980D01*
X413320Y-2255840D01*
X414900Y-2255800D01*
X415760Y-2255900D01*
X417160Y-2256660D01*
X418920Y-2257940D01*
X420840Y-2259520D01*
X422680Y-2261240D01*
X424240Y-2262900D01*
X425340Y-2264340D01*
X425760Y-2265360D01*
X426300Y-2267140D01*
X427819Y-2269200D01*
X430000Y-2271320D01*
X432640Y-2273360D01*
X435460Y-2275140D01*
X438200Y-2276440D01*
X440620Y-2277140D01*
X442480Y-2277040D01*
X444380Y-2277520D01*
X446280Y-2279780D01*
X447740Y-2283140D01*
X448320Y-2286820D01*
X448640Y-2289520D01*
X449520Y-2290680D01*
X450800Y-2290260D01*
X452299Y-2288180D01*
X453740Y-2285520D01*
X457620Y-2287520D01*
X459240Y-2288500D01*
X460760Y-2289680D01*
X462020Y-2290880D01*
X462819Y-2292000D01*
X463840Y-2293180D01*
X465620Y-2294600D01*
X467920Y-2296040D01*
X470500Y-2297380D01*
X475959Y-2300000D01*
X480180Y-2302200D01*
X481440Y-2302700D01*
X483240Y-2303120D01*
X485500Y-2303480D01*
X490760Y-2303960D01*
X496220Y-2304120D01*
X500860Y-2303920D01*
X502560Y-2303680D01*
X503680Y-2303320D01*
X504080Y-2302860D01*
X504260Y-2302400D01*
X504760Y-2302040D01*
X505500Y-2301800D01*
X508060Y-2301680D01*
X514440Y-2300860D01*
X528060Y-2298540D01*
X530620Y-2292860D01*
X531220Y-2291900D01*
X531660Y-2291520D01*
X532160Y-2292480D01*
X532940Y-2293000D01*
X534060Y-2293360D01*
X535420Y-2293500D01*
X537220Y-2293420D01*
X538020Y-2293120D01*
X537940Y-2292460D01*
X536260Y-2290120D01*
X536440Y-2289540D01*
X537860Y-2289480D01*
X543480Y-2290080D01*
X545320Y-2289980D01*
X546480Y-2289480D01*
X547120Y-2288600D01*
X547360Y-2287740D01*
X547460Y-2286880D01*
X547420Y-2286100D01*
X547220Y-2285520D01*
X547340Y-2284800D01*
X548200Y-2283620D01*
X549640Y-2282140D01*
X551520Y-2280540D01*
X553580Y-2279100D01*
X555760Y-2277860D01*
X557980Y-2276820D01*
X560100Y-2276060D01*
X562020Y-2275600D01*
X563620Y-2275440D01*
X564780Y-2275680D01*
X565380Y-2276300D01*
X565840Y-2276480D01*
X566880Y-2276200D01*
X568420Y-2275460D01*
X570360Y-2274360D01*
X575120Y-2271280D01*
X580440Y-2267420D01*
X583120Y-2265360D01*
X588020Y-2261240D01*
X591680Y-2257720D01*
X594660Y-2254620D01*
X597480Y-2251500D01*
X600160Y-2248300D01*
X602740Y-2244960D01*
X605280Y-2241400D01*
X607820Y-2237560D01*
X610400Y-2233380D01*
X613060Y-2228800D01*
X615860Y-2223720D01*
X623680Y-2208540D01*
X624740Y-2205880D01*
X625700Y-2202520D01*
X626520Y-2198560D01*
X627200Y-2194120D01*
X627740Y-2189300D01*
X628120Y-2184220D01*
X628360Y-2178940D01*
X628420Y-2173620D01*
X628340Y-2168320D01*
X628060Y-2163180D01*
X627600Y-2158300D01*
X626140Y-2148640D01*
X625580Y-2144300D01*
X625300Y-2141200D01*
X625480Y-2139060D01*
X625300Y-2137900D01*
X624860Y-2136420D01*
X623340Y-2132720D01*
X621160Y-2126720D01*
X619040Y-2120480D01*
X617820Y-2117460D01*
X616600Y-2114820D01*
X614940Y-2112100D01*
X605460Y-2097700D01*
X602620Y-2093660D01*
X599900Y-2090060D01*
X597640Y-2087360D01*
X595180Y-2084800D01*
X593480Y-2082720D01*
X591900Y-2080520D01*
X589460Y-2076620D01*
X588120Y-2075040D01*
X586780Y-2073880D01*
X585600Y-2073340D01*
X584260Y-2072900D01*
X582540Y-2072060D01*
X580620Y-2070920D01*
X576760Y-2068260D01*
X574600Y-2066940D01*
X572480Y-2065820D01*
X570700Y-2065060D01*
X566980Y-2063779D01*
X567880Y-2050940D01*
X561520Y-2048500D01*
X553340Y-2045120D01*
X549320Y-2043680D01*
X544900Y-2042340D01*
X540120Y-2041100D01*
X535020Y-2040000D01*
X529620Y-2039019D01*
X523920Y-2038180D01*
X518060Y-2037480D01*
X512460Y-2036960D01*
X507540Y-2036660D01*
G37*
G36*
X539120Y-2083820D02*
G01*
X535780Y-2084220D01*
X533580Y-2085420D01*
X532980Y-2086540D01*
X532360Y-2088340D01*
X531740Y-2090600D01*
X530920Y-2094840D01*
X529980Y-2098480D01*
X528700Y-2102200D01*
X527060Y-2105960D01*
X525080Y-2109760D01*
X522780Y-2113620D01*
X520160Y-2117500D01*
X517220Y-2121400D01*
X513960Y-2125320D01*
X510379Y-2129220D01*
X506640Y-2133040D01*
X503620Y-2135940D01*
X502380Y-2136940D01*
X501320Y-2137640D01*
X500400Y-2138000D01*
X499600Y-2138000D01*
X498880Y-2137640D01*
X498260Y-2136880D01*
X497660Y-2135700D01*
X497120Y-2134120D01*
X496019Y-2129560D01*
X493180Y-2114760D01*
X492140Y-2110780D01*
X491100Y-2107540D01*
X490160Y-2105520D01*
X488940Y-2103900D01*
X487620Y-2102580D01*
X486200Y-2101520D01*
X484700Y-2100780D01*
X483140Y-2100300D01*
X481520Y-2100120D01*
X479860Y-2100220D01*
X478180Y-2100620D01*
X476480Y-2101300D01*
X474799Y-2102260D01*
X473120Y-2103520D01*
X471480Y-2105080D01*
X467720Y-2109000D01*
X469820Y-2121340D01*
X470900Y-2126860D01*
X472220Y-2133000D01*
X474960Y-2144400D01*
X476980Y-2153460D01*
X477460Y-2156320D01*
X477520Y-2157120D01*
X477120Y-2158600D01*
X476019Y-2160640D01*
X474400Y-2162980D01*
X470680Y-2167280D01*
X467540Y-2171260D01*
X466120Y-2173280D01*
X464799Y-2175340D01*
X463579Y-2177440D01*
X462460Y-2179580D01*
X460500Y-2184000D01*
X458900Y-2188620D01*
X458240Y-2191000D01*
X457460Y-2194400D01*
X456980Y-2197240D01*
X456820Y-2199580D01*
X456980Y-2201440D01*
X457460Y-2202840D01*
X458280Y-2203820D01*
X459440Y-2204380D01*
X460920Y-2204560D01*
X462879Y-2204300D01*
X464180Y-2203100D01*
X465200Y-2200300D01*
X466300Y-2195260D01*
X466840Y-2193300D01*
X467720Y-2190960D01*
X468880Y-2188360D01*
X471780Y-2182780D01*
X475060Y-2177400D01*
X476680Y-2175020D01*
X478220Y-2173000D01*
X479580Y-2171420D01*
X480740Y-2170400D01*
X481620Y-2170040D01*
X482239Y-2170800D01*
X483300Y-2172820D01*
X484680Y-2175840D01*
X487340Y-2182100D01*
X488640Y-2184860D01*
X491680Y-2190620D01*
X495080Y-2196340D01*
X498540Y-2201580D01*
X500200Y-2203880D01*
X501780Y-2205880D01*
X503240Y-2207540D01*
X504540Y-2208800D01*
X506580Y-2210420D01*
X508800Y-2211900D01*
X511120Y-2213220D01*
X513480Y-2214340D01*
X515840Y-2215260D01*
X518140Y-2215940D01*
X520340Y-2216360D01*
X522400Y-2216500D01*
X524120Y-2216400D01*
X525920Y-2216120D01*
X527740Y-2215680D01*
X529600Y-2215060D01*
X531480Y-2214280D01*
X533340Y-2213340D01*
X535200Y-2212280D01*
X537040Y-2211100D01*
X538820Y-2209800D01*
X540560Y-2208380D01*
X542220Y-2206860D01*
X543800Y-2205260D01*
X545280Y-2203580D01*
X546640Y-2201840D01*
X547880Y-2200020D01*
X548980Y-2198160D01*
X550240Y-2195640D01*
X551020Y-2193500D01*
X551400Y-2191740D01*
X551360Y-2190380D01*
X550940Y-2189420D01*
X550180Y-2188860D01*
X549080Y-2188720D01*
X547680Y-2189000D01*
X545980Y-2189720D01*
X544040Y-2190900D01*
X541860Y-2192520D01*
X536660Y-2197040D01*
X534160Y-2198820D01*
X531840Y-2199980D01*
X529700Y-2200520D01*
X527640Y-2200420D01*
X525620Y-2199720D01*
X523579Y-2198400D01*
X521440Y-2196500D01*
X520500Y-2195480D01*
X518519Y-2192860D01*
X516420Y-2189520D01*
X514260Y-2185540D01*
X512060Y-2181040D01*
X509860Y-2176080D01*
X507740Y-2170800D01*
X505720Y-2165260D01*
X501200Y-2151460D01*
X506700Y-2146880D01*
X513860Y-2140380D01*
X522560Y-2132200D01*
X529600Y-2125760D01*
X531620Y-2124100D01*
X532540Y-2123540D01*
X532920Y-2123140D01*
X533180Y-2122640D01*
X533580Y-2121220D01*
X534440Y-2119660D01*
X535680Y-2117680D01*
X539020Y-2112760D01*
X540660Y-2109900D01*
X542140Y-2106920D01*
X543420Y-2103900D01*
X544500Y-2100900D01*
X545360Y-2097960D01*
X545980Y-2095160D01*
X546340Y-2092560D01*
X546440Y-2090220D01*
X546240Y-2088200D01*
X545760Y-2086560D01*
X544960Y-2085360D01*
X542540Y-2084180D01*
G37*
G36*
X631120Y-2133460D02*
G01*
X630500Y-2133500D01*
X629920Y-2133780D01*
X629480Y-2134280D01*
X629040Y-2135620D01*
X629440Y-2136500D01*
X630400Y-2136680D01*
X631640Y-2135920D01*
X632180Y-2135240D01*
X632380Y-2134640D01*
X632220Y-2134120D01*
X631720Y-2133660D01*
G37*
G36*
X373980Y-2139520D02*
G01*
X373459Y-2139620D01*
X373040Y-2139920D01*
X372760Y-2140380D01*
X372660Y-2140920D01*
X372760Y-2141400D01*
X373040Y-2141680D01*
X373459Y-2141720D01*
X373980Y-2141500D01*
X374920Y-2140760D01*
X375200Y-2140400D01*
X375300Y-2140100D01*
X375200Y-2139880D01*
X374920Y-2139680D01*
G37*
G36*
X373400Y-2208540D02*
G01*
X373100Y-2208640D01*
X372740Y-2208920D01*
X372000Y-2209860D01*
X371780Y-2210380D01*
X371820Y-2210800D01*
X372100Y-2211100D01*
X372580Y-2211200D01*
X373120Y-2211100D01*
X373560Y-2210800D01*
X373880Y-2210380D01*
X373980Y-2209860D01*
X373820Y-2208920D01*
X373620Y-2208640D01*
G37*
G36*
X442740Y-2228400D02*
G01*
X441480Y-2228540D01*
X439620Y-2229600D01*
X437760Y-2231360D01*
X435400Y-2234260D01*
X433860Y-2231360D01*
X432380Y-2229600D01*
X430580Y-2228560D01*
X429060Y-2228420D01*
X428440Y-2229440D01*
X428640Y-2230100D01*
X430020Y-2232380D01*
X433540Y-2237040D01*
X430860Y-2241380D01*
X429640Y-2243520D01*
X429120Y-2244840D01*
X429280Y-2245520D01*
X430120Y-2245700D01*
X431040Y-2245480D01*
X432060Y-2244840D01*
X433100Y-2243900D01*
X434020Y-2242760D01*
X435980Y-2239820D01*
X437540Y-2242760D01*
X438320Y-2243900D01*
X439260Y-2244840D01*
X440240Y-2245480D01*
X441140Y-2245700D01*
X442100Y-2245580D01*
X442400Y-2245020D01*
X441980Y-2243840D01*
X439680Y-2239600D01*
X439240Y-2237920D01*
X439480Y-2236260D01*
X440400Y-2234160D01*
X442740Y-2229440D01*
G37*
G36*
X567780Y-2228460D02*
G01*
X566240Y-2228560D01*
X564980Y-2228840D01*
X564120Y-2229260D01*
X563800Y-2229780D01*
X563960Y-2230300D01*
X564380Y-2230720D01*
X565020Y-2231000D01*
X565800Y-2231100D01*
X566760Y-2231460D01*
X567360Y-2232660D01*
X567700Y-2234900D01*
X567780Y-2238400D01*
X567780Y-2245700D01*
X573500Y-2245700D01*
X577460Y-2245380D01*
X580220Y-2244360D01*
X581860Y-2242640D01*
X582380Y-2240180D01*
X581740Y-2238260D01*
X579980Y-2236640D01*
X577480Y-2235520D01*
X573220Y-2234920D01*
X572380Y-2234360D01*
X571920Y-2233340D01*
X571620Y-2230060D01*
X571040Y-2229060D01*
X569820Y-2228580D01*
G37*
G36*
X542760Y-2233500D02*
G01*
X542000Y-2233840D01*
X541240Y-2234800D01*
X540160Y-2237440D01*
X539620Y-2238300D01*
X539040Y-2238860D01*
X538500Y-2239080D01*
X538020Y-2238860D01*
X537620Y-2238300D01*
X537360Y-2237440D01*
X537160Y-2235380D01*
X536860Y-2234540D01*
X536440Y-2233980D01*
X535920Y-2233760D01*
X535420Y-2234240D01*
X535000Y-2235520D01*
X534700Y-2237420D01*
X534600Y-2239740D01*
X534740Y-2241920D01*
X535100Y-2243680D01*
X535640Y-2244960D01*
X536300Y-2245720D01*
X537060Y-2245960D01*
X537820Y-2245620D01*
X538580Y-2244660D01*
X539680Y-2242020D01*
X540200Y-2241180D01*
X540780Y-2240600D01*
X541320Y-2240400D01*
X541800Y-2240600D01*
X542200Y-2241180D01*
X542460Y-2242020D01*
X542680Y-2244080D01*
X542960Y-2244920D01*
X543380Y-2245500D01*
X543900Y-2245700D01*
X544400Y-2245240D01*
X544840Y-2243960D01*
X545120Y-2242060D01*
X545220Y-2239740D01*
X545080Y-2237560D01*
X544720Y-2235800D01*
X544180Y-2234520D01*
X543520Y-2233740D01*
G37*
G36*
X444980Y-2233520D02*
G01*
X444340Y-2234560D01*
X444980Y-2236480D01*
X447560Y-2242420D01*
X448000Y-2244240D01*
X447879Y-2245740D01*
X447220Y-2247180D01*
X446079Y-2249140D01*
X445780Y-2250320D01*
X446320Y-2250880D01*
X447720Y-2251020D01*
X448740Y-2250580D01*
X449900Y-2249380D01*
X451120Y-2247600D01*
X452239Y-2245380D01*
X454580Y-2239640D01*
X455700Y-2236100D01*
X455640Y-2234280D01*
X454520Y-2233760D01*
X453700Y-2234040D01*
X452879Y-2234840D01*
X452140Y-2236000D01*
X451620Y-2237420D01*
X450640Y-2241060D01*
X449380Y-2237420D01*
X448140Y-2235320D01*
X446460Y-2233900D01*
G37*
G36*
X488140Y-2233600D02*
G01*
X488140Y-2242300D01*
X488240Y-2246560D01*
X488540Y-2249240D01*
X489159Y-2250620D01*
X490140Y-2251020D01*
X490920Y-2250820D01*
X491540Y-2250240D01*
X491960Y-2249400D01*
X492299Y-2247120D01*
X492860Y-2246300D01*
X493880Y-2245840D01*
X497020Y-2245520D01*
X498180Y-2244940D01*
X499000Y-2243840D01*
X499600Y-2242180D01*
X499880Y-2238880D01*
X498880Y-2236420D01*
X496580Y-2234800D01*
X492980Y-2234020D01*
G37*
G36*
X464920Y-2233760D02*
G01*
X462600Y-2233860D01*
X460700Y-2234160D01*
X459400Y-2234580D01*
X458940Y-2235080D01*
X459099Y-2235600D01*
X459520Y-2236020D01*
X460160Y-2236320D01*
X460920Y-2236420D01*
X461820Y-2236680D01*
X462440Y-2237520D01*
X462800Y-2238960D01*
X463020Y-2242860D01*
X463320Y-2244340D01*
X463740Y-2245340D01*
X464240Y-2245700D01*
X464760Y-2245340D01*
X465180Y-2244340D01*
X465480Y-2242860D01*
X465680Y-2238740D01*
X466100Y-2237320D01*
X466900Y-2236620D01*
X469260Y-2236320D01*
X470100Y-2236020D01*
X470680Y-2235600D01*
X470880Y-2235080D01*
X470420Y-2234580D01*
X469140Y-2234160D01*
X467239Y-2233860D01*
G37*
G36*
X514700Y-2233760D02*
G01*
X508560Y-2233960D01*
X505379Y-2234380D01*
X504400Y-2234640D01*
X503240Y-2235880D01*
X502780Y-2237820D01*
X503060Y-2239620D01*
X504120Y-2240400D01*
X504640Y-2240560D01*
X504799Y-2241060D01*
X504620Y-2241880D01*
X504080Y-2243060D01*
X503560Y-2244920D01*
X504280Y-2245760D01*
X505860Y-2245500D01*
X507960Y-2244040D01*
X508840Y-2243300D01*
X509480Y-2243060D01*
X509940Y-2243300D01*
X510700Y-2244700D01*
X511300Y-2245220D01*
X512040Y-2245580D01*
X512800Y-2245700D01*
X513680Y-2245380D01*
X514260Y-2244320D01*
X514580Y-2242460D01*
X514700Y-2239740D01*
G37*
G36*
X520660Y-2233760D02*
G01*
X519739Y-2234080D01*
X519120Y-2235080D01*
X518780Y-2236940D01*
X518680Y-2239740D01*
X518780Y-2242540D01*
X519120Y-2244380D01*
X519739Y-2245400D01*
X520660Y-2245700D01*
X521440Y-2245560D01*
X522080Y-2245120D01*
X522500Y-2244500D01*
X522819Y-2242940D01*
X523240Y-2242320D01*
X523880Y-2241880D01*
X524640Y-2241720D01*
X525420Y-2241880D01*
X526060Y-2242320D01*
X526480Y-2242940D01*
X526800Y-2244500D01*
X527220Y-2245120D01*
X527860Y-2245560D01*
X528620Y-2245700D01*
X529560Y-2245400D01*
X530180Y-2244380D01*
X530520Y-2242540D01*
X530620Y-2239740D01*
X530520Y-2236940D01*
X530180Y-2235080D01*
X529560Y-2234080D01*
X528620Y-2233760D01*
X527860Y-2233960D01*
X527220Y-2234540D01*
X526800Y-2235380D01*
X526480Y-2237460D01*
X526060Y-2238300D01*
X525420Y-2238860D01*
X524640Y-2239080D01*
X523860Y-2238860D01*
X523240Y-2238300D01*
X522819Y-2237460D01*
X522500Y-2235380D01*
X522080Y-2234540D01*
X521440Y-2233960D01*
G37*
G36*
X551200Y-2233760D02*
G01*
X550260Y-2234080D01*
X549640Y-2235080D01*
X549300Y-2236940D01*
X549200Y-2239740D01*
X549300Y-2242540D01*
X549640Y-2244380D01*
X550260Y-2245400D01*
X551200Y-2245700D01*
X551960Y-2245560D01*
X552600Y-2245120D01*
X553020Y-2244500D01*
X553340Y-2242940D01*
X553780Y-2242320D01*
X554400Y-2241880D01*
X555180Y-2241720D01*
X555960Y-2241880D01*
X556580Y-2242320D01*
X557020Y-2242940D01*
X557320Y-2244500D01*
X557760Y-2245120D01*
X558380Y-2245560D01*
X559160Y-2245700D01*
X560100Y-2245400D01*
X560700Y-2244380D01*
X561040Y-2242540D01*
X561140Y-2239740D01*
X561040Y-2236940D01*
X560700Y-2235080D01*
X560100Y-2234080D01*
X559160Y-2233760D01*
X558380Y-2233960D01*
X557740Y-2234540D01*
X557320Y-2235380D01*
X557020Y-2237460D01*
X556580Y-2238300D01*
X555960Y-2238860D01*
X555180Y-2239080D01*
X554400Y-2238860D01*
X553760Y-2238300D01*
X553340Y-2237460D01*
X553040Y-2235380D01*
X552600Y-2234540D01*
X551980Y-2233960D01*
G37*
G36*
X479380Y-2233800D02*
G01*
X476320Y-2233980D01*
X473800Y-2235360D01*
X472660Y-2237300D01*
X472260Y-2239740D01*
X472660Y-2242180D01*
X473800Y-2244120D01*
X474720Y-2244740D01*
X476040Y-2245240D01*
X477560Y-2245580D01*
X479140Y-2245700D01*
X480820Y-2245500D01*
X482260Y-2244900D01*
X483459Y-2243960D01*
X484340Y-2242760D01*
X484900Y-2241380D01*
X485100Y-2239840D01*
X484880Y-2238220D01*
X484240Y-2236580D01*
X482280Y-2234680D01*
G37*
G36*
X408420Y-2244380D02*
G01*
X407939Y-2244480D01*
X407660Y-2244780D01*
X407620Y-2245200D01*
X407840Y-2245700D01*
X408579Y-2246640D01*
X408940Y-2246940D01*
X409240Y-2247040D01*
X409460Y-2246940D01*
X409660Y-2246640D01*
X409820Y-2245700D01*
X409720Y-2245200D01*
X409400Y-2244780D01*
X408960Y-2244480D01*
G37*
G36*
X431440Y-2285180D02*
G01*
X430800Y-2288540D01*
X430680Y-2291240D01*
X431240Y-2293700D01*
X432340Y-2295460D01*
X433780Y-2296160D01*
X434739Y-2295460D01*
X434940Y-2293640D01*
X434420Y-2291140D01*
X433200Y-2288340D01*
G37*
D10*
X780000Y-2514600D02*
G01*
X780000Y-2557500D01*
X780000Y-2514600D02*
G01*
X798400Y-2514600D01*
X804499Y-2516599D01*
X806599Y-2518699D01*
X808599Y-2522800D01*
X808599Y-2526900D01*
X806599Y-2530999D01*
X804499Y-2533000D01*
X798400Y-2535000D01*
X780000Y-2535000D01*
X794300Y-2535000D02*
G01*
X808599Y-2557500D01*
X848699Y-2528899D02*
G01*
X846700Y-2535000D01*
X842600Y-2539099D01*
X836499Y-2541199D01*
X834399Y-2541199D01*
X828299Y-2539099D01*
X824200Y-2535000D01*
X822100Y-2528899D01*
X822100Y-2526900D01*
X824200Y-2520700D01*
X828299Y-2516599D01*
X834399Y-2514600D01*
X836499Y-2514600D01*
X842600Y-2516599D01*
X846700Y-2520700D01*
X848699Y-2528899D01*
X848699Y-2539099D01*
X846700Y-2549400D01*
X842600Y-2555500D01*
X836499Y-2557500D01*
X832399Y-2557500D01*
X826199Y-2555500D01*
X824200Y-2551399D01*
D11*
X679699Y-2280000D02*
G01*
X708400Y-2280000D01*
X679699Y-2280000D02*
G01*
X679699Y-2267700D01*
X681100Y-2263600D01*
X682500Y-2262300D01*
X685199Y-2260900D01*
X687899Y-2260900D01*
X690599Y-2262300D01*
X691999Y-2263600D01*
X693400Y-2267700D01*
X693400Y-2280000D02*
G01*
X693400Y-2267700D01*
X694699Y-2263600D01*
X696100Y-2262300D01*
X698800Y-2260900D01*
X702899Y-2260900D01*
X705599Y-2262300D01*
X706999Y-2263600D01*
X708400Y-2267700D01*
X708400Y-2280000D01*
X679699Y-2243699D02*
G01*
X681100Y-2246500D01*
X683800Y-2249200D01*
X686500Y-2250500D01*
X690599Y-2251900D01*
X697500Y-2251900D01*
X701500Y-2250500D01*
X704299Y-2249200D01*
X706999Y-2246500D01*
X708400Y-2243699D01*
X708400Y-2238299D01*
X706999Y-2235500D01*
X704299Y-2232800D01*
X701500Y-2231500D01*
X697500Y-2230100D01*
X690599Y-2230100D01*
X686500Y-2231500D01*
X683800Y-2232800D01*
X681100Y-2235500D01*
X679699Y-2238299D01*
X679699Y-2243699D01*
X679699Y-2212899D02*
G01*
X681100Y-2215599D01*
X683800Y-2218400D01*
X686500Y-2219699D01*
X690599Y-2221100D01*
X697500Y-2221100D01*
X701500Y-2219699D01*
X704299Y-2218400D01*
X706999Y-2215599D01*
X708400Y-2212899D01*
X708400Y-2207500D01*
X706999Y-2204699D01*
X704299Y-2201999D01*
X701500Y-2200599D01*
X697500Y-2199299D01*
X690599Y-2199299D01*
X686500Y-2200599D01*
X683800Y-2201999D01*
X681100Y-2204699D01*
X679699Y-2207500D01*
X679699Y-2212899D01*
X679699Y-2180700D02*
G01*
X708400Y-2180700D01*
X679699Y-2190300D02*
G01*
X679699Y-2171199D01*
X679699Y-2154000D02*
G01*
X681100Y-2158099D01*
X685199Y-2160799D01*
X691999Y-2162199D01*
X696100Y-2162199D01*
X702899Y-2160799D01*
X706999Y-2158099D01*
X708400Y-2154000D01*
X708400Y-2151300D01*
X706999Y-2147199D01*
X702899Y-2144499D01*
X696100Y-2143099D01*
X691999Y-2143099D01*
X685199Y-2144499D01*
X681100Y-2147199D01*
X679699Y-2151300D01*
X679699Y-2154000D01*
D10*
X785000Y-469699D02*
G01*
X785000Y-498400D01*
X785000Y-469699D02*
G01*
X797299Y-469699D01*
X801400Y-471100D01*
X802700Y-472500D01*
X804099Y-475199D01*
X804099Y-477899D01*
X802700Y-480599D01*
X801400Y-481999D01*
X797299Y-483400D01*
X785000Y-483400D01*
X794499Y-483400D02*
G01*
X804099Y-498400D01*
X832200Y-473800D02*
G01*
X829499Y-471100D01*
X825399Y-469699D01*
X819899Y-469699D01*
X815799Y-471100D01*
X813100Y-473800D01*
X813100Y-476500D01*
X814499Y-479299D01*
X815799Y-480599D01*
X818500Y-481999D01*
X826700Y-484699D01*
X829499Y-486100D01*
X830799Y-487500D01*
X832200Y-490199D01*
X832200Y-494299D01*
X829499Y-496999D01*
X825399Y-498400D01*
X819899Y-498400D01*
X815799Y-496999D01*
X813100Y-494299D01*
X850699Y-469699D02*
G01*
X850699Y-498400D01*
X841199Y-469699D02*
G01*
X860299Y-469699D01*
D11*
X125000Y-469699D02*
G01*
X125000Y-490199D01*
X126399Y-494299D01*
X129099Y-496999D01*
X133200Y-498400D01*
X135900Y-498400D01*
X140000Y-496999D01*
X142699Y-494299D01*
X144099Y-490199D01*
X144099Y-469699D01*
X172199Y-473800D02*
G01*
X169499Y-471100D01*
X165399Y-469699D01*
X159899Y-469699D01*
X155799Y-471100D01*
X153099Y-473800D01*
X153099Y-476500D01*
X154499Y-479299D01*
X155799Y-480599D01*
X158499Y-481999D01*
X166700Y-484699D01*
X169499Y-486100D01*
X170799Y-487500D01*
X172199Y-490199D01*
X172199Y-494299D01*
X169499Y-496999D01*
X165399Y-498400D01*
X159899Y-498400D01*
X155799Y-496999D01*
X153099Y-494299D01*
X181199Y-469699D02*
G01*
X181199Y-498400D01*
X181199Y-469699D02*
G01*
X193499Y-469699D01*
X197500Y-471100D01*
X198899Y-472500D01*
X200300Y-475199D01*
X200300Y-477899D01*
X198899Y-480599D01*
X197500Y-481999D01*
X193499Y-483400D01*
X181199Y-483400D01*
X190700Y-483400D02*
G01*
X200300Y-498400D01*
D10*
X420700Y-319800D02*
G01*
X418600Y-315700D01*
X414499Y-311599D01*
X410500Y-309600D01*
X402300Y-309600D01*
X398200Y-311599D01*
X394099Y-315700D01*
X391999Y-319800D01*
X390000Y-325999D01*
X390000Y-336199D01*
X391999Y-342300D01*
X394099Y-346399D01*
X398200Y-350500D01*
X402300Y-352500D01*
X410500Y-352500D01*
X414499Y-350500D01*
X418600Y-346399D01*
X420700Y-342300D01*
X434200Y-317800D02*
G01*
X438299Y-315700D01*
X444400Y-309600D01*
X444400Y-352500D01*
X190700Y-904800D02*
G01*
X188600Y-900700D01*
X184499Y-896599D01*
X180500Y-894600D01*
X172300Y-894600D01*
X168200Y-896599D01*
X164099Y-900700D01*
X161999Y-904800D01*
X160000Y-910999D01*
X160000Y-921199D01*
X161999Y-927300D01*
X164099Y-931399D01*
X168200Y-935500D01*
X172300Y-937500D01*
X180500Y-937500D01*
X184499Y-935500D01*
X188600Y-931399D01*
X190700Y-927300D01*
X206199Y-904800D02*
G01*
X206199Y-902800D01*
X208299Y-898699D01*
X210300Y-896599D01*
X214400Y-894600D01*
X222600Y-894600D01*
X226700Y-896599D01*
X228699Y-898699D01*
X230799Y-902800D01*
X230799Y-906900D01*
X228699Y-910999D01*
X224600Y-917100D01*
X204200Y-937500D01*
X232800Y-937500D01*
X555000Y-309600D02*
G01*
X555000Y-352500D01*
X555000Y-309600D02*
G01*
X573400Y-309600D01*
X579499Y-311599D01*
X581599Y-313699D01*
X583600Y-317800D01*
X583600Y-321900D01*
X581599Y-325999D01*
X579499Y-328000D01*
X573400Y-330000D01*
X555000Y-330000D01*
X569299Y-330000D02*
G01*
X583600Y-352500D01*
X597100Y-317800D02*
G01*
X601199Y-315700D01*
X607399Y-309600D01*
X607399Y-352500D01*
D11*
X644699Y-715000D02*
G01*
X673400Y-715000D01*
X673400Y-715000D02*
G01*
X673400Y-698600D01*
X644699Y-689600D02*
G01*
X673400Y-689600D01*
X644699Y-689600D02*
G01*
X644699Y-671900D01*
X658400Y-689600D02*
G01*
X658400Y-678699D01*
X673400Y-689600D02*
G01*
X673400Y-671900D01*
X644699Y-662899D02*
G01*
X673400Y-662899D01*
X644699Y-662899D02*
G01*
X644699Y-653400D01*
X646100Y-649299D01*
X648800Y-646500D01*
X651500Y-645199D01*
X655599Y-643800D01*
X662500Y-643800D01*
X666500Y-645199D01*
X669299Y-646500D01*
X671999Y-649299D01*
X673400Y-653400D01*
X673400Y-662899D01*
X682899Y-634800D02*
G01*
X682899Y-610300D01*
X644699Y-601300D02*
G01*
X673400Y-601300D01*
X644699Y-601300D02*
G01*
X644699Y-589000D01*
X646100Y-584899D01*
X647500Y-583499D01*
X650199Y-582199D01*
X652899Y-582199D01*
X655599Y-583499D01*
X656999Y-584899D01*
X658400Y-589000D01*
X658400Y-601300D02*
G01*
X658400Y-589000D01*
X659699Y-584899D01*
X661100Y-583499D01*
X663800Y-582199D01*
X667899Y-582199D01*
X670599Y-583499D01*
X671999Y-584899D01*
X673400Y-589000D01*
X673400Y-601300D01*
X419699Y-715000D02*
G01*
X448400Y-715000D01*
X448400Y-715000D02*
G01*
X448400Y-698600D01*
X419699Y-689600D02*
G01*
X448400Y-689600D01*
X419699Y-689600D02*
G01*
X419699Y-671900D01*
X433400Y-689600D02*
G01*
X433400Y-678699D01*
X448400Y-689600D02*
G01*
X448400Y-671900D01*
X419699Y-662899D02*
G01*
X448400Y-662899D01*
X419699Y-662899D02*
G01*
X419699Y-653400D01*
X421100Y-649299D01*
X423800Y-646500D01*
X426500Y-645199D01*
X430599Y-643800D01*
X437500Y-643800D01*
X441500Y-645199D01*
X444299Y-646500D01*
X446999Y-649299D01*
X448400Y-653400D01*
X448400Y-662899D01*
X457899Y-634800D02*
G01*
X457899Y-610300D01*
X426500Y-580799D02*
G01*
X423800Y-582199D01*
X421100Y-584899D01*
X419699Y-587600D01*
X419699Y-593099D01*
X421100Y-595799D01*
X423800Y-598499D01*
X426500Y-599899D01*
X430599Y-601300D01*
X437500Y-601300D01*
X441500Y-599899D01*
X444299Y-598499D01*
X446999Y-595799D01*
X448400Y-593099D01*
X448400Y-587600D01*
X446999Y-584899D01*
X444299Y-582199D01*
X441500Y-580799D01*
X437500Y-580799D01*
X437500Y-587600D02*
G01*
X437500Y-580799D01*
X194699Y-715000D02*
G01*
X223400Y-715000D01*
X223400Y-715000D02*
G01*
X223400Y-698600D01*
X194699Y-689600D02*
G01*
X223400Y-689600D01*
X194699Y-689600D02*
G01*
X194699Y-671900D01*
X208400Y-689600D02*
G01*
X208400Y-678699D01*
X223400Y-689600D02*
G01*
X223400Y-671900D01*
X194699Y-662899D02*
G01*
X223400Y-662899D01*
X194699Y-662899D02*
G01*
X194699Y-653400D01*
X196100Y-649299D01*
X198800Y-646500D01*
X201500Y-645199D01*
X205599Y-643800D01*
X212500Y-643800D01*
X216500Y-645199D01*
X219299Y-646500D01*
X221999Y-649299D01*
X223400Y-653400D01*
X223400Y-662899D01*
X232899Y-634800D02*
G01*
X232899Y-610300D01*
X194699Y-601300D02*
G01*
X223400Y-601300D01*
X194699Y-601300D02*
G01*
X194699Y-589000D01*
X196100Y-584899D01*
X197500Y-583499D01*
X200199Y-582199D01*
X202899Y-582199D01*
X205599Y-583499D01*
X206999Y-584899D01*
X208400Y-589000D01*
X208400Y-601300D01*
X208400Y-591700D02*
G01*
X223400Y-582199D01*
X135000Y-2019699D02*
G01*
X135000Y-2048400D01*
X135000Y-2019699D02*
G01*
X147300Y-2019699D01*
X151399Y-2021100D01*
X152699Y-2022500D01*
X154099Y-2025199D01*
X154099Y-2029299D01*
X152699Y-2031999D01*
X151399Y-2033400D01*
X147300Y-2034699D01*
X135000Y-2034699D01*
X163099Y-2019699D02*
G01*
X169899Y-2048400D01*
X176700Y-2019699D02*
G01*
X169899Y-2048400D01*
X176700Y-2019699D02*
G01*
X183499Y-2048400D01*
X190399Y-2019699D02*
G01*
X183499Y-2048400D01*
X199400Y-2019699D02*
G01*
X199400Y-2048400D01*
X199400Y-2019699D02*
G01*
X211599Y-2019699D01*
X215700Y-2021100D01*
X217100Y-2022500D01*
X218499Y-2025199D01*
X218499Y-2027899D01*
X217100Y-2030599D01*
X215700Y-2031999D01*
X211599Y-2033400D01*
X199400Y-2033400D01*
X208899Y-2033400D02*
G01*
X218499Y-2048400D01*
D10*
X173595Y-1834594D02*
G01*
X144994Y-1877494D01*
X144994Y-1834594D02*
G01*
X173595Y-1834594D01*
X144994Y-1877494D02*
G01*
X173595Y-1877494D01*
X187094Y-1834594D02*
G01*
X187094Y-1877494D01*
X187094Y-1834594D02*
G01*
X201494Y-1834594D01*
X207595Y-1836595D01*
X211694Y-1840695D01*
X213694Y-1844794D01*
X215794Y-1850994D01*
X215794Y-1861194D01*
X213694Y-1867294D01*
X211694Y-1871395D01*
X207595Y-1875495D01*
X201494Y-1877494D01*
X187094Y-1877494D01*
X229295Y-1842795D02*
G01*
X233395Y-1840695D01*
X239495Y-1834594D01*
X239495Y-1877494D01*
X629600Y-1905000D02*
G01*
X660300Y-1905000D01*
X666399Y-1903000D01*
X670500Y-1898899D01*
X672500Y-1892699D01*
X672500Y-1888600D01*
X670500Y-1882500D01*
X666399Y-1878400D01*
X660300Y-1876399D01*
X629600Y-1876399D01*
X637800Y-1862899D02*
G01*
X635700Y-1858800D01*
X629600Y-1852600D01*
X672500Y-1852600D01*
X190700Y-2424800D02*
G01*
X188600Y-2420700D01*
X184499Y-2416599D01*
X180500Y-2414600D01*
X172300Y-2414600D01*
X168200Y-2416599D01*
X164099Y-2420700D01*
X161999Y-2424800D01*
X160000Y-2430999D01*
X160000Y-2441199D01*
X161999Y-2447300D01*
X164099Y-2451399D01*
X168200Y-2455500D01*
X172300Y-2457500D01*
X180500Y-2457500D01*
X184499Y-2455500D01*
X188600Y-2451399D01*
X190700Y-2447300D01*
X204200Y-2422800D02*
G01*
X208299Y-2420700D01*
X214400Y-2414600D01*
X214400Y-2457500D01*
X227899Y-2422800D02*
G01*
X231999Y-2420700D01*
X238099Y-2414600D01*
X238099Y-2457500D01*
X69499Y-1465399D02*
G01*
X69499Y-1432699D01*
X71599Y-1426500D01*
X73600Y-1424499D01*
X77699Y-1422500D01*
X81799Y-1422500D01*
X85900Y-1424499D01*
X88000Y-1426500D01*
X90000Y-1432699D01*
X90000Y-1436799D01*
X54000Y-1455199D02*
G01*
X54000Y-1457199D01*
X51999Y-1461300D01*
X49899Y-1463400D01*
X45799Y-1465399D01*
X37600Y-1465399D01*
X33499Y-1463400D01*
X31500Y-1461300D01*
X29499Y-1457199D01*
X29499Y-1453099D01*
X31500Y-1449000D01*
X35599Y-1442899D01*
X55999Y-1422500D01*
X27399Y-1422500D01*
X305828Y-1127323D02*
G01*
X304414Y-1131707D01*
X304414Y-1137505D01*
X305828Y-1141748D01*
X311626Y-1147546D01*
X315940Y-1149032D01*
X321738Y-1149032D01*
X326122Y-1147618D01*
X331920Y-1144648D01*
X339133Y-1137435D01*
X342031Y-1131707D01*
X343445Y-1127323D01*
X343445Y-1121525D01*
X341961Y-1117211D01*
X336163Y-1111413D01*
X331920Y-1110000D01*
X326122Y-1110000D01*
X321738Y-1111413D01*
X281857Y-1117777D02*
G01*
X287584Y-1120677D01*
X291968Y-1119263D01*
X294868Y-1116363D01*
X296282Y-1111979D01*
X294868Y-1107595D01*
X290554Y-1100453D01*
X287584Y-1094656D01*
X287584Y-1088858D01*
X289070Y-1084544D01*
X293454Y-1080160D01*
X297766Y-1078674D01*
X300666Y-1078746D01*
X306394Y-1081644D01*
X312192Y-1087442D01*
X315091Y-1093171D01*
X315162Y-1096069D01*
X313676Y-1100383D01*
X309292Y-1104767D01*
X304980Y-1106251D01*
X299180Y-1106251D01*
X293382Y-1103281D01*
X286241Y-1098969D01*
X281857Y-1097555D01*
X277472Y-1098969D01*
X274573Y-1101867D01*
X273159Y-1106251D01*
X276059Y-1111979D01*
X281857Y-1117777D01*
X765604Y-1202899D02*
G01*
X761220Y-1201484D01*
X755421Y-1201484D01*
X751179Y-1202899D01*
X745381Y-1208697D01*
X743897Y-1213011D01*
X743897Y-1218809D01*
X745311Y-1223193D01*
X748281Y-1228991D01*
X755493Y-1236203D01*
X761220Y-1239103D01*
X765604Y-1240516D01*
X771403Y-1240516D01*
X775716Y-1239032D01*
X781514Y-1233234D01*
X782929Y-1228991D01*
X782929Y-1223193D01*
X781514Y-1218809D01*
X773737Y-1191939D02*
G01*
X775150Y-1187555D01*
X775150Y-1178928D01*
X805486Y-1209263D01*
X793393Y-1175109D02*
G01*
X791980Y-1173696D01*
X790495Y-1169382D01*
X790424Y-1166482D01*
X791908Y-1162170D01*
X797707Y-1156372D01*
X802021Y-1154886D01*
X804991Y-1154886D01*
X809304Y-1156372D01*
X812202Y-1159270D01*
X813688Y-1163584D01*
X815101Y-1170796D01*
X815032Y-1199717D01*
X835254Y-1179493D01*
G36*
X686540Y-609500D02*
G01*
X686540Y-626220D01*
X699340Y-626220D01*
X699340Y-609500D01*
G37*
G36*
X740680Y-609500D02*
G01*
X740680Y-626220D01*
X753460Y-626220D01*
X753460Y-609500D01*
G37*
G36*
X713120Y-626220D02*
G01*
X713120Y-640000D01*
X726880Y-640000D01*
X726880Y-626220D01*
G37*
G36*
X461540Y-609500D02*
G01*
X461540Y-626220D01*
X474320Y-626220D01*
X474320Y-609500D01*
G37*
G36*
X515680Y-609500D02*
G01*
X515680Y-626220D01*
X528460Y-626220D01*
X528460Y-609500D01*
G37*
G36*
X488120Y-626220D02*
G01*
X488120Y-640000D01*
X501880Y-640000D01*
X501880Y-626220D01*
G37*
G36*
X236540Y-609500D02*
G01*
X236540Y-626220D01*
X249320Y-626220D01*
X249320Y-609500D01*
G37*
G36*
X290680Y-609500D02*
G01*
X290680Y-626220D01*
X303460Y-626220D01*
X303460Y-609500D01*
G37*
G36*
X263120Y-626220D02*
G01*
X263120Y-640000D01*
X276880Y-640000D01*
X276880Y-626220D01*
G37*
G36*
X179500Y-2110660D02*
G01*
X179500Y-2123460D01*
X196220Y-2123460D01*
X196220Y-2110660D01*
G37*
G36*
X179500Y-2056540D02*
G01*
X179500Y-2069319D01*
X196220Y-2069319D01*
X196220Y-2056540D01*
G37*
G36*
X196220Y-2083120D02*
G01*
X196220Y-2096879D01*
X210000Y-2096879D01*
X210000Y-2083120D01*
G37*
G36*
X135000Y-2235000D02*
G01*
X137000Y-2259000D01*
X284000Y-2259000D01*
X286000Y-2257000D01*
X286000Y-2235000D01*
G37*
D12*
X100000Y-350000D02*
G01*
X100000Y-225000D01*
D13*
X100000Y-350000D02*
G01*
X0Y-350000D01*
X0Y-150000D01*
X100000Y-150000D01*
X100000Y-225000D01*
D12*
X990000Y-350000D02*
G01*
X990000Y-225000D01*
D13*
X990000Y-350000D02*
G01*
X890000Y-350000D01*
X890000Y-150000D01*
X990000Y-150000D01*
X990000Y-225000D01*
D12*
X100000Y-2550000D02*
G01*
X100000Y-2425000D01*
D13*
X100000Y-2550000D02*
G01*
X0Y-2550000D01*
X0Y-2350000D01*
X100000Y-2350000D01*
X100000Y-2425000D01*
D12*
X990000Y-2550000D02*
G01*
X990000Y-2425000D01*
D13*
X990000Y-2550000D02*
G01*
X890000Y-2550000D01*
X890000Y-2350000D01*
X990000Y-2350000D01*
X990000Y-2425000D01*
D10*
X852484Y-2502550D02*
G01*
X852484Y-2449011D01*
X767515Y-2449011D01*
X767515Y-2502550D01*
X852484Y-2577449D02*
G01*
X852484Y-2630988D01*
X767515Y-2630988D01*
X767515Y-2577449D01*
D14*
X719133Y-2362048D02*
G01*
X719133Y-2117955D01*
X860868Y-2117955D02*
G01*
X860868Y-2362048D01*
X840001Y-2360001D02*
G01*
X860001Y-2340001D01*
X740001Y-2360001D02*
G01*
X720001Y-2340001D01*
X720001Y-2140001D02*
G01*
X740001Y-2120001D01*
X860001Y-2140001D02*
G01*
X840001Y-2120001D01*
X719133Y-2117955D02*
G01*
X751372Y-2117955D01*
X828627Y-2117955D02*
G01*
X860868Y-2117955D01*
X719133Y-2362048D02*
G01*
X751372Y-2362048D01*
X828627Y-2362048D02*
G01*
X860868Y-2362048D01*
X679133Y-452047D02*
G01*
X679133Y-207955D01*
X820868Y-207955D02*
G01*
X820868Y-452047D01*
X800001Y-450001D02*
G01*
X820001Y-430001D01*
X700001Y-450001D02*
G01*
X680001Y-430001D01*
X680001Y-230001D02*
G01*
X700001Y-210001D01*
X820001Y-230001D02*
G01*
X800001Y-210001D01*
X679133Y-207955D02*
G01*
X711372Y-207955D01*
X788627Y-207955D02*
G01*
X820868Y-207955D01*
X679133Y-452047D02*
G01*
X711372Y-452047D01*
X788627Y-452047D02*
G01*
X820868Y-452047D01*
D15*
X673595Y-1342373D02*
G01*
X501060Y-1514908D01*
X315799Y-1329645D01*
X500354Y-1145091D01*
X685616Y-1330354D01*
X664402Y-1351567D01*
D14*
X310866Y-207952D02*
G01*
X310866Y-452044D01*
X169131Y-452044D02*
G01*
X169131Y-207952D01*
X189998Y-209998D02*
G01*
X169998Y-229998D01*
X289998Y-209998D02*
G01*
X309998Y-229998D01*
X309998Y-429998D02*
G01*
X289998Y-449998D01*
X169998Y-429998D02*
G01*
X189998Y-449998D01*
X310866Y-452044D02*
G01*
X278627Y-452044D01*
X201372Y-452044D02*
G01*
X169131Y-452044D01*
X310866Y-207952D02*
G01*
X278627Y-207952D01*
X201372Y-207952D02*
G01*
X169131Y-207952D01*
D10*
X463015Y-424929D02*
G01*
X463015Y-366464D01*
X376984Y-366464D02*
G01*
X376984Y-424929D01*
X382984Y-430929D02*
G01*
X457015Y-430929D01*
X463015Y-235070D02*
G01*
X463015Y-293535D01*
X376984Y-293535D02*
G01*
X376984Y-235070D01*
X382984Y-229070D02*
G01*
X457015Y-229070D01*
X243015Y-1014929D02*
G01*
X243015Y-956464D01*
X156984Y-956464D02*
G01*
X156984Y-1014929D01*
X162984Y-1020929D02*
G01*
X237015Y-1020929D01*
X243015Y-825070D02*
G01*
X243015Y-883535D01*
X156984Y-883535D02*
G01*
X156984Y-825070D01*
X162984Y-819070D02*
G01*
X237015Y-819070D01*
X537516Y-367449D02*
G01*
X537516Y-420988D01*
X622483Y-420988D01*
X622483Y-367449D01*
X537516Y-292550D02*
G01*
X537516Y-239011D01*
X622483Y-239011D01*
X622483Y-292550D01*
X277656Y-1828413D02*
G01*
X173233Y-1828413D01*
X173233Y-1873641D01*
X277656Y-2011577D02*
G01*
X173233Y-2011577D01*
X173233Y-1966347D01*
X540542Y-1929897D02*
G01*
X540542Y-1810102D01*
X739457Y-1810102D01*
X739457Y-1929897D01*
X540542Y-1929897D01*
D14*
X322835Y-2719814D02*
G01*
X322835Y-2665590D01*
X679429Y-2719814D02*
G01*
X322835Y-2719814D01*
X322835Y-2569310D02*
G01*
X322835Y-2508116D01*
X679429Y-2719814D02*
G01*
X679429Y-2665841D01*
X679429Y-2569059D02*
G01*
X679429Y-2508366D01*
D16*
X284000Y-2259000D02*
G01*
X136999Y-2259000D01*
D14*
X135000Y-2370000D02*
G01*
X135000Y-2365999D01*
X135000Y-2235000D01*
X285999Y-2235000D01*
X285999Y-2365999D01*
X285999Y-2370000D01*
X285999Y-2490999D02*
G01*
X285999Y-2624000D01*
X135000Y-2624000D01*
X135000Y-2490999D01*
D13*
X325000Y-10000D02*
G01*
X250000Y-10000D01*
X250000Y-110000D01*
X750000Y-110000D01*
X750000Y-10000D01*
D12*
X750000Y-10000D02*
G01*
X325000Y-10000D01*
D13*
X100000Y-2350000D02*
G01*
X105000Y-2350000D01*
X105000Y-350000D01*
X0Y-350000D01*
X0Y-2350000D01*
X100000Y-2350000D01*
X990000Y-2350000D02*
G01*
X995000Y-2350000D01*
X995000Y-350000D01*
X890000Y-350000D01*
X890000Y-2350000D01*
X990000Y-2350000D01*
D10*
X346707Y-1012458D02*
G01*
X305367Y-1053798D01*
X366201Y-1114632D02*
G01*
X407541Y-1073292D01*
X407541Y-1064807D02*
G01*
X355192Y-1012458D01*
X212458Y-1146707D02*
G01*
X253798Y-1105367D01*
X314632Y-1166201D02*
G01*
X273292Y-1207541D01*
X264807Y-1207541D02*
G01*
X212458Y-1155192D01*
X887542Y-1236707D02*
G01*
X846202Y-1195367D01*
X785367Y-1256201D02*
G01*
X826707Y-1297541D01*
X835192Y-1297541D02*
G01*
X887542Y-1245192D01*
X753292Y-1102458D02*
G01*
X794632Y-1143798D01*
X733798Y-1204632D02*
G01*
X692458Y-1163292D01*
X692458Y-1154807D02*
G01*
X744807Y-1102458D01*
D17*
X625981Y-1011532D02*
G01*
X374014Y-1011532D01*
X374016Y-828463D02*
G01*
X625983Y-828463D01*
X374016Y-982993D02*
G01*
X625983Y-982993D01*
X625983Y-857006D02*
G01*
X374016Y-857006D01*
D18*
G75*
G01*
X481348Y-1122601D02*
G03*
X481277Y-1122672I-5603J5532D01*
D10*
G75*
G01*
X376984Y-424929D02*
G03*
X382984Y-430929I6000J0D01*
G75*
G01*
X457016Y-430929D02*
G03*
X463016Y-424929I0J6000D01*
G75*
G01*
X376984Y-235071D02*
G02*
X382984Y-229071I6000J0D01*
G75*
G01*
X457016Y-229071D02*
G02*
X463016Y-235071I0J-6000D01*
G75*
G01*
X156984Y-1014929D02*
G03*
X162984Y-1020929I6000J0D01*
G75*
G01*
X237016Y-1020929D02*
G03*
X243016Y-1014929I0J6000D01*
G75*
G01*
X156984Y-825071D02*
G02*
X162984Y-819071I6000J0D01*
G75*
G01*
X237016Y-819071D02*
G02*
X243016Y-825071I0J-6000D01*
G75*
G01*
X407542Y-1073292D02*
G03*
X407542Y-1064807I-4243J4242D01*
G75*
G01*
X355193Y-1012458D02*
G03*
X346708Y-1012458I-4243J-4243D01*
G75*
G01*
X273292Y-1207542D02*
G02*
X264807Y-1207542I-4242J4243D01*
G75*
G01*
X212458Y-1155193D02*
G02*
X212458Y-1146708I4243J4243D01*
G75*
G01*
X826708Y-1297542D02*
G03*
X835193Y-1297542I4242J4243D01*
G75*
G01*
X887542Y-1245193D02*
G03*
X887542Y-1236708I-4243J4243D01*
G75*
G01*
X692458Y-1163292D02*
G02*
X692458Y-1154807I4243J4242D01*
G75*
G01*
X744807Y-1102458D02*
G02*
X753292Y-1102458I4243J-4243D01*
D17*
G75*
G01*
X625981Y-1011533D02*
G03*
X626000Y-828500I-293J91517D01*
G75*
G01*
X374016Y-828465D02*
G03*
X374000Y-1011500I294J-91518D01*
G75*
G01*
X625983Y-857007D02*
G02*
X626000Y-983000I-242J-62997D01*
G75*
G01*
X374016Y-982993D02*
G02*
X374000Y-857000I243J62997D01*
D14*
G75*
G01
X812360Y-2240000D02*
G03X812360Y-2240000I-22360J0D01*
G75*
G01
X830000Y-2240000D02*
G03X830000Y-2240000I-40000J0D01*
G75*
G01
X812360Y-2160000D02*
G03X812360Y-2160000I-22360J0D01*
G75*
G01
X812360Y-2320000D02*
G03X812360Y-2320000I-22360J0D01*
G75*
G01
X772360Y-330000D02*
G03X772360Y-330000I-22360J0D01*
G75*
G01
X790000Y-330000D02*
G03X790000Y-330000I-40000J0D01*
G75*
G01
X772360Y-250000D02*
G03X772360Y-250000I-22360J0D01*
G75*
G01
X772360Y-410000D02*
G03X772360Y-410000I-22360J0D01*
G75*
G01
X500860Y-1178280D02*
G03X500860Y-1178280I-6710J0D01*
G75*
G01
X262360Y-330000D02*
G03X262360Y-330000I-22360J0D01*
G75*
G01
X280000Y-330000D02*
G03X280000Y-330000I-40000J0D01*
G75*
G01
X262360Y-410000D02*
G03X262360Y-410000I-22360J0D01*
G75*
G01
X262360Y-250000D02*
G03X262360Y-250000I-22360J0D01*
D19*
G75*
G01
X570910Y-1900280D02*
G03X570910Y-1900280I-5910J0D01*
G75*
G01
X541800Y-1978970D02*
G03X541800Y-1978970I-5910J0D01*
M02*
