M48
METRIC,LZ,000.000
;FILE_FORMAT=3:3
;TYPE=PLATED
;Layer: PTH_Through
;EasyEDA v6.5.8, 2022-07-18 23:19:08
;1589dfe675ed41be9403e30dc75cfddf,,10
;Gerber Generator version 0.2
;Holesize 1 = 0.305 mm
T01C0.305
;Holesize 2 = 1.200 mm
T02C1.200
;Holesize 3 = 1.301 mm
T03C1.301
%
G05
G90
T01
X018300Y-013700
X018300Y-011700
X018300Y-015700
X016300Y-013700
X020300Y-013700
X016300Y-011700
X020300Y-011700
X016300Y-015700
X020300Y-015700
X018300Y-011700
X016300Y-011700
X020300Y-011700
X016300Y-017700
X018300Y-017700
X020300Y-017700
X036900Y-008900
X038900Y-008900
X040900Y-008900
X040900Y-008900
X038900Y-008900
X036900Y-008900
X036900Y-010900
X038900Y-010900
X040900Y-010900
X040900Y-012900
X040900Y-014900
X038900Y-014900
X038900Y-012900
X036900Y-012900
X036900Y-014900
X027600Y-017250
X029250Y-017250
X027800Y-009400
X029500Y-009400
T02
X009551Y-017526
X004471Y-017526
X018923Y-021717
X018923Y-002159
X033909Y-002159
X033909Y-021717
T03
X042896Y-004800
X047904Y-004800
X003196Y-004800
X008204Y-004800
M30
