G04 Layer: BottomSilkscreenLayer*
G04 EasyEDA v6.5.8, 2022-07-18 23:19:08*
G04 1589dfe675ed41be9403e30dc75cfddf,10*
G04 Gerber Generator version 0.2*
G04 Scale: 100 percent, Rotated: No, Reflected: No *
G04 Dimensions in millimeters *
G04 leading zeros omitted , absolute positions ,4 integer and 5 decimal *
%FSLAX45Y45*%
%MOMM*%

%ADD10C,0.1524*%
%ADD11C,0.2540*%
%ADD12C,0.4000*%
%ADD13C,0.3000*%

%LPD*%
D10*
X2172914Y-2051641D02*
G01*
X2183328Y-2056721D01*
X2193742Y-2067135D01*
X2199076Y-2077549D01*
X2204156Y-2093297D01*
X2204156Y-2119205D01*
X2199076Y-2134699D01*
X2193742Y-2145113D01*
X2183328Y-2155527D01*
X2172914Y-2160607D01*
X2152086Y-2160607D01*
X2141926Y-2155527D01*
X2131512Y-2145113D01*
X2126178Y-2134699D01*
X2121098Y-2119205D01*
X2121098Y-2093297D01*
X2126178Y-2077549D01*
X2131512Y-2067135D01*
X2141926Y-2056721D01*
X2152086Y-2051641D01*
X2172914Y-2051641D01*
X2157420Y-2140033D02*
G01*
X2126178Y-2171021D01*
X2086808Y-2072469D02*
G01*
X2076394Y-2067135D01*
X2060646Y-2051641D01*
X2060646Y-2160607D01*
X4029776Y-496978D02*
G01*
X4040190Y-502058D01*
X4050604Y-512472D01*
X4055938Y-522886D01*
X4061018Y-538634D01*
X4061018Y-564542D01*
X4055938Y-580036D01*
X4050604Y-590450D01*
X4040190Y-600864D01*
X4029776Y-605944D01*
X4008948Y-605944D01*
X3998788Y-600864D01*
X3988374Y-590450D01*
X3983040Y-580036D01*
X3977960Y-564542D01*
X3977960Y-538634D01*
X3983040Y-522886D01*
X3988374Y-512472D01*
X3998788Y-502058D01*
X4008948Y-496978D01*
X4029776Y-496978D01*
X4014282Y-585370D02*
G01*
X3983040Y-616358D01*
X3938336Y-522886D02*
G01*
X3938336Y-517806D01*
X3933256Y-507392D01*
X3927922Y-502058D01*
X3917508Y-496978D01*
X3896934Y-496978D01*
X3886520Y-502058D01*
X3881186Y-507392D01*
X3876106Y-517806D01*
X3876106Y-528220D01*
X3881186Y-538634D01*
X3891600Y-554128D01*
X3943670Y-605944D01*
X3870772Y-605944D01*
X2452024Y-370591D02*
G01*
X2457358Y-360177D01*
X2467772Y-349763D01*
X2477932Y-344683D01*
X2498760Y-344683D01*
X2509174Y-349763D01*
X2519588Y-360177D01*
X2524922Y-370591D01*
X2530002Y-386339D01*
X2530002Y-412247D01*
X2524922Y-427741D01*
X2519588Y-438155D01*
X2509174Y-448569D01*
X2498760Y-453649D01*
X2477932Y-453649D01*
X2467772Y-448569D01*
X2457358Y-438155D01*
X2452024Y-427741D01*
X2417734Y-365511D02*
G01*
X2407320Y-360177D01*
X2391826Y-344683D01*
X2391826Y-453649D01*
X1019408Y-702022D02*
G01*
X1029822Y-707356D01*
X1040236Y-717770D01*
X1045316Y-727930D01*
X1045316Y-748758D01*
X1040236Y-759172D01*
X1029822Y-769586D01*
X1019408Y-774920D01*
X1003660Y-780000D01*
X977752Y-780000D01*
X962258Y-774920D01*
X951844Y-769586D01*
X941430Y-759172D01*
X936350Y-748758D01*
X936350Y-727930D01*
X941430Y-717770D01*
X951844Y-707356D01*
X962258Y-702022D01*
X1019408Y-662652D02*
G01*
X1024488Y-662652D01*
X1034902Y-657318D01*
X1040236Y-652238D01*
X1045316Y-641824D01*
X1045316Y-620996D01*
X1040236Y-610582D01*
X1034902Y-605502D01*
X1024488Y-600168D01*
X1014074Y-600168D01*
X1003660Y-605502D01*
X988166Y-615916D01*
X936350Y-667732D01*
X936350Y-595088D01*
X269417Y-772012D02*
G01*
X279831Y-777346D01*
X290245Y-787760D01*
X295325Y-797920D01*
X295325Y-818748D01*
X290245Y-829162D01*
X279831Y-839576D01*
X269417Y-844910D01*
X253669Y-849990D01*
X227761Y-849990D01*
X212267Y-844910D01*
X201853Y-839576D01*
X191439Y-829162D01*
X186359Y-818748D01*
X186359Y-797920D01*
X191439Y-787760D01*
X201853Y-777346D01*
X212267Y-772012D01*
X279831Y-675492D02*
G01*
X290245Y-680572D01*
X295325Y-696320D01*
X295325Y-706480D01*
X290245Y-722228D01*
X274497Y-732642D01*
X248589Y-737722D01*
X222681Y-737722D01*
X201853Y-732642D01*
X191439Y-722228D01*
X186359Y-706480D01*
X186359Y-701400D01*
X191439Y-685906D01*
X201853Y-675492D01*
X217347Y-670158D01*
X222681Y-670158D01*
X238175Y-675492D01*
X248589Y-685906D01*
X253669Y-701400D01*
X253669Y-706480D01*
X248589Y-722228D01*
X238175Y-732642D01*
X222681Y-737722D01*
X1760220Y-62484D02*
G01*
X1760220Y-171450D01*
X1760220Y-62484D02*
G01*
X1723897Y-62484D01*
X1708150Y-67563D01*
X1697989Y-77978D01*
X1692655Y-88392D01*
X1687575Y-104139D01*
X1687575Y-130047D01*
X1692655Y-145542D01*
X1697989Y-155955D01*
X1708150Y-166370D01*
X1723897Y-171450D01*
X1760220Y-171450D01*
X1653286Y-83312D02*
G01*
X1642871Y-77978D01*
X1627123Y-62484D01*
X1627123Y-171450D01*
X2960001Y-264683D02*
G01*
X2960001Y-373649D01*
X2960001Y-264683D02*
G01*
X2913265Y-264683D01*
X2897771Y-269763D01*
X2892437Y-275097D01*
X2887357Y-285511D01*
X2887357Y-295925D01*
X2892437Y-306339D01*
X2897771Y-311419D01*
X2913265Y-316499D01*
X2960001Y-316499D01*
X2923679Y-316499D02*
G01*
X2887357Y-373649D01*
X2847733Y-290591D02*
G01*
X2847733Y-285511D01*
X2842653Y-275097D01*
X2837319Y-269763D01*
X2826905Y-264683D01*
X2806331Y-264683D01*
X2795917Y-269763D01*
X2790583Y-275097D01*
X2785503Y-285511D01*
X2785503Y-295925D01*
X2790583Y-306339D01*
X2800997Y-321833D01*
X2853067Y-373649D01*
X2780169Y-373649D01*
X1200002Y-1114673D02*
G01*
X1200002Y-1223639D01*
X1200002Y-1114673D02*
G01*
X1153266Y-1114673D01*
X1137772Y-1119753D01*
X1132438Y-1125087D01*
X1127358Y-1135501D01*
X1127358Y-1145915D01*
X1132438Y-1156329D01*
X1137772Y-1161409D01*
X1153266Y-1166489D01*
X1200002Y-1166489D01*
X1163680Y-1166489D02*
G01*
X1127358Y-1223639D01*
X1082654Y-1114673D02*
G01*
X1025504Y-1114673D01*
X1056492Y-1156329D01*
X1040998Y-1156329D01*
X1030584Y-1161409D01*
X1025504Y-1166489D01*
X1020170Y-1182237D01*
X1020170Y-1192651D01*
X1025504Y-1208145D01*
X1035918Y-1218559D01*
X1051412Y-1223639D01*
X1066906Y-1223639D01*
X1082654Y-1218559D01*
X1087734Y-1213479D01*
X1093068Y-1203065D01*
X3395317Y-570001D02*
G01*
X3286351Y-570001D01*
X3395317Y-570001D02*
G01*
X3395317Y-523265D01*
X3390237Y-507771D01*
X3384903Y-502437D01*
X3374489Y-497357D01*
X3364075Y-497357D01*
X3353661Y-502437D01*
X3348581Y-507771D01*
X3343501Y-523265D01*
X3343501Y-570001D01*
X3343501Y-533679D02*
G01*
X3286351Y-497357D01*
X3395317Y-410997D02*
G01*
X3322673Y-463067D01*
X3322673Y-385089D01*
X3395317Y-410997D02*
G01*
X3286351Y-410997D01*
X1875317Y-700001D02*
G01*
X1797339Y-700001D01*
X1781845Y-694921D01*
X1771431Y-684507D01*
X1766351Y-668759D01*
X1766351Y-658345D01*
X1771431Y-642851D01*
X1781845Y-632437D01*
X1797339Y-627357D01*
X1875317Y-627357D01*
X1854489Y-593067D02*
G01*
X1859823Y-582653D01*
X1875317Y-566905D01*
X1766351Y-566905D01*
G36*
X1565097Y-153771D02*
G01*
X1565097Y-185775D01*
X1595577Y-185775D01*
X1595577Y-153771D01*
G37*
G36*
X1565097Y-322224D02*
G01*
X1565097Y-354228D01*
X1595577Y-354228D01*
X1595577Y-322224D01*
G37*
D11*
X2436129Y-1681200D02*
G01*
X2626121Y-1681200D01*
X2626121Y-1771197D01*
X2436129Y-1771197D01*
X2366124Y-1973201D02*
G01*
X2436129Y-1973201D01*
X2436129Y-973201D01*
X2366124Y-973201D01*
X2436129Y-1173200D02*
G01*
X2626121Y-1173200D01*
X2626121Y-1263197D01*
X2436129Y-1263197D01*
X3278870Y-985799D02*
G01*
X3088878Y-985799D01*
X3088878Y-895802D01*
X3278870Y-895802D01*
X3348875Y-693798D02*
G01*
X3278870Y-693798D01*
X3278870Y-1693798D01*
X3348875Y-1693798D01*
X3278870Y-1493799D02*
G01*
X3088878Y-1493799D01*
X3088878Y-1403802D01*
X3278870Y-1403802D01*
D10*
X2360739Y-879619D02*
G01*
X2360739Y-738619D01*
X2541460Y-738619D02*
G01*
X2541460Y-879619D01*
X2526220Y-894859D02*
G01*
X2375979Y-894859D01*
X2360739Y-517380D02*
G01*
X2360739Y-658380D01*
X2541460Y-658380D02*
G01*
X2541460Y-517380D01*
X2526220Y-502140D02*
G01*
X2375979Y-502140D01*
X1089639Y-761121D02*
G01*
X1089639Y-620120D01*
X1270360Y-620120D02*
G01*
X1270360Y-761121D01*
X1255120Y-776361D02*
G01*
X1104879Y-776361D01*
X1089639Y-398881D02*
G01*
X1089639Y-539882D01*
X1270360Y-539882D02*
G01*
X1270360Y-398881D01*
X1255120Y-383641D02*
G01*
X1104879Y-383641D01*
X721121Y-860361D02*
G01*
X580120Y-860361D01*
X580120Y-679640D02*
G01*
X721121Y-679640D01*
X736361Y-694880D02*
G01*
X736361Y-845121D01*
X358881Y-860361D02*
G01*
X499882Y-860361D01*
X499882Y-679640D02*
G01*
X358881Y-679640D01*
X343641Y-694880D02*
G01*
X343641Y-845121D01*
X1572722Y-346623D02*
G01*
X1297477Y-346623D01*
X1572722Y-161376D02*
G01*
X1297477Y-161376D01*
X1297477Y-161376D02*
G01*
X1297477Y-180680D01*
X1297477Y-346623D02*
G01*
X1297477Y-327319D01*
X1526778Y-166377D02*
G01*
X1526778Y-341622D01*
X2987309Y-644519D02*
G01*
X2987309Y-773013D01*
X2803890Y-773013D01*
X2803890Y-644519D01*
X2987309Y-549280D02*
G01*
X2987309Y-420786D01*
X2803890Y-420786D01*
X2803890Y-549280D01*
X1165219Y-886190D02*
G01*
X1293713Y-886190D01*
X1293713Y-1069609D01*
X1165219Y-1069609D01*
X1069980Y-886190D02*
G01*
X941486Y-886190D01*
X941486Y-1069609D01*
X1069980Y-1069609D01*
X3241309Y-644519D02*
G01*
X3241309Y-773013D01*
X3057890Y-773013D01*
X3057890Y-644519D01*
X3241309Y-549280D02*
G01*
X3241309Y-420786D01*
X3057890Y-420786D01*
X3057890Y-549280D01*
X1663959Y-887620D02*
G01*
X1968240Y-887620D01*
X1968240Y-382379D01*
X1663959Y-382379D01*
X1663959Y-887620D01*
D12*
G75*
G01*
X2526144Y-1093216D02*
G02*
X2526398Y-1093216I127J20000D01*
G75*
G01*
X3188856Y-1573784D02*
G02*
X3188602Y-1573784I-127J-20000D01*
D10*
G75*
G01*
X2541460Y-879620D02*
G02*
X2526220Y-894860I-15240J0D01*
G75*
G01*
X2375979Y-894860D02*
G02*
X2360740Y-879620I0J15240D01*
G75*
G01*
X2541460Y-517380D02*
G03*
X2526220Y-502140I-15240J0D01*
G75*
G01*
X2375979Y-502140D02*
G03*
X2360740Y-517380I0J-15240D01*
G75*
G01*
X1270361Y-761121D02*
G02*
X1255121Y-776361I-15240J0D01*
G75*
G01*
X1104880Y-776361D02*
G02*
X1089640Y-761121I0J15240D01*
G75*
G01*
X1270361Y-398882D02*
G03*
X1255121Y-383642I-15240J0D01*
G75*
G01*
X1104880Y-383642D02*
G03*
X1089640Y-398882I0J-15240D01*
G75*
G01*
X721121Y-679641D02*
G02*
X736361Y-694881I0J-15240D01*
G75*
G01*
X736361Y-845122D02*
G02*
X721121Y-860361I-15240J1D01*
G75*
G01*
X358882Y-679641D02*
G03*
X343642Y-694881I0J-15240D01*
G75*
G01*
X343642Y-845122D02*
G03*
X358882Y-860361I15240J1D01*
D13*
G75*
G01
X1754200Y-825500D02*
G03X1754200Y-825500I-15011J0D01*
G75*
G01
X1553870Y-900151D02*
G03X1553870Y-900151I-15011J0D01*
M02*
