M48
INCH,LZ
;FILE_FORMAT=2:4
;TYPE=PLATED
;Layer: PTH_Through
;EasyEDA v6.5.22, 2022-11-15 12:52:14
;f3081522d4404d6e965df70c81d772e4,770f52a9c06342aeb7d9f723a0e8078a,10
;Gerber Generator version 0.2
;Holesize 1 = 0.0360 inch
T01C0.0360
;Holesize 2 = 0.0400 inch
T02C0.0400
;Holesize 3 = 0.0550 inch
T03C0.0550
%
G05
G90
T01
X016500Y-035000
X016500Y-036000
X004300Y-002600
X004300Y-003600
X004300Y-004600
X004300Y-005600
X008000Y-033700
X009000Y-033700
X010000Y-033700
X011000Y-033700
X012000Y-033700
X013000Y-033700
X014000Y-033700
X015000Y-033700
X015000Y-027700
X014000Y-027700
X013000Y-027700
X012000Y-027700
X011000Y-027700
X010000Y-027700
X009000Y-027700
X008000Y-027700
X016500Y-010500
X016500Y-011500
X016500Y-012500
X016500Y-013500
X016500Y-014500
X016500Y-015500
X016500Y-016500
X016500Y-017500
X016500Y-018500
X016500Y-019500
X016500Y-020500
X016500Y-021500
X016500Y-022500
X016500Y-023500
X016500Y-024500
X022500Y-010500
X022500Y-011500
X022500Y-012500
X022500Y-013500
X022500Y-014500
X022500Y-015500
X022500Y-016500
X022500Y-017500
X022500Y-018500
X022500Y-019500
X022500Y-020500
X022500Y-021500
X022500Y-022500
X022500Y-023500
X022500Y-024500
X031500Y-032000
X030500Y-032000
X029500Y-032000
X028500Y-032000
X027500Y-032000
X001000Y-025000
X002000Y-025000
X003000Y-025000
X001000Y-026500
X002000Y-026500
X003000Y-026500
X001000Y-028000
X002000Y-028000
X003000Y-028000
X001000Y-029500
X002000Y-029500
X003000Y-029500
X001000Y-031000
X002000Y-031000
X003000Y-031000
X001000Y-032500
X002000Y-032500
X003000Y-032500
X038500Y-032500
X037500Y-032500
X036500Y-032500
X038500Y-031000
X037500Y-031000
X036500Y-031000
X001000Y-034000
X002000Y-034000
X003000Y-034000
X038500Y-029000
X037500Y-029000
X036500Y-029000
X038500Y-027500
X037500Y-027500
X036500Y-027500
X038500Y-026000
X037500Y-026000
X036500Y-026000
X038500Y-024500
X037500Y-024500
X036500Y-024500
X018000Y-035000
X018000Y-036000
X036000Y-034000
X035000Y-034000
X034000Y-034000
X033000Y-034000
X032000Y-034000
X000400Y-035000
X006400Y-035000
X021000Y-015000
X021000Y-017000
X004200Y-035400
X037500Y-034000
X038500Y-035500
X027000Y-011500
X027000Y-013500
X025000Y-011500
X025000Y-013500
X002000Y-020000
X002000Y-019000
X001000Y-017500
X018000Y-013000
X018000Y-014000
X036000Y-035000
X032600Y-035000
X028800Y-037000
X028800Y-036000
X028800Y-035000
X028800Y-034000
X029800Y-034000
X029800Y-035000
X029800Y-036000
X029800Y-037000
X030800Y-034000
X030800Y-035000
X030800Y-036000
X030800Y-037000
X033500Y-024000
X034500Y-024000
X035500Y-024000
T02
X023000Y-034000
X023000Y-035000
X023000Y-036000
X023000Y-037000
T03
X005000Y-037400
X003040Y-037400
X010000Y-036200
X008040Y-036200
X014399Y-036199
X012440Y-036199
M30
