G04 Layer: BottomLayer*
G04 EasyEDA v6.5.22, 2022-11-15 12:52:14*
G04 f3081522d4404d6e965df70c81d772e4,770f52a9c06342aeb7d9f723a0e8078a,10*
G04 Gerber Generator version 0.2*
G04 Scale: 100 percent, Rotated: No, Reflected: No *
G04 Dimensions in inches *
G04 leading zeros omitted , absolute positions ,3 integer and 6 decimal *
%FSLAX36Y36*%
%MOIN*%

%ADD10C,0.0080*%
%ADD11C,0.0100*%
%ADD12C,0.0500*%
%ADD13C,0.0250*%
%ADD14C,0.0200*%
%ADD15R,0.0937X0.1687*%
%ADD16C,0.0600*%
%ADD17R,0.0600X0.0600*%
%ADD18R,0.0700X0.0700*%
%ADD19C,0.0700*%
%ADD20C,0.0131*%

%LPD*%
G36*
X2693620Y-430700D02*
G01*
X2691560Y-430740D01*
X2689860Y-430880D01*
X2688500Y-431160D01*
X2687520Y-431659D01*
X2686860Y-432400D01*
X2686540Y-433440D01*
X2686560Y-434840D01*
X2686920Y-436640D01*
X2687580Y-438860D01*
X2688560Y-441599D01*
X2691460Y-448740D01*
X2692640Y-451460D01*
X2695920Y-458180D01*
X2700160Y-466200D01*
X2705059Y-475060D01*
X2710400Y-484260D01*
X2715899Y-493340D01*
X2721060Y-501460D01*
X2728100Y-511860D01*
X2734400Y-520780D01*
X2741019Y-529840D01*
X2749340Y-540840D01*
X2755720Y-548960D01*
X2761560Y-556060D01*
X2766000Y-561000D01*
X2771540Y-566660D01*
X2778020Y-572940D01*
X2785260Y-579680D01*
X2793140Y-586720D01*
X2803600Y-595760D01*
X2816700Y-606620D01*
X2825520Y-613620D01*
X2836320Y-621900D01*
X2849620Y-631920D01*
X2864780Y-643520D01*
X2883240Y-657820D01*
X2912740Y-681020D01*
X2936440Y-699940D01*
X2954920Y-714860D01*
X2964680Y-722520D01*
X2976820Y-731800D01*
X2986280Y-738840D01*
X2995320Y-745420D01*
X3003780Y-751380D01*
X3011480Y-756620D01*
X3018240Y-761020D01*
X3023900Y-764440D01*
X3026259Y-765759D01*
X3029900Y-767580D01*
X3035360Y-770140D01*
X3041019Y-772620D01*
X3046740Y-774980D01*
X3052340Y-777159D01*
X3057660Y-779060D01*
X3062520Y-780660D01*
X3066760Y-781840D01*
X3070419Y-782620D01*
X3074500Y-783100D01*
X3079040Y-783340D01*
X3083920Y-783319D01*
X3088960Y-783060D01*
X3094020Y-782580D01*
X3098960Y-781880D01*
X3103600Y-780960D01*
X3107500Y-779900D01*
X3111320Y-778600D01*
X3115480Y-776960D01*
X3119900Y-775020D01*
X3124480Y-772820D01*
X3129160Y-770420D01*
X3133820Y-767860D01*
X3138399Y-765180D01*
X3142780Y-762420D01*
X3146860Y-759659D01*
X3151860Y-756040D01*
X3157700Y-751979D01*
X3162960Y-748540D01*
X3167360Y-745879D01*
X3170700Y-744160D01*
X3171880Y-743680D01*
X3172720Y-743500D01*
X3173159Y-743600D01*
X3175299Y-746660D01*
X3185980Y-763220D01*
X3193220Y-774680D01*
X3197280Y-781440D01*
X3201800Y-789520D01*
X3206660Y-798620D01*
X3211680Y-808439D01*
X3216740Y-818660D01*
X3221640Y-829000D01*
X3226259Y-839140D01*
X3230440Y-848760D01*
X3237140Y-865240D01*
X3244320Y-884000D01*
X3250600Y-901060D01*
X3257260Y-920000D01*
X3260220Y-928780D01*
X3262820Y-936840D01*
X3268240Y-954720D01*
X3274180Y-975580D01*
X3281440Y-1002500D01*
X3286420Y-1022200D01*
X3290280Y-1038800D01*
X3294460Y-1057760D01*
X3300020Y-1084000D01*
X3304800Y-1107600D01*
X3308500Y-1126580D01*
X3311740Y-1144320D01*
X3315299Y-1164820D01*
X3319400Y-1189440D01*
X3323680Y-1216400D01*
X3326600Y-1235860D01*
X3328200Y-1247240D01*
X3331280Y-1271800D01*
X3332600Y-1283520D01*
X3333720Y-1294420D01*
X3334580Y-1304180D01*
X3335179Y-1312420D01*
X3335480Y-1318839D01*
X3335500Y-1321140D01*
X3335220Y-1326279D01*
X3334560Y-1332960D01*
X3333540Y-1341000D01*
X3332200Y-1350160D01*
X3330580Y-1360260D01*
X3328720Y-1371120D01*
X3326620Y-1382500D01*
X3323740Y-1397200D01*
X3312600Y-1449540D01*
X3306820Y-1477620D01*
X3302480Y-1499280D01*
X3298680Y-1518980D01*
X3295640Y-1535500D01*
X3286360Y-1588100D01*
X3235620Y-1591440D01*
X3226160Y-1592280D01*
X3213560Y-1593740D01*
X3203159Y-1595200D01*
X3187620Y-1597760D01*
X3177660Y-1599660D01*
X3168279Y-1601660D01*
X3159780Y-1603740D01*
X3152360Y-1605820D01*
X3144220Y-1608440D01*
X3135280Y-1611560D01*
X3125800Y-1615040D01*
X3113660Y-1619760D01*
X3104100Y-1623660D01*
X3094960Y-1627560D01*
X3086540Y-1631339D01*
X3079060Y-1634940D01*
X3071280Y-1638899D01*
X3062820Y-1643400D01*
X3051720Y-1649520D01*
X3038300Y-1657200D01*
X3029740Y-1662300D01*
X3021780Y-1667180D01*
X3014720Y-1671680D01*
X3009480Y-1675320D01*
X3003340Y-1679920D01*
X2996420Y-1685380D01*
X2988880Y-1691560D01*
X2980840Y-1698360D01*
X2970320Y-1707540D01*
X2961640Y-1715300D01*
X2948580Y-1727340D01*
X2940020Y-1735480D01*
X2933759Y-1741560D01*
X2925299Y-1749980D01*
X2918700Y-1756740D01*
X2910000Y-1765860D01*
X2899480Y-1777240D01*
X2891540Y-1786100D01*
X2884160Y-1794600D01*
X2877500Y-1802520D01*
X2871680Y-1809760D01*
X2866880Y-1816120D01*
X2864880Y-1818920D01*
X2861840Y-1823640D01*
X2858100Y-1830460D01*
X2856440Y-1833760D01*
X2853639Y-1840000D01*
X2852520Y-1842840D01*
X2851600Y-1845480D01*
X2850899Y-1847840D01*
X2850440Y-1849900D01*
X2850220Y-1851639D01*
X2850260Y-1852980D01*
X2850560Y-1853940D01*
X2851180Y-1854700D01*
X2852140Y-1855520D01*
X2853380Y-1856399D01*
X2856660Y-1858240D01*
X2860820Y-1860140D01*
X2865580Y-1861960D01*
X2870779Y-1863620D01*
X2874900Y-1864720D01*
X2882100Y-1866220D01*
X2891220Y-1867780D01*
X2901700Y-1869300D01*
X2912960Y-1870720D01*
X2921560Y-1871660D01*
X2946680Y-1873880D01*
X2968120Y-1875940D01*
X2977300Y-1876920D01*
X2984740Y-1877820D01*
X2989820Y-1878520D01*
X2993440Y-1878899D01*
X2995140Y-1878899D01*
X2996800Y-1878740D01*
X2998440Y-1878360D01*
X3000100Y-1877760D01*
X3001820Y-1876860D01*
X3003620Y-1875660D01*
X3005520Y-1874120D01*
X3007580Y-1872200D01*
X3009820Y-1869840D01*
X3012240Y-1867040D01*
X3014920Y-1863760D01*
X3021100Y-1855580D01*
X3028600Y-1845000D01*
X3037660Y-1831780D01*
X3080240Y-1767980D01*
X3109200Y-1725040D01*
X3119160Y-1710560D01*
X3125059Y-1702300D01*
X3126340Y-1700760D01*
X3126420Y-1700920D01*
X3126240Y-1702040D01*
X3124760Y-1707280D01*
X3121940Y-1715940D01*
X3118039Y-1727280D01*
X3113300Y-1740580D01*
X3103320Y-1767760D01*
X3095880Y-1787480D01*
X3093300Y-1793920D01*
X3093380Y-1794199D01*
X3093820Y-1793940D01*
X3094600Y-1793160D01*
X3097060Y-1790160D01*
X3102840Y-1782420D01*
X3108980Y-1774660D01*
X3118420Y-1763280D01*
X3126320Y-1754160D01*
X3129780Y-1750340D01*
X3133180Y-1746860D01*
X3136940Y-1743300D01*
X3140940Y-1739760D01*
X3145120Y-1736260D01*
X3149380Y-1732880D01*
X3153660Y-1729700D01*
X3157860Y-1726759D01*
X3161900Y-1724160D01*
X3165700Y-1721940D01*
X3169200Y-1720140D01*
X3172919Y-1718520D01*
X3176980Y-1716980D01*
X3181340Y-1715540D01*
X3186000Y-1714199D01*
X3190960Y-1712960D01*
X3196160Y-1711819D01*
X3201620Y-1710800D01*
X3207280Y-1709900D01*
X3213180Y-1709120D01*
X3219260Y-1708460D01*
X3225500Y-1707920D01*
X3238159Y-1707220D01*
X3244020Y-1707040D01*
X3249540Y-1707000D01*
X3254780Y-1707080D01*
X3259820Y-1707320D01*
X3264680Y-1707680D01*
X3269400Y-1708220D01*
X3274060Y-1708899D01*
X3278700Y-1709740D01*
X3283360Y-1710740D01*
X3288100Y-1711920D01*
X3297980Y-1714840D01*
X3332320Y-1726180D01*
X3291480Y-1726759D01*
X3286180Y-1726940D01*
X3280920Y-1727240D01*
X3275700Y-1727660D01*
X3270560Y-1728180D01*
X3265480Y-1728820D01*
X3255520Y-1730420D01*
X3245880Y-1732460D01*
X3241200Y-1733640D01*
X3236620Y-1734920D01*
X3232140Y-1736320D01*
X3227760Y-1737800D01*
X3223680Y-1739340D01*
X3219680Y-1741000D01*
X3215580Y-1742880D01*
X3211420Y-1744940D01*
X3207200Y-1747180D01*
X3202940Y-1749580D01*
X3198720Y-1752100D01*
X3194500Y-1754760D01*
X3186280Y-1760360D01*
X3182320Y-1763280D01*
X3178500Y-1766260D01*
X3174840Y-1769280D01*
X3171380Y-1772320D01*
X3168100Y-1775380D01*
X3164820Y-1778680D01*
X3161520Y-1782200D01*
X3158220Y-1785940D01*
X3154920Y-1789860D01*
X3151680Y-1793920D01*
X3148480Y-1798120D01*
X3145360Y-1802420D01*
X3140880Y-1808980D01*
X3138060Y-1813380D01*
X3135380Y-1817780D01*
X3132860Y-1822160D01*
X3130560Y-1826480D01*
X3128440Y-1830700D01*
X3122340Y-1843940D01*
X3117320Y-1855600D01*
X3115400Y-1860440D01*
X3113940Y-1864400D01*
X3113020Y-1867360D01*
X3112780Y-1868400D01*
X3112700Y-1869120D01*
X3113000Y-1870340D01*
X3113900Y-1871200D01*
X3115419Y-1871720D01*
X3117540Y-1871900D01*
X3120320Y-1871720D01*
X3123740Y-1871180D01*
X3127799Y-1870320D01*
X3134260Y-1868600D01*
X3138020Y-1867420D01*
X3146660Y-1864360D01*
X3156160Y-1860600D01*
X3161019Y-1858580D01*
X3170419Y-1854360D01*
X3174800Y-1852280D01*
X3178580Y-1850340D01*
X3182240Y-1848240D01*
X3186139Y-1845780D01*
X3190200Y-1843020D01*
X3194400Y-1839980D01*
X3198660Y-1836740D01*
X3202940Y-1833320D01*
X3207160Y-1829760D01*
X3211280Y-1826140D01*
X3215220Y-1822480D01*
X3218960Y-1818820D01*
X3222420Y-1815240D01*
X3230580Y-1806380D01*
X3234400Y-1802560D01*
X3237640Y-1799540D01*
X3240240Y-1797400D01*
X3242140Y-1796200D01*
X3242799Y-1795960D01*
X3243240Y-1795980D01*
X3243480Y-1796279D01*
X3243480Y-1796840D01*
X3242180Y-1801000D01*
X3240220Y-1807960D01*
X3237799Y-1817160D01*
X3235120Y-1827820D01*
X3230899Y-1845680D01*
X3229420Y-1852560D01*
X3228140Y-1858980D01*
X3227120Y-1864780D01*
X3226340Y-1869820D01*
X3225840Y-1873959D01*
X3225640Y-1877020D01*
X3225659Y-1878120D01*
X3225760Y-1878880D01*
X3225960Y-1879300D01*
X3226360Y-1879379D01*
X3228560Y-1879240D01*
X3232580Y-1878680D01*
X3245500Y-1876399D01*
X3264160Y-1872760D01*
X3287580Y-1867920D01*
X3333300Y-1858060D01*
X3477080Y-1825860D01*
X3531080Y-1861240D01*
X3547940Y-1872180D01*
X3542620Y-1846040D01*
X3537760Y-1824019D01*
X3537760Y-1823220D01*
X3537980Y-1822680D01*
X3538420Y-1822420D01*
X3539040Y-1822440D01*
X3539860Y-1822740D01*
X3540880Y-1823300D01*
X3542100Y-1824120D01*
X3545080Y-1826560D01*
X3548759Y-1830060D01*
X3553159Y-1834560D01*
X3562640Y-1844920D01*
X3566740Y-1849199D01*
X3570539Y-1852900D01*
X3574120Y-1856120D01*
X3577559Y-1858839D01*
X3580920Y-1861160D01*
X3584280Y-1863080D01*
X3587679Y-1864660D01*
X3591220Y-1865960D01*
X3594940Y-1867000D01*
X3598940Y-1867820D01*
X3603279Y-1868500D01*
X3609480Y-1869160D01*
X3615680Y-1869520D01*
X3621540Y-1869600D01*
X3626780Y-1869379D01*
X3631100Y-1868880D01*
X3632820Y-1868520D01*
X3634200Y-1868100D01*
X3635520Y-1867540D01*
X3636620Y-1866900D01*
X3637500Y-1866180D01*
X3638159Y-1865340D01*
X3638600Y-1864319D01*
X3638780Y-1863140D01*
X3638720Y-1861720D01*
X3638399Y-1860060D01*
X3637840Y-1858140D01*
X3636980Y-1855900D01*
X3635860Y-1853340D01*
X3632740Y-1847060D01*
X3628420Y-1839079D01*
X3624760Y-1832540D01*
X3619880Y-1824520D01*
X3614100Y-1815640D01*
X3606019Y-1803959D01*
X3599180Y-1794560D01*
X3592280Y-1785540D01*
X3585620Y-1777280D01*
X3577260Y-1767420D01*
X3572559Y-1761720D01*
X3568460Y-1756560D01*
X3565059Y-1752040D01*
X3562440Y-1748320D01*
X3560680Y-1745500D01*
X3560160Y-1744480D01*
X3559880Y-1743720D01*
X3559880Y-1743260D01*
X3560140Y-1743100D01*
X3561340Y-1743420D01*
X3563580Y-1744300D01*
X3566760Y-1745720D01*
X3575520Y-1749980D01*
X3586860Y-1755760D01*
X3599980Y-1762700D01*
X3611300Y-1768880D01*
X3625059Y-1776800D01*
X3643540Y-1787840D01*
X3661700Y-1798980D01*
X3685360Y-1813839D01*
X3699440Y-1822840D01*
X3730860Y-1843420D01*
X3743500Y-1851600D01*
X3754960Y-1858880D01*
X3764940Y-1865100D01*
X3773200Y-1870100D01*
X3779420Y-1873680D01*
X3783360Y-1875700D01*
X3784380Y-1876060D01*
X3784640Y-1876060D01*
X3784720Y-1875960D01*
X3784360Y-1874680D01*
X3783320Y-1872220D01*
X3779560Y-1864379D01*
X3774000Y-1853580D01*
X3767220Y-1841000D01*
X3763279Y-1834100D01*
X3761300Y-1830860D01*
X3758260Y-1826200D01*
X3756160Y-1823200D01*
X3753960Y-1820260D01*
X3751660Y-1817360D01*
X3749240Y-1814480D01*
X3746660Y-1811579D01*
X3743900Y-1808660D01*
X3737820Y-1802680D01*
X3730779Y-1796339D01*
X3722640Y-1789480D01*
X3713240Y-1781900D01*
X3702380Y-1773480D01*
X3691520Y-1765240D01*
X3676820Y-1754460D01*
X3660440Y-1742940D01*
X3649680Y-1735560D01*
X3632080Y-1723800D01*
X3612520Y-1711140D01*
X3602100Y-1704600D01*
X3592220Y-1698540D01*
X3584820Y-1694139D01*
X3577640Y-1690000D01*
X3569360Y-1685360D01*
X3560580Y-1680580D01*
X3549100Y-1674480D01*
X3539660Y-1669580D01*
X3525400Y-1662380D01*
X3516019Y-1657740D01*
X3495920Y-1648220D01*
X3487760Y-1644520D01*
X3480240Y-1641240D01*
X3473120Y-1638280D01*
X3464600Y-1634940D01*
X3455340Y-1631459D01*
X3443020Y-1627020D01*
X3430260Y-1622620D01*
X3419980Y-1619199D01*
X3407380Y-1615180D01*
X3397740Y-1612240D01*
X3388700Y-1609600D01*
X3365520Y-1603400D01*
X3341920Y-1596860D01*
X3334860Y-1594720D01*
X3332860Y-1594040D01*
X3332040Y-1593660D01*
X3332000Y-1592860D01*
X3332300Y-1589820D01*
X3333920Y-1577740D01*
X3336740Y-1558720D01*
X3340580Y-1534139D01*
X3347780Y-1489840D01*
X3352520Y-1462240D01*
X3357440Y-1435800D01*
X3363060Y-1407780D01*
X3367460Y-1387280D01*
X3371640Y-1369259D01*
X3373600Y-1361420D01*
X3375440Y-1354460D01*
X3377140Y-1348460D01*
X3378680Y-1343540D01*
X3383620Y-1329860D01*
X3390600Y-1311540D01*
X3399900Y-1287940D01*
X3410920Y-1260720D01*
X3418680Y-1242160D01*
X3424660Y-1228460D01*
X3431840Y-1212520D01*
X3441040Y-1192600D01*
X3451080Y-1171220D01*
X3462840Y-1146700D01*
X3475920Y-1119920D01*
X3485179Y-1101340D01*
X3499540Y-1073240D01*
X3512040Y-1049280D01*
X3525460Y-1024120D01*
X3535320Y-1006040D01*
X3543980Y-990560D01*
X3551000Y-978480D01*
X3553800Y-973920D01*
X3556560Y-969659D01*
X3560080Y-964460D01*
X3569200Y-951560D01*
X3580539Y-936020D01*
X3595240Y-916360D01*
X3611200Y-895480D01*
X3644920Y-852420D01*
X3659560Y-833520D01*
X3676200Y-811820D01*
X3694020Y-788259D01*
X3708980Y-768220D01*
X3719560Y-753840D01*
X3728940Y-740819D01*
X3744460Y-718740D01*
X3758420Y-698360D01*
X3769940Y-681200D01*
X3779840Y-666120D01*
X3791440Y-647580D01*
X3795340Y-641480D01*
X3798960Y-636020D01*
X3802180Y-631340D01*
X3804940Y-627560D01*
X3807120Y-624820D01*
X3808660Y-623240D01*
X3809160Y-622920D01*
X3809460Y-622940D01*
X3809680Y-623760D01*
X3809620Y-625340D01*
X3809260Y-627580D01*
X3808639Y-630420D01*
X3807780Y-633740D01*
X3805440Y-641500D01*
X3803519Y-647020D01*
X3801100Y-653240D01*
X3797860Y-660939D01*
X3794020Y-669700D01*
X3789700Y-679180D01*
X3782740Y-693940D01*
X3778000Y-703580D01*
X3773920Y-711580D01*
X3769560Y-719780D01*
X3764760Y-728560D01*
X3758320Y-739980D01*
X3751620Y-751520D01*
X3743620Y-764900D01*
X3738500Y-773180D01*
X3733680Y-780699D01*
X3726440Y-791440D01*
X3717180Y-804520D01*
X3705940Y-819980D01*
X3688240Y-843800D01*
X3674380Y-862099D01*
X3660280Y-880460D01*
X3626180Y-924120D01*
X3598540Y-959720D01*
X3578120Y-986460D01*
X3572020Y-995100D01*
X3565380Y-1005020D01*
X3559020Y-1014980D01*
X3553720Y-1023760D01*
X3551840Y-1027159D01*
X3547740Y-1035440D01*
X3543399Y-1045020D01*
X3540220Y-1052600D01*
X3536340Y-1062600D01*
X3533200Y-1071720D01*
X3531940Y-1076080D01*
X3530800Y-1080640D01*
X3529780Y-1085360D01*
X3528880Y-1090200D01*
X3528100Y-1095140D01*
X3527480Y-1100140D01*
X3526980Y-1105180D01*
X3526620Y-1110220D01*
X3526400Y-1115240D01*
X3526340Y-1120200D01*
X3526420Y-1125040D01*
X3528120Y-1158260D01*
X3569860Y-1179440D01*
X3579680Y-1184060D01*
X3584240Y-1186040D01*
X3588639Y-1187820D01*
X3592919Y-1189380D01*
X3597140Y-1190780D01*
X3601320Y-1192000D01*
X3605520Y-1193060D01*
X3609800Y-1193980D01*
X3614180Y-1194780D01*
X3618740Y-1195440D01*
X3623500Y-1196000D01*
X3628519Y-1196480D01*
X3633860Y-1196880D01*
X3646259Y-1197500D01*
X3652360Y-1197680D01*
X3657940Y-1197740D01*
X3663080Y-1197640D01*
X3667840Y-1197380D01*
X3672340Y-1196940D01*
X3676620Y-1196320D01*
X3680800Y-1195500D01*
X3684960Y-1194440D01*
X3689160Y-1193160D01*
X3693500Y-1191640D01*
X3698039Y-1189860D01*
X3708159Y-1185440D01*
X3711640Y-1183760D01*
X3715220Y-1181900D01*
X3718900Y-1179840D01*
X3722660Y-1177600D01*
X3730360Y-1172620D01*
X3734260Y-1169920D01*
X3740120Y-1165600D01*
X3747940Y-1159460D01*
X3755600Y-1152940D01*
X3762980Y-1146140D01*
X3768279Y-1140900D01*
X3774420Y-1134320D01*
X3780680Y-1127060D01*
X3787000Y-1119220D01*
X3793260Y-1110920D01*
X3797880Y-1104480D01*
X3803860Y-1095680D01*
X3806760Y-1091220D01*
X3810940Y-1084500D01*
X3816180Y-1075560D01*
X3820960Y-1066780D01*
X3825560Y-1057600D01*
X3829900Y-1048240D01*
X3833980Y-1038760D01*
X3836840Y-1031600D01*
X3840380Y-1022099D01*
X3843540Y-1012700D01*
X3845000Y-1008080D01*
X3847580Y-999000D01*
X3849740Y-990240D01*
X3851300Y-982640D01*
X3852300Y-976740D01*
X3854480Y-961780D01*
X3856760Y-943439D01*
X3859320Y-919980D01*
X3861480Y-897640D01*
X3863220Y-877740D01*
X3865179Y-851020D01*
X3866240Y-831220D01*
X3867120Y-809160D01*
X3867740Y-787740D01*
X3868159Y-767680D01*
X3868480Y-741640D01*
X3868600Y-720260D01*
X3868560Y-695960D01*
X3868300Y-668960D01*
X3867940Y-647640D01*
X3867140Y-616140D01*
X3866280Y-587900D01*
X3865299Y-562340D01*
X3864300Y-540280D01*
X3863279Y-522600D01*
X3862300Y-510160D01*
X3861840Y-506160D01*
X3861400Y-503780D01*
X3860539Y-501700D01*
X3859760Y-500379D01*
X3858920Y-499480D01*
X3858000Y-499020D01*
X3856940Y-499060D01*
X3855720Y-499560D01*
X3854320Y-500600D01*
X3852679Y-502140D01*
X3850800Y-504240D01*
X3848620Y-506920D01*
X3841380Y-516560D01*
X3836440Y-522580D01*
X3830220Y-529620D01*
X3823060Y-537380D01*
X3815240Y-545540D01*
X3805000Y-555840D01*
X3796760Y-563740D01*
X3790240Y-569760D01*
X3783399Y-575740D01*
X3775800Y-582180D01*
X3767580Y-588920D01*
X3758940Y-595840D01*
X3745520Y-606280D01*
X3734300Y-614720D01*
X3725560Y-621120D01*
X3717180Y-627060D01*
X3709540Y-632300D01*
X3693360Y-643060D01*
X3668740Y-658980D01*
X3648420Y-671740D01*
X3631720Y-681979D01*
X3617520Y-690380D01*
X3602640Y-698860D01*
X3585280Y-708540D01*
X3561600Y-721480D01*
X3535260Y-735600D01*
X3507380Y-750220D01*
X3497220Y-755740D01*
X3487520Y-761240D01*
X3478300Y-766700D01*
X3469580Y-772080D01*
X3459440Y-778740D01*
X3451940Y-783960D01*
X3445000Y-789080D01*
X3438639Y-794100D01*
X3432900Y-799000D01*
X3427760Y-803780D01*
X3424520Y-807039D01*
X3421220Y-810520D01*
X3417880Y-814220D01*
X3411240Y-822080D01*
X3404840Y-830240D01*
X3401800Y-834340D01*
X3398920Y-838400D01*
X3396220Y-842380D01*
X3393720Y-846240D01*
X3391480Y-849940D01*
X3389500Y-853439D01*
X3387840Y-856700D01*
X3384160Y-864700D01*
X3382600Y-868480D01*
X3381240Y-872159D01*
X3380040Y-875860D01*
X3379020Y-879599D01*
X3378140Y-883439D01*
X3377400Y-887480D01*
X3376780Y-891740D01*
X3376280Y-896300D01*
X3375899Y-901220D01*
X3375620Y-906580D01*
X3375320Y-918780D01*
X3375299Y-933439D01*
X3375480Y-946340D01*
X3375880Y-957640D01*
X3376560Y-967680D01*
X3377020Y-972320D01*
X3377580Y-976780D01*
X3378240Y-981100D01*
X3379000Y-985320D01*
X3379880Y-989460D01*
X3380880Y-993600D01*
X3382000Y-997740D01*
X3383260Y-1001960D01*
X3386200Y-1010759D01*
X3389780Y-1020340D01*
X3393460Y-1029419D01*
X3397700Y-1039140D01*
X3403500Y-1051620D01*
X3408320Y-1061380D01*
X3413060Y-1070520D01*
X3417559Y-1078640D01*
X3422360Y-1086620D01*
X3425580Y-1092160D01*
X3428519Y-1097580D01*
X3431120Y-1102720D01*
X3433320Y-1107460D01*
X3435020Y-1111620D01*
X3436200Y-1115080D01*
X3436740Y-1117700D01*
X3436780Y-1118660D01*
X3436460Y-1120460D01*
X3435760Y-1123180D01*
X3434680Y-1126720D01*
X3431560Y-1135860D01*
X3427400Y-1147060D01*
X3422480Y-1159560D01*
X3417820Y-1170820D01*
X3413360Y-1180820D01*
X3408500Y-1191180D01*
X3403420Y-1201460D01*
X3398360Y-1211280D01*
X3393480Y-1220240D01*
X3389000Y-1227940D01*
X3384720Y-1234620D01*
X3380299Y-1240820D01*
X3378180Y-1243540D01*
X3376160Y-1245960D01*
X3374260Y-1248060D01*
X3372520Y-1249820D01*
X3370940Y-1251220D01*
X3369560Y-1252220D01*
X3368399Y-1252800D01*
X3367480Y-1252920D01*
X3366820Y-1252580D01*
X3366220Y-1251460D01*
X3365419Y-1249360D01*
X3363340Y-1242460D01*
X3360740Y-1232460D01*
X3357760Y-1220000D01*
X3354560Y-1205680D01*
X3346940Y-1169520D01*
X3338800Y-1133080D01*
X3327720Y-1084960D01*
X3320520Y-1054500D01*
X3314040Y-1027600D01*
X3307400Y-1001060D01*
X3300880Y-976440D01*
X3294860Y-954599D01*
X3289560Y-936020D01*
X3283580Y-915840D01*
X3277840Y-897340D01*
X3272540Y-881060D01*
X3267799Y-867580D01*
X3265220Y-860819D01*
X3258920Y-845260D01*
X3254440Y-834760D01*
X3248720Y-821919D01*
X3244180Y-812140D01*
X3239800Y-803060D01*
X3234700Y-793060D01*
X3231060Y-786400D01*
X3229420Y-783600D01*
X3224920Y-776660D01*
X3219100Y-768360D01*
X3212620Y-759700D01*
X3205860Y-751140D01*
X3199160Y-743139D01*
X3195940Y-739479D01*
X3192880Y-736160D01*
X3170620Y-713100D01*
X3177160Y-682500D01*
X3178020Y-677440D01*
X3178759Y-672099D01*
X3179380Y-666580D01*
X3179840Y-660980D01*
X3180160Y-655400D01*
X3180320Y-649980D01*
X3180320Y-644800D01*
X3180140Y-639960D01*
X3179800Y-635600D01*
X3179280Y-631680D01*
X3178500Y-627500D01*
X3177520Y-623080D01*
X3176340Y-618460D01*
X3175000Y-613740D01*
X3173540Y-609040D01*
X3171960Y-604420D01*
X3170320Y-599980D01*
X3168620Y-595800D01*
X3166900Y-592000D01*
X3165120Y-588540D01*
X3163000Y-584900D01*
X3160520Y-581060D01*
X3157720Y-577060D01*
X3154720Y-573020D01*
X3151520Y-569000D01*
X3148220Y-565080D01*
X3144880Y-561340D01*
X3141540Y-557860D01*
X3138260Y-554700D01*
X3135059Y-551880D01*
X3131560Y-548980D01*
X3127760Y-546000D01*
X3123740Y-543000D01*
X3115380Y-537140D01*
X3111220Y-534380D01*
X3103279Y-529520D01*
X3099680Y-527520D01*
X3096300Y-525820D01*
X3092440Y-524040D01*
X3083279Y-520220D01*
X3072880Y-516280D01*
X3062060Y-512560D01*
X3056740Y-510860D01*
X3046760Y-507980D01*
X3036220Y-505240D01*
X3025179Y-502540D01*
X3014440Y-500100D01*
X3004840Y-498120D01*
X2983580Y-494140D01*
X2948440Y-487100D01*
X2898260Y-476780D01*
X2835580Y-463640D01*
X2807860Y-457700D01*
X2764120Y-448040D01*
X2750500Y-444860D01*
X2743279Y-442939D01*
X2742940Y-442980D01*
X2742860Y-443200D01*
X2743060Y-443620D01*
X2744260Y-445020D01*
X2746460Y-447100D01*
X2749580Y-449799D01*
X2758320Y-456820D01*
X2769940Y-465660D01*
X2779460Y-472620D01*
X2792540Y-481780D01*
X2808060Y-492239D01*
X2829660Y-506400D01*
X2843200Y-515060D01*
X2858980Y-524960D01*
X2878420Y-536840D01*
X2891920Y-544840D01*
X2924820Y-563880D01*
X2965880Y-587180D01*
X3006040Y-609640D01*
X3075539Y-647860D01*
X3098480Y-660759D01*
X3115500Y-670600D01*
X3121320Y-674100D01*
X3125100Y-676500D01*
X3126160Y-677260D01*
X3126640Y-677720D01*
X3126640Y-677820D01*
X3126120Y-677800D01*
X3122880Y-676760D01*
X3117000Y-674500D01*
X3108820Y-671140D01*
X3086700Y-661680D01*
X3058980Y-649400D01*
X3024320Y-633840D01*
X3001740Y-623820D01*
X2982200Y-615300D01*
X2967280Y-608940D01*
X2958560Y-605400D01*
X2954960Y-603700D01*
X2950040Y-601100D01*
X2943940Y-597680D01*
X2936780Y-593520D01*
X2919760Y-583220D01*
X2899940Y-570820D01*
X2872760Y-553260D01*
X2856420Y-542460D01*
X2833300Y-526840D01*
X2810059Y-510820D01*
X2792160Y-498280D01*
X2775500Y-486440D01*
X2760700Y-475700D01*
X2748340Y-466480D01*
X2743260Y-462580D01*
X2737480Y-458000D01*
X2727460Y-450400D01*
X2717880Y-443640D01*
X2709200Y-438020D01*
X2705320Y-435720D01*
X2701860Y-433800D01*
X2698840Y-432320D01*
X2696320Y-431300D01*
X2694380Y-430760D01*
G37*
G36*
X1002700Y-733600D02*
G01*
X989180Y-733840D01*
X973820Y-734400D01*
X963379Y-735020D01*
X953620Y-735920D01*
X948900Y-736480D01*
X939640Y-737880D01*
X930440Y-739680D01*
X921040Y-741919D01*
X911200Y-744640D01*
X900660Y-747900D01*
X885720Y-752940D01*
X877860Y-755740D01*
X871360Y-758220D01*
X866100Y-760480D01*
X863880Y-761520D01*
X860220Y-763520D01*
X857500Y-765460D01*
X856440Y-766420D01*
X855540Y-767380D01*
X854840Y-768360D01*
X854260Y-769380D01*
X853840Y-770420D01*
X853520Y-771520D01*
X853100Y-774220D01*
X853000Y-775620D01*
X853020Y-776820D01*
X853199Y-777880D01*
X853600Y-778780D01*
X854220Y-779520D01*
X855120Y-780160D01*
X856340Y-780660D01*
X857900Y-781060D01*
X859840Y-781380D01*
X862200Y-781620D01*
X868300Y-781880D01*
X883580Y-782000D01*
X892820Y-782340D01*
X903080Y-783120D01*
X908420Y-783640D01*
X916480Y-784580D01*
X926940Y-786060D01*
X936540Y-787740D01*
X945140Y-789680D01*
X954599Y-792360D01*
X964760Y-795699D01*
X972540Y-798500D01*
X982640Y-802500D01*
X991940Y-806560D01*
X996100Y-808580D01*
X999960Y-810580D01*
X1004020Y-812840D01*
X1008300Y-815380D01*
X1017300Y-821060D01*
X1026480Y-827300D01*
X1031000Y-830520D01*
X1039520Y-836960D01*
X1043439Y-840080D01*
X1047020Y-843080D01*
X1051660Y-847240D01*
X1057040Y-852360D01*
X1061620Y-857120D01*
X1063640Y-859360D01*
X1065460Y-861540D01*
X1067100Y-863660D01*
X1069900Y-867740D01*
X1071040Y-869720D01*
X1072020Y-871640D01*
X1072860Y-873540D01*
X1073560Y-875420D01*
X1074100Y-877300D01*
X1074520Y-879140D01*
X1074900Y-881540D01*
X1075120Y-883960D01*
X1075200Y-886420D01*
X1075120Y-888900D01*
X1074900Y-891440D01*
X1074520Y-894040D01*
X1073980Y-896700D01*
X1073300Y-899400D01*
X1072460Y-902200D01*
X1071460Y-905060D01*
X1070300Y-908020D01*
X1068440Y-912200D01*
X1067000Y-914800D01*
X1065120Y-917820D01*
X1062840Y-921220D01*
X1057200Y-929020D01*
X1050340Y-937820D01*
X1042540Y-947260D01*
X1038400Y-952120D01*
X1027540Y-964300D01*
X1005540Y-987860D01*
X1000580Y-993379D01*
X996720Y-997900D01*
X993840Y-1001560D01*
X991900Y-1004460D01*
X991260Y-1005660D01*
X990819Y-1006700D01*
X990580Y-1007600D01*
X990520Y-1008400D01*
X990639Y-1009060D01*
X990920Y-1009640D01*
X991380Y-1010140D01*
X991979Y-1010560D01*
X992720Y-1010939D01*
X994580Y-1011580D01*
X996600Y-1012020D01*
X999520Y-1012520D01*
X1007660Y-1013580D01*
X1018199Y-1014700D01*
X1030320Y-1015780D01*
X1050740Y-1017280D01*
X1057640Y-1017920D01*
X1063920Y-1018620D01*
X1069540Y-1019400D01*
X1074540Y-1020260D01*
X1078880Y-1021180D01*
X1082580Y-1022180D01*
X1085640Y-1023259D01*
X1088060Y-1024400D01*
X1089840Y-1025620D01*
X1091280Y-1027039D01*
X1092640Y-1028620D01*
X1093880Y-1030340D01*
X1094960Y-1032120D01*
X1095840Y-1033920D01*
X1096520Y-1035699D01*
X1096940Y-1037360D01*
X1097300Y-1041800D01*
X1097880Y-1044599D01*
X1098740Y-1046940D01*
X1099780Y-1048540D01*
X1100640Y-1048780D01*
X1102100Y-1048420D01*
X1104040Y-1047520D01*
X1106420Y-1046140D01*
X1109160Y-1044300D01*
X1112140Y-1042060D01*
X1115340Y-1039479D01*
X1120920Y-1034599D01*
X1125740Y-1030620D01*
X1130680Y-1026860D01*
X1135500Y-1023500D01*
X1139920Y-1020720D01*
X1143680Y-1018700D01*
X1146420Y-1017620D01*
X1149460Y-1016860D01*
X1153220Y-1016140D01*
X1157580Y-1015520D01*
X1162380Y-1014980D01*
X1167500Y-1014560D01*
X1172780Y-1014240D01*
X1178060Y-1014100D01*
X1183980Y-1014080D01*
X1189800Y-1014180D01*
X1194680Y-1014460D01*
X1198840Y-1014960D01*
X1200680Y-1015320D01*
X1202420Y-1015780D01*
X1204060Y-1016320D01*
X1205620Y-1016960D01*
X1207140Y-1017700D01*
X1208620Y-1018560D01*
X1211620Y-1020680D01*
X1214760Y-1023360D01*
X1218260Y-1026680D01*
X1222900Y-1031360D01*
X1225240Y-1033900D01*
X1227240Y-1036220D01*
X1228900Y-1038379D01*
X1230240Y-1040400D01*
X1231280Y-1042300D01*
X1232040Y-1044160D01*
X1232520Y-1045980D01*
X1232760Y-1047780D01*
X1232760Y-1049640D01*
X1232540Y-1051540D01*
X1231700Y-1055840D01*
X1231500Y-1058320D01*
X1231500Y-1060940D01*
X1231720Y-1063600D01*
X1232120Y-1066220D01*
X1232700Y-1068740D01*
X1233460Y-1071060D01*
X1234400Y-1073100D01*
X1235800Y-1075380D01*
X1237940Y-1078380D01*
X1240680Y-1081960D01*
X1243940Y-1086000D01*
X1247620Y-1090380D01*
X1251600Y-1094940D01*
X1257900Y-1101900D01*
X1261780Y-1106000D01*
X1269160Y-1113360D01*
X1276760Y-1120440D01*
X1284019Y-1126760D01*
X1287340Y-1129460D01*
X1290380Y-1131780D01*
X1293020Y-1133660D01*
X1296639Y-1135880D01*
X1298940Y-1137140D01*
X1301080Y-1138180D01*
X1303080Y-1139020D01*
X1304980Y-1139640D01*
X1306800Y-1140080D01*
X1308560Y-1140320D01*
X1310300Y-1140360D01*
X1312000Y-1140220D01*
X1313740Y-1139900D01*
X1315500Y-1139400D01*
X1317340Y-1138740D01*
X1319340Y-1137700D01*
X1322060Y-1135940D01*
X1325420Y-1133520D01*
X1329319Y-1130520D01*
X1333680Y-1127020D01*
X1343400Y-1118780D01*
X1353899Y-1109360D01*
X1359220Y-1104400D01*
X1366020Y-1097880D01*
X1371900Y-1092060D01*
X1376879Y-1086900D01*
X1381020Y-1082300D01*
X1384400Y-1078220D01*
X1387040Y-1074560D01*
X1389000Y-1071300D01*
X1389740Y-1069780D01*
X1390340Y-1068320D01*
X1390780Y-1066940D01*
X1391100Y-1065600D01*
X1391279Y-1064320D01*
X1391339Y-1063060D01*
X1391279Y-1061900D01*
X1390720Y-1059240D01*
X1389620Y-1056100D01*
X1387960Y-1052460D01*
X1385760Y-1048360D01*
X1383040Y-1043780D01*
X1379760Y-1038740D01*
X1375960Y-1033259D01*
X1371620Y-1027300D01*
X1366759Y-1020900D01*
X1361879Y-1014700D01*
X1357360Y-1009160D01*
X1352860Y-1003860D01*
X1348500Y-998880D01*
X1344319Y-994300D01*
X1340400Y-990200D01*
X1336840Y-986640D01*
X1333680Y-983720D01*
X1331040Y-981520D01*
X1328940Y-980120D01*
X1328140Y-979720D01*
X1324319Y-978620D01*
X1320400Y-978020D01*
X1316860Y-977960D01*
X1314139Y-978480D01*
X1312840Y-978580D01*
X1311120Y-978120D01*
X1309060Y-977120D01*
X1306740Y-975639D01*
X1304220Y-973760D01*
X1301579Y-971480D01*
X1298899Y-968900D01*
X1294620Y-964160D01*
X1291780Y-960699D01*
X1289460Y-957500D01*
X1288480Y-955939D01*
X1286860Y-952800D01*
X1286200Y-951180D01*
X1285160Y-947700D01*
X1284760Y-945819D01*
X1284160Y-941620D01*
X1283800Y-936700D01*
X1283640Y-930920D01*
X1283500Y-918439D01*
X1283280Y-913139D01*
X1282880Y-908120D01*
X1282320Y-903379D01*
X1281579Y-898880D01*
X1280660Y-894580D01*
X1279560Y-890480D01*
X1278260Y-886520D01*
X1276780Y-882700D01*
X1275100Y-878980D01*
X1273660Y-876320D01*
X1271700Y-873220D01*
X1269260Y-869740D01*
X1266400Y-865920D01*
X1263180Y-861840D01*
X1259620Y-857520D01*
X1255800Y-853080D01*
X1251740Y-848520D01*
X1247520Y-843940D01*
X1238740Y-834900D01*
X1234300Y-830560D01*
X1227220Y-824020D01*
X1219480Y-817220D01*
X1215440Y-813800D01*
X1205100Y-805380D01*
X1196820Y-798960D01*
X1188840Y-793040D01*
X1181400Y-787820D01*
X1174720Y-783520D01*
X1171180Y-781400D01*
X1166840Y-778960D01*
X1157260Y-773900D01*
X1149580Y-770100D01*
X1136520Y-764060D01*
X1126480Y-759800D01*
X1117400Y-756320D01*
X1108880Y-753520D01*
X1099080Y-750660D01*
X1088460Y-747820D01*
X1077620Y-745180D01*
X1067120Y-742880D01*
X1057580Y-741040D01*
X1031800Y-736680D01*
X1023180Y-735120D01*
X1018340Y-734140D01*
X1016300Y-733880D01*
X1012900Y-733700D01*
X1008300Y-733600D01*
G37*
G36*
X451800Y-733760D02*
G01*
X446160Y-733880D01*
X440760Y-734160D01*
X435600Y-734620D01*
X430720Y-735240D01*
X426100Y-736020D01*
X421680Y-737000D01*
X417440Y-738160D01*
X413340Y-739520D01*
X409360Y-741080D01*
X405480Y-742860D01*
X401640Y-744860D01*
X397840Y-747120D01*
X394000Y-749760D01*
X390160Y-752780D01*
X386440Y-756040D01*
X382920Y-759460D01*
X379720Y-762960D01*
X376940Y-766400D01*
X374680Y-769700D01*
X373760Y-771280D01*
X371460Y-775680D01*
X369760Y-779260D01*
X368680Y-782159D01*
X368200Y-784560D01*
X368300Y-786580D01*
X368960Y-788400D01*
X370160Y-790160D01*
X372440Y-792480D01*
X374140Y-793680D01*
X379840Y-797060D01*
X388200Y-801540D01*
X398640Y-806840D01*
X410640Y-812680D01*
X436900Y-824900D01*
X448960Y-830740D01*
X459360Y-836040D01*
X467640Y-840560D01*
X470820Y-842440D01*
X473300Y-844040D01*
X475000Y-845300D01*
X475880Y-846220D01*
X475980Y-846540D01*
X475760Y-847500D01*
X474200Y-851860D01*
X471320Y-859040D01*
X467320Y-868540D01*
X462440Y-879840D01*
X456860Y-892440D01*
X450880Y-905639D01*
X445040Y-917960D01*
X439680Y-928760D01*
X435000Y-937580D01*
X433020Y-941080D01*
X431300Y-943920D01*
X429880Y-946000D01*
X428800Y-947300D01*
X428400Y-947640D01*
X428100Y-947760D01*
X427100Y-947540D01*
X422600Y-945920D01*
X415120Y-942880D01*
X405200Y-938680D01*
X393400Y-933520D01*
X366380Y-921340D01*
X353040Y-915600D01*
X340940Y-910740D01*
X335540Y-908700D01*
X326300Y-905520D01*
X322640Y-904440D01*
X319700Y-903740D01*
X317540Y-903420D01*
X316780Y-903400D01*
X316260Y-903520D01*
X314940Y-904300D01*
X313540Y-905660D01*
X312100Y-907520D01*
X310660Y-909800D01*
X309260Y-912420D01*
X307960Y-915320D01*
X306780Y-918420D01*
X305780Y-921620D01*
X304620Y-926260D01*
X303580Y-931280D01*
X302700Y-936420D01*
X302020Y-941400D01*
X301600Y-945980D01*
X301460Y-949840D01*
X301540Y-951660D01*
X301740Y-953720D01*
X302540Y-958379D01*
X303740Y-963500D01*
X305280Y-968840D01*
X307080Y-974060D01*
X309100Y-978940D01*
X310600Y-981880D01*
X312600Y-985180D01*
X315000Y-988760D01*
X317780Y-992540D01*
X320840Y-996460D01*
X324140Y-1000400D01*
X327620Y-1004340D01*
X331200Y-1008160D01*
X334840Y-1011800D01*
X338459Y-1015180D01*
X341680Y-1017960D01*
X345300Y-1020879D01*
X349240Y-1023920D01*
X357939Y-1030120D01*
X367239Y-1036240D01*
X371940Y-1039160D01*
X381220Y-1044539D01*
X385640Y-1046919D01*
X389860Y-1049020D01*
X405060Y-1056120D01*
X416079Y-1060960D01*
X420760Y-1062920D01*
X424680Y-1064460D01*
X427680Y-1065540D01*
X430820Y-1066420D01*
X432520Y-1066760D01*
X433940Y-1066840D01*
X435100Y-1066620D01*
X436019Y-1066060D01*
X436740Y-1065080D01*
X437280Y-1063640D01*
X437640Y-1061680D01*
X437879Y-1059180D01*
X438040Y-1056060D01*
X438200Y-1043520D01*
X438440Y-1039479D01*
X438820Y-1035720D01*
X439320Y-1032340D01*
X439940Y-1029419D01*
X440640Y-1027060D01*
X441420Y-1025380D01*
X443860Y-1022580D01*
X445180Y-1019440D01*
X446079Y-1015460D01*
X446540Y-1008720D01*
X446940Y-1006240D01*
X447580Y-1003700D01*
X448420Y-1001180D01*
X449440Y-998720D01*
X450600Y-996440D01*
X451880Y-994380D01*
X453260Y-992640D01*
X454780Y-991120D01*
X456460Y-989700D01*
X458260Y-988400D01*
X460120Y-987280D01*
X461980Y-986360D01*
X463780Y-985660D01*
X465480Y-985220D01*
X468140Y-984860D01*
X469380Y-984300D01*
X470720Y-983360D01*
X472140Y-982060D01*
X473660Y-980420D01*
X475240Y-978439D01*
X476880Y-976140D01*
X478579Y-973500D01*
X482160Y-967320D01*
X489200Y-953220D01*
X492500Y-946900D01*
X495600Y-941280D01*
X498360Y-936660D01*
X500600Y-933319D01*
X501480Y-932200D01*
X502180Y-931520D01*
X502680Y-931300D01*
X503400Y-931180D01*
X504380Y-931200D01*
X506960Y-931580D01*
X510360Y-932420D01*
X514480Y-933660D01*
X519280Y-935300D01*
X524640Y-937320D01*
X530520Y-939659D01*
X536820Y-942320D01*
X543460Y-945280D01*
X551300Y-948900D01*
X559200Y-952680D01*
X566000Y-956080D01*
X571720Y-959140D01*
X576460Y-961900D01*
X580240Y-964400D01*
X583160Y-966660D01*
X584300Y-967720D01*
X585260Y-968760D01*
X586020Y-969740D01*
X586600Y-970680D01*
X587000Y-971620D01*
X587240Y-972520D01*
X587320Y-973400D01*
X587240Y-974620D01*
X587020Y-976080D01*
X586160Y-979599D01*
X584860Y-983760D01*
X583160Y-988319D01*
X581160Y-993020D01*
X578940Y-997660D01*
X575660Y-1004200D01*
X574500Y-1006700D01*
X573660Y-1008740D01*
X573140Y-1010360D01*
X572920Y-1011620D01*
X573000Y-1012560D01*
X573400Y-1013220D01*
X574080Y-1013660D01*
X575080Y-1013920D01*
X577940Y-1014080D01*
X579540Y-1013900D01*
X581220Y-1013420D01*
X582940Y-1012660D01*
X584680Y-1011640D01*
X586340Y-1010400D01*
X587900Y-1009000D01*
X589300Y-1007440D01*
X591940Y-1003800D01*
X593660Y-1002099D01*
X595620Y-1000680D01*
X597860Y-999520D01*
X600400Y-998620D01*
X603240Y-998000D01*
X606380Y-997620D01*
X612820Y-997360D01*
X615840Y-997000D01*
X618820Y-996420D01*
X621680Y-995660D01*
X624340Y-994740D01*
X626700Y-993700D01*
X628700Y-992520D01*
X631840Y-990000D01*
X633980Y-988840D01*
X636580Y-987780D01*
X639540Y-986860D01*
X642780Y-986100D01*
X646220Y-985540D01*
X649760Y-985180D01*
X656720Y-985020D01*
X662740Y-984680D01*
X665240Y-984419D01*
X667320Y-984100D01*
X668880Y-983740D01*
X669860Y-983340D01*
X670200Y-982900D01*
X670000Y-982140D01*
X668439Y-979020D01*
X665660Y-974240D01*
X659280Y-964200D01*
X657880Y-961780D01*
X654599Y-955400D01*
X650819Y-947260D01*
X646700Y-937740D01*
X642400Y-927260D01*
X638100Y-916180D01*
X629320Y-891900D01*
X624320Y-878520D01*
X615820Y-857020D01*
X611620Y-846900D01*
X607640Y-837620D01*
X604000Y-829520D01*
X600140Y-821540D01*
X597400Y-816200D01*
X594720Y-811340D01*
X592100Y-806880D01*
X589460Y-802800D01*
X586780Y-799020D01*
X584000Y-795480D01*
X581100Y-792159D01*
X578020Y-788980D01*
X574740Y-785900D01*
X571200Y-782840D01*
X567340Y-779780D01*
X563480Y-776880D01*
X559520Y-774060D01*
X550720Y-768160D01*
X541380Y-762240D01*
X532200Y-756780D01*
X527900Y-754360D01*
X519760Y-750160D01*
X514900Y-747880D01*
X504680Y-743480D01*
X499620Y-741480D01*
X494780Y-739680D01*
X490360Y-738160D01*
X486460Y-736960D01*
X483040Y-736100D01*
X478980Y-735400D01*
X474240Y-734820D01*
X468980Y-734340D01*
X463360Y-734000D01*
X457580Y-733800D01*
G37*
G36*
X732380Y-1009920D02*
G01*
X730759Y-1010260D01*
X729440Y-1011140D01*
X728560Y-1012460D01*
X728220Y-1014080D01*
X728560Y-1015680D01*
X729440Y-1017000D01*
X730759Y-1017880D01*
X732380Y-1018220D01*
X733980Y-1017880D01*
X735300Y-1017000D01*
X736180Y-1015680D01*
X736520Y-1014080D01*
X736180Y-1012460D01*
X735300Y-1011140D01*
X733980Y-1010260D01*
G37*
G36*
X663540Y-1009920D02*
G01*
X658660Y-1010000D01*
X654659Y-1010220D01*
X651480Y-1010600D01*
X649120Y-1011140D01*
X647480Y-1011900D01*
X646560Y-1012860D01*
X646260Y-1014060D01*
X647140Y-1018080D01*
X647099Y-1021020D01*
X646480Y-1023940D01*
X644760Y-1027820D01*
X644400Y-1029460D01*
X644260Y-1031380D01*
X644340Y-1033500D01*
X644620Y-1035759D01*
X645100Y-1038100D01*
X645800Y-1040420D01*
X646680Y-1042700D01*
X647700Y-1044920D01*
X650468Y-1049940D01*
X666320Y-1049940D01*
X666380Y-1046640D01*
X666760Y-1042960D01*
X667220Y-1039960D01*
X667680Y-1037820D01*
X668199Y-1036520D01*
X668900Y-1036020D01*
X669880Y-1036340D01*
X671260Y-1037480D01*
X673120Y-1039380D01*
X677820Y-1044659D01*
X679460Y-1046680D01*
X680440Y-1048259D01*
X680800Y-1049500D01*
X680540Y-1050500D01*
X679640Y-1051340D01*
X678139Y-1052160D01*
X676000Y-1053020D01*
X673139Y-1053920D01*
X670540Y-1054400D01*
X668460Y-1054380D01*
X667200Y-1053900D01*
X666600Y-1052480D01*
X666320Y-1049940D01*
X650468Y-1049940D01*
X652440Y-1052940D01*
X653600Y-1054460D01*
X654659Y-1055660D01*
X657159Y-1057820D01*
X657600Y-1058780D01*
X656940Y-1059380D01*
X655200Y-1059600D01*
X654220Y-1059920D01*
X653220Y-1060780D01*
X652200Y-1062160D01*
X651220Y-1063980D01*
X650300Y-1066180D01*
X649460Y-1068700D01*
X648740Y-1071480D01*
X648160Y-1074460D01*
X647660Y-1078720D01*
X647460Y-1083240D01*
X647560Y-1087760D01*
X647920Y-1092040D01*
X648560Y-1095860D01*
X648980Y-1097520D01*
X650320Y-1101480D01*
X650879Y-1103640D01*
X651100Y-1105480D01*
X651000Y-1107040D01*
X650560Y-1108340D01*
X649780Y-1109400D01*
X648660Y-1110280D01*
X647180Y-1110980D01*
X645680Y-1111400D01*
X644419Y-1111420D01*
X643379Y-1111000D01*
X642560Y-1110160D01*
X641919Y-1108840D01*
X641500Y-1107060D01*
X641220Y-1104800D01*
X641080Y-1099560D01*
X640699Y-1094180D01*
X640020Y-1088700D01*
X639160Y-1083800D01*
X638680Y-1081780D01*
X637980Y-1079920D01*
X636960Y-1078080D01*
X635620Y-1076340D01*
X634040Y-1074700D01*
X632280Y-1073220D01*
X630360Y-1071980D01*
X628340Y-1070980D01*
X624100Y-1069600D01*
X622120Y-1068700D01*
X620420Y-1067600D01*
X619000Y-1066340D01*
X617840Y-1064920D01*
X617020Y-1063340D01*
X616500Y-1061660D01*
X616320Y-1059860D01*
X616900Y-1056600D01*
X618500Y-1053560D01*
X620860Y-1051120D01*
X623740Y-1049580D01*
X625240Y-1048920D01*
X626660Y-1047980D01*
X627980Y-1046780D01*
X629160Y-1045360D01*
X630160Y-1043780D01*
X630960Y-1042080D01*
X631520Y-1040320D01*
X631800Y-1038520D01*
X631880Y-1036240D01*
X631720Y-1034419D01*
X631320Y-1033040D01*
X630620Y-1032080D01*
X629600Y-1031520D01*
X628240Y-1031320D01*
X626520Y-1031460D01*
X624380Y-1031900D01*
X620780Y-1032440D01*
X618220Y-1031840D01*
X616660Y-1030080D01*
X615680Y-1024920D01*
X614800Y-1024740D01*
X613460Y-1026620D01*
X610800Y-1032640D01*
X609760Y-1034740D01*
X608640Y-1036740D01*
X607480Y-1038600D01*
X606280Y-1040280D01*
X605120Y-1041720D01*
X604020Y-1042840D01*
X603020Y-1043620D01*
X601380Y-1045320D01*
X601240Y-1047500D01*
X602620Y-1050240D01*
X608020Y-1056520D01*
X609680Y-1059340D01*
X610340Y-1061680D01*
X609820Y-1063260D01*
X608380Y-1063680D01*
X606500Y-1062880D01*
X604400Y-1061020D01*
X602360Y-1058260D01*
X597740Y-1051020D01*
X593220Y-1044300D01*
X591820Y-1042460D01*
X590420Y-1041160D01*
X588940Y-1040420D01*
X587180Y-1040220D01*
X585020Y-1040620D01*
X582300Y-1041580D01*
X578900Y-1043139D01*
X571620Y-1046760D01*
X568480Y-1048199D01*
X562200Y-1050720D01*
X559220Y-1051760D01*
X556500Y-1052580D01*
X554100Y-1053200D01*
X552140Y-1053520D01*
X539660Y-1055060D01*
X538540Y-1055600D01*
X538560Y-1056640D01*
X539640Y-1058060D01*
X541720Y-1059660D01*
X544740Y-1061760D01*
X545680Y-1062980D01*
X544500Y-1063580D01*
X541160Y-1063740D01*
X539660Y-1063540D01*
X538000Y-1062940D01*
X536220Y-1062000D01*
X534380Y-1060740D01*
X532560Y-1059220D01*
X530780Y-1057460D01*
X529100Y-1055520D01*
X526120Y-1051360D01*
X524480Y-1049420D01*
X522760Y-1047660D01*
X521000Y-1046120D01*
X519260Y-1044860D01*
X517600Y-1043900D01*
X516060Y-1043300D01*
X514700Y-1043080D01*
X512280Y-1042520D01*
X510280Y-1040960D01*
X508860Y-1038640D01*
X508240Y-1035840D01*
X507960Y-1033240D01*
X507420Y-1032000D01*
X506700Y-1032159D01*
X505820Y-1033760D01*
X504260Y-1035759D01*
X501540Y-1037420D01*
X498040Y-1038520D01*
X494159Y-1038940D01*
X490260Y-1038460D01*
X486719Y-1037159D01*
X483920Y-1035220D01*
X482260Y-1032860D01*
X481680Y-1030280D01*
X481840Y-1027800D01*
X482660Y-1025660D01*
X484099Y-1024180D01*
X485600Y-1022840D01*
X486620Y-1021060D01*
X487040Y-1019080D01*
X486800Y-1017159D01*
X485640Y-1015360D01*
X483579Y-1013700D01*
X480920Y-1012400D01*
X477920Y-1011640D01*
X475959Y-1011440D01*
X474400Y-1011540D01*
X473280Y-1011960D01*
X472520Y-1012760D01*
X472140Y-1013940D01*
X472100Y-1015560D01*
X472380Y-1017680D01*
X472980Y-1020300D01*
X473360Y-1022380D01*
X473519Y-1024539D01*
X473459Y-1026700D01*
X473200Y-1028800D01*
X472740Y-1030800D01*
X472080Y-1032620D01*
X471240Y-1034220D01*
X469920Y-1035920D01*
X469340Y-1036960D01*
X468780Y-1038400D01*
X468280Y-1040260D01*
X467819Y-1042560D01*
X467400Y-1045320D01*
X466680Y-1052240D01*
X466100Y-1061200D01*
X465660Y-1072360D01*
X465340Y-1085820D01*
X465160Y-1101780D01*
X465100Y-1125440D01*
X465120Y-1209880D01*
X484480Y-1211540D01*
X488420Y-1211780D01*
X492200Y-1211840D01*
X495720Y-1211740D01*
X498900Y-1211460D01*
X501659Y-1211040D01*
X503900Y-1210480D01*
X505520Y-1209780D01*
X506440Y-1208960D01*
X507220Y-1208100D01*
X508440Y-1207320D01*
X510040Y-1206600D01*
X511940Y-1205960D01*
X514099Y-1205440D01*
X516460Y-1205060D01*
X518940Y-1204800D01*
X521500Y-1204720D01*
X526160Y-1204980D01*
X529660Y-1205720D01*
X531660Y-1206780D01*
X531840Y-1208100D01*
X531780Y-1208800D01*
X532400Y-1209480D01*
X533680Y-1210140D01*
X535500Y-1210760D01*
X537840Y-1211300D01*
X540640Y-1211760D01*
X543800Y-1212140D01*
X551200Y-1212580D01*
X554500Y-1212680D01*
X557240Y-1212640D01*
X559440Y-1212440D01*
X561200Y-1212020D01*
X562560Y-1211340D01*
X563600Y-1210360D01*
X564340Y-1209060D01*
X564860Y-1207380D01*
X565240Y-1205280D01*
X566060Y-1195640D01*
X567120Y-1186520D01*
X567760Y-1181940D01*
X569160Y-1173980D01*
X569780Y-1171420D01*
X570520Y-1168820D01*
X571380Y-1166200D01*
X573340Y-1161300D01*
X574380Y-1159160D01*
X575400Y-1157320D01*
X576400Y-1155860D01*
X579160Y-1152580D01*
X583200Y-1148100D01*
X587960Y-1143000D01*
X595380Y-1135500D01*
X597820Y-1133260D01*
X600180Y-1131240D01*
X602400Y-1129480D01*
X604420Y-1128020D01*
X606140Y-1126920D01*
X607560Y-1126220D01*
X608560Y-1125980D01*
X609820Y-1126760D01*
X610480Y-1128920D01*
X610500Y-1132120D01*
X609400Y-1138200D01*
X609180Y-1140540D01*
X609160Y-1142940D01*
X609320Y-1145360D01*
X609660Y-1147700D01*
X610180Y-1149920D01*
X610860Y-1151920D01*
X611680Y-1153640D01*
X612520Y-1155000D01*
X613240Y-1155960D01*
X613860Y-1156560D01*
X614400Y-1156740D01*
X614860Y-1156500D01*
X615240Y-1155820D01*
X615540Y-1154680D01*
X615780Y-1153080D01*
X616080Y-1148360D01*
X616300Y-1136600D01*
X616580Y-1132460D01*
X617020Y-1129060D01*
X617640Y-1126360D01*
X618460Y-1124320D01*
X619500Y-1122920D01*
X620720Y-1122100D01*
X622200Y-1121820D01*
X624640Y-1122240D01*
X626980Y-1123340D01*
X628920Y-1125000D01*
X631560Y-1128980D01*
X633280Y-1129280D01*
X635540Y-1127860D01*
X641240Y-1121760D01*
X643680Y-1120280D01*
X645720Y-1120220D01*
X647280Y-1121640D01*
X647840Y-1122780D01*
X648379Y-1124360D01*
X648880Y-1126260D01*
X649340Y-1128460D01*
X650040Y-1133400D01*
X650540Y-1141160D01*
X650819Y-1143640D01*
X651200Y-1145980D01*
X651680Y-1148100D01*
X652240Y-1149940D01*
X652860Y-1151480D01*
X653540Y-1152620D01*
X654960Y-1154000D01*
X655639Y-1155180D01*
X656240Y-1156780D01*
X656780Y-1158720D01*
X657220Y-1160940D01*
X657580Y-1163400D01*
X657800Y-1166000D01*
X657960Y-1172360D01*
X658120Y-1175140D01*
X658400Y-1177020D01*
X658800Y-1178080D01*
X659360Y-1178340D01*
X660100Y-1177820D01*
X661060Y-1176580D01*
X662260Y-1174640D01*
X663720Y-1171480D01*
X664520Y-1168280D01*
X664620Y-1165420D01*
X663960Y-1163240D01*
X663300Y-1161640D01*
X663360Y-1160340D01*
X664080Y-1159460D01*
X665460Y-1159120D01*
X666320Y-1159440D01*
X667220Y-1160360D01*
X668139Y-1161800D01*
X669040Y-1163700D01*
X669900Y-1166000D01*
X670699Y-1168640D01*
X671420Y-1171540D01*
X672140Y-1175540D01*
X672660Y-1180500D01*
X673160Y-1187540D01*
X673640Y-1196340D01*
X674440Y-1217940D01*
X674980Y-1242760D01*
X675120Y-1255980D01*
X675020Y-1276420D01*
X674720Y-1288860D01*
X674240Y-1300200D01*
X673600Y-1310300D01*
X672834Y-1318700D01*
X707500Y-1318700D01*
X707640Y-1316279D01*
X707980Y-1314300D01*
X708500Y-1312960D01*
X709140Y-1312480D01*
X709960Y-1312960D01*
X710980Y-1314300D01*
X712099Y-1316279D01*
X713139Y-1318700D01*
X713760Y-1321100D01*
X713660Y-1323080D01*
X712880Y-1324420D01*
X711520Y-1324900D01*
X709960Y-1324420D01*
X708680Y-1323080D01*
X707820Y-1321100D01*
X707500Y-1318700D01*
X672834Y-1318700D01*
X672099Y-1324580D01*
X671600Y-1327780D01*
X671060Y-1330580D01*
X670460Y-1332940D01*
X669140Y-1336960D01*
X667258Y-1341480D01*
X708040Y-1341480D01*
X708259Y-1338720D01*
X708900Y-1336300D01*
X709720Y-1335120D01*
X710380Y-1335680D01*
X710819Y-1337880D01*
X711000Y-1341480D01*
X710819Y-1345100D01*
X710380Y-1347280D01*
X709720Y-1347860D01*
X708900Y-1346660D01*
X708259Y-1344240D01*
X708040Y-1341480D01*
X667258Y-1341480D01*
X665260Y-1345600D01*
X662820Y-1349980D01*
X660180Y-1354240D01*
X657380Y-1358260D01*
X654479Y-1361900D01*
X653040Y-1363560D01*
X649040Y-1367540D01*
X646620Y-1369740D01*
X644280Y-1371639D01*
X642020Y-1373300D01*
X639800Y-1374700D01*
X637580Y-1375860D01*
X635340Y-1376819D01*
X633060Y-1377560D01*
X630680Y-1378120D01*
X628200Y-1378500D01*
X625560Y-1378720D01*
X622760Y-1378779D01*
X620260Y-1378720D01*
X617840Y-1378520D01*
X615500Y-1378200D01*
X613260Y-1377740D01*
X611100Y-1377160D01*
X609020Y-1376440D01*
X607020Y-1375580D01*
X605100Y-1374580D01*
X603240Y-1373460D01*
X601460Y-1372180D01*
X599760Y-1370780D01*
X598100Y-1369220D01*
X596780Y-1367800D01*
X595460Y-1366160D01*
X594160Y-1364340D01*
X591680Y-1360300D01*
X590520Y-1358120D01*
X588460Y-1353640D01*
X586840Y-1349139D01*
X586220Y-1346960D01*
X585760Y-1344860D01*
X585420Y-1342760D01*
X585000Y-1338280D01*
X584920Y-1333600D01*
X585160Y-1328980D01*
X585700Y-1324660D01*
X586540Y-1320900D01*
X587080Y-1319319D01*
X588140Y-1317020D01*
X589500Y-1314820D01*
X591140Y-1312760D01*
X592980Y-1310860D01*
X595020Y-1309199D01*
X597160Y-1307780D01*
X599400Y-1306680D01*
X601680Y-1305920D01*
X604440Y-1305160D01*
X606680Y-1304300D01*
X607620Y-1303740D01*
X608440Y-1303100D01*
X609160Y-1302320D01*
X609780Y-1301380D01*
X610300Y-1300260D01*
X610760Y-1298920D01*
X611120Y-1297360D01*
X611660Y-1293420D01*
X611980Y-1288240D01*
X612120Y-1281620D01*
X612180Y-1233720D01*
X570000Y-1233720D01*
X561400Y-1233580D01*
X554240Y-1233280D01*
X548460Y-1232840D01*
X544000Y-1232220D01*
X542220Y-1231840D01*
X540760Y-1231420D01*
X539580Y-1230940D01*
X538660Y-1230420D01*
X538020Y-1229840D01*
X537640Y-1229220D01*
X537320Y-1226440D01*
X536760Y-1225660D01*
X535800Y-1226200D01*
X534000Y-1228520D01*
X533380Y-1228940D01*
X532540Y-1229340D01*
X530200Y-1230100D01*
X527040Y-1230780D01*
X523080Y-1231380D01*
X518340Y-1231920D01*
X512860Y-1232360D01*
X506659Y-1232720D01*
X499780Y-1232980D01*
X471360Y-1233520D01*
X459820Y-1233880D01*
X450820Y-1234360D01*
X445120Y-1234860D01*
X443760Y-1235140D01*
X443480Y-1235260D01*
X443240Y-1235760D01*
X442660Y-1238220D01*
X441980Y-1242380D01*
X441240Y-1247980D01*
X440480Y-1254700D01*
X439739Y-1262240D01*
X438980Y-1271220D01*
X438380Y-1279520D01*
X438160Y-1285780D01*
X438220Y-1288280D01*
X438400Y-1290380D01*
X438700Y-1292180D01*
X439180Y-1293700D01*
X439799Y-1294980D01*
X440580Y-1296080D01*
X441560Y-1297040D01*
X442720Y-1297880D01*
X444080Y-1298700D01*
X449640Y-1301459D01*
X451860Y-1302880D01*
X454080Y-1304500D01*
X456200Y-1306300D01*
X458160Y-1308200D01*
X459920Y-1310140D01*
X461380Y-1312080D01*
X462520Y-1313959D01*
X463040Y-1315260D01*
X463519Y-1317180D01*
X464000Y-1319680D01*
X464920Y-1326320D01*
X465760Y-1335000D01*
X466500Y-1345480D01*
X467140Y-1357560D01*
X467660Y-1371020D01*
X468040Y-1385620D01*
X469200Y-1463740D01*
X498200Y-1465240D01*
X506280Y-1465420D01*
X509340Y-1465280D01*
X511860Y-1464980D01*
X513940Y-1464460D01*
X515600Y-1463720D01*
X516980Y-1462720D01*
X518120Y-1461440D01*
X519099Y-1459860D01*
X520020Y-1457940D01*
X520920Y-1455660D01*
X522840Y-1451560D01*
X525080Y-1448200D01*
X527380Y-1445940D01*
X529440Y-1445100D01*
X531080Y-1445340D01*
X538120Y-1447180D01*
X549080Y-1450460D01*
X562620Y-1454800D01*
X574320Y-1458680D01*
X583680Y-1461620D01*
X596040Y-1465200D01*
X605960Y-1467880D01*
X615520Y-1470300D01*
X624300Y-1472340D01*
X631920Y-1473880D01*
X636680Y-1474700D01*
X642520Y-1475580D01*
X647940Y-1476240D01*
X653060Y-1476680D01*
X657960Y-1476879D01*
X662700Y-1476879D01*
X667400Y-1476639D01*
X672140Y-1476200D01*
X677020Y-1475520D01*
X682099Y-1474640D01*
X687980Y-1473380D01*
X694479Y-1471579D01*
X700740Y-1469480D01*
X706420Y-1467160D01*
X708960Y-1465960D01*
X711240Y-1464760D01*
X713220Y-1463580D01*
X714880Y-1462420D01*
X717860Y-1459720D01*
X719659Y-1458240D01*
X721500Y-1456879D01*
X723319Y-1455720D01*
X725060Y-1454740D01*
X726700Y-1454019D01*
X728160Y-1453540D01*
X730639Y-1453260D01*
X732180Y-1452860D01*
X733940Y-1452260D01*
X735879Y-1451459D01*
X740020Y-1449360D01*
X744080Y-1446800D01*
X746300Y-1445040D01*
X749020Y-1442600D01*
X752140Y-1439560D01*
X755540Y-1436040D01*
X759120Y-1432180D01*
X762780Y-1428040D01*
X766400Y-1423779D01*
X769880Y-1419480D01*
X774140Y-1413839D01*
X777820Y-1408520D01*
X779400Y-1406040D01*
X781940Y-1401620D01*
X783560Y-1398080D01*
X783960Y-1396720D01*
X784100Y-1395680D01*
X783940Y-1394980D01*
X783400Y-1393520D01*
X783660Y-1392320D01*
X784640Y-1391519D01*
X787840Y-1390900D01*
X788760Y-1390000D01*
X788960Y-1388680D01*
X787680Y-1385460D01*
X787860Y-1384139D01*
X788780Y-1383260D01*
X790360Y-1382940D01*
X791420Y-1382620D01*
X792640Y-1381740D01*
X794000Y-1380340D01*
X795460Y-1378500D01*
X796960Y-1376260D01*
X798460Y-1373680D01*
X799920Y-1370860D01*
X801280Y-1367820D01*
X802980Y-1363580D01*
X804220Y-1360080D01*
X805000Y-1357240D01*
X805320Y-1354940D01*
X805180Y-1353100D01*
X804599Y-1351600D01*
X803580Y-1350340D01*
X802099Y-1349240D01*
X799740Y-1347880D01*
X797380Y-1346759D01*
X795300Y-1346000D01*
X793740Y-1345700D01*
X792440Y-1346000D01*
X790980Y-1346860D01*
X789539Y-1348180D01*
X787020Y-1351380D01*
X785360Y-1352700D01*
X783580Y-1353600D01*
X781860Y-1353920D01*
X780340Y-1353420D01*
X779100Y-1352100D01*
X778259Y-1350120D01*
X777960Y-1347700D01*
X778139Y-1346320D01*
X778680Y-1345100D01*
X779539Y-1344019D01*
X780740Y-1343140D01*
X782240Y-1342420D01*
X784040Y-1341920D01*
X786120Y-1341600D01*
X790600Y-1341360D01*
X792720Y-1341000D01*
X794720Y-1340420D01*
X796560Y-1339660D01*
X798199Y-1338740D01*
X799560Y-1337700D01*
X800620Y-1336540D01*
X802560Y-1333080D01*
X804200Y-1331660D01*
X806040Y-1331140D01*
X807820Y-1331639D01*
X809240Y-1332160D01*
X809680Y-1331360D01*
X809140Y-1329319D01*
X807620Y-1326100D01*
X806620Y-1324360D01*
X805440Y-1322540D01*
X802700Y-1318839D01*
X799760Y-1315440D01*
X798319Y-1313980D01*
X796960Y-1312760D01*
X795140Y-1311360D01*
X793500Y-1310400D01*
X792000Y-1309880D01*
X790560Y-1309800D01*
X789120Y-1310180D01*
X787580Y-1311040D01*
X785900Y-1312340D01*
X781280Y-1316699D01*
X778800Y-1318820D01*
X776800Y-1320240D01*
X775600Y-1320760D01*
X775240Y-1320460D01*
X774900Y-1319580D01*
X774599Y-1318180D01*
X774120Y-1314120D01*
X773860Y-1308760D01*
X773880Y-1301699D01*
X774060Y-1298520D01*
X774400Y-1296200D01*
X774920Y-1294640D01*
X775639Y-1293839D01*
X776600Y-1293700D01*
X777820Y-1294220D01*
X780840Y-1296420D01*
X782300Y-1297180D01*
X783760Y-1297600D01*
X785260Y-1297680D01*
X786820Y-1297420D01*
X788460Y-1296819D01*
X790240Y-1295860D01*
X792159Y-1294560D01*
X793740Y-1293220D01*
X795080Y-1291639D01*
X796200Y-1289860D01*
X797099Y-1287920D01*
X797740Y-1285860D01*
X798120Y-1283680D01*
X798220Y-1281420D01*
X798040Y-1279120D01*
X797600Y-1276980D01*
X796880Y-1274960D01*
X795960Y-1273120D01*
X794820Y-1271460D01*
X793500Y-1270040D01*
X792060Y-1268900D01*
X790480Y-1268060D01*
X788820Y-1267560D01*
X785520Y-1267400D01*
X782320Y-1268120D01*
X779580Y-1269540D01*
X777640Y-1271540D01*
X776100Y-1273420D01*
X774380Y-1274520D01*
X772720Y-1274760D01*
X771300Y-1274040D01*
X770740Y-1272240D01*
X771420Y-1269500D01*
X773180Y-1266220D01*
X775860Y-1262760D01*
X777480Y-1261100D01*
X779200Y-1259540D01*
X780939Y-1258120D01*
X782680Y-1256900D01*
X784360Y-1255880D01*
X785939Y-1255100D01*
X787340Y-1254620D01*
X788520Y-1254460D01*
X790720Y-1253620D01*
X792920Y-1251360D01*
X794860Y-1248000D01*
X796280Y-1243900D01*
X797120Y-1239500D01*
X797460Y-1235320D01*
X797280Y-1231840D01*
X796580Y-1229520D01*
X795860Y-1228800D01*
X794760Y-1228220D01*
X793300Y-1227780D01*
X791560Y-1227500D01*
X789599Y-1227380D01*
X787440Y-1227400D01*
X785160Y-1227600D01*
X779640Y-1228540D01*
X777080Y-1228800D01*
X775100Y-1228720D01*
X773620Y-1228240D01*
X772580Y-1227360D01*
X771900Y-1226040D01*
X771560Y-1224240D01*
X771440Y-1221940D01*
X771620Y-1219760D01*
X772159Y-1217900D01*
X773120Y-1216260D01*
X774520Y-1214880D01*
X776400Y-1213680D01*
X778800Y-1212660D01*
X781740Y-1211760D01*
X789260Y-1210180D01*
X792360Y-1209340D01*
X794620Y-1208380D01*
X796160Y-1207260D01*
X797020Y-1205860D01*
X797280Y-1204120D01*
X797039Y-1201960D01*
X796360Y-1199320D01*
X795040Y-1195520D01*
X793520Y-1191900D01*
X791960Y-1188900D01*
X790540Y-1186900D01*
X788660Y-1185560D01*
X785759Y-1184360D01*
X782280Y-1183420D01*
X778580Y-1182900D01*
X774840Y-1182120D01*
X772039Y-1180440D01*
X770280Y-1177980D01*
X769680Y-1174820D01*
X770220Y-1171760D01*
X771800Y-1169440D01*
X774280Y-1167940D01*
X780759Y-1166900D01*
X783800Y-1165500D01*
X786280Y-1163400D01*
X787880Y-1160860D01*
X788860Y-1157880D01*
X789659Y-1154600D01*
X790200Y-1151420D01*
X790400Y-1148760D01*
X790140Y-1147580D01*
X789419Y-1146380D01*
X788259Y-1145200D01*
X786740Y-1144040D01*
X784900Y-1142960D01*
X782780Y-1141980D01*
X780460Y-1141140D01*
X775020Y-1139720D01*
X772500Y-1138800D01*
X770360Y-1137740D01*
X768620Y-1136520D01*
X767260Y-1135140D01*
X766300Y-1133620D01*
X765720Y-1131920D01*
X765520Y-1130080D01*
X765680Y-1128380D01*
X766160Y-1126800D01*
X766919Y-1125380D01*
X767960Y-1124120D01*
X769260Y-1123040D01*
X770800Y-1122160D01*
X772560Y-1121500D01*
X778160Y-1120160D01*
X781380Y-1118620D01*
X783860Y-1116700D01*
X785240Y-1114580D01*
X785320Y-1113400D01*
X784880Y-1112000D01*
X784000Y-1110440D01*
X782700Y-1108800D01*
X781020Y-1107080D01*
X779000Y-1105380D01*
X776720Y-1103700D01*
X771620Y-1100560D01*
X769240Y-1098820D01*
X767060Y-1097000D01*
X765180Y-1095120D01*
X763600Y-1093280D01*
X762420Y-1091520D01*
X761680Y-1089900D01*
X761120Y-1086880D01*
X760340Y-1084920D01*
X759080Y-1082620D01*
X757440Y-1080080D01*
X755440Y-1077360D01*
X753139Y-1074540D01*
X750620Y-1071720D01*
X747920Y-1068980D01*
X744900Y-1066220D01*
X741480Y-1063400D01*
X737760Y-1060600D01*
X733900Y-1057880D01*
X729960Y-1055340D01*
X726120Y-1053040D01*
X722460Y-1051080D01*
X719100Y-1049540D01*
X714400Y-1047620D01*
X710680Y-1046260D01*
X707800Y-1045460D01*
X705580Y-1045200D01*
X703840Y-1045520D01*
X702440Y-1046400D01*
X701200Y-1047860D01*
X699980Y-1049880D01*
X699240Y-1051620D01*
X698700Y-1053820D01*
X698379Y-1056420D01*
X698259Y-1059340D01*
X698360Y-1062520D01*
X698680Y-1065940D01*
X699200Y-1069520D01*
X701200Y-1079800D01*
X701919Y-1085540D01*
X702039Y-1087880D01*
X702020Y-1089800D01*
X701820Y-1091160D01*
X700920Y-1093140D01*
X701020Y-1094820D01*
X701740Y-1096720D01*
X703520Y-1099480D01*
X704080Y-1100660D01*
X705220Y-1104060D01*
X706380Y-1108540D01*
X707500Y-1113880D01*
X708500Y-1119760D01*
X709320Y-1125980D01*
X711240Y-1144220D01*
X713379Y-1167020D01*
X714240Y-1177060D01*
X715660Y-1190320D01*
X716420Y-1196140D01*
X717200Y-1200980D01*
X717900Y-1204540D01*
X718240Y-1205760D01*
X718760Y-1208620D01*
X718420Y-1210920D01*
X717340Y-1212460D01*
X715560Y-1213000D01*
X713439Y-1213300D01*
X712720Y-1214260D01*
X713400Y-1216060D01*
X716160Y-1219820D01*
X716780Y-1221060D01*
X717380Y-1222560D01*
X718460Y-1226200D01*
X718940Y-1228280D01*
X719700Y-1232840D01*
X720180Y-1237720D01*
X720360Y-1242700D01*
X720360Y-1276980D01*
X720240Y-1282820D01*
X719980Y-1288280D01*
X719479Y-1294379D01*
X718840Y-1297880D01*
X717940Y-1299040D01*
X716340Y-1297900D01*
X713660Y-1294440D01*
X711540Y-1292040D01*
X709400Y-1290500D01*
X707500Y-1289920D01*
X705020Y-1290820D01*
X704160Y-1289840D01*
X703580Y-1287700D01*
X703360Y-1284620D01*
X703820Y-1281060D01*
X705160Y-1278500D01*
X707300Y-1277000D01*
X710160Y-1276660D01*
X712960Y-1276480D01*
X715520Y-1275560D01*
X717560Y-1274040D01*
X718800Y-1272060D01*
X718860Y-1269880D01*
X717340Y-1268240D01*
X714340Y-1267240D01*
X709920Y-1266880D01*
X707000Y-1266980D01*
X704620Y-1267320D01*
X702760Y-1267940D01*
X701340Y-1268900D01*
X700340Y-1270240D01*
X699680Y-1272000D01*
X699320Y-1274240D01*
X699220Y-1277000D01*
X698880Y-1281140D01*
X698000Y-1284900D01*
X696680Y-1287880D01*
X695080Y-1289680D01*
X694180Y-1289940D01*
X693360Y-1289560D01*
X692660Y-1288580D01*
X692060Y-1287020D01*
X691580Y-1284940D01*
X691220Y-1282340D01*
X691000Y-1279280D01*
X690920Y-1275760D01*
X691020Y-1272340D01*
X691320Y-1269100D01*
X691800Y-1266120D01*
X692420Y-1263440D01*
X693180Y-1261140D01*
X694060Y-1259280D01*
X695040Y-1257940D01*
X696100Y-1257180D01*
X698220Y-1256040D01*
X699020Y-1254780D01*
X698520Y-1253340D01*
X696720Y-1251660D01*
X696340Y-1251220D01*
X695939Y-1250520D01*
X695140Y-1248280D01*
X694320Y-1245060D01*
X693480Y-1240940D01*
X692660Y-1236040D01*
X691120Y-1224280D01*
X690440Y-1217640D01*
X689840Y-1210600D01*
X689020Y-1199020D01*
X688199Y-1189680D01*
X687120Y-1179500D01*
X684700Y-1160460D01*
X681800Y-1141080D01*
X680000Y-1130400D01*
X678139Y-1120340D01*
X676260Y-1111140D01*
X670240Y-1082960D01*
X666580Y-1065100D01*
X666060Y-1062100D01*
X666800Y-1061260D01*
X668800Y-1060400D01*
X671760Y-1059580D01*
X675380Y-1058920D01*
X678980Y-1057980D01*
X681840Y-1056460D01*
X683720Y-1054520D01*
X684300Y-1052400D01*
X683820Y-1043280D01*
X682640Y-1009920D01*
G37*
G36*
X541720Y-1009920D02*
G01*
X540120Y-1010260D01*
X538800Y-1011140D01*
X537900Y-1012460D01*
X537580Y-1014080D01*
X537900Y-1015680D01*
X538800Y-1017000D01*
X540120Y-1017880D01*
X541720Y-1018220D01*
X543340Y-1017880D01*
X544660Y-1017000D01*
X545540Y-1015680D01*
X545860Y-1014080D01*
X545540Y-1012460D01*
X544660Y-1011140D01*
X543340Y-1010260D01*
G37*
G36*
X530600Y-1018700D02*
G01*
X530340Y-1019500D01*
X530180Y-1022000D01*
X530120Y-1025860D01*
X530200Y-1030639D01*
X530620Y-1035480D01*
X531480Y-1039440D01*
X532680Y-1042099D01*
X534060Y-1043080D01*
X535440Y-1042600D01*
X536540Y-1041300D01*
X537300Y-1039360D01*
X537580Y-1037000D01*
X538020Y-1034640D01*
X539280Y-1033199D01*
X541240Y-1032740D01*
X543840Y-1033319D01*
X546540Y-1034040D01*
X548040Y-1033640D01*
X548400Y-1032060D01*
X547640Y-1029280D01*
X546140Y-1026620D01*
X543860Y-1024180D01*
X541140Y-1022220D01*
X538260Y-1021000D01*
X533160Y-1019580D01*
G37*
G36*
X951780Y-1034800D02*
G01*
X949720Y-1034940D01*
X948000Y-1035380D01*
X946620Y-1036140D01*
X945520Y-1037260D01*
X944720Y-1038780D01*
X944160Y-1040720D01*
X943840Y-1043100D01*
X943740Y-1045939D01*
X943760Y-1049460D01*
X943880Y-1052040D01*
X944120Y-1053660D01*
X944599Y-1054400D01*
X945340Y-1054280D01*
X946420Y-1053320D01*
X952200Y-1046140D01*
X954160Y-1044120D01*
X955500Y-1043199D01*
X956040Y-1043560D01*
X955900Y-1044599D01*
X954680Y-1050020D01*
X952400Y-1059220D01*
X947990Y-1076240D01*
X993480Y-1076240D01*
X993800Y-1074620D01*
X994700Y-1073320D01*
X996000Y-1072420D01*
X997620Y-1072100D01*
X999220Y-1072420D01*
X1000540Y-1073320D01*
X1001440Y-1074620D01*
X1001760Y-1076240D01*
X1001440Y-1077840D01*
X1000540Y-1079160D01*
X999220Y-1080060D01*
X997620Y-1080380D01*
X996000Y-1080060D01*
X994700Y-1079160D01*
X993800Y-1077840D01*
X993480Y-1076240D01*
X947990Y-1076240D01*
X936564Y-1119280D01*
X1005900Y-1119280D01*
X1006380Y-1118660D01*
X1007660Y-1118140D01*
X1009560Y-1117800D01*
X1011880Y-1117680D01*
X1014380Y-1117980D01*
X1016780Y-1118780D01*
X1018800Y-1119980D01*
X1019178Y-1120380D01*
X1039060Y-1120380D01*
X1039360Y-1119980D01*
X1040220Y-1119540D01*
X1043400Y-1118600D01*
X1048100Y-1117680D01*
X1053820Y-1116860D01*
X1059680Y-1116400D01*
X1062320Y-1116340D01*
X1064700Y-1116400D01*
X1066740Y-1116560D01*
X1068380Y-1116840D01*
X1069540Y-1117220D01*
X1070160Y-1117680D01*
X1070140Y-1118220D01*
X1069480Y-1118760D01*
X1068220Y-1119280D01*
X1066460Y-1119780D01*
X1064240Y-1120220D01*
X1061620Y-1120620D01*
X1058640Y-1120960D01*
X1052120Y-1121360D01*
X1046280Y-1121440D01*
X1043860Y-1121360D01*
X1040360Y-1121000D01*
X1039400Y-1120720D01*
X1039060Y-1120380D01*
X1019178Y-1120380D01*
X1020180Y-1121440D01*
X1020420Y-1122720D01*
X1019380Y-1123460D01*
X1017240Y-1123580D01*
X1014200Y-1123020D01*
X1010980Y-1122060D01*
X1008340Y-1121040D01*
X1006560Y-1120060D01*
X1005900Y-1119280D01*
X936564Y-1119280D01*
X932696Y-1134260D01*
X1026620Y-1134260D01*
X1026979Y-1132660D01*
X1027920Y-1131340D01*
X1029320Y-1130440D01*
X1031020Y-1130120D01*
X1032520Y-1130440D01*
X1033360Y-1131340D01*
X1033500Y-1132660D01*
X1032840Y-1134260D01*
X1031700Y-1135880D01*
X1030500Y-1137180D01*
X1029360Y-1138080D01*
X1028460Y-1138400D01*
X1027740Y-1138080D01*
X1027159Y-1137180D01*
X1026780Y-1135880D01*
X1026620Y-1134260D01*
X932696Y-1134260D01*
X929056Y-1148540D01*
X962180Y-1148540D01*
X962540Y-1147800D01*
X963360Y-1146880D01*
X966280Y-1144500D01*
X969700Y-1142120D01*
X973020Y-1140200D01*
X975900Y-1138880D01*
X977940Y-1138400D01*
X979100Y-1138780D01*
X979599Y-1139840D01*
X979419Y-1141380D01*
X977660Y-1145160D01*
X977860Y-1146260D01*
X979100Y-1146520D01*
X981400Y-1145900D01*
X984320Y-1145300D01*
X987980Y-1145300D01*
X991860Y-1145880D01*
X995540Y-1146980D01*
X996740Y-1147520D01*
X997520Y-1148000D01*
X997840Y-1148440D01*
X997740Y-1148840D01*
X997220Y-1149180D01*
X996240Y-1149500D01*
X994820Y-1149760D01*
X990660Y-1150140D01*
X984700Y-1150360D01*
X976220Y-1150440D01*
X968880Y-1150340D01*
X966280Y-1150180D01*
X964360Y-1149940D01*
X963060Y-1149600D01*
X962340Y-1149140D01*
X962180Y-1148540D01*
X929056Y-1148540D01*
X924700Y-1166020D01*
X919620Y-1187220D01*
X914040Y-1209700D01*
X912400Y-1215820D01*
X910939Y-1219260D01*
X908980Y-1221680D01*
X906700Y-1222920D01*
X904360Y-1222800D01*
X902099Y-1221320D01*
X899900Y-1218820D01*
X898020Y-1215640D01*
X896720Y-1212160D01*
X895980Y-1209740D01*
X895080Y-1207880D01*
X893920Y-1206540D01*
X892420Y-1205660D01*
X890500Y-1205240D01*
X888020Y-1205220D01*
X884940Y-1205580D01*
X879120Y-1206600D01*
X877039Y-1206820D01*
X874880Y-1206940D01*
X870440Y-1206880D01*
X865980Y-1206440D01*
X861700Y-1205620D01*
X859680Y-1205080D01*
X857780Y-1204460D01*
X856000Y-1203740D01*
X853640Y-1202640D01*
X851440Y-1201460D01*
X849460Y-1200260D01*
X847720Y-1199080D01*
X846280Y-1197940D01*
X845200Y-1196900D01*
X844520Y-1195960D01*
X843940Y-1194060D01*
X843060Y-1193540D01*
X841740Y-1193620D01*
X840120Y-1194360D01*
X839560Y-1194940D01*
X839020Y-1195980D01*
X838520Y-1197440D01*
X838040Y-1199260D01*
X837200Y-1203920D01*
X836840Y-1206680D01*
X836320Y-1212880D01*
X836120Y-1216800D01*
X867039Y-1216800D01*
X867140Y-1214840D01*
X867900Y-1213500D01*
X869260Y-1213000D01*
X870819Y-1213500D01*
X872099Y-1214840D01*
X872960Y-1216800D01*
X873280Y-1219220D01*
X873160Y-1221640D01*
X872800Y-1223620D01*
X872280Y-1224940D01*
X871660Y-1225440D01*
X870840Y-1224940D01*
X869800Y-1223620D01*
X868700Y-1221640D01*
X867640Y-1219220D01*
X867039Y-1216800D01*
X836120Y-1216800D01*
X835980Y-1223340D01*
X836100Y-1233300D01*
X836280Y-1237240D01*
X836540Y-1240560D01*
X836940Y-1243340D01*
X837460Y-1245620D01*
X838139Y-1247460D01*
X838980Y-1248960D01*
X840020Y-1250140D01*
X841260Y-1251060D01*
X842740Y-1251820D01*
X844440Y-1252440D01*
X845740Y-1252780D01*
X849020Y-1253260D01*
X853000Y-1253500D01*
X857460Y-1253500D01*
X862159Y-1253240D01*
X866860Y-1252720D01*
X872560Y-1251880D01*
X876080Y-1251520D01*
X879580Y-1251280D01*
X882980Y-1251200D01*
X886160Y-1251240D01*
X889040Y-1251420D01*
X891500Y-1251740D01*
X893460Y-1252200D01*
X895840Y-1253060D01*
X897600Y-1254040D01*
X898820Y-1255280D01*
X899479Y-1256900D01*
X899640Y-1259040D01*
X899300Y-1261860D01*
X898520Y-1265460D01*
X897320Y-1270020D01*
X896340Y-1273200D01*
X895899Y-1274380D01*
X1016940Y-1274380D01*
X1017159Y-1270820D01*
X1017780Y-1265800D01*
X1018760Y-1259640D01*
X1020060Y-1252660D01*
X1021640Y-1245120D01*
X1023360Y-1237720D01*
X1025120Y-1231040D01*
X1026820Y-1225360D01*
X1028360Y-1220980D01*
X1029040Y-1219360D01*
X1029659Y-1218160D01*
X1030200Y-1217400D01*
X1030639Y-1217160D01*
X1031060Y-1217400D01*
X1031560Y-1218100D01*
X1032740Y-1220760D01*
X1034080Y-1224900D01*
X1035500Y-1230240D01*
X1036960Y-1236540D01*
X1038340Y-1243540D01*
X1040800Y-1257460D01*
X1042540Y-1268640D01*
X1043040Y-1272420D01*
X1043199Y-1274620D01*
X1042960Y-1275560D01*
X1042240Y-1276440D01*
X1041120Y-1277240D01*
X1039620Y-1277940D01*
X1037820Y-1278520D01*
X1035759Y-1278940D01*
X1033460Y-1279220D01*
X1031020Y-1279320D01*
X1028540Y-1279260D01*
X1026160Y-1279080D01*
X1023920Y-1278780D01*
X1021919Y-1278400D01*
X1020180Y-1277940D01*
X1018760Y-1277420D01*
X1017740Y-1276840D01*
X1017159Y-1276220D01*
X1016979Y-1275540D01*
X1016940Y-1274380D01*
X895899Y-1274380D01*
X895160Y-1276360D01*
X893820Y-1279420D01*
X892360Y-1282320D01*
X890819Y-1284940D01*
X889280Y-1287240D01*
X887760Y-1289100D01*
X886300Y-1290460D01*
X883240Y-1292480D01*
X879900Y-1294139D01*
X876720Y-1295300D01*
X874080Y-1295760D01*
X872180Y-1295480D01*
X871000Y-1294640D01*
X870639Y-1293360D01*
X871220Y-1291759D01*
X871940Y-1290140D01*
X872039Y-1288839D01*
X871520Y-1287980D01*
X870420Y-1287680D01*
X868660Y-1287980D01*
X866380Y-1288779D01*
X863840Y-1289940D01*
X861360Y-1291360D01*
X859380Y-1293140D01*
X858220Y-1295360D01*
X857980Y-1297720D01*
X859479Y-1302100D01*
X858640Y-1303480D01*
X856160Y-1304139D01*
X852000Y-1304079D01*
X847620Y-1303800D01*
X842940Y-1303640D01*
X838540Y-1303620D01*
X834940Y-1303720D01*
X833900Y-1303860D01*
X832940Y-1304199D01*
X832099Y-1304780D01*
X831340Y-1305680D01*
X830680Y-1306980D01*
X830100Y-1308700D01*
X829599Y-1310960D01*
X829180Y-1313800D01*
X828820Y-1317280D01*
X828520Y-1321480D01*
X828100Y-1332300D01*
X827840Y-1346759D01*
X827720Y-1365380D01*
X827740Y-1410900D01*
X827860Y-1428980D01*
X828139Y-1443340D01*
X828560Y-1454420D01*
X828840Y-1458880D01*
X829180Y-1462660D01*
X829580Y-1465840D01*
X830020Y-1468480D01*
X830540Y-1470620D01*
X831140Y-1472320D01*
X831800Y-1473620D01*
X832520Y-1474600D01*
X833340Y-1475280D01*
X834260Y-1475740D01*
X835200Y-1475960D01*
X839100Y-1476399D01*
X845440Y-1476819D01*
X864340Y-1477520D01*
X889780Y-1478020D01*
X919620Y-1478240D01*
X1014200Y-1478260D01*
X1014200Y-1399079D01*
X1002180Y-1394880D01*
X999720Y-1393899D01*
X997380Y-1392700D01*
X995180Y-1391360D01*
X993199Y-1389880D01*
X991480Y-1388320D01*
X990100Y-1386759D01*
X989080Y-1385200D01*
X988500Y-1383700D01*
X988220Y-1382040D01*
X988040Y-1380000D01*
X987980Y-1377680D01*
X988139Y-1372420D01*
X988379Y-1369660D01*
X988720Y-1366920D01*
X991460Y-1351840D01*
X1030860Y-1350460D01*
X1040020Y-1350260D01*
X1047140Y-1350300D01*
X1052500Y-1350680D01*
X1054640Y-1351020D01*
X1056460Y-1351459D01*
X1058020Y-1352000D01*
X1059340Y-1352660D01*
X1060480Y-1353460D01*
X1061460Y-1354400D01*
X1062340Y-1355480D01*
X1063160Y-1356699D01*
X1063940Y-1358100D01*
X1064840Y-1360100D01*
X1065640Y-1362500D01*
X1066300Y-1365180D01*
X1066840Y-1368100D01*
X1067220Y-1371120D01*
X1067420Y-1374160D01*
X1067440Y-1377160D01*
X1067280Y-1380000D01*
X1066980Y-1382600D01*
X1066620Y-1384860D01*
X1066160Y-1386840D01*
X1065560Y-1388520D01*
X1064840Y-1389960D01*
X1063920Y-1391180D01*
X1062840Y-1392200D01*
X1061520Y-1393060D01*
X1059960Y-1393779D01*
X1058120Y-1394400D01*
X1056000Y-1394920D01*
X1041140Y-1397500D01*
X1040834Y-1407800D01*
X1055640Y-1407800D01*
X1055780Y-1406180D01*
X1056180Y-1404880D01*
X1056760Y-1403980D01*
X1057460Y-1403660D01*
X1058380Y-1403980D01*
X1059520Y-1404880D01*
X1060720Y-1406180D01*
X1061860Y-1407800D01*
X1062500Y-1409400D01*
X1062380Y-1410720D01*
X1061540Y-1411620D01*
X1060020Y-1411940D01*
X1058320Y-1411620D01*
X1056940Y-1410720D01*
X1055980Y-1409400D01*
X1055640Y-1407800D01*
X1040834Y-1407800D01*
X1038760Y-1478440D01*
X1190340Y-1476180D01*
X1191900Y-1420960D01*
X1191980Y-1413420D01*
X1191880Y-1407520D01*
X1191760Y-1405120D01*
X1191320Y-1401300D01*
X1191000Y-1399840D01*
X1190620Y-1398640D01*
X1190160Y-1397660D01*
X1189600Y-1396900D01*
X1188980Y-1396339D01*
X1188260Y-1395920D01*
X1187460Y-1395640D01*
X1186560Y-1395460D01*
X1182600Y-1395180D01*
X1180540Y-1394640D01*
X1178360Y-1393800D01*
X1176080Y-1392680D01*
X1173820Y-1391339D01*
X1171600Y-1389780D01*
X1169520Y-1388080D01*
X1167660Y-1386240D01*
X1166440Y-1384820D01*
X1163860Y-1381040D01*
X1161180Y-1376300D01*
X1158540Y-1370860D01*
X1156080Y-1365040D01*
X1153940Y-1359100D01*
X1151500Y-1350680D01*
X1144580Y-1324980D01*
X1133920Y-1284740D01*
X1120740Y-1234520D01*
X1071060Y-1043760D01*
X1025620Y-1043379D01*
X1012420Y-1042980D01*
X1006540Y-1042640D01*
X1001240Y-1042220D01*
X996600Y-1041740D01*
X992700Y-1041200D01*
X989599Y-1040600D01*
X987380Y-1039960D01*
X986640Y-1039640D01*
X986120Y-1039280D01*
X985020Y-1037320D01*
X983720Y-1036020D01*
X982120Y-1035120D01*
X980460Y-1034800D01*
X979080Y-1035120D01*
X978340Y-1036020D01*
X978300Y-1037320D01*
X978960Y-1038940D01*
X979300Y-1040540D01*
X978340Y-1041860D01*
X976260Y-1042760D01*
X973240Y-1043080D01*
X969820Y-1042760D01*
X966640Y-1041860D01*
X964040Y-1040540D01*
X960759Y-1037320D01*
X958220Y-1036020D01*
X955100Y-1035120D01*
G37*
G36*
X923020Y-1034800D02*
G01*
X919800Y-1035080D01*
X917159Y-1035879D01*
X915380Y-1037060D01*
X914720Y-1038500D01*
X915180Y-1040100D01*
X916440Y-1041760D01*
X918280Y-1043259D01*
X920540Y-1044419D01*
X923000Y-1045100D01*
X925380Y-1045280D01*
X927400Y-1044960D01*
X928820Y-1044180D01*
X929800Y-1042940D01*
X930580Y-1041420D01*
X931120Y-1039780D01*
X931300Y-1038240D01*
X930660Y-1036900D01*
X928880Y-1035800D01*
X926240Y-1035060D01*
G37*
G36*
X869920Y-1080440D02*
G01*
X866500Y-1080620D01*
X865260Y-1081200D01*
X866160Y-1082440D01*
X869140Y-1084520D01*
X871820Y-1086100D01*
X874520Y-1087380D01*
X876919Y-1088260D01*
X878700Y-1088600D01*
X879800Y-1088300D01*
X880320Y-1087440D01*
X880240Y-1086140D01*
X879500Y-1084520D01*
X877960Y-1082920D01*
X875639Y-1081620D01*
X872860Y-1080740D01*
G37*
G36*
X908259Y-1096960D02*
G01*
X907560Y-1097280D01*
X906979Y-1098180D01*
X906580Y-1099500D01*
X906440Y-1101100D01*
X906780Y-1102720D01*
X907720Y-1104040D01*
X909120Y-1104920D01*
X910819Y-1105260D01*
X912340Y-1104920D01*
X913180Y-1104040D01*
X913300Y-1102720D01*
X912660Y-1101100D01*
X911520Y-1099500D01*
X910300Y-1098180D01*
X909180Y-1097280D01*
G37*
G36*
X844539Y-1105260D02*
G01*
X842980Y-1105340D01*
X841600Y-1105520D01*
X840420Y-1105840D01*
X839419Y-1106380D01*
X838580Y-1107140D01*
X837900Y-1108200D01*
X837340Y-1109600D01*
X836900Y-1111380D01*
X836580Y-1113580D01*
X836160Y-1119480D01*
X836020Y-1127620D01*
X835980Y-1138400D01*
X836060Y-1145380D01*
X836300Y-1151740D01*
X836660Y-1157400D01*
X837140Y-1162240D01*
X837760Y-1166180D01*
X838460Y-1169100D01*
X838840Y-1170160D01*
X839260Y-1170940D01*
X839680Y-1171400D01*
X840120Y-1171560D01*
X841740Y-1170900D01*
X843060Y-1169120D01*
X843940Y-1166500D01*
X844280Y-1163280D01*
X844419Y-1161060D01*
X844900Y-1159220D01*
X845759Y-1157740D01*
X847080Y-1156580D01*
X848860Y-1155680D01*
X851220Y-1155040D01*
X854160Y-1154600D01*
X860620Y-1154220D01*
X866780Y-1154100D01*
X872820Y-1154120D01*
X882440Y-1154480D01*
X884440Y-1154180D01*
X886100Y-1153500D01*
X887460Y-1152380D01*
X888560Y-1150760D01*
X889440Y-1148580D01*
X890160Y-1145840D01*
X890759Y-1142460D01*
X891160Y-1139240D01*
X891340Y-1136620D01*
X891280Y-1134580D01*
X890980Y-1133060D01*
X890420Y-1132060D01*
X889580Y-1131560D01*
X888480Y-1131500D01*
X884960Y-1132400D01*
X883199Y-1132280D01*
X882000Y-1131520D01*
X881580Y-1130240D01*
X881900Y-1128560D01*
X882760Y-1126840D01*
X884060Y-1125220D01*
X885639Y-1123960D01*
X887000Y-1122340D01*
X887280Y-1119960D01*
X886500Y-1116940D01*
X884640Y-1113340D01*
X882300Y-1110200D01*
X879640Y-1107620D01*
X877020Y-1105880D01*
X874740Y-1105260D01*
X873020Y-1105840D01*
X871900Y-1107420D01*
X871480Y-1109740D01*
X872099Y-1114320D01*
X872099Y-1116380D01*
X871880Y-1118700D01*
X871420Y-1121220D01*
X870759Y-1123860D01*
X869900Y-1126520D01*
X868880Y-1129140D01*
X867700Y-1131640D01*
X865840Y-1135160D01*
X864340Y-1137760D01*
X863160Y-1139420D01*
X862180Y-1140200D01*
X861360Y-1140120D01*
X860620Y-1139220D01*
X859860Y-1137540D01*
X859040Y-1135060D01*
X858060Y-1131600D01*
X857380Y-1128220D01*
X857020Y-1125320D01*
X857060Y-1123300D01*
X857260Y-1121340D01*
X857360Y-1118660D01*
X857340Y-1115600D01*
X857200Y-1112500D01*
X856919Y-1110800D01*
X856340Y-1109320D01*
X855440Y-1108080D01*
X854240Y-1107060D01*
X852740Y-1106260D01*
X850920Y-1105700D01*
X848780Y-1105360D01*
G37*
G36*
X613860Y-1165480D02*
G01*
X612840Y-1165620D01*
X611520Y-1166360D01*
X609840Y-1167640D01*
X608640Y-1168840D01*
X607520Y-1170320D01*
X606520Y-1172060D01*
X605640Y-1173980D01*
X604920Y-1176020D01*
X604360Y-1178140D01*
X604020Y-1180240D01*
X603900Y-1182300D01*
X604240Y-1186400D01*
X605300Y-1189040D01*
X607040Y-1190200D01*
X609480Y-1189880D01*
X610620Y-1189200D01*
X611680Y-1188060D01*
X612660Y-1186540D01*
X613540Y-1184680D01*
X614280Y-1182580D01*
X614860Y-1180240D01*
X615240Y-1177780D01*
X615440Y-1175220D01*
X615480Y-1171740D01*
X615380Y-1169060D01*
X615100Y-1167160D01*
X614600Y-1165980D01*
G37*
G36*
X661919Y-1188140D02*
G01*
X660380Y-1188380D01*
X659300Y-1189060D01*
X658740Y-1190040D01*
X658920Y-1192500D01*
X658460Y-1193640D01*
X657500Y-1194520D01*
X654479Y-1195720D01*
X652600Y-1197080D01*
X650759Y-1198940D01*
X649180Y-1201060D01*
X648080Y-1203420D01*
X647540Y-1205920D01*
X647560Y-1208260D01*
X648199Y-1210140D01*
X649380Y-1211160D01*
X650879Y-1211140D01*
X652520Y-1210160D01*
X654080Y-1208260D01*
X655740Y-1205920D01*
X656860Y-1205060D01*
X657480Y-1205700D01*
X657700Y-1207820D01*
X658060Y-1209840D01*
X658960Y-1211480D01*
X660300Y-1212600D01*
X661919Y-1213000D01*
X662740Y-1212760D01*
X663520Y-1212020D01*
X664220Y-1210880D01*
X664840Y-1209360D01*
X665340Y-1207520D01*
X665740Y-1205400D01*
X665980Y-1203080D01*
X666060Y-1200580D01*
X665980Y-1198080D01*
X665740Y-1195740D01*
X665340Y-1193640D01*
X664840Y-1191800D01*
X664220Y-1190280D01*
X663520Y-1189120D01*
X662740Y-1188400D01*
G37*
G36*
X802820Y-1192280D02*
G01*
X801220Y-1192420D01*
X799900Y-1192820D01*
X799020Y-1193400D01*
X798680Y-1194120D01*
X799020Y-1195020D01*
X799900Y-1196160D01*
X801220Y-1197360D01*
X802820Y-1198500D01*
X804440Y-1199140D01*
X805759Y-1199020D01*
X806640Y-1198180D01*
X806979Y-1196680D01*
X806640Y-1194960D01*
X805759Y-1193580D01*
X804440Y-1192640D01*
G37*
G36*
X640600Y-1228120D02*
G01*
X638220Y-1228440D01*
X636060Y-1229660D01*
X635460Y-1231220D01*
X636400Y-1233340D01*
X638940Y-1236200D01*
X641540Y-1238460D01*
X644340Y-1240300D01*
X647000Y-1241560D01*
X649180Y-1242020D01*
X650900Y-1241840D01*
X652320Y-1241360D01*
X653280Y-1240640D01*
X653620Y-1239780D01*
X653220Y-1238460D01*
X652099Y-1236560D01*
X650460Y-1234320D01*
X648460Y-1232000D01*
X646060Y-1230020D01*
X643319Y-1228680D01*
G37*
G36*
X547380Y-1478540D02*
G01*
X546200Y-1478620D01*
X544620Y-1478920D01*
X542720Y-1479440D01*
X538240Y-1481040D01*
X533280Y-1483200D01*
X529360Y-1485140D01*
X525880Y-1486399D01*
X523880Y-1487000D01*
X519380Y-1488060D01*
X514340Y-1488959D01*
X508800Y-1489680D01*
X502879Y-1490220D01*
X496680Y-1490540D01*
X490240Y-1490660D01*
X482900Y-1490580D01*
X476520Y-1490300D01*
X471019Y-1489820D01*
X466340Y-1489120D01*
X462360Y-1488180D01*
X460620Y-1487620D01*
X459020Y-1487000D01*
X457580Y-1486300D01*
X456260Y-1485540D01*
X455060Y-1484720D01*
X452280Y-1482340D01*
X450780Y-1481200D01*
X449380Y-1480400D01*
X448000Y-1480000D01*
X446620Y-1479980D01*
X445120Y-1480420D01*
X443459Y-1481339D01*
X441560Y-1482740D01*
X439340Y-1484680D01*
X436760Y-1487160D01*
X430220Y-1493920D01*
X426860Y-1497640D01*
X423560Y-1501660D01*
X420379Y-1505880D01*
X417400Y-1510180D01*
X414720Y-1514400D01*
X412400Y-1518420D01*
X410560Y-1522120D01*
X409280Y-1525380D01*
X408340Y-1528360D01*
X407620Y-1531060D01*
X407100Y-1533540D01*
X406800Y-1535900D01*
X406740Y-1538180D01*
X406920Y-1540440D01*
X407360Y-1542780D01*
X408060Y-1545220D01*
X409020Y-1547880D01*
X410240Y-1550800D01*
X413579Y-1557680D01*
X414739Y-1559720D01*
X416340Y-1562160D01*
X420660Y-1568080D01*
X426360Y-1575180D01*
X433200Y-1583220D01*
X440980Y-1591940D01*
X449440Y-1601100D01*
X458400Y-1610400D01*
X467600Y-1619640D01*
X480080Y-1631720D01*
X490980Y-1641860D01*
X495860Y-1646220D01*
X500379Y-1650120D01*
X504520Y-1653560D01*
X508320Y-1656560D01*
X511780Y-1659100D01*
X514920Y-1661220D01*
X517720Y-1662920D01*
X520200Y-1664199D01*
X522380Y-1665060D01*
X524260Y-1665500D01*
X526880Y-1665780D01*
X529800Y-1665920D01*
X532960Y-1665900D01*
X536260Y-1665760D01*
X539560Y-1665480D01*
X542780Y-1665100D01*
X545840Y-1664580D01*
X548620Y-1663959D01*
X550420Y-1663420D01*
X552380Y-1662680D01*
X556560Y-1660740D01*
X558740Y-1659580D01*
X563120Y-1656920D01*
X567320Y-1653940D01*
X569280Y-1652400D01*
X572800Y-1649259D01*
X575940Y-1645980D01*
X580420Y-1641060D01*
X592580Y-1627180D01*
X607640Y-1609560D01*
X639040Y-1572120D01*
X648800Y-1560700D01*
X665639Y-1541399D01*
X678400Y-1527140D01*
X683560Y-1521579D01*
X708080Y-1496080D01*
X680840Y-1500180D01*
X676320Y-1500740D01*
X671820Y-1501140D01*
X667300Y-1501399D01*
X662700Y-1501500D01*
X658000Y-1501440D01*
X653139Y-1501240D01*
X648080Y-1500900D01*
X642780Y-1500380D01*
X631300Y-1498880D01*
X618680Y-1496780D01*
X612480Y-1495640D01*
X597000Y-1492420D01*
X585500Y-1489740D01*
X575760Y-1487160D01*
X571820Y-1486000D01*
X561860Y-1482540D01*
X555580Y-1480540D01*
X550520Y-1479139D01*
X548660Y-1478720D01*
G37*
G36*
X1208500Y-1494840D02*
G01*
X1207060Y-1495180D01*
X1205480Y-1496120D01*
X1203940Y-1497500D01*
X1202420Y-1499420D01*
X1201580Y-1499860D01*
X1200200Y-1500280D01*
X1198280Y-1500680D01*
X1195820Y-1501040D01*
X1189320Y-1501680D01*
X1180720Y-1502200D01*
X1170060Y-1502620D01*
X1157380Y-1502900D01*
X1142680Y-1503080D01*
X1121560Y-1503140D01*
X1024460Y-1502860D01*
X981680Y-1502900D01*
X938820Y-1503120D01*
X958060Y-1525580D01*
X967400Y-1535900D01*
X980100Y-1549540D01*
X994848Y-1565100D01*
X1101220Y-1565100D01*
X1101280Y-1562140D01*
X1101480Y-1559420D01*
X1101800Y-1556940D01*
X1102300Y-1554640D01*
X1102960Y-1552480D01*
X1103820Y-1550440D01*
X1104900Y-1548480D01*
X1106200Y-1546579D01*
X1107740Y-1544680D01*
X1109540Y-1542760D01*
X1111620Y-1540780D01*
X1113980Y-1538720D01*
X1115920Y-1537180D01*
X1117940Y-1535720D01*
X1122220Y-1533120D01*
X1126640Y-1530980D01*
X1128860Y-1530100D01*
X1131060Y-1529360D01*
X1133200Y-1528779D01*
X1135280Y-1528340D01*
X1137280Y-1528080D01*
X1139160Y-1527980D01*
X1141220Y-1528080D01*
X1143280Y-1528320D01*
X1145340Y-1528760D01*
X1147400Y-1529340D01*
X1149460Y-1530120D01*
X1151520Y-1531040D01*
X1153580Y-1532140D01*
X1155620Y-1533400D01*
X1157660Y-1534840D01*
X1159680Y-1536420D01*
X1161700Y-1538180D01*
X1163720Y-1540100D01*
X1165700Y-1542160D01*
X1167480Y-1544220D01*
X1169100Y-1546279D01*
X1170540Y-1548320D01*
X1171780Y-1550380D01*
X1172880Y-1552460D01*
X1173780Y-1554540D01*
X1174520Y-1556639D01*
X1175100Y-1558760D01*
X1175500Y-1560900D01*
X1175760Y-1563080D01*
X1175840Y-1565280D01*
X1175760Y-1567500D01*
X1175500Y-1569680D01*
X1175100Y-1571819D01*
X1174520Y-1573940D01*
X1173780Y-1576040D01*
X1172880Y-1578120D01*
X1171780Y-1580200D01*
X1170540Y-1582260D01*
X1169100Y-1584300D01*
X1167480Y-1586360D01*
X1165700Y-1588420D01*
X1163720Y-1590480D01*
X1161560Y-1592540D01*
X1159460Y-1594400D01*
X1157360Y-1596040D01*
X1155280Y-1597480D01*
X1153200Y-1598720D01*
X1151100Y-1599800D01*
X1148980Y-1600680D01*
X1146800Y-1601380D01*
X1144560Y-1601920D01*
X1142240Y-1602300D01*
X1139840Y-1602520D01*
X1137340Y-1602580D01*
X1134920Y-1602520D01*
X1132580Y-1602300D01*
X1130300Y-1601940D01*
X1128100Y-1601440D01*
X1125960Y-1600780D01*
X1123880Y-1599960D01*
X1121840Y-1599000D01*
X1119860Y-1597860D01*
X1117900Y-1596560D01*
X1115960Y-1595100D01*
X1114060Y-1593460D01*
X1112160Y-1591660D01*
X1110280Y-1589680D01*
X1108580Y-1587720D01*
X1107100Y-1585760D01*
X1105800Y-1583760D01*
X1104660Y-1581740D01*
X1103720Y-1579660D01*
X1102920Y-1577520D01*
X1102300Y-1575280D01*
X1101820Y-1572920D01*
X1101480Y-1570460D01*
X1101300Y-1567860D01*
X1101220Y-1565100D01*
X994848Y-1565100D01*
X1011160Y-1582100D01*
X1023540Y-1594860D01*
X1034840Y-1606260D01*
X1045960Y-1617300D01*
X1054500Y-1625640D01*
X1069820Y-1640200D01*
X1076240Y-1646080D01*
X1081560Y-1650780D01*
X1085620Y-1654120D01*
X1088560Y-1656320D01*
X1092500Y-1659060D01*
X1096140Y-1661279D01*
X1097920Y-1662220D01*
X1099700Y-1663040D01*
X1101520Y-1663760D01*
X1103400Y-1664379D01*
X1105380Y-1664920D01*
X1109700Y-1665740D01*
X1114720Y-1666279D01*
X1120660Y-1666600D01*
X1127720Y-1666740D01*
X1136140Y-1666780D01*
X1143140Y-1666699D01*
X1149500Y-1666480D01*
X1155300Y-1666140D01*
X1160540Y-1665640D01*
X1165320Y-1665000D01*
X1169700Y-1664180D01*
X1173700Y-1663180D01*
X1177400Y-1662000D01*
X1180860Y-1660620D01*
X1184120Y-1659060D01*
X1188440Y-1656560D01*
X1193280Y-1653440D01*
X1198320Y-1649880D01*
X1203320Y-1646100D01*
X1208020Y-1642260D01*
X1212100Y-1638600D01*
X1214980Y-1635580D01*
X1218000Y-1631879D01*
X1221040Y-1627660D01*
X1224060Y-1623060D01*
X1226940Y-1618220D01*
X1229580Y-1613280D01*
X1231920Y-1608380D01*
X1232960Y-1606000D01*
X1234700Y-1601320D01*
X1236320Y-1596180D01*
X1237800Y-1590640D01*
X1239120Y-1584860D01*
X1240240Y-1579040D01*
X1241140Y-1573340D01*
X1241760Y-1567940D01*
X1242100Y-1563020D01*
X1242100Y-1558600D01*
X1241840Y-1554019D01*
X1241340Y-1549300D01*
X1240600Y-1544540D01*
X1239700Y-1539920D01*
X1238620Y-1535580D01*
X1237420Y-1531620D01*
X1236120Y-1528200D01*
X1234460Y-1524860D01*
X1232160Y-1520860D01*
X1229560Y-1516699D01*
X1226820Y-1512620D01*
X1224060Y-1508820D01*
X1221420Y-1505540D01*
X1218440Y-1502280D01*
X1216660Y-1500540D01*
X1213260Y-1497580D01*
X1210420Y-1495560D01*
X1209320Y-1495020D01*
G37*
D10*
X525453Y-3516363D02*
G01*
X558182Y-3516363D01*
X541817Y-3500000D02*
G01*
X541817Y-3532727D01*
X520000Y-3566545D02*
G01*
X520000Y-3548362D01*
X536363Y-3546545D01*
X534544Y-3548362D01*
X532726Y-3553818D01*
X532726Y-3559272D01*
X534544Y-3564726D01*
X538182Y-3568362D01*
X543636Y-3570182D01*
X547271Y-3570182D01*
X552726Y-3568362D01*
X556363Y-3564726D01*
X558182Y-3559272D01*
X558182Y-3553818D01*
X556363Y-3548362D01*
X554544Y-3546545D01*
X550909Y-3544726D01*
X520000Y-3582181D02*
G01*
X558182Y-3596727D01*
X520000Y-3611273D02*
G01*
X558182Y-3596727D01*
X2223636Y-70909D02*
G01*
X2223636Y-128182D01*
X2223636Y-100909D02*
G01*
X2215455Y-92726D01*
X2210000Y-90000D01*
X2201818Y-90000D01*
X2196364Y-92726D01*
X2193636Y-100909D01*
X2193636Y-128182D01*
X2167455Y-70909D02*
G01*
X2167455Y-117273D01*
X2164727Y-125453D01*
X2159273Y-128182D01*
X2153819Y-128182D01*
X2175636Y-90000D02*
G01*
X2156545Y-90000D01*
X2127637Y-70909D02*
G01*
X2127637Y-117273D01*
X2124908Y-125453D01*
X2119454Y-128182D01*
X2113999Y-128182D01*
X2135819Y-90000D02*
G01*
X2116728Y-90000D01*
X2096000Y-90000D02*
G01*
X2096000Y-147273D01*
X2096000Y-98182D02*
G01*
X2090546Y-92726D01*
X2085091Y-90000D01*
X2076908Y-90000D01*
X2071454Y-92726D01*
X2066000Y-98182D01*
X2063272Y-106363D01*
X2063272Y-111817D01*
X2066000Y-120000D01*
X2071454Y-125453D01*
X2076908Y-128182D01*
X2085091Y-128182D01*
X2090546Y-125453D01*
X2096000Y-120000D01*
X2015272Y-98182D02*
G01*
X2018000Y-92726D01*
X2026181Y-90000D01*
X2034363Y-90000D01*
X2042546Y-92726D01*
X2045272Y-98182D01*
X2042546Y-103636D01*
X2037091Y-106363D01*
X2023455Y-109090D01*
X2018000Y-111817D01*
X2015272Y-117273D01*
X2015272Y-120000D01*
X2018000Y-125453D01*
X2026181Y-128182D01*
X2034363Y-128182D01*
X2042546Y-125453D01*
X2045272Y-120000D01*
X1994546Y-95453D02*
G01*
X1997272Y-98182D01*
X1994546Y-100909D01*
X1991818Y-98182D01*
X1994546Y-95453D01*
X1994546Y-114544D02*
G01*
X1997272Y-117273D01*
X1994546Y-120000D01*
X1991818Y-117273D01*
X1994546Y-114544D01*
X1924727Y-60000D02*
G01*
X1973819Y-147273D01*
X1857637Y-60000D02*
G01*
X1906728Y-147273D01*
X1806908Y-90000D02*
G01*
X1806908Y-133636D01*
X1809637Y-141817D01*
X1812363Y-144544D01*
X1817818Y-147273D01*
X1826000Y-147273D01*
X1831454Y-144544D01*
X1806908Y-98182D02*
G01*
X1812363Y-92726D01*
X1817818Y-90000D01*
X1826000Y-90000D01*
X1831454Y-92726D01*
X1836908Y-98182D01*
X1839637Y-106363D01*
X1839637Y-111817D01*
X1836908Y-120000D01*
X1831454Y-125453D01*
X1826000Y-128182D01*
X1817818Y-128182D01*
X1812363Y-125453D01*
X1806908Y-120000D01*
X1788909Y-70909D02*
G01*
X1786181Y-73636D01*
X1783455Y-70909D01*
X1786181Y-68182D01*
X1788909Y-70909D01*
X1786181Y-90000D02*
G01*
X1786181Y-128182D01*
X1757272Y-70909D02*
G01*
X1757272Y-117273D01*
X1754546Y-125453D01*
X1749090Y-128182D01*
X1743636Y-128182D01*
X1765455Y-90000D02*
G01*
X1746364Y-90000D01*
X1725636Y-70909D02*
G01*
X1725636Y-128182D01*
X1725636Y-100909D02*
G01*
X1717455Y-92726D01*
X1711999Y-90000D01*
X1703819Y-90000D01*
X1698364Y-92726D01*
X1695636Y-100909D01*
X1695636Y-128182D01*
X1677637Y-90000D02*
G01*
X1677637Y-117273D01*
X1674908Y-125453D01*
X1669454Y-128182D01*
X1661273Y-128182D01*
X1655819Y-125453D01*
X1647637Y-117273D01*
X1647637Y-90000D02*
G01*
X1647637Y-128182D01*
X1629637Y-70909D02*
G01*
X1629637Y-128182D01*
X1629637Y-98182D02*
G01*
X1624182Y-92726D01*
X1618728Y-90000D01*
X1610546Y-90000D01*
X1605091Y-92726D01*
X1599637Y-98182D01*
X1596908Y-106363D01*
X1596908Y-111817D01*
X1599637Y-120000D01*
X1605091Y-125453D01*
X1610546Y-128182D01*
X1618728Y-128182D01*
X1624182Y-125453D01*
X1629637Y-120000D01*
X1576181Y-114544D02*
G01*
X1578909Y-117273D01*
X1576181Y-120000D01*
X1573455Y-117273D01*
X1576181Y-114544D01*
X1522727Y-98182D02*
G01*
X1528181Y-92726D01*
X1533636Y-90000D01*
X1541818Y-90000D01*
X1547272Y-92726D01*
X1552727Y-98182D01*
X1555455Y-106363D01*
X1555455Y-111817D01*
X1552727Y-120000D01*
X1547272Y-125453D01*
X1541818Y-128182D01*
X1533636Y-128182D01*
X1528181Y-125453D01*
X1522727Y-120000D01*
X1491090Y-90000D02*
G01*
X1496545Y-92726D01*
X1501999Y-98182D01*
X1504727Y-106363D01*
X1504727Y-111817D01*
X1501999Y-120000D01*
X1496545Y-125453D01*
X1491090Y-128182D01*
X1482908Y-128182D01*
X1477455Y-125453D01*
X1471999Y-120000D01*
X1469273Y-111817D01*
X1469273Y-106363D01*
X1471999Y-98182D01*
X1477455Y-92726D01*
X1482908Y-90000D01*
X1491090Y-90000D01*
X1451273Y-90000D02*
G01*
X1451273Y-128182D01*
X1451273Y-100909D02*
G01*
X1443091Y-92726D01*
X1437637Y-90000D01*
X1429454Y-90000D01*
X1423999Y-92726D01*
X1421273Y-100909D01*
X1421273Y-128182D01*
X1421273Y-100909D02*
G01*
X1413091Y-92726D01*
X1407637Y-90000D01*
X1399454Y-90000D01*
X1393999Y-92726D01*
X1391273Y-100909D01*
X1391273Y-128182D01*
X1324182Y-60000D02*
G01*
X1373272Y-147273D01*
X1284363Y-70909D02*
G01*
X1306181Y-128182D01*
X1284363Y-70909D02*
G01*
X1262546Y-128182D01*
X1298000Y-109090D02*
G01*
X1270727Y-109090D01*
X1244546Y-70909D02*
G01*
X1244546Y-128182D01*
X1226545Y-106363D02*
G01*
X1193819Y-106363D01*
X1193819Y-100909D01*
X1196545Y-95453D01*
X1199273Y-92726D01*
X1204727Y-90000D01*
X1212908Y-90000D01*
X1218364Y-92726D01*
X1223819Y-98182D01*
X1226545Y-106363D01*
X1226545Y-111817D01*
X1223819Y-120000D01*
X1218364Y-125453D01*
X1212908Y-128182D01*
X1204727Y-128182D01*
X1199273Y-125453D01*
X1193819Y-120000D01*
X1175819Y-90000D02*
G01*
X1145819Y-128182D01*
X1145819Y-90000D02*
G01*
X1175819Y-128182D01*
X1086908Y-84544D02*
G01*
X1089637Y-79090D01*
X1095091Y-73636D01*
X1100546Y-70909D01*
X1111454Y-70909D01*
X1116908Y-73636D01*
X1122363Y-79090D01*
X1125091Y-84544D01*
X1127818Y-92726D01*
X1127818Y-106363D01*
X1125091Y-114544D01*
X1122363Y-120000D01*
X1116908Y-125453D01*
X1111454Y-128182D01*
X1100546Y-128182D01*
X1095091Y-125453D01*
X1089637Y-120000D01*
X1086908Y-114544D01*
X1086908Y-106363D01*
X1100546Y-106363D02*
G01*
X1086908Y-106363D01*
X1066181Y-90000D02*
G01*
X1049818Y-128182D01*
X1033455Y-90000D02*
G01*
X1049818Y-128182D01*
X1055272Y-139090D01*
X1060727Y-144544D01*
X1066181Y-147273D01*
X1068909Y-147273D01*
X1015455Y-90000D02*
G01*
X999090Y-128182D01*
X982727Y-90000D02*
G01*
X999090Y-128182D01*
X964727Y-106363D02*
G01*
X931999Y-106363D01*
X931999Y-100909D01*
X934728Y-95453D01*
X937454Y-92726D01*
X942908Y-90000D01*
X951091Y-90000D01*
X956545Y-92726D01*
X961999Y-98182D01*
X964727Y-106363D01*
X964727Y-111817D01*
X961999Y-120000D01*
X956545Y-125453D01*
X951091Y-128182D01*
X942908Y-128182D01*
X937454Y-125453D01*
X931999Y-120000D01*
X914000Y-90000D02*
G01*
X914000Y-128182D01*
X914000Y-106363D02*
G01*
X911273Y-98182D01*
X905819Y-92726D01*
X900363Y-90000D01*
X892181Y-90000D01*
X825091Y-60000D02*
G01*
X874182Y-147273D01*
X766181Y-84544D02*
G01*
X768908Y-79090D01*
X774364Y-73636D01*
X779819Y-70909D01*
X790727Y-70909D01*
X796181Y-73636D01*
X801637Y-79090D01*
X804364Y-84544D01*
X807091Y-92726D01*
X807091Y-106363D01*
X804364Y-114544D01*
X801637Y-120000D01*
X796181Y-125453D01*
X790727Y-128182D01*
X779819Y-128182D01*
X774364Y-125453D01*
X768908Y-120000D01*
X766181Y-114544D01*
X766181Y-106363D01*
X779819Y-106363D02*
G01*
X766181Y-106363D01*
X745455Y-90000D02*
G01*
X729090Y-128182D01*
X712728Y-90000D02*
G01*
X729090Y-128182D01*
X734546Y-139090D01*
X740000Y-144544D01*
X745455Y-147273D01*
X748182Y-147273D01*
X694728Y-90000D02*
G01*
X678364Y-128182D01*
X661999Y-90000D02*
G01*
X678364Y-128182D01*
X644000Y-106363D02*
G01*
X611273Y-106363D01*
X611273Y-100909D01*
X614000Y-95453D01*
X616727Y-92726D01*
X622181Y-90000D01*
X630363Y-90000D01*
X635819Y-92726D01*
X641273Y-98182D01*
X644000Y-106363D01*
X644000Y-111817D01*
X641273Y-120000D01*
X635819Y-125453D01*
X630363Y-128182D01*
X622181Y-128182D01*
X616727Y-125453D01*
X611273Y-120000D01*
X593272Y-90000D02*
G01*
X593272Y-128182D01*
X593272Y-106363D02*
G01*
X590545Y-98182D01*
X585091Y-92726D01*
X579636Y-90000D01*
X571455Y-90000D01*
X512546Y-84544D02*
G01*
X515273Y-79090D01*
X520727Y-73636D01*
X526181Y-70909D01*
X537091Y-70909D01*
X542546Y-73636D01*
X548000Y-79090D01*
X550727Y-84544D01*
X553454Y-92726D01*
X553454Y-106363D01*
X550727Y-114544D01*
X548000Y-120000D01*
X542546Y-125453D01*
X537091Y-128182D01*
X526181Y-128182D01*
X520727Y-125453D01*
X515273Y-120000D01*
X512546Y-114544D01*
X480909Y-90000D02*
G01*
X486363Y-92726D01*
X491819Y-98182D01*
X494546Y-106363D01*
X494546Y-111817D01*
X491819Y-120000D01*
X486363Y-125453D01*
X480909Y-128182D01*
X472728Y-128182D01*
X467273Y-125453D01*
X461819Y-120000D01*
X459090Y-111817D01*
X459090Y-106363D01*
X461819Y-98182D01*
X467273Y-92726D01*
X472728Y-90000D01*
X480909Y-90000D01*
X441091Y-90000D02*
G01*
X441091Y-128182D01*
X441091Y-100909D02*
G01*
X432908Y-92726D01*
X427454Y-90000D01*
X419272Y-90000D01*
X413818Y-92726D01*
X411091Y-100909D01*
X411091Y-128182D01*
X384908Y-70909D02*
G01*
X384908Y-117273D01*
X382181Y-125453D01*
X376727Y-128182D01*
X371273Y-128182D01*
X393090Y-90000D02*
G01*
X374000Y-90000D01*
X353272Y-90000D02*
G01*
X353272Y-128182D01*
X353272Y-106363D02*
G01*
X350545Y-98182D01*
X345091Y-92726D01*
X339636Y-90000D01*
X331455Y-90000D01*
X299819Y-90000D02*
G01*
X305273Y-92726D01*
X310727Y-98182D01*
X313454Y-106363D01*
X313454Y-111817D01*
X310727Y-120000D01*
X305273Y-125453D01*
X299819Y-128182D01*
X291637Y-128182D01*
X286181Y-125453D01*
X280727Y-120000D01*
X278000Y-111817D01*
X278000Y-106363D01*
X280727Y-98182D01*
X286181Y-92726D01*
X291637Y-90000D01*
X299819Y-90000D01*
X260000Y-70909D02*
G01*
X260000Y-128182D01*
D11*
X3618635Y-49636D02*
G01*
X3622727Y-41455D01*
X3630909Y-33272D01*
X3639090Y-29182D01*
X3655455Y-29182D01*
X3663635Y-33272D01*
X3671818Y-41455D01*
X3675909Y-49636D01*
X3680000Y-61909D01*
X3680000Y-82363D01*
X3675909Y-94636D01*
X3671818Y-102818D01*
X3663635Y-110999D01*
X3655455Y-115091D01*
X3639090Y-115091D01*
X3630909Y-110999D01*
X3622727Y-102818D01*
X3618635Y-94636D01*
X3618635Y-82363D01*
X3639090Y-82363D02*
G01*
X3618635Y-82363D01*
X3587545Y-57818D02*
G01*
X3563000Y-115091D01*
X3538455Y-57818D02*
G01*
X3563000Y-115091D01*
X3571181Y-131455D01*
X3579363Y-139636D01*
X3587545Y-143726D01*
X3591635Y-143726D01*
X3511454Y-57818D02*
G01*
X3486908Y-115091D01*
X3462363Y-57818D02*
G01*
X3486908Y-115091D01*
X3435363Y-82363D02*
G01*
X3386273Y-82363D01*
X3386273Y-74182D01*
X3390363Y-65999D01*
X3394454Y-61909D01*
X3402636Y-57818D01*
X3414908Y-57818D01*
X3423091Y-61909D01*
X3431273Y-70091D01*
X3435363Y-82363D01*
X3435363Y-90545D01*
X3431273Y-102818D01*
X3423091Y-110999D01*
X3414908Y-115091D01*
X3402636Y-115091D01*
X3394454Y-110999D01*
X3386273Y-102818D01*
X3359273Y-57818D02*
G01*
X3359273Y-115091D01*
X3359273Y-82363D02*
G01*
X3355182Y-70091D01*
X3346999Y-61909D01*
X3338818Y-57818D01*
X3326544Y-57818D01*
X3238181Y-49636D02*
G01*
X3242272Y-41455D01*
X3250455Y-33272D01*
X3258635Y-29182D01*
X3275000Y-29182D01*
X3283181Y-33272D01*
X3291364Y-41455D01*
X3295455Y-49636D01*
X3299544Y-61909D01*
X3299544Y-82363D01*
X3295455Y-94636D01*
X3291364Y-102818D01*
X3283181Y-110999D01*
X3275000Y-115091D01*
X3258635Y-115091D01*
X3250455Y-110999D01*
X3242272Y-102818D01*
X3238181Y-94636D01*
X3190726Y-57818D02*
G01*
X3198909Y-61909D01*
X3207091Y-70091D01*
X3211181Y-82363D01*
X3211181Y-90545D01*
X3207091Y-102818D01*
X3198909Y-110999D01*
X3190726Y-115091D01*
X3178455Y-115091D01*
X3170272Y-110999D01*
X3162091Y-102818D01*
X3158000Y-90545D01*
X3158000Y-82363D01*
X3162091Y-70091D01*
X3170272Y-61909D01*
X3178455Y-57818D01*
X3190726Y-57818D01*
X3131000Y-57818D02*
G01*
X3131000Y-115091D01*
X3131000Y-74182D02*
G01*
X3118726Y-61909D01*
X3110545Y-57818D01*
X3098272Y-57818D01*
X3090091Y-61909D01*
X3086000Y-74182D01*
X3086000Y-115091D01*
X3046727Y-29182D02*
G01*
X3046727Y-98726D01*
X3042636Y-110999D01*
X3034454Y-115091D01*
X3026273Y-115091D01*
X3058999Y-57818D02*
G01*
X3030363Y-57818D01*
X2999273Y-57818D02*
G01*
X2999273Y-115091D01*
X2999273Y-82363D02*
G01*
X2995182Y-70091D01*
X2986999Y-61909D01*
X2978818Y-57818D01*
X2966544Y-57818D01*
X2919090Y-57818D02*
G01*
X2927272Y-61909D01*
X2935455Y-70091D01*
X2939544Y-82363D01*
X2939544Y-90545D01*
X2935455Y-102818D01*
X2927272Y-110999D01*
X2919090Y-115091D01*
X2906818Y-115091D01*
X2898635Y-110999D01*
X2890455Y-102818D01*
X2886364Y-90545D01*
X2886364Y-82363D01*
X2890455Y-70091D01*
X2898635Y-61909D01*
X2906818Y-57818D01*
X2919090Y-57818D01*
X2859363Y-29182D02*
G01*
X2859363Y-115091D01*
X2769363Y-29182D02*
G01*
X2769363Y-115091D01*
X2769363Y-29182D02*
G01*
X2732545Y-29182D01*
X2720272Y-33272D01*
X2716181Y-37363D01*
X2712091Y-45545D01*
X2712091Y-57818D01*
X2716181Y-65999D01*
X2720272Y-70091D01*
X2732545Y-74182D01*
X2769363Y-74182D01*
X2685091Y-57818D02*
G01*
X2685091Y-115091D01*
X2685091Y-82363D02*
G01*
X2681000Y-70091D01*
X2672817Y-61909D01*
X2664636Y-57818D01*
X2652363Y-57818D01*
X2604908Y-57818D02*
G01*
X2613091Y-61909D01*
X2621273Y-70091D01*
X2625363Y-82363D01*
X2625363Y-90545D01*
X2621273Y-102818D01*
X2613091Y-110999D01*
X2604908Y-115091D01*
X2592636Y-115091D01*
X2584454Y-110999D01*
X2576273Y-102818D01*
X2572182Y-90545D01*
X2572182Y-82363D01*
X2576273Y-70091D01*
X2584454Y-61909D01*
X2592636Y-57818D01*
X2604908Y-57818D01*
X2528818Y-29182D02*
G01*
X2524727Y-33272D01*
X2520636Y-29182D01*
X2524727Y-25091D01*
X2528818Y-29182D01*
X2524727Y-57818D02*
G01*
X2524727Y-127363D01*
X2528818Y-139636D01*
X2536999Y-143726D01*
X2545182Y-143726D01*
X2493635Y-82363D02*
G01*
X2444544Y-82363D01*
X2444544Y-74182D01*
X2448635Y-65999D01*
X2452727Y-61909D01*
X2460909Y-57818D01*
X2473181Y-57818D01*
X2481364Y-61909D01*
X2489544Y-70091D01*
X2493635Y-82363D01*
X2493635Y-90545D01*
X2489544Y-102818D01*
X2481364Y-110999D01*
X2473181Y-115091D01*
X2460909Y-115091D01*
X2452727Y-110999D01*
X2444544Y-102818D01*
X2368455Y-70091D02*
G01*
X2376635Y-61909D01*
X2384817Y-57818D01*
X2397091Y-57818D01*
X2405272Y-61909D01*
X2413455Y-70091D01*
X2417545Y-82363D01*
X2417545Y-90545D01*
X2413455Y-102818D01*
X2405272Y-110999D01*
X2397091Y-115091D01*
X2384817Y-115091D01*
X2376635Y-110999D01*
X2368455Y-102818D01*
X2329182Y-29182D02*
G01*
X2329182Y-98726D01*
X2325091Y-110999D01*
X2316908Y-115091D01*
X2308726Y-115091D01*
X2341454Y-57818D02*
G01*
X2312817Y-57818D01*
X3618635Y-179636D02*
G01*
X3622727Y-171455D01*
X3630909Y-163272D01*
X3639090Y-159182D01*
X3655455Y-159182D01*
X3663635Y-163272D01*
X3671818Y-171455D01*
X3675909Y-179636D01*
X3680000Y-191909D01*
X3680000Y-212363D01*
X3675909Y-224636D01*
X3671818Y-232818D01*
X3663635Y-240999D01*
X3655455Y-245091D01*
X3639090Y-245091D01*
X3630909Y-240999D01*
X3622727Y-232818D01*
X3618635Y-224636D01*
X3571181Y-187818D02*
G01*
X3579363Y-191909D01*
X3587545Y-200091D01*
X3591635Y-212363D01*
X3591635Y-220545D01*
X3587545Y-232818D01*
X3579363Y-240999D01*
X3571181Y-245091D01*
X3558909Y-245091D01*
X3550726Y-240999D01*
X3542545Y-232818D01*
X3538455Y-220545D01*
X3538455Y-212363D01*
X3542545Y-200091D01*
X3550726Y-191909D01*
X3558909Y-187818D01*
X3571181Y-187818D01*
X3511454Y-187818D02*
G01*
X3511454Y-245091D01*
X3511454Y-204182D02*
G01*
X3499182Y-191909D01*
X3491000Y-187818D01*
X3478726Y-187818D01*
X3470545Y-191909D01*
X3466454Y-204182D01*
X3466454Y-245091D01*
X3427182Y-159182D02*
G01*
X3427182Y-228726D01*
X3423091Y-240999D01*
X3414908Y-245091D01*
X3406727Y-245091D01*
X3439454Y-187818D02*
G01*
X3410817Y-187818D01*
X3379727Y-187818D02*
G01*
X3379727Y-245091D01*
X3379727Y-212363D02*
G01*
X3375636Y-200091D01*
X3367455Y-191909D01*
X3359273Y-187818D01*
X3346999Y-187818D01*
X3299544Y-187818D02*
G01*
X3307727Y-191909D01*
X3315909Y-200091D01*
X3320000Y-212363D01*
X3320000Y-220545D01*
X3315909Y-232818D01*
X3307727Y-240999D01*
X3299544Y-245091D01*
X3287272Y-245091D01*
X3279090Y-240999D01*
X3270909Y-232818D01*
X3266818Y-220545D01*
X3266818Y-212363D01*
X3270909Y-200091D01*
X3279090Y-191909D01*
X3287272Y-187818D01*
X3299544Y-187818D01*
X3239817Y-159182D02*
G01*
X3239817Y-245091D01*
X3149817Y-159182D02*
G01*
X3149817Y-245091D01*
X3149817Y-200091D02*
G01*
X3141635Y-191909D01*
X3133455Y-187818D01*
X3121181Y-187818D01*
X3113000Y-191909D01*
X3104817Y-200091D01*
X3100726Y-212363D01*
X3100726Y-220545D01*
X3104817Y-232818D01*
X3113000Y-240999D01*
X3121181Y-245091D01*
X3133455Y-245091D01*
X3141635Y-240999D01*
X3149817Y-232818D01*
X3053272Y-187818D02*
G01*
X3061454Y-191909D01*
X3069636Y-200091D01*
X3073726Y-212363D01*
X3073726Y-220545D01*
X3069636Y-232818D01*
X3061454Y-240999D01*
X3053272Y-245091D01*
X3041000Y-245091D01*
X3032817Y-240999D01*
X3024636Y-232818D01*
X3020545Y-220545D01*
X3020545Y-212363D01*
X3024636Y-200091D01*
X3032817Y-191909D01*
X3041000Y-187818D01*
X3053272Y-187818D01*
X2944454Y-187818D02*
G01*
X2944454Y-245091D01*
X2944454Y-200091D02*
G01*
X2952636Y-191909D01*
X2960817Y-187818D01*
X2973091Y-187818D01*
X2981273Y-191909D01*
X2989454Y-200091D01*
X2993545Y-212363D01*
X2993545Y-220545D01*
X2989454Y-232818D01*
X2981273Y-240999D01*
X2973091Y-245091D01*
X2960817Y-245091D01*
X2952636Y-240999D01*
X2944454Y-232818D01*
X2917455Y-187818D02*
G01*
X2917455Y-245091D01*
X2917455Y-212363D02*
G01*
X2913364Y-200091D01*
X2905182Y-191909D01*
X2896999Y-187818D01*
X2884727Y-187818D01*
X2808635Y-159182D02*
G01*
X2808635Y-245091D01*
X2808635Y-200091D02*
G01*
X2816818Y-191909D01*
X2825000Y-187818D01*
X2837272Y-187818D01*
X2845455Y-191909D01*
X2853635Y-200091D01*
X2857727Y-212363D01*
X2857727Y-220545D01*
X2853635Y-232818D01*
X2845455Y-240999D01*
X2837272Y-245091D01*
X2825000Y-245091D01*
X2816818Y-240999D01*
X2808635Y-232818D01*
X2718635Y-187818D02*
G01*
X2694090Y-245091D01*
X2669544Y-187818D02*
G01*
X2694090Y-245091D01*
X2642545Y-175545D02*
G01*
X2634363Y-171455D01*
X2622091Y-159182D01*
X2622091Y-245091D01*
X2591000Y-224636D02*
G01*
X2595091Y-228726D01*
X2591000Y-232818D01*
X2586908Y-228726D01*
X2591000Y-224636D01*
X2555817Y-179636D02*
G01*
X2555817Y-175545D01*
X2551727Y-167363D01*
X2547636Y-163272D01*
X2539454Y-159182D01*
X2523091Y-159182D01*
X2514908Y-163272D01*
X2510817Y-167363D01*
X2506727Y-175545D01*
X2506727Y-183726D01*
X2510817Y-191909D01*
X2518999Y-204182D01*
X2559908Y-245091D01*
X2502636Y-245091D01*
X3680000Y-317818D02*
G01*
X3680000Y-375091D01*
X3680000Y-334182D02*
G01*
X3667727Y-321909D01*
X3659544Y-317818D01*
X3647272Y-317818D01*
X3639090Y-321909D01*
X3635000Y-334182D01*
X3635000Y-375091D01*
X3635000Y-334182D02*
G01*
X3622727Y-321909D01*
X3614544Y-317818D01*
X3602272Y-317818D01*
X3594090Y-321909D01*
X3590000Y-334182D01*
X3590000Y-375091D01*
X3513909Y-317818D02*
G01*
X3513909Y-375091D01*
X3513909Y-330091D02*
G01*
X3522091Y-321909D01*
X3530272Y-317818D01*
X3542545Y-317818D01*
X3550726Y-321909D01*
X3558909Y-330091D01*
X3563000Y-342363D01*
X3563000Y-350545D01*
X3558909Y-362818D01*
X3550726Y-370999D01*
X3542545Y-375091D01*
X3530272Y-375091D01*
X3522091Y-370999D01*
X3513909Y-362818D01*
X3437817Y-289182D02*
G01*
X3437817Y-375091D01*
X3437817Y-330091D02*
G01*
X3446000Y-321909D01*
X3454182Y-317818D01*
X3466454Y-317818D01*
X3474636Y-321909D01*
X3482817Y-330091D01*
X3486908Y-342363D01*
X3486908Y-350545D01*
X3482817Y-362818D01*
X3474636Y-370999D01*
X3466454Y-375091D01*
X3454182Y-375091D01*
X3446000Y-370999D01*
X3437817Y-362818D01*
X3410817Y-342363D02*
G01*
X3361727Y-342363D01*
X3361727Y-334182D01*
X3365817Y-325999D01*
X3369908Y-321909D01*
X3378091Y-317818D01*
X3390363Y-317818D01*
X3398545Y-321909D01*
X3406727Y-330091D01*
X3410817Y-342363D01*
X3410817Y-350545D01*
X3406727Y-362818D01*
X3398545Y-370999D01*
X3390363Y-375091D01*
X3378091Y-375091D01*
X3369908Y-370999D01*
X3361727Y-362818D01*
X3271727Y-289182D02*
G01*
X3271727Y-375091D01*
X3271727Y-330091D02*
G01*
X3263545Y-321909D01*
X3255363Y-317818D01*
X3243091Y-317818D01*
X3234908Y-321909D01*
X3226727Y-330091D01*
X3222636Y-342363D01*
X3222636Y-350545D01*
X3226727Y-362818D01*
X3234908Y-370999D01*
X3243091Y-375091D01*
X3255363Y-375091D01*
X3263545Y-370999D01*
X3271727Y-362818D01*
X3191544Y-317818D02*
G01*
X3166999Y-375091D01*
X3142455Y-317818D02*
G01*
X3166999Y-375091D01*
X3175182Y-391455D01*
X3183364Y-399636D01*
X3191544Y-403726D01*
X3195636Y-403726D01*
X3019727Y-289182D02*
G01*
X3052455Y-375091D01*
X3019727Y-289182D02*
G01*
X2986999Y-375091D01*
X3040182Y-346455D02*
G01*
X2999273Y-346455D01*
X2960000Y-289182D02*
G01*
X2960000Y-375091D01*
X2933000Y-342363D02*
G01*
X2883909Y-342363D01*
X2883909Y-334182D01*
X2888000Y-325999D01*
X2892091Y-321909D01*
X2900272Y-317818D01*
X2912545Y-317818D01*
X2920726Y-321909D01*
X2928909Y-330091D01*
X2933000Y-342363D01*
X2933000Y-350545D01*
X2928909Y-362818D01*
X2920726Y-370999D01*
X2912545Y-375091D01*
X2900272Y-375091D01*
X2892091Y-370999D01*
X2883909Y-362818D01*
X2856908Y-317818D02*
G01*
X2811908Y-375091D01*
X2811908Y-317818D02*
G01*
X2856908Y-375091D01*
X2723545Y-309636D02*
G01*
X2727636Y-301455D01*
X2735817Y-293272D01*
X2743999Y-289182D01*
X2760363Y-289182D01*
X2768545Y-293272D01*
X2776727Y-301455D01*
X2780817Y-309636D01*
X2784908Y-321909D01*
X2784908Y-342363D01*
X2780817Y-354636D01*
X2776727Y-362818D01*
X2768545Y-370999D01*
X2760363Y-375091D01*
X2743999Y-375091D01*
X2735817Y-370999D01*
X2727636Y-362818D01*
X2723545Y-354636D01*
X2723545Y-342363D01*
X2743999Y-342363D02*
G01*
X2723545Y-342363D01*
X2692455Y-317818D02*
G01*
X2667908Y-375091D01*
X2643364Y-317818D02*
G01*
X2667908Y-375091D01*
X2676090Y-391455D01*
X2684273Y-399636D01*
X2692455Y-403726D01*
X2696544Y-403726D01*
X2616364Y-317818D02*
G01*
X2591818Y-375091D01*
X2567272Y-317818D02*
G01*
X2591818Y-375091D01*
X2540272Y-342363D02*
G01*
X2491181Y-342363D01*
X2491181Y-334182D01*
X2495272Y-325999D01*
X2499363Y-321909D01*
X2507545Y-317818D01*
X2519817Y-317818D01*
X2528000Y-321909D01*
X2536181Y-330091D01*
X2540272Y-342363D01*
X2540272Y-350545D01*
X2536181Y-362818D01*
X2528000Y-370999D01*
X2519817Y-375091D01*
X2507545Y-375091D01*
X2499363Y-370999D01*
X2491181Y-362818D01*
X2464182Y-317818D02*
G01*
X2464182Y-375091D01*
X2464182Y-342363D02*
G01*
X2460091Y-330091D01*
X2451908Y-321909D01*
X2443726Y-317818D01*
X2431454Y-317818D01*
D10*
X703634Y-3556359D02*
G01*
X736361Y-3556359D01*
X719998Y-3539996D02*
G01*
X719998Y-3572723D01*
X705453Y-3584724D02*
G01*
X703634Y-3588359D01*
X698180Y-3593814D01*
X736361Y-3593814D01*
X707271Y-3607633D02*
G01*
X705453Y-3607633D01*
X701817Y-3609450D01*
X699998Y-3611269D01*
X698180Y-3614906D01*
X698180Y-3622179D01*
X699998Y-3625814D01*
X701817Y-3627633D01*
X705453Y-3629450D01*
X709090Y-3629450D01*
X712725Y-3627633D01*
X718180Y-3623996D01*
X736361Y-3605814D01*
X736361Y-3631269D01*
X698180Y-3643269D02*
G01*
X736361Y-3657815D01*
X698180Y-3672359D02*
G01*
X736361Y-3657815D01*
X2700003Y-1398180D02*
G01*
X2685457Y-1436363D01*
X2670913Y-1398180D02*
G01*
X2685457Y-1436363D01*
X2631639Y-1407271D02*
G01*
X2633458Y-1403634D01*
X2637093Y-1399998D01*
X2640730Y-1398180D01*
X2648004Y-1398180D01*
X2651639Y-1399998D01*
X2655276Y-1403634D01*
X2657093Y-1407271D01*
X2658913Y-1412725D01*
X2658913Y-1421817D01*
X2657093Y-1427271D01*
X2655276Y-1430907D01*
X2651639Y-1434544D01*
X2648004Y-1436363D01*
X2640730Y-1436363D01*
X2637093Y-1434544D01*
X2633458Y-1430907D01*
X2631639Y-1427271D01*
X2592367Y-1407271D02*
G01*
X2594184Y-1403634D01*
X2597821Y-1399998D01*
X2601458Y-1398180D01*
X2608730Y-1398180D01*
X2612367Y-1399998D01*
X2616004Y-1403634D01*
X2617821Y-1407271D01*
X2619639Y-1412725D01*
X2619639Y-1421817D01*
X2617821Y-1427271D01*
X2616004Y-1430907D01*
X2612367Y-1434544D01*
X2608730Y-1436363D01*
X2601458Y-1436363D01*
X2597821Y-1434544D01*
X2594184Y-1430907D01*
X2592367Y-1427271D01*
X2564004Y-1403634D02*
G01*
X2564004Y-1436363D01*
X2580366Y-1419998D02*
G01*
X2547640Y-1419998D01*
X2614910Y-1069092D02*
G01*
X2616728Y-1065455D01*
X2620363Y-1061819D01*
X2624000Y-1060001D01*
X2631274Y-1060001D01*
X2634910Y-1061819D01*
X2638545Y-1065455D01*
X2640363Y-1069092D01*
X2642183Y-1074546D01*
X2642183Y-1083636D01*
X2640363Y-1089092D01*
X2638545Y-1092728D01*
X2634910Y-1096363D01*
X2631274Y-1098182D01*
X2624000Y-1098182D01*
X2620363Y-1096363D01*
X2616728Y-1092728D01*
X2614910Y-1089092D01*
X2614910Y-1083636D01*
X2624000Y-1083636D02*
G01*
X2614910Y-1083636D01*
X2602910Y-1060001D02*
G01*
X2602910Y-1098182D01*
X2602910Y-1060001D02*
G01*
X2577455Y-1098182D01*
X2577455Y-1060001D02*
G01*
X2577455Y-1098182D01*
X2565455Y-1060001D02*
G01*
X2565455Y-1098182D01*
X2565455Y-1060001D02*
G01*
X2552727Y-1060001D01*
X2547273Y-1061819D01*
X2543636Y-1065455D01*
X2541818Y-1069092D01*
X2540001Y-1074546D01*
X2540001Y-1083636D01*
X2541818Y-1089092D01*
X2543636Y-1092728D01*
X2547273Y-1096363D01*
X2552727Y-1098182D01*
X2565455Y-1098182D01*
D12*
X3550000Y-2400000D02*
G01*
X3350000Y-2400000D01*
X2504149Y-1350000D02*
G01*
X2504149Y-1554149D01*
X3350000Y-2400000D01*
D13*
X3080000Y-3700000D02*
G01*
X3300000Y-3700000D01*
X3500000Y-3500000D01*
X3500000Y-3400000D01*
X3080000Y-3600000D02*
G01*
X2300000Y-3600000D01*
X3080000Y-3500000D02*
G01*
X3260000Y-3500000D01*
X3300000Y-3460000D01*
X3300000Y-3400000D01*
X3100000Y-3400000D02*
G01*
X2880000Y-3400000D01*
X3200000Y-3400000D02*
G01*
X3080000Y-3400000D01*
X3000000Y-3700000D02*
G01*
X3080000Y-3700000D01*
X2900000Y-3700000D02*
G01*
X2980000Y-3700000D01*
D14*
X3600000Y-3400000D02*
G01*
X3600000Y-3500000D01*
D13*
X1650000Y-1350000D02*
G01*
X1750000Y-1350000D01*
X1800000Y-1400000D01*
X1650000Y-2250000D02*
G01*
X1670000Y-2250000D01*
X1720000Y-2300000D01*
X1720000Y-3140000D01*
X1940000Y-3360000D01*
X1940000Y-3560000D01*
X1820000Y-3680000D01*
X1730000Y-3680000D01*
X1650000Y-3600000D01*
X1300000Y-2770000D02*
G01*
X1300000Y-2900000D01*
X1800000Y-3400000D01*
X1800000Y-3500000D01*
X1200000Y-2770000D02*
G01*
X1200000Y-2900000D01*
X1650000Y-3350000D01*
X1650000Y-3500000D01*
X1650000Y-2350000D02*
G01*
X1600000Y-2350000D01*
X1400000Y-2550000D01*
X1400000Y-2770000D01*
X1100000Y-2770000D02*
G01*
X370000Y-3500000D01*
X350000Y-3500000D01*
X1100000Y-2770000D02*
G01*
X1100000Y-2950000D01*
X900000Y-3150000D01*
X900000Y-3370000D01*
X1650000Y-2450000D02*
G01*
X1650000Y-3150000D01*
X1880000Y-3380000D01*
X1880000Y-3520000D01*
X1800000Y-3600000D01*
X1500000Y-3370000D02*
G01*
X1540000Y-3410000D01*
X1540000Y-3640000D01*
X1650000Y-3750000D01*
X2150000Y-3750000D01*
X2200000Y-3700000D01*
X2200000Y-3400000D01*
X2400000Y-3200000D01*
X2750000Y-3200000D01*
X2300000Y-3500000D02*
G01*
X2240000Y-3500000D01*
X2200000Y-3460000D01*
D12*
X200000Y-2500000D02*
G01*
X320000Y-2380000D01*
X320000Y-2120000D01*
X200000Y-2000000D01*
X2250000Y-1350000D02*
G01*
X2700000Y-1350000D01*
X2250000Y-1150000D02*
G01*
X2700000Y-1150000D01*
D13*
X200000Y-639000D02*
G01*
X200000Y-675000D01*
X1625000Y-675000D01*
X1920000Y-970000D01*
X1920000Y-2595000D01*
X2300000Y-2975000D01*
X2925000Y-2975000D01*
X3150000Y-3200000D01*
X2300000Y-3400000D02*
G01*
X2400000Y-3500000D01*
X3080000Y-3500000D01*
X3400000Y-3400000D02*
G01*
X3400000Y-3500000D01*
X3300000Y-3600000D01*
X3080000Y-3600000D01*
X2300000Y-3700000D02*
G01*
X2880000Y-3700000D01*
X3200000Y-3400000D02*
G01*
X3080000Y-3280000D01*
X2860000Y-3280000D01*
X2750000Y-3200000D01*
X3150000Y-3200000D02*
G01*
X3150000Y-3250000D01*
X3300000Y-3400000D01*
X3400000Y-3400000D02*
G01*
X3400000Y-3340000D01*
X2985000Y-2925000D01*
X2325000Y-2925000D01*
X1970000Y-2570000D01*
X1970000Y-1830000D01*
X2100000Y-1700000D01*
D12*
X124499Y-3524499D02*
G01*
X100000Y-3500000D01*
X40000Y-3500000D01*
D13*
X640000Y-3500000D02*
G01*
X640000Y-3690000D01*
X700000Y-3750000D01*
X1650000Y-3750000D01*
X2850000Y-3200000D02*
G01*
X2775000Y-3125000D01*
X2225000Y-3125000D01*
X1770000Y-2670000D01*
X1770000Y-1670000D01*
X1650000Y-1550000D01*
X2950000Y-3200000D02*
G01*
X2825000Y-3075000D01*
X2250000Y-3075000D01*
X1820000Y-2645000D01*
X1820000Y-1620000D01*
X1650000Y-1450000D01*
X3050000Y-3200000D02*
G01*
X2875000Y-3025000D01*
X2275000Y-3025000D01*
X1870000Y-2620000D01*
X1870000Y-1370000D01*
X1650000Y-1150000D01*
D12*
X430000Y-360000D02*
G01*
X491999Y-360000D01*
X628000Y-480000D01*
X820000Y-480000D01*
X940000Y-360000D01*
X1610000Y-360000D01*
X2080000Y-830000D01*
X2080000Y-1200000D01*
X2230000Y-1350000D01*
X2250000Y-1350000D01*
X430000Y-260000D02*
G01*
X600000Y-260000D01*
X640000Y-220000D01*
X800000Y-220000D01*
X840000Y-260000D01*
X1635000Y-260000D01*
X2160000Y-785000D01*
X2160000Y-1110000D01*
X2200000Y-1150000D01*
X2250000Y-1150000D01*
X100000Y-2500000D02*
G01*
X100000Y-2460000D01*
X240000Y-2320000D01*
X240000Y-2200000D01*
X100000Y-2060000D01*
X100000Y-500000D01*
X340000Y-260000D01*
X430000Y-260000D01*
X200000Y-1900000D02*
G01*
X200000Y-525000D01*
X365000Y-360000D01*
X430000Y-360000D01*
D13*
X430000Y-460000D02*
G01*
X415000Y-460000D01*
X360000Y-515000D01*
X360000Y-585000D01*
X400000Y-625000D01*
X1650000Y-625000D01*
X1970000Y-945000D01*
X1970000Y-1470000D01*
X2250000Y-1750000D01*
X430000Y-560000D02*
G01*
X1660000Y-560000D01*
X2020000Y-920000D01*
X2020000Y-1420000D01*
X2250000Y-1650000D01*
X2250000Y-1450000D02*
G01*
X2300000Y-1450000D01*
X3370000Y-2520000D01*
X3580000Y-2520000D01*
X3650000Y-2450000D01*
X3650000Y-2600000D02*
G01*
X3350000Y-2600000D01*
X2300000Y-1550000D01*
X2250000Y-1550000D01*
X2250000Y-1850000D02*
G01*
X2500000Y-1850000D01*
X3400000Y-2750000D01*
X3650000Y-2750000D01*
X3650000Y-2900000D02*
G01*
X3450000Y-2900000D01*
X2500000Y-1950000D01*
X2250000Y-1950000D01*
X3750000Y-2900000D02*
G01*
X3750000Y-2450000D01*
X2250000Y-2050000D02*
G01*
X2500000Y-2050000D01*
X3450000Y-3000000D01*
X3700000Y-3000000D01*
X3750000Y-2950000D01*
X3750000Y-2900000D01*
X3500000Y-3400000D02*
G01*
X3500000Y-3350000D01*
X3025000Y-2875000D01*
X2350000Y-2875000D01*
X2020000Y-2545000D01*
X2020000Y-1980000D01*
X2250000Y-1750000D01*
D12*
X1000000Y-3370000D02*
G01*
X1000000Y-3620000D01*
X804000Y-3640000D02*
G01*
X800000Y-3370000D01*
X1243950Y-3639951D02*
G01*
X1250000Y-3550000D01*
X1300000Y-3500000D01*
X1300000Y-3370000D01*
X1439951Y-3639951D02*
G01*
X1446000Y-3546001D01*
X1400000Y-3500000D01*
X1400000Y-3370000D01*
D13*
X1650000Y-2150000D02*
G01*
X1250000Y-2150000D01*
X650000Y-2750000D01*
X650000Y-3050000D01*
X300000Y-3400000D01*
X1650000Y-2050000D02*
G01*
X1275000Y-2050000D01*
X600000Y-2725000D01*
X600000Y-2950000D01*
X300000Y-3250000D01*
X1650000Y-1950000D02*
G01*
X1300000Y-1950000D01*
X550000Y-2700000D01*
X550000Y-2850000D01*
X300000Y-3100000D01*
X1650000Y-1850000D02*
G01*
X1325000Y-1850000D01*
X500000Y-2675000D01*
X500000Y-2750000D01*
X300000Y-2950000D01*
X1650000Y-1750000D02*
G01*
X1350000Y-1750000D01*
X300000Y-2800000D01*
X1650000Y-1650000D02*
G01*
X1375000Y-1650000D01*
X375000Y-2650000D01*
X300000Y-2650000D01*
X2250000Y-2150000D02*
G01*
X2500000Y-2150000D01*
X3450000Y-3100000D01*
X3650000Y-3100000D01*
X2250000Y-2450000D02*
G01*
X2700000Y-2450000D01*
X3500000Y-3250000D01*
X3650000Y-3250000D01*
D12*
X495999Y-3700000D02*
G01*
X605999Y-3810000D01*
X3440000Y-3810000D01*
X3750000Y-3500000D01*
X3750000Y-3100000D01*
X300000Y-3700000D02*
G01*
X300000Y-3800000D01*
X380000Y-3880000D01*
X3520000Y-3880000D01*
X3850000Y-3550000D01*
X3850000Y-2450000D01*
X200000Y-3400000D02*
G01*
X200000Y-2500000D01*
X495999Y-3700000D02*
G01*
X495999Y-3645999D01*
X350000Y-3500000D01*
X250000Y-3500000D01*
X200000Y-3450000D01*
X200000Y-3400000D01*
X100000Y-2500000D02*
G01*
X100000Y-3400000D01*
X300000Y-3700000D02*
G01*
X100000Y-3500000D01*
X100000Y-3400000D01*
D13*
X1650000Y-1050000D02*
G01*
X1550000Y-1150000D01*
X1550000Y-1400000D01*
X450000Y-2500000D01*
X300000Y-2500000D01*
D15*
G01*
X500000Y-3740000D03*
G01*
X304000Y-3740000D03*
D16*
G01*
X1650000Y-3500000D03*
G01*
X1650000Y-3600000D03*
D17*
G01*
X430000Y-260000D03*
D16*
G01*
X430000Y-360000D03*
G01*
X430000Y-460000D03*
G01*
X430000Y-560000D03*
G01*
X800000Y-3370000D03*
G01*
X900000Y-3370000D03*
G01*
X1000000Y-3370000D03*
G01*
X1100000Y-3370000D03*
G01*
X1200000Y-3370000D03*
G01*
X1300000Y-3370000D03*
G01*
X1400000Y-3370000D03*
G01*
X1500000Y-3370000D03*
G01*
X1500000Y-2770000D03*
G01*
X1400000Y-2770000D03*
G01*
X1300000Y-2770000D03*
G01*
X1200000Y-2770000D03*
G01*
X1100000Y-2770000D03*
G01*
X1000000Y-2770000D03*
G01*
X900000Y-2770000D03*
G01*
X800000Y-2770000D03*
G01*
X2300000Y-3400000D03*
G01*
X2300000Y-3500019D03*
G01*
X2300000Y-3600019D03*
G01*
X2300000Y-3700019D03*
D18*
G01*
X1650000Y-1050000D03*
D19*
G01*
X1650000Y-1150000D03*
G01*
X1650000Y-1250000D03*
G01*
X1650000Y-1350000D03*
G01*
X1650000Y-1450000D03*
G01*
X1650000Y-1550000D03*
G01*
X1650000Y-1650000D03*
G01*
X1650000Y-1750000D03*
G01*
X1650000Y-1850000D03*
G01*
X1650000Y-1950000D03*
G01*
X1650000Y-2050000D03*
G01*
X1650000Y-2150000D03*
G01*
X1650000Y-2250000D03*
G01*
X1650000Y-2350000D03*
G01*
X1650000Y-2450000D03*
G01*
X2250000Y-1050000D03*
G01*
X2250000Y-1150000D03*
G01*
X2250000Y-1250000D03*
G01*
X2250000Y-1350000D03*
G01*
X2250000Y-1450000D03*
G01*
X2250000Y-1550000D03*
G01*
X2250000Y-1650000D03*
G01*
X2250000Y-1750000D03*
G01*
X2250000Y-1850000D03*
G01*
X2250000Y-1950000D03*
G01*
X2250000Y-2050000D03*
G01*
X2250000Y-2150000D03*
G01*
X2250000Y-2250000D03*
G01*
X2250000Y-2350000D03*
G01*
X2250000Y-2450000D03*
D16*
G01*
X3150000Y-3200000D03*
G01*
X3050000Y-3200000D03*
G01*
X2950000Y-3200000D03*
G01*
X2850000Y-3200000D03*
D17*
G01*
X2750000Y-3200000D03*
G01*
X100000Y-2500000D03*
D16*
G01*
X200000Y-2500000D03*
G01*
X300000Y-2500000D03*
D17*
G01*
X100000Y-2650000D03*
D16*
G01*
X200000Y-2650000D03*
G01*
X300000Y-2650000D03*
D17*
G01*
X100000Y-2800000D03*
D16*
G01*
X200000Y-2800000D03*
G01*
X300000Y-2800000D03*
D17*
G01*
X100000Y-2950000D03*
D16*
G01*
X200000Y-2950000D03*
G01*
X300000Y-2950000D03*
D17*
G01*
X100000Y-3100000D03*
D16*
G01*
X200000Y-3100000D03*
G01*
X300000Y-3100000D03*
D17*
G01*
X100000Y-3250000D03*
D16*
G01*
X200000Y-3250000D03*
G01*
X300000Y-3250000D03*
D17*
G01*
X3850000Y-3250000D03*
D16*
G01*
X3750000Y-3250000D03*
G01*
X3650000Y-3250000D03*
D17*
G01*
X3850000Y-3100000D03*
D16*
G01*
X3750000Y-3100000D03*
G01*
X3650000Y-3100000D03*
D17*
G01*
X100000Y-3400000D03*
D16*
G01*
X200000Y-3400000D03*
G01*
X300000Y-3400000D03*
D17*
G01*
X3850000Y-2900000D03*
D16*
G01*
X3750000Y-2900000D03*
G01*
X3650000Y-2900000D03*
D17*
G01*
X3850000Y-2750000D03*
D16*
G01*
X3750000Y-2750000D03*
G01*
X3650000Y-2750000D03*
D17*
G01*
X3850000Y-2600000D03*
D16*
G01*
X3750000Y-2600000D03*
G01*
X3650000Y-2600000D03*
D17*
G01*
X3850000Y-2450000D03*
D16*
G01*
X3750000Y-2450000D03*
G01*
X3650000Y-2450000D03*
G01*
X1800000Y-3500000D03*
G01*
X1800000Y-3600000D03*
D15*
G01*
X1000000Y-3620000D03*
G01*
X804000Y-3620000D03*
G01*
X1439949Y-3619949D03*
G01*
X1243950Y-3619949D03*
D16*
G01*
X3600000Y-3400000D03*
G01*
X3500000Y-3400000D03*
G01*
X3400000Y-3400000D03*
G01*
X3300000Y-3400000D03*
G01*
X3200000Y-3400000D03*
G01*
X40000Y-3500000D03*
G01*
X640000Y-3500000D03*
G01*
X2100000Y-1500000D03*
G01*
X2100000Y-1700000D03*
G01*
X420000Y-3540000D03*
G01*
X3750000Y-3400000D03*
G01*
X3850000Y-3550000D03*
D17*
G01*
X2700000Y-1150000D03*
D16*
G01*
X2700000Y-1350000D03*
D17*
G01*
X2500000Y-1150000D03*
D16*
G01*
X2500000Y-1350000D03*
G01*
X200000Y-2000000D03*
G01*
X200000Y-1900000D03*
D17*
G01*
X100000Y-1750000D03*
D16*
G01*
X1800000Y-1300000D03*
G01*
X1800000Y-1400000D03*
G01*
X3600000Y-3500000D03*
G01*
X3260000Y-3500000D03*
G01*
X2880000Y-3700000D03*
G01*
X2880000Y-3600000D03*
G01*
X2880000Y-3500000D03*
G01*
X2880000Y-3400000D03*
G01*
X2980000Y-3400000D03*
G01*
X2980000Y-3500000D03*
G01*
X2980000Y-3600000D03*
G01*
X2980000Y-3700000D03*
G01*
X3080000Y-3400000D03*
G01*
X3080000Y-3500000D03*
G01*
X3080000Y-3600000D03*
G01*
X3080000Y-3700000D03*
G01*
X3350000Y-2400000D03*
G01*
X3450000Y-2400000D03*
G01*
X3550000Y-2400000D03*
M02*
