G04 Layer: TopLayer*
G04 EasyEDA v6.5.22, 2022-11-15 12:52:14*
G04 f3081522d4404d6e965df70c81d772e4,770f52a9c06342aeb7d9f723a0e8078a,10*
G04 Gerber Generator version 0.2*
G04 Scale: 100 percent, Rotated: No, Reflected: No *
G04 Dimensions in inches *
G04 leading zeros omitted , absolute positions ,3 integer and 6 decimal *
%FSLAX36Y36*%
%MOIN*%

%ADD10C,0.0200*%
%ADD11C,0.0500*%
%ADD12R,0.0937X0.1687*%
%ADD13C,0.0600*%
%ADD14R,0.0600X0.0600*%
%ADD15R,0.0700X0.0700*%
%ADD16C,0.0700*%

%LPD*%
D10*
X3260000Y-3500000D02*
G01*
X3600000Y-3500000D01*
D11*
X40000Y-3500000D02*
G01*
X350000Y-3500000D01*
X400000Y-3450000D01*
X590000Y-3450000D01*
X640000Y-3500000D01*
D10*
X2100000Y-1700000D02*
G01*
X2100000Y-1500000D01*
D12*
G01*
X500000Y-3740000D03*
G01*
X304000Y-3740000D03*
D13*
G01*
X1650000Y-3500000D03*
G01*
X1650000Y-3600000D03*
D14*
G01*
X430000Y-260000D03*
D13*
G01*
X430000Y-360000D03*
G01*
X430000Y-460000D03*
G01*
X430000Y-560000D03*
G01*
X800000Y-3370000D03*
G01*
X900000Y-3370000D03*
G01*
X1000000Y-3370000D03*
G01*
X1100000Y-3370000D03*
G01*
X1200000Y-3370000D03*
G01*
X1300000Y-3370000D03*
G01*
X1400000Y-3370000D03*
G01*
X1500000Y-3370000D03*
G01*
X1500000Y-2770000D03*
G01*
X1400000Y-2770000D03*
G01*
X1300000Y-2770000D03*
G01*
X1200000Y-2770000D03*
G01*
X1100000Y-2770000D03*
G01*
X1000000Y-2770000D03*
G01*
X900000Y-2770000D03*
G01*
X800000Y-2770000D03*
G01*
X2300000Y-3400000D03*
G01*
X2300000Y-3500019D03*
G01*
X2300000Y-3600019D03*
G01*
X2300000Y-3700019D03*
D15*
G01*
X1650000Y-1050000D03*
D16*
G01*
X1650000Y-1150000D03*
G01*
X1650000Y-1250000D03*
G01*
X1650000Y-1350000D03*
G01*
X1650000Y-1450000D03*
G01*
X1650000Y-1550000D03*
G01*
X1650000Y-1650000D03*
G01*
X1650000Y-1750000D03*
G01*
X1650000Y-1850000D03*
G01*
X1650000Y-1950000D03*
G01*
X1650000Y-2050000D03*
G01*
X1650000Y-2150000D03*
G01*
X1650000Y-2250000D03*
G01*
X1650000Y-2350000D03*
G01*
X1650000Y-2450000D03*
G01*
X2250000Y-1050000D03*
G01*
X2250000Y-1150000D03*
G01*
X2250000Y-1250000D03*
G01*
X2250000Y-1350000D03*
G01*
X2250000Y-1450000D03*
G01*
X2250000Y-1550000D03*
G01*
X2250000Y-1650000D03*
G01*
X2250000Y-1750000D03*
G01*
X2250000Y-1850000D03*
G01*
X2250000Y-1950000D03*
G01*
X2250000Y-2050000D03*
G01*
X2250000Y-2150000D03*
G01*
X2250000Y-2250000D03*
G01*
X2250000Y-2350000D03*
G01*
X2250000Y-2450000D03*
D13*
G01*
X3150000Y-3200000D03*
G01*
X3050000Y-3200000D03*
G01*
X2950000Y-3200000D03*
G01*
X2850000Y-3200000D03*
D14*
G01*
X2750000Y-3200000D03*
G01*
X100000Y-2500000D03*
D13*
G01*
X200000Y-2500000D03*
G01*
X300000Y-2500000D03*
D14*
G01*
X100000Y-2650000D03*
D13*
G01*
X200000Y-2650000D03*
G01*
X300000Y-2650000D03*
D14*
G01*
X100000Y-2800000D03*
D13*
G01*
X200000Y-2800000D03*
G01*
X300000Y-2800000D03*
D14*
G01*
X100000Y-2950000D03*
D13*
G01*
X200000Y-2950000D03*
G01*
X300000Y-2950000D03*
D14*
G01*
X100000Y-3100000D03*
D13*
G01*
X200000Y-3100000D03*
G01*
X300000Y-3100000D03*
D14*
G01*
X100000Y-3250000D03*
D13*
G01*
X200000Y-3250000D03*
G01*
X300000Y-3250000D03*
D14*
G01*
X3850000Y-3250000D03*
D13*
G01*
X3750000Y-3250000D03*
G01*
X3650000Y-3250000D03*
D14*
G01*
X3850000Y-3100000D03*
D13*
G01*
X3750000Y-3100000D03*
G01*
X3650000Y-3100000D03*
D14*
G01*
X100000Y-3400000D03*
D13*
G01*
X200000Y-3400000D03*
G01*
X300000Y-3400000D03*
D14*
G01*
X3850000Y-2900000D03*
D13*
G01*
X3750000Y-2900000D03*
G01*
X3650000Y-2900000D03*
D14*
G01*
X3850000Y-2750000D03*
D13*
G01*
X3750000Y-2750000D03*
G01*
X3650000Y-2750000D03*
D14*
G01*
X3850000Y-2600000D03*
D13*
G01*
X3750000Y-2600000D03*
G01*
X3650000Y-2600000D03*
D14*
G01*
X3850000Y-2450000D03*
D13*
G01*
X3750000Y-2450000D03*
G01*
X3650000Y-2450000D03*
G01*
X1800000Y-3500000D03*
G01*
X1800000Y-3600000D03*
D12*
G01*
X1000000Y-3620000D03*
G01*
X804000Y-3620000D03*
G01*
X1439949Y-3619949D03*
G01*
X1243950Y-3619949D03*
D13*
G01*
X3600000Y-3400000D03*
G01*
X3500000Y-3400000D03*
G01*
X3400000Y-3400000D03*
G01*
X3300000Y-3400000D03*
G01*
X3200000Y-3400000D03*
G01*
X40000Y-3500000D03*
G01*
X640000Y-3500000D03*
G01*
X2100000Y-1500000D03*
G01*
X2100000Y-1700000D03*
G01*
X420000Y-3540000D03*
G01*
X3750000Y-3400000D03*
G01*
X3850000Y-3550000D03*
D14*
G01*
X2700000Y-1150000D03*
D13*
G01*
X2700000Y-1350000D03*
D14*
G01*
X2500000Y-1150000D03*
D13*
G01*
X2500000Y-1350000D03*
G01*
X200000Y-2000000D03*
G01*
X200000Y-1900000D03*
D14*
G01*
X100000Y-1750000D03*
D13*
G01*
X1800000Y-1300000D03*
G01*
X1800000Y-1400000D03*
G01*
X3600000Y-3500000D03*
G01*
X3260000Y-3500000D03*
G01*
X2880000Y-3700000D03*
G01*
X2880000Y-3600000D03*
G01*
X2880000Y-3500000D03*
G01*
X2880000Y-3400000D03*
G01*
X2980000Y-3400000D03*
G01*
X2980000Y-3500000D03*
G01*
X2980000Y-3600000D03*
G01*
X2980000Y-3700000D03*
G01*
X3080000Y-3400000D03*
G01*
X3080000Y-3500000D03*
G01*
X3080000Y-3600000D03*
G01*
X3080000Y-3700000D03*
G01*
X3350000Y-2400000D03*
G01*
X3450000Y-2400000D03*
G01*
X3550000Y-2400000D03*
M02*
