G04 Layer: TopSilkscreenLayer*
G04 EasyEDA v6.5.22, 2022-11-15 12:52:14*
G04 f3081522d4404d6e965df70c81d772e4,770f52a9c06342aeb7d9f723a0e8078a,10*
G04 Gerber Generator version 0.2*
G04 Scale: 100 percent, Rotated: No, Reflected: No *
G04 Dimensions in inches *
G04 leading zeros omitted , absolute positions ,3 integer and 6 decimal *
%FSLAX36Y36*%
%MOIN*%

%ADD10C,0.0080*%
%ADD11C,0.0070*%
%ADD12C,0.0060*%
%ADD13C,0.0040*%
%ADD14C,0.0047*%
%ADD15C,0.0100*%
%ADD16C,0.0200*%
%ADD17C,0.0300*%
%ADD18C,0.0500*%
%ADD19C,0.0116*%

%LPD*%
D10*
X1720000Y-1180001D02*
G01*
X1720000Y-1218200D01*
X1720000Y-1180001D02*
G01*
X1732700Y-1180001D01*
X1738199Y-1181801D01*
X1741800Y-1185401D01*
X1743599Y-1189101D01*
X1745500Y-1194501D01*
X1745500Y-1203600D01*
X1743599Y-1209101D01*
X1741800Y-1212701D01*
X1738199Y-1216300D01*
X1732700Y-1218200D01*
X1720000Y-1218200D01*
X1757500Y-1180001D02*
G01*
X1757500Y-1218200D01*
X1757500Y-1180001D02*
G01*
X1773800Y-1180001D01*
X1779300Y-1181801D01*
X1781099Y-1183600D01*
X1782899Y-1187301D01*
X1782899Y-1190900D01*
X1781099Y-1194501D01*
X1779300Y-1196300D01*
X1773800Y-1198200D01*
X1757500Y-1198200D01*
X1770200Y-1198200D02*
G01*
X1782899Y-1218200D01*
X1794899Y-1180001D02*
G01*
X1794899Y-1218200D01*
X1806899Y-1180001D02*
G01*
X1821499Y-1218200D01*
X1836000Y-1180001D02*
G01*
X1821499Y-1218200D01*
X1848000Y-1180001D02*
G01*
X1848000Y-1218200D01*
X1848000Y-1180001D02*
G01*
X1871599Y-1180001D01*
X1848000Y-1198200D02*
G01*
X1862500Y-1198200D01*
X1848000Y-1218200D02*
G01*
X1871599Y-1218200D01*
X276399Y-1903598D02*
G01*
X276399Y-1936399D01*
X260000Y-1919998D02*
G01*
X292699Y-1919998D01*
X326500Y-1898198D02*
G01*
X308400Y-1898198D01*
X306500Y-1914499D01*
X308400Y-1912698D01*
X313800Y-1910898D01*
X319299Y-1910898D01*
X324699Y-1912698D01*
X328400Y-1916399D01*
X330199Y-1921799D01*
X330199Y-1925498D01*
X328400Y-1930898D01*
X324699Y-1934499D01*
X319299Y-1936399D01*
X313800Y-1936399D01*
X308400Y-1934499D01*
X306500Y-1932698D01*
X304699Y-1929099D01*
X342199Y-1898198D02*
G01*
X356700Y-1936399D01*
X371300Y-1898198D02*
G01*
X356700Y-1936399D01*
X298200Y-1684000D02*
G01*
X280000Y-1731799D01*
X298200Y-1684000D02*
G01*
X316399Y-1731799D01*
X286799Y-1715799D02*
G01*
X309499Y-1715799D01*
X331399Y-1699899D02*
G01*
X331399Y-1731799D01*
X331399Y-1713600D02*
G01*
X333600Y-1706799D01*
X338200Y-1702199D01*
X342699Y-1699899D01*
X349499Y-1699899D01*
X391799Y-1684000D02*
G01*
X391799Y-1731799D01*
X391799Y-1706799D02*
G01*
X387300Y-1702199D01*
X382699Y-1699899D01*
X375900Y-1699899D01*
X371399Y-1702199D01*
X366799Y-1706799D01*
X364499Y-1713600D01*
X364499Y-1718099D01*
X366799Y-1724899D01*
X371399Y-1729499D01*
X375900Y-1731799D01*
X382699Y-1731799D01*
X387300Y-1729499D01*
X391799Y-1724899D01*
X406799Y-1699899D02*
G01*
X406799Y-1722699D01*
X409099Y-1729499D01*
X413600Y-1731799D01*
X420500Y-1731799D01*
X425000Y-1729499D01*
X431799Y-1722699D01*
X431799Y-1699899D02*
G01*
X431799Y-1731799D01*
X446799Y-1684000D02*
G01*
X449099Y-1686300D01*
X451399Y-1684000D01*
X449099Y-1681799D01*
X446799Y-1684000D01*
X449099Y-1699899D02*
G01*
X449099Y-1731799D01*
X466399Y-1699899D02*
G01*
X466399Y-1731799D01*
X466399Y-1709000D02*
G01*
X473200Y-1702199D01*
X477699Y-1699899D01*
X484499Y-1699899D01*
X489099Y-1702199D01*
X491399Y-1709000D01*
X491399Y-1731799D01*
X517699Y-1699899D02*
G01*
X513200Y-1702199D01*
X508600Y-1706799D01*
X506399Y-1713600D01*
X506399Y-1718099D01*
X508600Y-1724899D01*
X513200Y-1729499D01*
X517699Y-1731799D01*
X524499Y-1731799D01*
X529099Y-1729499D01*
X533600Y-1724899D01*
X535900Y-1718099D01*
X535900Y-1713600D01*
X533600Y-1706799D01*
X529099Y-1702199D01*
X524499Y-1699899D01*
X517699Y-1699899D01*
X305000Y-1796799D02*
G01*
X302699Y-1792199D01*
X295900Y-1789899D01*
X289099Y-1789899D01*
X282300Y-1792199D01*
X280000Y-1796799D01*
X282300Y-1801300D01*
X286799Y-1803600D01*
X298200Y-1805799D01*
X302699Y-1808099D01*
X305000Y-1812699D01*
X305000Y-1814899D01*
X302699Y-1819499D01*
X295900Y-1821799D01*
X289099Y-1821799D01*
X282300Y-1819499D01*
X280000Y-1814899D01*
X320000Y-1789899D02*
G01*
X320000Y-1812699D01*
X322300Y-1819499D01*
X326799Y-1821799D01*
X333600Y-1821799D01*
X338200Y-1819499D01*
X345000Y-1812699D01*
X345000Y-1789899D02*
G01*
X345000Y-1821799D01*
X360000Y-1789899D02*
G01*
X360000Y-1837699D01*
X360000Y-1796799D02*
G01*
X364499Y-1792199D01*
X369099Y-1789899D01*
X375900Y-1789899D01*
X380500Y-1792199D01*
X385000Y-1796799D01*
X387300Y-1803600D01*
X387300Y-1808099D01*
X385000Y-1814899D01*
X380500Y-1819499D01*
X375900Y-1821799D01*
X369099Y-1821799D01*
X364499Y-1819499D01*
X360000Y-1814899D01*
X402300Y-1789899D02*
G01*
X402300Y-1837699D01*
X402300Y-1796799D02*
G01*
X406799Y-1792199D01*
X411399Y-1789899D01*
X418200Y-1789899D01*
X422699Y-1792199D01*
X427300Y-1796799D01*
X429499Y-1803600D01*
X429499Y-1808099D01*
X427300Y-1814899D01*
X422699Y-1819499D01*
X418200Y-1821799D01*
X411399Y-1821799D01*
X406799Y-1819499D01*
X402300Y-1814899D01*
X444499Y-1774000D02*
G01*
X444499Y-1821799D01*
X461799Y-1789899D02*
G01*
X475500Y-1821799D01*
X489099Y-1789899D02*
G01*
X475500Y-1821799D01*
X470900Y-1830799D01*
X466399Y-1835399D01*
X461799Y-1837699D01*
X459499Y-1837699D01*
X2420900Y-1236401D02*
G01*
X2418199Y-1231001D01*
X2412700Y-1225500D01*
X2407299Y-1222800D01*
X2396400Y-1222800D01*
X2390900Y-1225500D01*
X2385500Y-1231001D01*
X2382700Y-1236401D01*
X2380000Y-1244600D01*
X2380000Y-1258200D01*
X2382700Y-1266401D01*
X2385500Y-1271900D01*
X2390900Y-1277301D01*
X2396400Y-1280001D01*
X2407299Y-1280001D01*
X2412700Y-1277301D01*
X2418199Y-1271900D01*
X2420900Y-1266401D01*
X2471599Y-1241900D02*
G01*
X2471599Y-1280001D01*
X2471599Y-1250001D02*
G01*
X2466199Y-1244600D01*
X2460699Y-1241900D01*
X2452500Y-1241900D01*
X2447100Y-1244600D01*
X2441599Y-1250001D01*
X2438900Y-1258200D01*
X2438900Y-1263701D01*
X2441599Y-1271900D01*
X2447100Y-1277301D01*
X2452500Y-1280001D01*
X2460699Y-1280001D01*
X2466199Y-1277301D01*
X2471599Y-1271900D01*
X2489600Y-1241900D02*
G01*
X2489600Y-1299101D01*
X2489600Y-1250001D02*
G01*
X2495100Y-1244600D01*
X2500500Y-1241900D01*
X2508699Y-1241900D01*
X2514200Y-1244600D01*
X2519600Y-1250001D01*
X2522399Y-1258200D01*
X2522399Y-1263701D01*
X2519600Y-1271900D01*
X2514200Y-1277301D01*
X2508699Y-1280001D01*
X2500500Y-1280001D01*
X2495100Y-1277301D01*
X2489600Y-1271900D01*
X2573100Y-1241900D02*
G01*
X2573100Y-1280001D01*
X2573100Y-1250001D02*
G01*
X2567600Y-1244600D01*
X2562200Y-1241900D01*
X2553999Y-1241900D01*
X2548500Y-1244600D01*
X2543100Y-1250001D01*
X2540399Y-1258200D01*
X2540399Y-1263701D01*
X2543100Y-1271900D01*
X2548500Y-1277301D01*
X2553999Y-1280001D01*
X2562200Y-1280001D01*
X2567600Y-1277301D01*
X2573100Y-1271900D01*
X2623800Y-1250001D02*
G01*
X2618400Y-1244600D01*
X2612899Y-1241900D01*
X2604700Y-1241900D01*
X2599300Y-1244600D01*
X2593800Y-1250001D01*
X2591099Y-1258200D01*
X2591099Y-1263701D01*
X2593800Y-1271900D01*
X2599300Y-1277301D01*
X2604700Y-1280001D01*
X2612899Y-1280001D01*
X2618400Y-1277301D01*
X2623800Y-1271900D01*
X2641800Y-1222800D02*
G01*
X2644499Y-1225500D01*
X2647299Y-1222800D01*
X2644499Y-1220001D01*
X2641800Y-1222800D01*
X2644499Y-1241900D02*
G01*
X2644499Y-1280001D01*
X2673500Y-1222800D02*
G01*
X2673500Y-1269101D01*
X2676199Y-1277301D01*
X2681599Y-1280001D01*
X2687100Y-1280001D01*
X2665299Y-1241900D02*
G01*
X2684399Y-1241900D01*
X2718699Y-1241900D02*
G01*
X2713299Y-1244600D01*
X2707799Y-1250001D01*
X2705100Y-1258200D01*
X2705100Y-1263701D01*
X2707799Y-1271900D01*
X2713299Y-1277301D01*
X2718699Y-1280001D01*
X2726899Y-1280001D01*
X2732399Y-1277301D01*
X2737799Y-1271900D01*
X2740500Y-1263701D01*
X2740500Y-1258200D01*
X2737799Y-1250001D01*
X2732399Y-1244600D01*
X2726899Y-1241900D01*
X2718699Y-1241900D01*
X2758500Y-1241900D02*
G01*
X2758500Y-1280001D01*
X2758500Y-1258200D02*
G01*
X2761300Y-1250001D01*
X2766700Y-1244600D01*
X2772200Y-1241900D01*
X2780399Y-1241900D01*
X2828400Y-1250001D02*
G01*
X2825600Y-1244600D01*
X2817500Y-1241900D01*
X2809300Y-1241900D01*
X2801099Y-1244600D01*
X2798400Y-1250001D01*
X2801099Y-1255500D01*
X2806499Y-1258200D01*
X2820200Y-1261001D01*
X2825600Y-1263701D01*
X2828400Y-1269101D01*
X2828400Y-1271900D01*
X2825600Y-1277301D01*
X2817500Y-1280001D01*
X2809300Y-1280001D01*
X2801099Y-1277301D01*
X2798400Y-1271900D01*
X574499Y-3858200D02*
G01*
X574499Y-3907199D01*
X549998Y-3882700D02*
G01*
X599099Y-3882700D01*
X649798Y-3850000D02*
G01*
X622498Y-3850000D01*
X619798Y-3874499D01*
X622498Y-3871799D01*
X630698Y-3869099D01*
X638899Y-3869099D01*
X647098Y-3871799D01*
X652498Y-3877199D01*
X655299Y-3885399D01*
X655299Y-3890900D01*
X652498Y-3899099D01*
X647098Y-3904499D01*
X638899Y-3907199D01*
X630698Y-3907199D01*
X622498Y-3904499D01*
X619798Y-3901799D01*
X617098Y-3896300D01*
X673299Y-3850000D02*
G01*
X695099Y-3907199D01*
X716898Y-3850000D02*
G01*
X695099Y-3907199D01*
X684499Y-3788200D02*
G01*
X684499Y-3837199D01*
X660000Y-3812700D02*
G01*
X709099Y-3812700D01*
X727100Y-3790900D02*
G01*
X732500Y-3788200D01*
X740700Y-3780000D01*
X740700Y-3837199D01*
X761500Y-3793600D02*
G01*
X761500Y-3790900D01*
X764200Y-3785399D01*
X766900Y-3782700D01*
X772399Y-3780000D01*
X783299Y-3780000D01*
X788699Y-3782700D01*
X791500Y-3785399D01*
X794200Y-3790900D01*
X794200Y-3796300D01*
X791500Y-3801799D01*
X785999Y-3810000D01*
X758699Y-3837199D01*
X796900Y-3837199D01*
X814899Y-3780000D02*
G01*
X836700Y-3837199D01*
X858499Y-3780000D02*
G01*
X836700Y-3837199D01*
X87300Y-1807300D02*
G01*
X85500Y-1803600D01*
X81799Y-1800000D01*
X78200Y-1798200D01*
X70900Y-1798200D01*
X67300Y-1800000D01*
X63600Y-1803600D01*
X61799Y-1807300D01*
X60000Y-1812699D01*
X60000Y-1821799D01*
X61799Y-1827300D01*
X63600Y-1830900D01*
X67300Y-1834499D01*
X70900Y-1836399D01*
X78200Y-1836399D01*
X81799Y-1834499D01*
X85500Y-1830900D01*
X87300Y-1827300D01*
X87300Y-1821799D01*
X78200Y-1821799D02*
G01*
X87300Y-1821799D01*
X99299Y-1798200D02*
G01*
X99299Y-1836399D01*
X99299Y-1798200D02*
G01*
X124699Y-1836399D01*
X124699Y-1798200D02*
G01*
X124699Y-1836399D01*
X136700Y-1798200D02*
G01*
X136700Y-1836399D01*
X136700Y-1798200D02*
G01*
X149499Y-1798200D01*
X154899Y-1800000D01*
X158499Y-1803600D01*
X160399Y-1807300D01*
X162199Y-1812699D01*
X162199Y-1821799D01*
X160399Y-1827300D01*
X158499Y-1830900D01*
X154899Y-1834499D01*
X149499Y-1836399D01*
X136700Y-1836399D01*
D11*
X3580000Y-2980000D02*
G01*
X3580000Y-3018200D01*
X3591999Y-2980000D02*
G01*
X3591999Y-3018200D01*
X3591999Y-2980000D02*
G01*
X3617500Y-3018200D01*
X3617500Y-2980000D02*
G01*
X3617500Y-3018200D01*
X3657500Y-2980000D02*
G01*
X3671999Y-3018200D01*
X3686499Y-2980000D02*
G01*
X3671999Y-3018200D01*
X3725799Y-2989099D02*
G01*
X3723999Y-2985399D01*
X3720399Y-2981799D01*
X3716700Y-2980000D01*
X3709499Y-2980000D01*
X3705799Y-2981799D01*
X3702200Y-2985399D01*
X3700399Y-2989099D01*
X3698500Y-2994499D01*
X3698500Y-3003600D01*
X3700399Y-3009099D01*
X3702200Y-3012700D01*
X3705799Y-3016300D01*
X3709499Y-3018200D01*
X3716700Y-3018200D01*
X3720399Y-3016300D01*
X3723999Y-3012700D01*
X3725799Y-3009099D01*
X3765100Y-2989099D02*
G01*
X3763299Y-2985399D01*
X3759600Y-2981799D01*
X3756000Y-2980000D01*
X3748699Y-2980000D01*
X3745100Y-2981799D01*
X3741499Y-2985399D01*
X3739600Y-2989099D01*
X3737799Y-2994499D01*
X3737799Y-3003600D01*
X3739600Y-3009099D01*
X3741499Y-3012700D01*
X3745100Y-3016300D01*
X3748699Y-3018200D01*
X3756000Y-3018200D01*
X3759600Y-3016300D01*
X3763299Y-3012700D01*
X3765100Y-3009099D01*
X3832399Y-2989099D02*
G01*
X3830500Y-2985399D01*
X3826899Y-2981799D01*
X3823299Y-2980000D01*
X3816000Y-2980000D01*
X3812399Y-2981799D01*
X3808699Y-2985399D01*
X3806899Y-2989099D01*
X3805100Y-2994499D01*
X3805100Y-3003600D01*
X3806899Y-3009099D01*
X3808699Y-3012700D01*
X3812399Y-3016300D01*
X3816000Y-3018200D01*
X3823299Y-3018200D01*
X3826899Y-3016300D01*
X3830500Y-3012700D01*
X3832399Y-3009099D01*
X3832399Y-3003600D01*
X3823299Y-3003600D02*
G01*
X3832399Y-3003600D01*
X3844399Y-2980000D02*
G01*
X3844399Y-3018200D01*
X3844399Y-2980000D02*
G01*
X3869799Y-3018200D01*
X3869799Y-2980000D02*
G01*
X3869799Y-3018200D01*
X3881800Y-2980000D02*
G01*
X3881800Y-3018200D01*
X3881800Y-2980000D02*
G01*
X3894499Y-2980000D01*
X3900000Y-2981799D01*
X3903599Y-2985399D01*
X3905500Y-2989099D01*
X3907299Y-2994499D01*
X3907299Y-3003600D01*
X3905500Y-3009099D01*
X3903599Y-3012700D01*
X3900000Y-3016300D01*
X3894499Y-3018200D01*
X3881800Y-3018200D01*
X47300Y-2389099D02*
G01*
X45500Y-2385399D01*
X41799Y-2381799D01*
X38200Y-2380000D01*
X30900Y-2380000D01*
X27300Y-2381799D01*
X23600Y-2385399D01*
X21799Y-2389099D01*
X20000Y-2394499D01*
X20000Y-2403600D01*
X21799Y-2409099D01*
X23600Y-2412700D01*
X27300Y-2416300D01*
X30900Y-2418200D01*
X38200Y-2418200D01*
X41799Y-2416300D01*
X45500Y-2412700D01*
X47300Y-2409099D01*
X47300Y-2403600D01*
X38200Y-2403600D02*
G01*
X47300Y-2403600D01*
X59299Y-2380000D02*
G01*
X59299Y-2418200D01*
X59299Y-2380000D02*
G01*
X84699Y-2418200D01*
X84699Y-2380000D02*
G01*
X84699Y-2418200D01*
X96700Y-2380000D02*
G01*
X96700Y-2418200D01*
X96700Y-2380000D02*
G01*
X109499Y-2380000D01*
X114899Y-2381799D01*
X118499Y-2385399D01*
X120399Y-2389099D01*
X122199Y-2394499D01*
X122199Y-2403600D01*
X120399Y-2409099D01*
X118499Y-2412700D01*
X114899Y-2416300D01*
X109499Y-2418200D01*
X96700Y-2418200D01*
X162199Y-2380000D02*
G01*
X176700Y-2418200D01*
X191300Y-2380000D02*
G01*
X176700Y-2418200D01*
X230500Y-2389099D02*
G01*
X228699Y-2385399D01*
X225100Y-2381799D01*
X221500Y-2380000D01*
X214200Y-2380000D01*
X210500Y-2381799D01*
X206900Y-2385399D01*
X205100Y-2389099D01*
X203299Y-2394499D01*
X203299Y-2403600D01*
X205100Y-2409099D01*
X206900Y-2412700D01*
X210500Y-2416300D01*
X214200Y-2418200D01*
X221500Y-2418200D01*
X225100Y-2416300D01*
X228699Y-2412700D01*
X230500Y-2409099D01*
X269800Y-2389099D02*
G01*
X268000Y-2385399D01*
X264400Y-2381799D01*
X260700Y-2380000D01*
X253499Y-2380000D01*
X249800Y-2381799D01*
X246199Y-2385399D01*
X244400Y-2389099D01*
X242500Y-2394499D01*
X242500Y-2403600D01*
X244400Y-2409099D01*
X246199Y-2412700D01*
X249800Y-2416300D01*
X253499Y-2418200D01*
X260700Y-2418200D01*
X264400Y-2416300D01*
X268000Y-2412700D01*
X269800Y-2409099D01*
X309800Y-2380000D02*
G01*
X309800Y-2418200D01*
X321799Y-2380000D02*
G01*
X321799Y-2418200D01*
X321799Y-2380000D02*
G01*
X347300Y-2418200D01*
X347300Y-2380000D02*
G01*
X347300Y-2418200D01*
X1170000Y-2702300D02*
G01*
X1217799Y-2702300D01*
X1170000Y-2702300D02*
G01*
X1170000Y-2686399D01*
X1172299Y-2679600D01*
X1176800Y-2675000D01*
X1181400Y-2672800D01*
X1188199Y-2670500D01*
X1199600Y-2670500D01*
X1206400Y-2672800D01*
X1210900Y-2675000D01*
X1215500Y-2679600D01*
X1217799Y-2686399D01*
X1217799Y-2702300D01*
X1170000Y-2655500D02*
G01*
X1217799Y-2655500D01*
X1170000Y-2655500D02*
G01*
X1170000Y-2635000D01*
X1172299Y-2628200D01*
X1174600Y-2625900D01*
X1179099Y-2623699D01*
X1183699Y-2623699D01*
X1188199Y-2625900D01*
X1190500Y-2628200D01*
X1192799Y-2635000D01*
X1192799Y-2655500D01*
X1192799Y-2639600D02*
G01*
X1217799Y-2623699D01*
X1170000Y-2608699D02*
G01*
X1217799Y-2590500D01*
X1170000Y-2572300D02*
G01*
X1217799Y-2590500D01*
X1179099Y-2557300D02*
G01*
X1176800Y-2552800D01*
X1170000Y-2545900D01*
X1217799Y-2545900D01*
X1272700Y-2700000D02*
G01*
X1320500Y-2700000D01*
X1272700Y-2700000D02*
G01*
X1272700Y-2684099D01*
X1275000Y-2677300D01*
X1279499Y-2672700D01*
X1284099Y-2670500D01*
X1290900Y-2668200D01*
X1302299Y-2668200D01*
X1309099Y-2670500D01*
X1313599Y-2672700D01*
X1318199Y-2677300D01*
X1320500Y-2684099D01*
X1320500Y-2700000D01*
X1272700Y-2653200D02*
G01*
X1320500Y-2653200D01*
X1272700Y-2653200D02*
G01*
X1272700Y-2632700D01*
X1275000Y-2625900D01*
X1277299Y-2623600D01*
X1281800Y-2621399D01*
X1286400Y-2621399D01*
X1290900Y-2623600D01*
X1293199Y-2625900D01*
X1295500Y-2632700D01*
X1295500Y-2653200D01*
X1295500Y-2637300D02*
G01*
X1320500Y-2621399D01*
X1272700Y-2606399D02*
G01*
X1320500Y-2588200D01*
X1272700Y-2570000D02*
G01*
X1320500Y-2588200D01*
X1284099Y-2552700D02*
G01*
X1281800Y-2552700D01*
X1277299Y-2550500D01*
X1275000Y-2548200D01*
X1272700Y-2543600D01*
X1272700Y-2534499D01*
X1275000Y-2530000D01*
X1277299Y-2527700D01*
X1281800Y-2525500D01*
X1286400Y-2525500D01*
X1290900Y-2527700D01*
X1297700Y-2532300D01*
X1320500Y-2555000D01*
X1320500Y-2523200D01*
D12*
X2813800Y-3720900D02*
G01*
X2811099Y-3723600D01*
X2809700Y-3727700D01*
X2809700Y-3733200D01*
X2811099Y-3737300D01*
X2813800Y-3740000D01*
X2816499Y-3740000D01*
X2819300Y-3738600D01*
X2820600Y-3737300D01*
X2821999Y-3734499D01*
X2824700Y-3726399D01*
X2826099Y-3723600D01*
X2827500Y-3722300D01*
X2830200Y-3720900D01*
X2834300Y-3720900D01*
X2836999Y-3723600D01*
X2838400Y-3727700D01*
X2838400Y-3733200D01*
X2836999Y-3737300D01*
X2834300Y-3740000D01*
X2809700Y-3711900D02*
G01*
X2838400Y-3711900D01*
X2809700Y-3711900D02*
G01*
X2809700Y-3702399D01*
X2811099Y-3698299D01*
X2813800Y-3695500D01*
X2816499Y-3694200D01*
X2820600Y-3692800D01*
X2827500Y-3692800D01*
X2831499Y-3694200D01*
X2834300Y-3695500D01*
X2836999Y-3698299D01*
X2838400Y-3702399D01*
X2838400Y-3711900D01*
X2809700Y-3672899D02*
G01*
X2838400Y-3683800D01*
X2809700Y-3672899D02*
G01*
X2838400Y-3661999D01*
X2828800Y-3679699D02*
G01*
X2828800Y-3666100D01*
X2813800Y-3612899D02*
G01*
X2811099Y-3615599D01*
X2809700Y-3619699D01*
X2809700Y-3625200D01*
X2811099Y-3629299D01*
X2813800Y-3631999D01*
X2816499Y-3631999D01*
X2819300Y-3630599D01*
X2820600Y-3629299D01*
X2821999Y-3626500D01*
X2824700Y-3618400D01*
X2826099Y-3615599D01*
X2827500Y-3614299D01*
X2830200Y-3612899D01*
X2834300Y-3612899D01*
X2836999Y-3615599D01*
X2838400Y-3619699D01*
X2838400Y-3625200D01*
X2836999Y-3629299D01*
X2834300Y-3631999D01*
X2816499Y-3583499D02*
G01*
X2813800Y-3584800D01*
X2811099Y-3587500D01*
X2809700Y-3590300D01*
X2809700Y-3595700D01*
X2811099Y-3598499D01*
X2813800Y-3601199D01*
X2816499Y-3602500D01*
X2820600Y-3603899D01*
X2827500Y-3603899D01*
X2831499Y-3602500D01*
X2834300Y-3601199D01*
X2836999Y-3598499D01*
X2838400Y-3595700D01*
X2838400Y-3590300D01*
X2836999Y-3587500D01*
X2834300Y-3584800D01*
X2831499Y-3583499D01*
X2809700Y-3574499D02*
G01*
X2838400Y-3574499D01*
X2838400Y-3574499D02*
G01*
X2838400Y-3558099D01*
X2809700Y-3511700D02*
G01*
X2809700Y-3525399D01*
X2821999Y-3526700D01*
X2820600Y-3525399D01*
X2819300Y-3521300D01*
X2819300Y-3517199D01*
X2820600Y-3513099D01*
X2823400Y-3510399D01*
X2827500Y-3509000D01*
X2830200Y-3509000D01*
X2834300Y-3510399D01*
X2836999Y-3513099D01*
X2838400Y-3517199D01*
X2838400Y-3521300D01*
X2836999Y-3525399D01*
X2835600Y-3526700D01*
X2832899Y-3528099D01*
X2809700Y-3500000D02*
G01*
X2838400Y-3489099D01*
X2809700Y-3478200D02*
G01*
X2838400Y-3489099D01*
X2816499Y-3427700D02*
G01*
X2813800Y-3429099D01*
X2811099Y-3431799D01*
X2809700Y-3434499D01*
X2809700Y-3440000D01*
X2811099Y-3442700D01*
X2813800Y-3445500D01*
X2816499Y-3446799D01*
X2820600Y-3448200D01*
X2827500Y-3448200D01*
X2831499Y-3446799D01*
X2834300Y-3445500D01*
X2836999Y-3442700D01*
X2838400Y-3440000D01*
X2838400Y-3434499D01*
X2836999Y-3431799D01*
X2834300Y-3429099D01*
X2831499Y-3427700D01*
X2827500Y-3427700D01*
X2827500Y-3434499D02*
G01*
X2827500Y-3427700D01*
X2809700Y-3418699D02*
G01*
X2838400Y-3418699D01*
X2809700Y-3418699D02*
G01*
X2838400Y-3399600D01*
X2809700Y-3399600D02*
G01*
X2838400Y-3399600D01*
X2809700Y-3390599D02*
G01*
X2838400Y-3390599D01*
X2809700Y-3390599D02*
G01*
X2809700Y-3381100D01*
X2811099Y-3376999D01*
X2813800Y-3374299D01*
X2816499Y-3372899D01*
X2820600Y-3371500D01*
X2827500Y-3371500D01*
X2831499Y-3372899D01*
X2834300Y-3374299D01*
X2836999Y-3376999D01*
X2838400Y-3381100D01*
X2838400Y-3390599D01*
X2850000Y-3759600D02*
G01*
X2850000Y-3797800D01*
X2863800Y-3768699D02*
G01*
X2863800Y-3766900D01*
X2865600Y-3763299D01*
X2867500Y-3761500D01*
X2871099Y-3759600D01*
X2878400Y-3759600D01*
X2881999Y-3761500D01*
X2883800Y-3763299D01*
X2885600Y-3766900D01*
X2885600Y-3770500D01*
X2883800Y-3774200D01*
X2880200Y-3779600D01*
X2861999Y-3797800D01*
X2887500Y-3797800D01*
X2926700Y-3768699D02*
G01*
X2924899Y-3765100D01*
X2921300Y-3761500D01*
X2917600Y-3759600D01*
X2910399Y-3759600D01*
X2906700Y-3761500D01*
X2903100Y-3765100D01*
X2901300Y-3768699D01*
X2899499Y-3774200D01*
X2899499Y-3783299D01*
X2901300Y-3788699D01*
X2903100Y-3792399D01*
X2906700Y-3795999D01*
X2910399Y-3797800D01*
X2917600Y-3797800D01*
X2921300Y-3795999D01*
X2924899Y-3792399D01*
X2926700Y-3788699D01*
X2966700Y-3759600D02*
G01*
X2966700Y-3797800D01*
X2966700Y-3759600D02*
G01*
X2983100Y-3759600D01*
X2988500Y-3761500D01*
X2990399Y-3763299D01*
X2992200Y-3766900D01*
X2992200Y-3770500D01*
X2990399Y-3774200D01*
X2988500Y-3775999D01*
X2983100Y-3777800D01*
X2966700Y-3777800D02*
G01*
X2983100Y-3777800D01*
X2988500Y-3779600D01*
X2990399Y-3781500D01*
X2992200Y-3785100D01*
X2992200Y-3790500D01*
X2990399Y-3794200D01*
X2988500Y-3795999D01*
X2983100Y-3797800D01*
X2966700Y-3797800D01*
X3004200Y-3759600D02*
G01*
X3004200Y-3786900D01*
X3006000Y-3792399D01*
X3009600Y-3795999D01*
X3015100Y-3797800D01*
X3018699Y-3797800D01*
X3024200Y-3795999D01*
X3027799Y-3792399D01*
X3029600Y-3786900D01*
X3029600Y-3759600D01*
X3067100Y-3765100D02*
G01*
X3063500Y-3761500D01*
X3058000Y-3759600D01*
X3050699Y-3759600D01*
X3045299Y-3761500D01*
X3041599Y-3765100D01*
X3041599Y-3768699D01*
X3043500Y-3772399D01*
X3045299Y-3774200D01*
X3048900Y-3775999D01*
X3059799Y-3779600D01*
X3063500Y-3781500D01*
X3065299Y-3783299D01*
X3067100Y-3786900D01*
X3067100Y-3792399D01*
X3063500Y-3795999D01*
X3058000Y-3797800D01*
X3050699Y-3797800D01*
X3045299Y-3795999D01*
X3041599Y-3792399D01*
X3216400Y-2309699D02*
G01*
X3202700Y-2309699D01*
X3201400Y-2321999D01*
X3202700Y-2320599D01*
X3206800Y-2319299D01*
X3210900Y-2319299D01*
X3215000Y-2320599D01*
X3217700Y-2323400D01*
X3219099Y-2327500D01*
X3219099Y-2330200D01*
X3217700Y-2334299D01*
X3215000Y-2336999D01*
X3210900Y-2338400D01*
X3206800Y-2338400D01*
X3202700Y-2336999D01*
X3201400Y-2335599D01*
X3200000Y-2332899D01*
X3228100Y-2309699D02*
G01*
X3238999Y-2338400D01*
X3249899Y-2309699D02*
G01*
X3238999Y-2338400D01*
X3300399Y-2316500D02*
G01*
X3298999Y-2313800D01*
X3296300Y-2311100D01*
X3293500Y-2309699D01*
X3288100Y-2309699D01*
X3285399Y-2311100D01*
X3282600Y-2313800D01*
X3281300Y-2316500D01*
X3279899Y-2320599D01*
X3279899Y-2327500D01*
X3281300Y-2331500D01*
X3282600Y-2334299D01*
X3285399Y-2336999D01*
X3288100Y-2338400D01*
X3293500Y-2338400D01*
X3296300Y-2336999D01*
X3298999Y-2334299D01*
X3300399Y-2331500D01*
X3317500Y-2309699D02*
G01*
X3314799Y-2311100D01*
X3312100Y-2313800D01*
X3310699Y-2316500D01*
X3309399Y-2320599D01*
X3309399Y-2327500D01*
X3310699Y-2331500D01*
X3312100Y-2334299D01*
X3314799Y-2336999D01*
X3317500Y-2338400D01*
X3323000Y-2338400D01*
X3325699Y-2336999D01*
X3328500Y-2334299D01*
X3329799Y-2331500D01*
X3331199Y-2327500D01*
X3331199Y-2320599D01*
X3329799Y-2316500D01*
X3328500Y-2313800D01*
X3325699Y-2311100D01*
X3323000Y-2309699D01*
X3317500Y-2309699D01*
X3340200Y-2309699D02*
G01*
X3340200Y-2338400D01*
X3340200Y-2309699D02*
G01*
X3359300Y-2338400D01*
X3359300Y-2309699D02*
G01*
X3359300Y-2338400D01*
X3387399Y-2313800D02*
G01*
X3384600Y-2311100D01*
X3380500Y-2309699D01*
X3375100Y-2309699D01*
X3371000Y-2311100D01*
X3368299Y-2313800D01*
X3368299Y-2316500D01*
X3369600Y-2319299D01*
X3371000Y-2320599D01*
X3373699Y-2321999D01*
X3381899Y-2324699D01*
X3384600Y-2326100D01*
X3386000Y-2327500D01*
X3387399Y-2330200D01*
X3387399Y-2334299D01*
X3384600Y-2336999D01*
X3380500Y-2338400D01*
X3375100Y-2338400D01*
X3371000Y-2336999D01*
X3368299Y-2334299D01*
X3405900Y-2309699D02*
G01*
X3405900Y-2338400D01*
X3396400Y-2309699D02*
G01*
X3415500Y-2309699D01*
X3435399Y-2309699D02*
G01*
X3424499Y-2338400D01*
X3435399Y-2309699D02*
G01*
X3446300Y-2338400D01*
X3428500Y-2328800D02*
G01*
X3442200Y-2328800D01*
X3455299Y-2309699D02*
G01*
X3455299Y-2338400D01*
X3455299Y-2309699D02*
G01*
X3474399Y-2338400D01*
X3474399Y-2309699D02*
G01*
X3474399Y-2338400D01*
X3492899Y-2309699D02*
G01*
X3492899Y-2338400D01*
X3483400Y-2309699D02*
G01*
X3502500Y-2309699D01*
X3532500Y-2309699D02*
G01*
X3532500Y-2338400D01*
X3532500Y-2309699D02*
G01*
X3544700Y-2309699D01*
X3548800Y-2311100D01*
X3550200Y-2312500D01*
X3551499Y-2315200D01*
X3551499Y-2319299D01*
X3550200Y-2321999D01*
X3548800Y-2323400D01*
X3544700Y-2324699D01*
X3532500Y-2324699D01*
X3568699Y-2309699D02*
G01*
X3566000Y-2311100D01*
X3563299Y-2313800D01*
X3561899Y-2316500D01*
X3560500Y-2320599D01*
X3560500Y-2327500D01*
X3561899Y-2331500D01*
X3563299Y-2334299D01*
X3566000Y-2336999D01*
X3568699Y-2338400D01*
X3574200Y-2338400D01*
X3576899Y-2336999D01*
X3579600Y-2334299D01*
X3581000Y-2331500D01*
X3582399Y-2327500D01*
X3582399Y-2320599D01*
X3581000Y-2316500D01*
X3579600Y-2313800D01*
X3576899Y-2311100D01*
X3574200Y-2309699D01*
X3568699Y-2309699D01*
X3591400Y-2309699D02*
G01*
X3598199Y-2338400D01*
X3605000Y-2309699D02*
G01*
X3598199Y-2338400D01*
X3605000Y-2309699D02*
G01*
X3611800Y-2338400D01*
X3618599Y-2309699D02*
G01*
X3611800Y-2338400D01*
X3627600Y-2309699D02*
G01*
X3627600Y-2338400D01*
X3627600Y-2309699D02*
G01*
X3645399Y-2309699D01*
X3627600Y-2323400D02*
G01*
X3638500Y-2323400D01*
X3627600Y-2338400D02*
G01*
X3645399Y-2338400D01*
X3654399Y-2309699D02*
G01*
X3654399Y-2338400D01*
X3654399Y-2309699D02*
G01*
X3666599Y-2309699D01*
X3670699Y-2311100D01*
X3672100Y-2312500D01*
X3673500Y-2315200D01*
X3673500Y-2317899D01*
X3672100Y-2320599D01*
X3670699Y-2321999D01*
X3666599Y-2323400D01*
X3654399Y-2323400D01*
X3663900Y-2323400D02*
G01*
X3673500Y-2338400D01*
X243699Y-3832800D02*
G01*
X223299Y-3832800D01*
X221199Y-3851199D01*
X223299Y-3849099D01*
X229400Y-3847100D01*
X235599Y-3847100D01*
X241700Y-3849099D01*
X245799Y-3853200D01*
X247800Y-3859299D01*
X247800Y-3863400D01*
X245799Y-3869600D01*
X241700Y-3873699D01*
X235599Y-3875700D01*
X229400Y-3875700D01*
X223299Y-3873699D01*
X221199Y-3871599D01*
X219200Y-3867500D01*
X261300Y-3832800D02*
G01*
X277699Y-3875700D01*
X294099Y-3832800D02*
G01*
X277699Y-3875700D01*
X307600Y-3890000D02*
G01*
X344400Y-3890000D01*
X357899Y-3832800D02*
G01*
X357899Y-3875700D01*
X371399Y-3832800D02*
G01*
X371399Y-3875700D01*
X371399Y-3832800D02*
G01*
X400000Y-3875700D01*
X400000Y-3832800D02*
G01*
X400000Y-3875700D01*
X549998Y-3845500D02*
G01*
X552698Y-3844099D01*
X556799Y-3840000D01*
X556799Y-3868699D01*
X1585500Y-3420000D02*
G01*
X1628400Y-3420000D01*
X1585500Y-3420000D02*
G01*
X1585500Y-3393400D01*
X1605900Y-3420000D02*
G01*
X1605900Y-3403600D01*
X1628400Y-3420000D02*
G01*
X1628400Y-3393400D01*
X1585500Y-3379899D02*
G01*
X1628400Y-3379899D01*
X1585500Y-3379899D02*
G01*
X1628400Y-3351300D01*
X1585500Y-3351300D02*
G01*
X1628400Y-3351300D01*
X1585500Y-3337800D02*
G01*
X1628400Y-3337800D01*
X1585500Y-3337800D02*
G01*
X1585500Y-3323499D01*
X1587500Y-3317300D01*
X1591599Y-3313200D01*
X1595699Y-3311199D01*
X1601800Y-3309099D01*
X1611999Y-3309099D01*
X1618199Y-3311199D01*
X1622299Y-3313200D01*
X1626400Y-3317300D01*
X1628400Y-3323499D01*
X1628400Y-3337800D01*
X1593599Y-3295599D02*
G01*
X1591599Y-3291500D01*
X1585500Y-3285399D01*
X1628400Y-3285399D01*
X3750000Y-100000D02*
G01*
X3750000Y-130599D01*
X3751999Y-136799D01*
X3756099Y-140900D01*
X3762299Y-142899D01*
X3766400Y-142899D01*
X3772500Y-140900D01*
X3776599Y-136799D01*
X3778599Y-130599D01*
X3778599Y-100000D01*
X3802399Y-100000D02*
G01*
X3796199Y-101999D01*
X3794200Y-106100D01*
X3794200Y-110199D01*
X3796199Y-114299D01*
X3800299Y-116300D01*
X3808500Y-118400D01*
X3814600Y-120399D01*
X3818699Y-124499D01*
X3820799Y-128600D01*
X3820799Y-134699D01*
X3818699Y-138800D01*
X3816700Y-140900D01*
X3810500Y-142899D01*
X3802399Y-142899D01*
X3796199Y-140900D01*
X3794200Y-138800D01*
X3792100Y-134699D01*
X3792100Y-128600D01*
X3794200Y-124499D01*
X3798299Y-120399D01*
X3804399Y-118400D01*
X3812600Y-116300D01*
X3816700Y-114299D01*
X3818699Y-110199D01*
X3818699Y-106100D01*
X3816700Y-101999D01*
X3810500Y-100000D01*
X3802399Y-100000D01*
D10*
X564099Y-251399D02*
G01*
X561799Y-246799D01*
X557300Y-242298D01*
X552699Y-239998D01*
X543600Y-239998D01*
X539099Y-242298D01*
X534499Y-246799D01*
X532300Y-251399D01*
X530000Y-258198D01*
X530000Y-269598D01*
X532300Y-276399D01*
X534499Y-280898D01*
X539099Y-285498D01*
X543600Y-287799D01*
X552699Y-287799D01*
X557300Y-285498D01*
X561799Y-280898D01*
X564099Y-276399D01*
X564099Y-269598D01*
X552699Y-269598D02*
G01*
X564099Y-269598D01*
X579099Y-239998D02*
G01*
X579099Y-287799D01*
X579099Y-239998D02*
G01*
X610900Y-287799D01*
X610900Y-239998D02*
G01*
X610900Y-287799D01*
X625900Y-239998D02*
G01*
X625900Y-287799D01*
X625900Y-239998D02*
G01*
X641799Y-239998D01*
X648600Y-242298D01*
X653200Y-246799D01*
X655500Y-251399D01*
X657699Y-258198D01*
X657699Y-269598D01*
X655500Y-276399D01*
X653200Y-280898D01*
X648600Y-285498D01*
X641799Y-287799D01*
X625900Y-287799D01*
X2900000Y-53701D02*
G01*
X2900000Y-130001D01*
X2900000Y-130001D02*
G01*
X2943599Y-130001D01*
X3022200Y-71801D02*
G01*
X3018500Y-64600D01*
X3011300Y-57301D01*
X3003999Y-53701D01*
X2989499Y-53701D01*
X2982200Y-57301D01*
X2974899Y-64600D01*
X2971300Y-71801D01*
X2967600Y-82800D01*
X2967600Y-100900D01*
X2971300Y-111801D01*
X2974899Y-119101D01*
X2982200Y-126401D01*
X2989499Y-130001D01*
X3003999Y-130001D01*
X3011300Y-126401D01*
X3018500Y-119101D01*
X3022200Y-111801D01*
X3046199Y-53701D02*
G01*
X3046199Y-130001D01*
X3046199Y-53701D02*
G01*
X3071599Y-53701D01*
X3082500Y-57301D01*
X3089799Y-64600D01*
X3093500Y-71801D01*
X3097100Y-82800D01*
X3097100Y-100900D01*
X3093500Y-111801D01*
X3089799Y-119101D01*
X3082500Y-126401D01*
X3071599Y-130001D01*
X3046199Y-130001D01*
X3124700Y-71801D02*
G01*
X3124700Y-68200D01*
X3128400Y-60900D01*
X3131999Y-57301D01*
X3139300Y-53701D01*
X3153800Y-53701D01*
X3161099Y-57301D01*
X3164700Y-60900D01*
X3168400Y-68200D01*
X3168400Y-75500D01*
X3164700Y-82800D01*
X3157500Y-93701D01*
X3121099Y-130001D01*
X3171999Y-130001D01*
X3217799Y-53701D02*
G01*
X3206899Y-57301D01*
X3199600Y-68200D01*
X3196000Y-86401D01*
X3196000Y-97301D01*
X3199600Y-115500D01*
X3206899Y-126401D01*
X3217799Y-130001D01*
X3225100Y-130001D01*
X3236000Y-126401D01*
X3243299Y-115500D01*
X3246899Y-97301D01*
X3246899Y-86401D01*
X3243299Y-68200D01*
X3236000Y-57301D01*
X3225100Y-53701D01*
X3217799Y-53701D01*
X3292700Y-53701D02*
G01*
X3281800Y-57301D01*
X3274499Y-68200D01*
X3270900Y-86401D01*
X3270900Y-97301D01*
X3274499Y-115500D01*
X3281800Y-126401D01*
X3292700Y-130001D01*
X3300000Y-130001D01*
X3310900Y-126401D01*
X3318199Y-115500D01*
X3321800Y-97301D01*
X3321800Y-86401D01*
X3318199Y-68200D01*
X3310900Y-57301D01*
X3300000Y-53701D01*
X3292700Y-53701D01*
X3382200Y-53701D02*
G01*
X3345799Y-104600D01*
X3400399Y-104600D01*
X3382200Y-53701D02*
G01*
X3382200Y-130001D01*
X3424399Y-155500D02*
G01*
X3489799Y-155500D01*
X3513800Y-53701D02*
G01*
X3517500Y-57301D01*
X3521099Y-53701D01*
X3517500Y-50001D01*
X3513800Y-53701D01*
X3517500Y-79101D02*
G01*
X3517500Y-130001D01*
X3548699Y-71801D02*
G01*
X3548699Y-68200D01*
X3552399Y-60900D01*
X3556000Y-57301D01*
X3563299Y-53701D01*
X3577799Y-53701D01*
X3585100Y-57301D01*
X3588699Y-60900D01*
X3592399Y-68200D01*
X3592399Y-75500D01*
X3588699Y-82800D01*
X3581499Y-93701D01*
X3545100Y-130001D01*
X3596000Y-130001D01*
X3663599Y-90001D02*
G01*
X3656400Y-82800D01*
X3649099Y-79101D01*
X3638199Y-79101D01*
X3630900Y-82800D01*
X3623599Y-90001D01*
X3620000Y-100900D01*
X3620000Y-108200D01*
X3623599Y-119101D01*
X3630900Y-126401D01*
X3638199Y-130001D01*
X3649099Y-130001D01*
X3656400Y-126401D01*
X3663599Y-119101D01*
X530000Y-330000D02*
G01*
X548200Y-377800D01*
X566399Y-330000D02*
G01*
X548200Y-377800D01*
X615500Y-341399D02*
G01*
X613200Y-336799D01*
X608600Y-332300D01*
X604099Y-330000D01*
X595000Y-330000D01*
X590500Y-332300D01*
X585900Y-336799D01*
X583600Y-341399D01*
X581399Y-348200D01*
X581399Y-359600D01*
X583600Y-366399D01*
X585900Y-370900D01*
X590500Y-375500D01*
X595000Y-377800D01*
X604099Y-377800D01*
X608600Y-375500D01*
X613200Y-370900D01*
X615500Y-366399D01*
X664499Y-341399D02*
G01*
X662300Y-336799D01*
X657699Y-332300D01*
X653200Y-330000D01*
X644099Y-330000D01*
X639499Y-332300D01*
X635000Y-336799D01*
X632699Y-341399D01*
X630500Y-348200D01*
X630500Y-359600D01*
X632699Y-366399D01*
X635000Y-370900D01*
X639499Y-375500D01*
X644099Y-377800D01*
X653200Y-377800D01*
X657699Y-375500D01*
X662300Y-370900D01*
X664499Y-366399D01*
X561799Y-446799D02*
G01*
X557300Y-442300D01*
X550500Y-440000D01*
X541399Y-440000D01*
X534499Y-442300D01*
X530000Y-446799D01*
X530000Y-451399D01*
X532300Y-455900D01*
X534499Y-458200D01*
X539099Y-460500D01*
X552699Y-465000D01*
X557300Y-467300D01*
X559499Y-469600D01*
X561799Y-474099D01*
X561799Y-480900D01*
X557300Y-485500D01*
X550500Y-487800D01*
X541399Y-487800D01*
X534499Y-485500D01*
X530000Y-480900D01*
X576799Y-440000D02*
G01*
X576799Y-487800D01*
X576799Y-440000D02*
G01*
X592699Y-440000D01*
X599499Y-442300D01*
X604099Y-446799D01*
X606399Y-451399D01*
X608600Y-458200D01*
X608600Y-469600D01*
X606399Y-476399D01*
X604099Y-480900D01*
X599499Y-485500D01*
X592699Y-487800D01*
X576799Y-487800D01*
X641799Y-440000D02*
G01*
X623600Y-487800D01*
X641799Y-440000D02*
G01*
X660000Y-487800D01*
X630500Y-471799D02*
G01*
X653200Y-471799D01*
X561799Y-536799D02*
G01*
X557300Y-532300D01*
X550500Y-530000D01*
X541399Y-530000D01*
X534499Y-532300D01*
X530000Y-536799D01*
X530000Y-541399D01*
X532300Y-545900D01*
X534499Y-548200D01*
X539099Y-550500D01*
X552699Y-555000D01*
X557300Y-557300D01*
X559499Y-559600D01*
X561799Y-564099D01*
X561799Y-570900D01*
X557300Y-575500D01*
X550500Y-577800D01*
X541399Y-577800D01*
X534499Y-575500D01*
X530000Y-570900D01*
X610900Y-541399D02*
G01*
X608600Y-536799D01*
X604099Y-532300D01*
X599499Y-530000D01*
X590500Y-530000D01*
X585900Y-532300D01*
X581399Y-536799D01*
X579099Y-541399D01*
X576799Y-548200D01*
X576799Y-559600D01*
X579099Y-566399D01*
X581399Y-570900D01*
X585900Y-575500D01*
X590500Y-577800D01*
X599499Y-577800D01*
X604099Y-575500D01*
X608600Y-570900D01*
X610900Y-566399D01*
X625900Y-530000D02*
G01*
X625900Y-577800D01*
X625900Y-577800D02*
G01*
X653200Y-577800D01*
D12*
X697100Y-3070000D02*
G01*
X727699Y-3070000D01*
X733899Y-3068000D01*
X738000Y-3063899D01*
X740000Y-3057700D01*
X740000Y-3053600D01*
X738000Y-3047500D01*
X733899Y-3043400D01*
X727699Y-3041399D01*
X697100Y-3041399D01*
X697100Y-2999200D02*
G01*
X740000Y-3019699D01*
X697100Y-3027899D02*
G01*
X697100Y-2999200D01*
D13*
X783600Y-3300000D02*
G01*
X812300Y-3289099D01*
X783600Y-3278200D02*
G01*
X812300Y-3289099D01*
X783600Y-3269200D02*
G01*
X812300Y-3269200D01*
X783600Y-3269200D02*
G01*
X812300Y-3258299D01*
X783600Y-3247399D02*
G01*
X812300Y-3258299D01*
X783600Y-3247399D02*
G01*
X812300Y-3247399D01*
X883600Y-3300000D02*
G01*
X912300Y-3289099D01*
X883600Y-3278200D02*
G01*
X912300Y-3289099D01*
X890500Y-3248699D02*
G01*
X887699Y-3250100D01*
X885000Y-3252800D01*
X883600Y-3255500D01*
X883600Y-3260999D01*
X885000Y-3263699D01*
X887699Y-3266500D01*
X890500Y-3267800D01*
X894499Y-3269200D01*
X901399Y-3269200D01*
X905500Y-3267800D01*
X908200Y-3266500D01*
X910900Y-3263699D01*
X912300Y-3260999D01*
X912300Y-3255500D01*
X910900Y-3252800D01*
X908200Y-3250100D01*
X905500Y-3248699D01*
X890500Y-3219299D02*
G01*
X887699Y-3220599D01*
X885000Y-3223400D01*
X883600Y-3226100D01*
X883600Y-3231500D01*
X885000Y-3234299D01*
X887699Y-3236999D01*
X890500Y-3238400D01*
X894499Y-3239699D01*
X901399Y-3239699D01*
X905500Y-3238400D01*
X908200Y-3236999D01*
X910900Y-3234299D01*
X912300Y-3231500D01*
X912300Y-3226100D01*
X910900Y-3223400D01*
X908200Y-3220599D01*
X905500Y-3219299D01*
X1083599Y-3289099D02*
G01*
X1112299Y-3300000D01*
X1083599Y-3289099D02*
G01*
X1112299Y-3278200D01*
X1102700Y-3295900D02*
G01*
X1102700Y-3282300D01*
X1083599Y-3260999D02*
G01*
X1085000Y-3263699D01*
X1087700Y-3266500D01*
X1090500Y-3267800D01*
X1094499Y-3269200D01*
X1101400Y-3269200D01*
X1105500Y-3267800D01*
X1108199Y-3266500D01*
X1110900Y-3263699D01*
X1112299Y-3260999D01*
X1112299Y-3255500D01*
X1110900Y-3252800D01*
X1108199Y-3250100D01*
X1105500Y-3248699D01*
X1101400Y-3247399D01*
X1094499Y-3247399D01*
X1090500Y-3248699D01*
X1087700Y-3250100D01*
X1085000Y-3252800D01*
X1083599Y-3255500D01*
X1083599Y-3260999D01*
X1089099Y-3238400D02*
G01*
X1087700Y-3235599D01*
X1083599Y-3231500D01*
X1112299Y-3231500D01*
X990500Y-3279499D02*
G01*
X987700Y-3280900D01*
X985000Y-3283600D01*
X983599Y-3286399D01*
X983599Y-3291799D01*
X985000Y-3294499D01*
X987700Y-3297300D01*
X990500Y-3298600D01*
X994499Y-3300000D01*
X1001400Y-3300000D01*
X1005500Y-3298600D01*
X1008199Y-3297300D01*
X1010900Y-3294499D01*
X1012299Y-3291799D01*
X1012299Y-3286399D01*
X1010900Y-3283600D01*
X1008199Y-3280900D01*
X1005500Y-3279499D01*
X1001400Y-3279499D01*
X1001400Y-3286399D02*
G01*
X1001400Y-3279499D01*
X983599Y-3270500D02*
G01*
X1012299Y-3270500D01*
X983599Y-3270500D02*
G01*
X1012299Y-3251500D01*
X983599Y-3251500D02*
G01*
X1012299Y-3251500D01*
X983599Y-3242500D02*
G01*
X1012299Y-3242500D01*
X983599Y-3242500D02*
G01*
X983599Y-3232899D01*
X985000Y-3228800D01*
X987700Y-3226100D01*
X990500Y-3224699D01*
X994499Y-3223400D01*
X1001400Y-3223400D01*
X1005500Y-3224699D01*
X1008199Y-3226100D01*
X1010900Y-3228800D01*
X1012299Y-3232899D01*
X1012299Y-3242500D01*
X1183599Y-3289099D02*
G01*
X1212299Y-3300000D01*
X1183599Y-3289099D02*
G01*
X1212299Y-3278200D01*
X1202700Y-3295900D02*
G01*
X1202700Y-3282300D01*
X1183599Y-3260999D02*
G01*
X1185000Y-3263699D01*
X1187700Y-3266500D01*
X1190500Y-3267800D01*
X1194499Y-3269200D01*
X1201400Y-3269200D01*
X1205500Y-3267800D01*
X1208199Y-3266500D01*
X1210900Y-3263699D01*
X1212299Y-3260999D01*
X1212299Y-3255500D01*
X1210900Y-3252800D01*
X1208199Y-3250100D01*
X1205500Y-3248699D01*
X1201400Y-3247399D01*
X1194499Y-3247399D01*
X1190500Y-3248699D01*
X1187700Y-3250100D01*
X1185000Y-3252800D01*
X1183599Y-3255500D01*
X1183599Y-3260999D01*
X1190500Y-3236999D02*
G01*
X1189099Y-3236999D01*
X1186400Y-3235599D01*
X1185000Y-3234299D01*
X1183599Y-3231500D01*
X1183599Y-3226100D01*
X1185000Y-3223400D01*
X1186400Y-3221999D01*
X1189099Y-3220599D01*
X1191800Y-3220599D01*
X1194499Y-3221999D01*
X1198599Y-3224699D01*
X1212299Y-3238400D01*
X1212299Y-3219299D01*
X1283599Y-3300000D02*
G01*
X1312299Y-3300000D01*
X1283599Y-3300000D02*
G01*
X1283599Y-3287700D01*
X1285000Y-3283600D01*
X1286400Y-3282300D01*
X1289099Y-3280900D01*
X1291800Y-3280900D01*
X1294499Y-3282300D01*
X1295900Y-3283600D01*
X1297299Y-3287700D01*
X1297299Y-3300000D02*
G01*
X1297299Y-3287700D01*
X1298599Y-3283600D01*
X1300000Y-3282300D01*
X1302700Y-3280900D01*
X1306800Y-3280900D01*
X1309499Y-3282300D01*
X1310900Y-3283600D01*
X1312299Y-3287700D01*
X1312299Y-3300000D01*
X1283599Y-3263699D02*
G01*
X1285000Y-3266500D01*
X1287700Y-3269200D01*
X1290500Y-3270500D01*
X1294499Y-3271900D01*
X1301400Y-3271900D01*
X1305500Y-3270500D01*
X1308199Y-3269200D01*
X1310900Y-3266500D01*
X1312299Y-3263699D01*
X1312299Y-3258299D01*
X1310900Y-3255500D01*
X1308199Y-3252800D01*
X1305500Y-3251500D01*
X1301400Y-3250100D01*
X1294499Y-3250100D01*
X1290500Y-3251500D01*
X1287700Y-3252800D01*
X1285000Y-3255500D01*
X1283599Y-3258299D01*
X1283599Y-3263699D01*
X1290500Y-3239699D02*
G01*
X1289099Y-3239699D01*
X1286400Y-3238400D01*
X1285000Y-3236999D01*
X1283599Y-3234299D01*
X1283599Y-3228800D01*
X1285000Y-3226100D01*
X1286400Y-3224699D01*
X1289099Y-3223400D01*
X1291800Y-3223400D01*
X1294499Y-3224699D01*
X1298599Y-3227500D01*
X1312299Y-3241100D01*
X1312299Y-3221999D01*
X1490500Y-3279499D02*
G01*
X1487700Y-3280900D01*
X1485000Y-3283600D01*
X1483599Y-3286399D01*
X1483599Y-3291799D01*
X1485000Y-3294499D01*
X1487700Y-3297300D01*
X1490500Y-3298600D01*
X1494499Y-3300000D01*
X1501400Y-3300000D01*
X1505500Y-3298600D01*
X1508199Y-3297300D01*
X1510900Y-3294499D01*
X1512299Y-3291799D01*
X1512299Y-3286399D01*
X1510900Y-3283600D01*
X1508199Y-3280900D01*
X1505500Y-3279499D01*
X1501400Y-3279499D01*
X1501400Y-3286399D02*
G01*
X1501400Y-3279499D01*
X1483599Y-3270500D02*
G01*
X1512299Y-3270500D01*
X1483599Y-3270500D02*
G01*
X1512299Y-3251500D01*
X1483599Y-3251500D02*
G01*
X1512299Y-3251500D01*
X1483599Y-3242500D02*
G01*
X1512299Y-3242500D01*
X1483599Y-3242500D02*
G01*
X1483599Y-3232899D01*
X1485000Y-3228800D01*
X1487700Y-3226100D01*
X1490500Y-3224699D01*
X1494499Y-3223400D01*
X1501400Y-3223400D01*
X1505500Y-3224699D01*
X1508199Y-3226100D01*
X1510900Y-3228800D01*
X1512299Y-3232899D01*
X1512299Y-3242500D01*
X1383599Y-3290000D02*
G01*
X1412299Y-3290000D01*
X1383599Y-3290000D02*
G01*
X1383599Y-3277700D01*
X1385000Y-3273600D01*
X1386400Y-3272300D01*
X1389099Y-3270900D01*
X1391800Y-3270900D01*
X1394499Y-3272300D01*
X1395900Y-3273600D01*
X1397299Y-3277700D01*
X1397299Y-3290000D02*
G01*
X1397299Y-3277700D01*
X1398599Y-3273600D01*
X1400000Y-3272300D01*
X1402700Y-3270900D01*
X1406800Y-3270900D01*
X1409499Y-3272300D01*
X1410900Y-3273600D01*
X1412299Y-3277700D01*
X1412299Y-3290000D01*
X1383599Y-3253699D02*
G01*
X1385000Y-3256500D01*
X1387700Y-3259200D01*
X1390500Y-3260500D01*
X1394499Y-3261900D01*
X1401400Y-3261900D01*
X1405500Y-3260500D01*
X1408199Y-3259200D01*
X1410900Y-3256500D01*
X1412299Y-3253699D01*
X1412299Y-3248299D01*
X1410900Y-3245500D01*
X1408199Y-3242800D01*
X1405500Y-3241500D01*
X1401400Y-3240100D01*
X1394499Y-3240100D01*
X1390500Y-3241500D01*
X1387700Y-3242800D01*
X1385000Y-3245500D01*
X1383599Y-3248299D01*
X1383599Y-3253699D01*
X1389099Y-3231100D02*
G01*
X1387700Y-3228400D01*
X1383599Y-3224299D01*
X1412299Y-3224299D01*
X783600Y-2940000D02*
G01*
X812300Y-2940000D01*
X783600Y-2940000D02*
G01*
X783600Y-2927700D01*
X785000Y-2923600D01*
X786399Y-2922300D01*
X789099Y-2920900D01*
X793200Y-2920900D01*
X795900Y-2922300D01*
X797300Y-2923600D01*
X798600Y-2927700D01*
X798600Y-2940000D01*
X783600Y-2911900D02*
G01*
X812300Y-2905100D01*
X783600Y-2898299D02*
G01*
X812300Y-2905100D01*
X783600Y-2898299D02*
G01*
X812300Y-2891500D01*
X783600Y-2884600D02*
G01*
X812300Y-2891500D01*
X783600Y-2875599D02*
G01*
X812300Y-2875599D01*
X783600Y-2875599D02*
G01*
X812300Y-2864699D01*
X783600Y-2853800D02*
G01*
X812300Y-2864699D01*
X783600Y-2853800D02*
G01*
X812300Y-2853800D01*
X783600Y-2833899D02*
G01*
X812300Y-2844800D01*
X783600Y-2833899D02*
G01*
X812300Y-2823000D01*
X802699Y-2840700D02*
G01*
X802699Y-2827100D01*
X1383599Y-2940000D02*
G01*
X1412299Y-2940000D01*
X1383599Y-2940000D02*
G01*
X1383599Y-2927700D01*
X1385000Y-2923600D01*
X1386400Y-2922300D01*
X1389099Y-2920900D01*
X1393199Y-2920900D01*
X1395900Y-2922300D01*
X1397299Y-2923600D01*
X1398599Y-2927700D01*
X1398599Y-2940000D01*
X1383599Y-2911900D02*
G01*
X1412299Y-2905100D01*
X1383599Y-2898299D02*
G01*
X1412299Y-2905100D01*
X1383599Y-2898299D02*
G01*
X1412299Y-2891500D01*
X1383599Y-2884600D02*
G01*
X1412299Y-2891500D01*
X1383599Y-2875599D02*
G01*
X1412299Y-2875599D01*
X1383599Y-2875599D02*
G01*
X1412299Y-2864699D01*
X1383599Y-2853800D02*
G01*
X1412299Y-2864699D01*
X1383599Y-2853800D02*
G01*
X1412299Y-2853800D01*
X1383599Y-2844800D02*
G01*
X1412299Y-2844800D01*
X1383599Y-2844800D02*
G01*
X1383599Y-2832500D01*
X1385000Y-2828499D01*
X1386400Y-2827100D01*
X1389099Y-2825700D01*
X1391800Y-2825700D01*
X1394499Y-2827100D01*
X1395900Y-2828499D01*
X1397299Y-2832500D01*
X1397299Y-2844800D02*
G01*
X1397299Y-2832500D01*
X1398599Y-2828499D01*
X1400000Y-2827100D01*
X1402700Y-2825700D01*
X1406800Y-2825700D01*
X1409499Y-2827100D01*
X1410900Y-2828499D01*
X1412299Y-2832500D01*
X1412299Y-2844800D01*
X883600Y-2929099D02*
G01*
X912300Y-2940000D01*
X883600Y-2929099D02*
G01*
X912300Y-2918200D01*
X902699Y-2935900D02*
G01*
X902699Y-2922300D01*
X883600Y-2909200D02*
G01*
X912300Y-2909200D01*
X883600Y-2900200D02*
G01*
X912300Y-2900200D01*
X883600Y-2900200D02*
G01*
X912300Y-2881100D01*
X883600Y-2881100D02*
G01*
X912300Y-2881100D01*
X890500Y-2870700D02*
G01*
X889099Y-2870700D01*
X886399Y-2869400D01*
X885000Y-2868000D01*
X883600Y-2865300D01*
X883600Y-2859800D01*
X885000Y-2857100D01*
X886399Y-2855700D01*
X889099Y-2854400D01*
X891799Y-2854400D01*
X894499Y-2855700D01*
X898600Y-2858499D01*
X912300Y-2872100D01*
X912300Y-2853000D01*
X1087700Y-2920900D02*
G01*
X1085000Y-2923600D01*
X1083599Y-2927700D01*
X1083599Y-2933200D01*
X1085000Y-2937300D01*
X1087700Y-2940000D01*
X1090500Y-2940000D01*
X1093199Y-2938600D01*
X1094499Y-2937300D01*
X1095900Y-2934499D01*
X1098599Y-2926399D01*
X1100000Y-2923600D01*
X1101400Y-2922300D01*
X1104099Y-2920900D01*
X1108199Y-2920900D01*
X1110900Y-2923600D01*
X1112299Y-2927700D01*
X1112299Y-2933200D01*
X1110900Y-2937300D01*
X1108199Y-2940000D01*
X1083599Y-2902399D02*
G01*
X1112299Y-2902399D01*
X1083599Y-2911900D02*
G01*
X1083599Y-2892800D01*
X1083599Y-2883800D02*
G01*
X1112299Y-2883800D01*
X1083599Y-2883800D02*
G01*
X1083599Y-2871500D01*
X1085000Y-2867500D01*
X1086400Y-2866100D01*
X1089099Y-2864699D01*
X1091800Y-2864699D01*
X1094499Y-2866100D01*
X1095900Y-2867500D01*
X1097299Y-2871500D01*
X1097299Y-2883800D02*
G01*
X1097299Y-2871500D01*
X1098599Y-2867500D01*
X1100000Y-2866100D01*
X1102700Y-2864699D01*
X1106800Y-2864699D01*
X1109499Y-2866100D01*
X1110900Y-2867500D01*
X1112299Y-2871500D01*
X1112299Y-2883800D01*
X1083599Y-2855700D02*
G01*
X1097299Y-2844800D01*
X1112299Y-2844800D01*
X1083599Y-2833899D02*
G01*
X1097299Y-2844800D01*
X983599Y-2929099D02*
G01*
X1012299Y-2940000D01*
X983599Y-2929099D02*
G01*
X1012299Y-2918200D01*
X1002700Y-2935900D02*
G01*
X1002700Y-2922300D01*
X983599Y-2909200D02*
G01*
X1012299Y-2909200D01*
X983599Y-2900200D02*
G01*
X1012299Y-2900200D01*
X983599Y-2900200D02*
G01*
X1012299Y-2881100D01*
X983599Y-2881100D02*
G01*
X1012299Y-2881100D01*
X989099Y-2872100D02*
G01*
X987700Y-2869400D01*
X983599Y-2865300D01*
X1012299Y-2865300D01*
X1183599Y-2940000D02*
G01*
X1212299Y-2940000D01*
X1183599Y-2940000D02*
G01*
X1183599Y-2927700D01*
X1185000Y-2923600D01*
X1186400Y-2922300D01*
X1189099Y-2920900D01*
X1191800Y-2920900D01*
X1194499Y-2922300D01*
X1195900Y-2923600D01*
X1197299Y-2927700D01*
X1197299Y-2940000D02*
G01*
X1197299Y-2927700D01*
X1198599Y-2923600D01*
X1200000Y-2922300D01*
X1202700Y-2920900D01*
X1206800Y-2920900D01*
X1209499Y-2922300D01*
X1210900Y-2923600D01*
X1212299Y-2927700D01*
X1212299Y-2940000D01*
X1183599Y-2911900D02*
G01*
X1212299Y-2911900D01*
X1183599Y-2902899D02*
G01*
X1212299Y-2902899D01*
X1183599Y-2902899D02*
G01*
X1212299Y-2883800D01*
X1183599Y-2883800D02*
G01*
X1212299Y-2883800D01*
X1189099Y-2874800D02*
G01*
X1187700Y-2872100D01*
X1183599Y-2868000D01*
X1212299Y-2868000D01*
X1283599Y-2940000D02*
G01*
X1312299Y-2940000D01*
X1283599Y-2940000D02*
G01*
X1283599Y-2927700D01*
X1285000Y-2923600D01*
X1286400Y-2922300D01*
X1289099Y-2920900D01*
X1291800Y-2920900D01*
X1294499Y-2922300D01*
X1295900Y-2923600D01*
X1297299Y-2927700D01*
X1297299Y-2940000D02*
G01*
X1297299Y-2927700D01*
X1298599Y-2923600D01*
X1300000Y-2922300D01*
X1302700Y-2920900D01*
X1306800Y-2920900D01*
X1309499Y-2922300D01*
X1310900Y-2923600D01*
X1312299Y-2927700D01*
X1312299Y-2940000D01*
X1283599Y-2911900D02*
G01*
X1312299Y-2911900D01*
X1283599Y-2902899D02*
G01*
X1312299Y-2902899D01*
X1283599Y-2902899D02*
G01*
X1312299Y-2883800D01*
X1283599Y-2883800D02*
G01*
X1312299Y-2883800D01*
X1290500Y-2873499D02*
G01*
X1289099Y-2873499D01*
X1286400Y-2872100D01*
X1285000Y-2870700D01*
X1283599Y-2868000D01*
X1283599Y-2862500D01*
X1285000Y-2859800D01*
X1286400Y-2858499D01*
X1289099Y-2857100D01*
X1291800Y-2857100D01*
X1294499Y-2858499D01*
X1298599Y-2861199D01*
X1312299Y-2874800D01*
X1312299Y-2855700D01*
X1490500Y-2919499D02*
G01*
X1487700Y-2920900D01*
X1485000Y-2923600D01*
X1483599Y-2926399D01*
X1483599Y-2931799D01*
X1485000Y-2934499D01*
X1487700Y-2937300D01*
X1490500Y-2938600D01*
X1494499Y-2940000D01*
X1501400Y-2940000D01*
X1505500Y-2938600D01*
X1508199Y-2937300D01*
X1510900Y-2934499D01*
X1512299Y-2931799D01*
X1512299Y-2926399D01*
X1510900Y-2923600D01*
X1508199Y-2920900D01*
X1505500Y-2919499D01*
X1501400Y-2919499D01*
X1501400Y-2926399D02*
G01*
X1501400Y-2919499D01*
X1483599Y-2910500D02*
G01*
X1512299Y-2910500D01*
X1483599Y-2910500D02*
G01*
X1512299Y-2891500D01*
X1483599Y-2891500D02*
G01*
X1512299Y-2891500D01*
X1483599Y-2882500D02*
G01*
X1512299Y-2882500D01*
X1483599Y-2882500D02*
G01*
X1483599Y-2872899D01*
X1485000Y-2868800D01*
X1487700Y-2866100D01*
X1490500Y-2864699D01*
X1494499Y-2863400D01*
X1501400Y-2863400D01*
X1505500Y-2864699D01*
X1508199Y-2866100D01*
X1510900Y-2868800D01*
X1512299Y-2872899D01*
X1512299Y-2882500D01*
D12*
X2530001Y-3350000D02*
G01*
X2530001Y-3380700D01*
X2532101Y-3386900D01*
X2536201Y-3390999D01*
X2542300Y-3393000D01*
X2546400Y-3393000D01*
X2552501Y-3390999D01*
X2556601Y-3386900D01*
X2558701Y-3380700D01*
X2558701Y-3350000D01*
X2596701Y-3356199D02*
G01*
X2594700Y-3352100D01*
X2588500Y-3350000D01*
X2584400Y-3350000D01*
X2578301Y-3352100D01*
X2574201Y-3358200D01*
X2572200Y-3368499D01*
X2572200Y-3378699D01*
X2574201Y-3386900D01*
X2578301Y-3390999D01*
X2584400Y-3393000D01*
X2586500Y-3393000D01*
X2592601Y-3390999D01*
X2596701Y-3386900D01*
X2598701Y-3380700D01*
X2598701Y-3378699D01*
X2596701Y-3372500D01*
X2592601Y-3368499D01*
X2586500Y-3366399D01*
X2584400Y-3366399D01*
X2578301Y-3368499D01*
X2574201Y-3372500D01*
X2572200Y-3378699D01*
D14*
X2359020Y-3384189D02*
G01*
X2370519Y-3414290D01*
X2381920Y-3384189D02*
G01*
X2370519Y-3414290D01*
X2391419Y-3384189D02*
G01*
X2391419Y-3414290D01*
X2400820Y-3384189D02*
G01*
X2400820Y-3414290D01*
X2400820Y-3384189D02*
G01*
X2420919Y-3414290D01*
X2420919Y-3384189D02*
G01*
X2420919Y-3414290D01*
D10*
X2488801Y-3549998D02*
G01*
X2488801Y-3587597D01*
X2488801Y-3549998D02*
G01*
X2504901Y-3549998D01*
X2510300Y-3551797D01*
X2512101Y-3553598D01*
X2513900Y-3557197D01*
X2513900Y-3560798D01*
X2512101Y-3564297D01*
X2510300Y-3566098D01*
X2504901Y-3567898D01*
X2488801Y-3567898D02*
G01*
X2504901Y-3567898D01*
X2510300Y-3569697D01*
X2512101Y-3571498D01*
X2513900Y-3575097D01*
X2513900Y-3580398D01*
X2512101Y-3583998D01*
X2510300Y-3585798D01*
X2504901Y-3587597D01*
X2488801Y-3587597D01*
X2525700Y-3549998D02*
G01*
X2525700Y-3587597D01*
X2525700Y-3549998D02*
G01*
X2540001Y-3587597D01*
X2554300Y-3549998D02*
G01*
X2540001Y-3587597D01*
X2554300Y-3549998D02*
G01*
X2554300Y-3587597D01*
X2566100Y-3549998D02*
G01*
X2566100Y-3587597D01*
X2566100Y-3549998D02*
G01*
X2589400Y-3549998D01*
X2566100Y-3567898D02*
G01*
X2580501Y-3567898D01*
X2566100Y-3587597D02*
G01*
X2589400Y-3587597D01*
X2603001Y-3558998D02*
G01*
X2603001Y-3557197D01*
X2604800Y-3553598D01*
X2606601Y-3551797D01*
X2610200Y-3549998D01*
X2617300Y-3549998D01*
X2620901Y-3551797D01*
X2622700Y-3553598D01*
X2624501Y-3557197D01*
X2624501Y-3560798D01*
X2622700Y-3564297D01*
X2619101Y-3569697D01*
X2601201Y-3587597D01*
X2626301Y-3587597D01*
X2647001Y-3549998D02*
G01*
X2641701Y-3551797D01*
X2639901Y-3555398D01*
X2639901Y-3558998D01*
X2641701Y-3562498D01*
X2645200Y-3564297D01*
X2652401Y-3566098D01*
X2657800Y-3567898D01*
X2661301Y-3571498D01*
X2663100Y-3575097D01*
X2663100Y-3580398D01*
X2661301Y-3583998D01*
X2659601Y-3585798D01*
X2654201Y-3587597D01*
X2647001Y-3587597D01*
X2641701Y-3585798D01*
X2639901Y-3583998D01*
X2638100Y-3580398D01*
X2638100Y-3575097D01*
X2639901Y-3571498D01*
X2643500Y-3567898D01*
X2648801Y-3566098D01*
X2656000Y-3564297D01*
X2659601Y-3562498D01*
X2661301Y-3558998D01*
X2661301Y-3555398D01*
X2659601Y-3551797D01*
X2654201Y-3549998D01*
X2647001Y-3549998D01*
X2685700Y-3549998D02*
G01*
X2680300Y-3551797D01*
X2676701Y-3557197D01*
X2674901Y-3566098D01*
X2674901Y-3571498D01*
X2676701Y-3580398D01*
X2680300Y-3585798D01*
X2685700Y-3587597D01*
X2689300Y-3587597D01*
X2694601Y-3585798D01*
X2698200Y-3580398D01*
X2700001Y-3571498D01*
X2700001Y-3566098D01*
X2698200Y-3557197D01*
X2694601Y-3551797D01*
X2689300Y-3549998D01*
X2685700Y-3549998D01*
D14*
X2384420Y-3500189D02*
G01*
X2383019Y-3497390D01*
X2380219Y-3494490D01*
X2377319Y-3493090D01*
X2371620Y-3493090D01*
X2368720Y-3494490D01*
X2365820Y-3497390D01*
X2364420Y-3500189D01*
X2363019Y-3504490D01*
X2363019Y-3511689D01*
X2364420Y-3515990D01*
X2365820Y-3518890D01*
X2368720Y-3521689D01*
X2371620Y-3523090D01*
X2377319Y-3523090D01*
X2380219Y-3521689D01*
X2383019Y-3518890D01*
X2384420Y-3515990D01*
X2384420Y-3511689D01*
X2377319Y-3511689D02*
G01*
X2384420Y-3511689D01*
X2393919Y-3493090D02*
G01*
X2393919Y-3523090D01*
X2393919Y-3493090D02*
G01*
X2413919Y-3523090D01*
X2413919Y-3493090D02*
G01*
X2413919Y-3523090D01*
X2423419Y-3493090D02*
G01*
X2423419Y-3523090D01*
X2423419Y-3493090D02*
G01*
X2433419Y-3493090D01*
X2437719Y-3494490D01*
X2440619Y-3497390D01*
X2442020Y-3500189D01*
X2443419Y-3504490D01*
X2443419Y-3511689D01*
X2442020Y-3515990D01*
X2440619Y-3518890D01*
X2437719Y-3521689D01*
X2433419Y-3523090D01*
X2423419Y-3523090D01*
X2383019Y-3591889D02*
G01*
X2380219Y-3588989D01*
X2375919Y-3587590D01*
X2370119Y-3587590D01*
X2365820Y-3588989D01*
X2363019Y-3591889D01*
X2363019Y-3594690D01*
X2364420Y-3597590D01*
X2365820Y-3598989D01*
X2368720Y-3600490D01*
X2377319Y-3603290D01*
X2380219Y-3604789D01*
X2381620Y-3606190D01*
X2383019Y-3608989D01*
X2383019Y-3613290D01*
X2380219Y-3616190D01*
X2375919Y-3617590D01*
X2370119Y-3617590D01*
X2365820Y-3616190D01*
X2363019Y-3613290D01*
X2413919Y-3594690D02*
G01*
X2412520Y-3591889D01*
X2409620Y-3588989D01*
X2406819Y-3587590D01*
X2401120Y-3587590D01*
X2398220Y-3588989D01*
X2395320Y-3591889D01*
X2393919Y-3594690D01*
X2392520Y-3598989D01*
X2392520Y-3606190D01*
X2393919Y-3610490D01*
X2395320Y-3613290D01*
X2398220Y-3616190D01*
X2401120Y-3617590D01*
X2406819Y-3617590D01*
X2409620Y-3616190D01*
X2412520Y-3613290D01*
X2413919Y-3610490D01*
X2423419Y-3587590D02*
G01*
X2423419Y-3617590D01*
X2423419Y-3617590D02*
G01*
X2440619Y-3617590D01*
X2383019Y-3686390D02*
G01*
X2380219Y-3683490D01*
X2375919Y-3682089D01*
X2370119Y-3682089D01*
X2365820Y-3683490D01*
X2363019Y-3686390D01*
X2363019Y-3689189D01*
X2364420Y-3692089D01*
X2365820Y-3693490D01*
X2368720Y-3694890D01*
X2377319Y-3697790D01*
X2380219Y-3699189D01*
X2381620Y-3700689D01*
X2383019Y-3703490D01*
X2383019Y-3707790D01*
X2380219Y-3710689D01*
X2375919Y-3712089D01*
X2370119Y-3712089D01*
X2365820Y-3710689D01*
X2363019Y-3707790D01*
X2392520Y-3682089D02*
G01*
X2392520Y-3712089D01*
X2392520Y-3682089D02*
G01*
X2402520Y-3682089D01*
X2406819Y-3683490D01*
X2409620Y-3686390D01*
X2411120Y-3689189D01*
X2412520Y-3693490D01*
X2412520Y-3700689D01*
X2411120Y-3704989D01*
X2409620Y-3707790D01*
X2406819Y-3710689D01*
X2402520Y-3712089D01*
X2392520Y-3712089D01*
X2433419Y-3682089D02*
G01*
X2422020Y-3712089D01*
X2433419Y-3682089D02*
G01*
X2444920Y-3712089D01*
X2426319Y-3702089D02*
G01*
X2440619Y-3702089D01*
D12*
X1940000Y-847100D02*
G01*
X1940000Y-877699D01*
X1941999Y-883899D01*
X1946099Y-888000D01*
X1952299Y-890000D01*
X1956400Y-890000D01*
X1962500Y-888000D01*
X1966599Y-883899D01*
X1968599Y-877699D01*
X1968599Y-847100D01*
X1982100Y-855199D02*
G01*
X1986199Y-853200D01*
X1992399Y-847100D01*
X1992399Y-890000D01*
D10*
X1386300Y-1017300D02*
G01*
X1386300Y-1055500D01*
X1386300Y-1017300D02*
G01*
X1398999Y-1017300D01*
X1404499Y-1019099D01*
X1408100Y-1022699D01*
X1409899Y-1026399D01*
X1411800Y-1031799D01*
X1411800Y-1040900D01*
X1409899Y-1046399D01*
X1408100Y-1050000D01*
X1404499Y-1053600D01*
X1398999Y-1055500D01*
X1386300Y-1055500D01*
X1423800Y-1024600D02*
G01*
X1427399Y-1022699D01*
X1432799Y-1017300D01*
X1432799Y-1055500D01*
X1477600Y-1010000D02*
G01*
X1444799Y-1068200D01*
X1502299Y-1017300D02*
G01*
X1502299Y-1055500D01*
X1489600Y-1017300D02*
G01*
X1515000Y-1017300D01*
X1526999Y-1017300D02*
G01*
X1552500Y-1055500D01*
X1552500Y-1017300D02*
G01*
X1526999Y-1055500D01*
X2387299Y-1137300D02*
G01*
X2385500Y-1133600D01*
X2381800Y-1130000D01*
X2378199Y-1128200D01*
X2370900Y-1128200D01*
X2367299Y-1130000D01*
X2363599Y-1133600D01*
X2361800Y-1137300D01*
X2360000Y-1142699D01*
X2360000Y-1151799D01*
X2361800Y-1157300D01*
X2363599Y-1160900D01*
X2367299Y-1164499D01*
X2370900Y-1166399D01*
X2378199Y-1166399D01*
X2381800Y-1164499D01*
X2385500Y-1160900D01*
X2387299Y-1157300D01*
X2387299Y-1151799D01*
X2378199Y-1151799D02*
G01*
X2387299Y-1151799D01*
X2399300Y-1128200D02*
G01*
X2399300Y-1166399D01*
X2399300Y-1128200D02*
G01*
X2424700Y-1166399D01*
X2424700Y-1128200D02*
G01*
X2424700Y-1166399D01*
X2436700Y-1128200D02*
G01*
X2436700Y-1166399D01*
X2436700Y-1128200D02*
G01*
X2449499Y-1128200D01*
X2454899Y-1130000D01*
X2458500Y-1133600D01*
X2460399Y-1137300D01*
X2462200Y-1142699D01*
X2462200Y-1151799D01*
X2460399Y-1157300D01*
X2458500Y-1160900D01*
X2454899Y-1164499D01*
X2449499Y-1166399D01*
X2436700Y-1166399D01*
X2376400Y-1343600D02*
G01*
X2376400Y-1376399D01*
X2360000Y-1360000D02*
G01*
X2392700Y-1360000D01*
X2426499Y-1338200D02*
G01*
X2408400Y-1338200D01*
X2406499Y-1354499D01*
X2408400Y-1352699D01*
X2413800Y-1350900D01*
X2419300Y-1350900D01*
X2424700Y-1352699D01*
X2428400Y-1356399D01*
X2430200Y-1361799D01*
X2430200Y-1365500D01*
X2428400Y-1370900D01*
X2424700Y-1374499D01*
X2419300Y-1376399D01*
X2413800Y-1376399D01*
X2408400Y-1374499D01*
X2406499Y-1372699D01*
X2404700Y-1369099D01*
X2442200Y-1338200D02*
G01*
X2456700Y-1376399D01*
X2471300Y-1338200D02*
G01*
X2456700Y-1376399D01*
X1320000Y-2407298D02*
G01*
X1320000Y-2445499D01*
X1320000Y-2407298D02*
G01*
X1332700Y-2407298D01*
X1338199Y-2409099D01*
X1341800Y-2412698D01*
X1343599Y-2416399D01*
X1345500Y-2421799D01*
X1345500Y-2430898D01*
X1343599Y-2436399D01*
X1341800Y-2439998D01*
X1338199Y-2443598D01*
X1332700Y-2445499D01*
X1320000Y-2445499D01*
X1357500Y-2414598D02*
G01*
X1361099Y-2412698D01*
X1366499Y-2407298D01*
X1366499Y-2445499D01*
X1380399Y-2416399D02*
G01*
X1380399Y-2414598D01*
X1382200Y-2410898D01*
X1383999Y-2409099D01*
X1387600Y-2407298D01*
X1394899Y-2407298D01*
X1398500Y-2409099D01*
X1400399Y-2410898D01*
X1402200Y-2414598D01*
X1402200Y-2418198D01*
X1400399Y-2421799D01*
X1396700Y-2427298D01*
X1378500Y-2445499D01*
X1403999Y-2445499D01*
X1448699Y-2399998D02*
G01*
X1416000Y-2458198D01*
X1460699Y-2407298D02*
G01*
X1460699Y-2445499D01*
X1460699Y-2407298D02*
G01*
X1475299Y-2445499D01*
X1489799Y-2407298D02*
G01*
X1475299Y-2445499D01*
X1489799Y-2407298D02*
G01*
X1489799Y-2445499D01*
X1501800Y-2407298D02*
G01*
X1501800Y-2445499D01*
X1539300Y-2412698D02*
G01*
X1535600Y-2409099D01*
X1530200Y-2407298D01*
X1522899Y-2407298D01*
X1517500Y-2409099D01*
X1513800Y-2412698D01*
X1513800Y-2416399D01*
X1515600Y-2419998D01*
X1517500Y-2421799D01*
X1521099Y-2423598D01*
X1531999Y-2427298D01*
X1535600Y-2429099D01*
X1537500Y-2430898D01*
X1539300Y-2434598D01*
X1539300Y-2439998D01*
X1535600Y-2443598D01*
X1530200Y-2445499D01*
X1522899Y-2445499D01*
X1517500Y-2443598D01*
X1513800Y-2439998D01*
X1562200Y-2407298D02*
G01*
X1558500Y-2409099D01*
X1554899Y-2412698D01*
X1553100Y-2416399D01*
X1551300Y-2421799D01*
X1551300Y-2430898D01*
X1553100Y-2436399D01*
X1554899Y-2439998D01*
X1558500Y-2443598D01*
X1562200Y-2445499D01*
X1569499Y-2445499D01*
X1573100Y-2443598D01*
X1576700Y-2439998D01*
X1578500Y-2436399D01*
X1580399Y-2430898D01*
X1580399Y-2421799D01*
X1578500Y-2416399D01*
X1576700Y-2412698D01*
X1573100Y-2409099D01*
X1569499Y-2407298D01*
X1562200Y-2407298D01*
X2360000Y-1028200D02*
G01*
X2374499Y-1066399D01*
X2389099Y-1028200D02*
G01*
X2374499Y-1066399D01*
X2401099Y-1028200D02*
G01*
X2401099Y-1066399D01*
X2413100Y-1028200D02*
G01*
X2413100Y-1066399D01*
X2413100Y-1028200D02*
G01*
X2438500Y-1066399D01*
X2438500Y-1028200D02*
G01*
X2438500Y-1066399D01*
X2360000Y-2438200D02*
G01*
X2360000Y-2476399D01*
X2360000Y-2438200D02*
G01*
X2372700Y-2438200D01*
X2378199Y-2440000D01*
X2381800Y-2443600D01*
X2383599Y-2447300D01*
X2385500Y-2452700D01*
X2385500Y-2461799D01*
X2383599Y-2467300D01*
X2381800Y-2470900D01*
X2378199Y-2474499D01*
X2372700Y-2476399D01*
X2360000Y-2476399D01*
X2397500Y-2445500D02*
G01*
X2401099Y-2443600D01*
X2406499Y-2438200D01*
X2406499Y-2476399D01*
X2422200Y-2438200D02*
G01*
X2442200Y-2438200D01*
X2431300Y-2452700D01*
X2436700Y-2452700D01*
X2440399Y-2454499D01*
X2442200Y-2456399D01*
X2443999Y-2461799D01*
X2443999Y-2465500D01*
X2442200Y-2470900D01*
X2438500Y-2474499D01*
X2433100Y-2476399D01*
X2427600Y-2476399D01*
X2422200Y-2474499D01*
X2420399Y-2472700D01*
X2418500Y-2469099D01*
X2488699Y-2430900D02*
G01*
X2456000Y-2489099D01*
X2526199Y-2443600D02*
G01*
X2522500Y-2440000D01*
X2517100Y-2438200D01*
X2509799Y-2438200D01*
X2504399Y-2440000D01*
X2500699Y-2443600D01*
X2500699Y-2447300D01*
X2502500Y-2450900D01*
X2504399Y-2452700D01*
X2508000Y-2454499D01*
X2518900Y-2458200D01*
X2522500Y-2460000D01*
X2524399Y-2461799D01*
X2526199Y-2465500D01*
X2526199Y-2470900D01*
X2522500Y-2474499D01*
X2517100Y-2476399D01*
X2509799Y-2476399D01*
X2504399Y-2474499D01*
X2500699Y-2470900D01*
X2565500Y-2447300D02*
G01*
X2563599Y-2443600D01*
X2560000Y-2440000D01*
X2556400Y-2438200D01*
X2549099Y-2438200D01*
X2545500Y-2440000D01*
X2541800Y-2443600D01*
X2540000Y-2447300D01*
X2538199Y-2452700D01*
X2538199Y-2461799D01*
X2540000Y-2467300D01*
X2541800Y-2470900D01*
X2545500Y-2474499D01*
X2549099Y-2476399D01*
X2556400Y-2476399D01*
X2560000Y-2474499D01*
X2563599Y-2470900D01*
X2565500Y-2467300D01*
X2577500Y-2438200D02*
G01*
X2577500Y-2476399D01*
X2602899Y-2438200D02*
G01*
X2577500Y-2463600D01*
X2586499Y-2454499D02*
G01*
X2602899Y-2476399D01*
X1477600Y-1337300D02*
G01*
X1475799Y-1333600D01*
X1472100Y-1330000D01*
X1468500Y-1328200D01*
X1461199Y-1328200D01*
X1457600Y-1330000D01*
X1453900Y-1333600D01*
X1452100Y-1337300D01*
X1450299Y-1342699D01*
X1450299Y-1351799D01*
X1452100Y-1357300D01*
X1453900Y-1360900D01*
X1457600Y-1364499D01*
X1461199Y-1366399D01*
X1468500Y-1366399D01*
X1472100Y-1364499D01*
X1475799Y-1360900D01*
X1477600Y-1357300D01*
X1477600Y-1351799D01*
X1468500Y-1351799D02*
G01*
X1477600Y-1351799D01*
X1489600Y-1328200D02*
G01*
X1489600Y-1366399D01*
X1489600Y-1328200D02*
G01*
X1515000Y-1366399D01*
X1515000Y-1328200D02*
G01*
X1515000Y-1366399D01*
X1526999Y-1328200D02*
G01*
X1526999Y-1366399D01*
X1526999Y-1328200D02*
G01*
X1539799Y-1328200D01*
X1545200Y-1330000D01*
X1548800Y-1333600D01*
X1550699Y-1337300D01*
X1552500Y-1342699D01*
X1552500Y-1351799D01*
X1550699Y-1357300D01*
X1548800Y-1360900D01*
X1545200Y-1364499D01*
X1539799Y-1366399D01*
X1526999Y-1366399D01*
X1370000Y-1137300D02*
G01*
X1370000Y-1175500D01*
X1370000Y-1137300D02*
G01*
X1382700Y-1137300D01*
X1388199Y-1139099D01*
X1391800Y-1142699D01*
X1393599Y-1146399D01*
X1395500Y-1151799D01*
X1395500Y-1160900D01*
X1393599Y-1166399D01*
X1391800Y-1170000D01*
X1388199Y-1173600D01*
X1382700Y-1175500D01*
X1370000Y-1175500D01*
X1418400Y-1137300D02*
G01*
X1412899Y-1139099D01*
X1409300Y-1144600D01*
X1407500Y-1153600D01*
X1407500Y-1159099D01*
X1409300Y-1168200D01*
X1412899Y-1173600D01*
X1418400Y-1175500D01*
X1421999Y-1175500D01*
X1427500Y-1173600D01*
X1431099Y-1168200D01*
X1432899Y-1159099D01*
X1432899Y-1153600D01*
X1431099Y-1144600D01*
X1427500Y-1139099D01*
X1421999Y-1137300D01*
X1418400Y-1137300D01*
X1477600Y-1130000D02*
G01*
X1444899Y-1188200D01*
X1489600Y-1137300D02*
G01*
X1489600Y-1175500D01*
X1489600Y-1137300D02*
G01*
X1506000Y-1137300D01*
X1511499Y-1139099D01*
X1513299Y-1140900D01*
X1515100Y-1144600D01*
X1515100Y-1148200D01*
X1513299Y-1151799D01*
X1511499Y-1153600D01*
X1506000Y-1155500D01*
X1489600Y-1155500D01*
X1502399Y-1155500D02*
G01*
X1515100Y-1175500D01*
X1527100Y-1137300D02*
G01*
X1552500Y-1175500D01*
X1552500Y-1137300D02*
G01*
X1527100Y-1175500D01*
X1380900Y-1230000D02*
G01*
X1380900Y-1268200D01*
X1380900Y-1230000D02*
G01*
X1397299Y-1230000D01*
X1402700Y-1231799D01*
X1404499Y-1233600D01*
X1406400Y-1237300D01*
X1406400Y-1240900D01*
X1404499Y-1244499D01*
X1402700Y-1246300D01*
X1397299Y-1248200D01*
X1380900Y-1248200D01*
X1393599Y-1248200D02*
G01*
X1406400Y-1268200D01*
X1418400Y-1230000D02*
G01*
X1418400Y-1268200D01*
X1418400Y-1230000D02*
G01*
X1441999Y-1230000D01*
X1418400Y-1248200D02*
G01*
X1432899Y-1248200D01*
X1418400Y-1268200D02*
G01*
X1441999Y-1268200D01*
X1479399Y-1235399D02*
G01*
X1475799Y-1231799D01*
X1470399Y-1230000D01*
X1463100Y-1230000D01*
X1457600Y-1231799D01*
X1453999Y-1235399D01*
X1453999Y-1239099D01*
X1455799Y-1242699D01*
X1457600Y-1244499D01*
X1461300Y-1246300D01*
X1472200Y-1250000D01*
X1475799Y-1251799D01*
X1477600Y-1253600D01*
X1479399Y-1257300D01*
X1479399Y-1262699D01*
X1475799Y-1266300D01*
X1470399Y-1268200D01*
X1463100Y-1268200D01*
X1457600Y-1266300D01*
X1453999Y-1262699D01*
X1491400Y-1230000D02*
G01*
X1491400Y-1268200D01*
X1491400Y-1230000D02*
G01*
X1515100Y-1230000D01*
X1491400Y-1248200D02*
G01*
X1506000Y-1248200D01*
X1491400Y-1268200D02*
G01*
X1515100Y-1268200D01*
X1539799Y-1230000D02*
G01*
X1539799Y-1268200D01*
X1527100Y-1230000D02*
G01*
X1552500Y-1230000D01*
X1489600Y-1428200D02*
G01*
X1489600Y-1466399D01*
X1489600Y-1428200D02*
G01*
X1502299Y-1428200D01*
X1507799Y-1430000D01*
X1511400Y-1433600D01*
X1513199Y-1437300D01*
X1515100Y-1442699D01*
X1515100Y-1451799D01*
X1513199Y-1457300D01*
X1511400Y-1460900D01*
X1507799Y-1464499D01*
X1502299Y-1466399D01*
X1489600Y-1466399D01*
X1528900Y-1437300D02*
G01*
X1528900Y-1435500D01*
X1530699Y-1431799D01*
X1532500Y-1430000D01*
X1536099Y-1428200D01*
X1543400Y-1428200D01*
X1547100Y-1430000D01*
X1548900Y-1431799D01*
X1550699Y-1435500D01*
X1550699Y-1439099D01*
X1548900Y-1442699D01*
X1545200Y-1448200D01*
X1527100Y-1466399D01*
X1552500Y-1466399D01*
X1489600Y-1528200D02*
G01*
X1489600Y-1566399D01*
X1489600Y-1528200D02*
G01*
X1502299Y-1528200D01*
X1507799Y-1530000D01*
X1511400Y-1533600D01*
X1513199Y-1537300D01*
X1515100Y-1542699D01*
X1515100Y-1551799D01*
X1513199Y-1557300D01*
X1511400Y-1560900D01*
X1507799Y-1564499D01*
X1502299Y-1566399D01*
X1489600Y-1566399D01*
X1530699Y-1528200D02*
G01*
X1550699Y-1528200D01*
X1539799Y-1542699D01*
X1545200Y-1542699D01*
X1548900Y-1544499D01*
X1550699Y-1546399D01*
X1552500Y-1551799D01*
X1552500Y-1555500D01*
X1550699Y-1560900D01*
X1547100Y-1564499D01*
X1541599Y-1566399D01*
X1536099Y-1566399D01*
X1530699Y-1564499D01*
X1528900Y-1562699D01*
X1527100Y-1559099D01*
X1487799Y-1628200D02*
G01*
X1487799Y-1666399D01*
X1487799Y-1628200D02*
G01*
X1500500Y-1628200D01*
X1506000Y-1630000D01*
X1509600Y-1633600D01*
X1511400Y-1637300D01*
X1513299Y-1642699D01*
X1513299Y-1651799D01*
X1511400Y-1657300D01*
X1509600Y-1660900D01*
X1506000Y-1664499D01*
X1500500Y-1666399D01*
X1487799Y-1666399D01*
X1543400Y-1628200D02*
G01*
X1525299Y-1653600D01*
X1552500Y-1653600D01*
X1543400Y-1628200D02*
G01*
X1543400Y-1666399D01*
X1489600Y-1718200D02*
G01*
X1489600Y-1756399D01*
X1489600Y-1718200D02*
G01*
X1502299Y-1718200D01*
X1507799Y-1720000D01*
X1511400Y-1723600D01*
X1513199Y-1727300D01*
X1515100Y-1732699D01*
X1515100Y-1741799D01*
X1513199Y-1747300D01*
X1511400Y-1750900D01*
X1507799Y-1754499D01*
X1502299Y-1756399D01*
X1489600Y-1756399D01*
X1548900Y-1718200D02*
G01*
X1530699Y-1718200D01*
X1528900Y-1734499D01*
X1530699Y-1732699D01*
X1536099Y-1730900D01*
X1541599Y-1730900D01*
X1547100Y-1732699D01*
X1550699Y-1736399D01*
X1552500Y-1741799D01*
X1552500Y-1745500D01*
X1550699Y-1750900D01*
X1547100Y-1754499D01*
X1541599Y-1756399D01*
X1536099Y-1756399D01*
X1530699Y-1754499D01*
X1528900Y-1752699D01*
X1527100Y-1749099D01*
X1491400Y-1818200D02*
G01*
X1491400Y-1856399D01*
X1491400Y-1818200D02*
G01*
X1504099Y-1818200D01*
X1509600Y-1820000D01*
X1513199Y-1823600D01*
X1515000Y-1827300D01*
X1516899Y-1832699D01*
X1516899Y-1841799D01*
X1515000Y-1847300D01*
X1513199Y-1850900D01*
X1509600Y-1854499D01*
X1504099Y-1856399D01*
X1491400Y-1856399D01*
X1550699Y-1823600D02*
G01*
X1548900Y-1820000D01*
X1543400Y-1818200D01*
X1539799Y-1818200D01*
X1534300Y-1820000D01*
X1530699Y-1825500D01*
X1528900Y-1834499D01*
X1528900Y-1843600D01*
X1530699Y-1850900D01*
X1534300Y-1854499D01*
X1539799Y-1856399D01*
X1541599Y-1856399D01*
X1546999Y-1854499D01*
X1550699Y-1850900D01*
X1552500Y-1845500D01*
X1552500Y-1843600D01*
X1550699Y-1838200D01*
X1546999Y-1834499D01*
X1541599Y-1832699D01*
X1539799Y-1832699D01*
X1534300Y-1834499D01*
X1530699Y-1838200D01*
X1528900Y-1843600D01*
X1489600Y-1928200D02*
G01*
X1489600Y-1966399D01*
X1489600Y-1928200D02*
G01*
X1502299Y-1928200D01*
X1507799Y-1930000D01*
X1511400Y-1933600D01*
X1513199Y-1937300D01*
X1515100Y-1942699D01*
X1515100Y-1951799D01*
X1513199Y-1957300D01*
X1511400Y-1960900D01*
X1507799Y-1964499D01*
X1502299Y-1966399D01*
X1489600Y-1966399D01*
X1552500Y-1928200D02*
G01*
X1534300Y-1966399D01*
X1527100Y-1928200D02*
G01*
X1552500Y-1928200D01*
X1489600Y-2018200D02*
G01*
X1489600Y-2056399D01*
X1489600Y-2018200D02*
G01*
X1502299Y-2018200D01*
X1507799Y-2020000D01*
X1511400Y-2023600D01*
X1513199Y-2027300D01*
X1515100Y-2032699D01*
X1515100Y-2041799D01*
X1513199Y-2047300D01*
X1511400Y-2050900D01*
X1507799Y-2054499D01*
X1502299Y-2056399D01*
X1489600Y-2056399D01*
X1536099Y-2018200D02*
G01*
X1530699Y-2020000D01*
X1528900Y-2023600D01*
X1528900Y-2027300D01*
X1530699Y-2030900D01*
X1534300Y-2032699D01*
X1541599Y-2034499D01*
X1547100Y-2036399D01*
X1550699Y-2040000D01*
X1552500Y-2043600D01*
X1552500Y-2049099D01*
X1550699Y-2052699D01*
X1548900Y-2054499D01*
X1543400Y-2056399D01*
X1536099Y-2056399D01*
X1530699Y-2054499D01*
X1528900Y-2052699D01*
X1527100Y-2049099D01*
X1527100Y-2043600D01*
X1528900Y-2040000D01*
X1532500Y-2036399D01*
X1538000Y-2034499D01*
X1545200Y-2032699D01*
X1548900Y-2030900D01*
X1550699Y-2027300D01*
X1550699Y-2023600D01*
X1548900Y-2020000D01*
X1543400Y-2018200D01*
X1536099Y-2018200D01*
X1491400Y-2118200D02*
G01*
X1491400Y-2156399D01*
X1491400Y-2118200D02*
G01*
X1504099Y-2118200D01*
X1509600Y-2120000D01*
X1513199Y-2123600D01*
X1515000Y-2127300D01*
X1516899Y-2132700D01*
X1516899Y-2141799D01*
X1515000Y-2147300D01*
X1513199Y-2150900D01*
X1509600Y-2154499D01*
X1504099Y-2156399D01*
X1491400Y-2156399D01*
X1552500Y-2130900D02*
G01*
X1550699Y-2136399D01*
X1546999Y-2140000D01*
X1541599Y-2141799D01*
X1539799Y-2141799D01*
X1534300Y-2140000D01*
X1530699Y-2136399D01*
X1528900Y-2130900D01*
X1528900Y-2129099D01*
X1530699Y-2123600D01*
X1534300Y-2120000D01*
X1539799Y-2118200D01*
X1541599Y-2118200D01*
X1546999Y-2120000D01*
X1550699Y-2123600D01*
X1552500Y-2130900D01*
X1552500Y-2140000D01*
X1550699Y-2149099D01*
X1546999Y-2154499D01*
X1541599Y-2156399D01*
X1537899Y-2156399D01*
X1532500Y-2154499D01*
X1530699Y-2150900D01*
X1468500Y-2228200D02*
G01*
X1468500Y-2266399D01*
X1468500Y-2228200D02*
G01*
X1481199Y-2228200D01*
X1486700Y-2230000D01*
X1490299Y-2233600D01*
X1492100Y-2237300D01*
X1493999Y-2242700D01*
X1493999Y-2251799D01*
X1492100Y-2257300D01*
X1490299Y-2260900D01*
X1486700Y-2264499D01*
X1481199Y-2266399D01*
X1468500Y-2266399D01*
X1506000Y-2235500D02*
G01*
X1509600Y-2233600D01*
X1515000Y-2228200D01*
X1515000Y-2266399D01*
X1538000Y-2228200D02*
G01*
X1532500Y-2230000D01*
X1528900Y-2235500D01*
X1526999Y-2244499D01*
X1526999Y-2250000D01*
X1528900Y-2259099D01*
X1532500Y-2264499D01*
X1538000Y-2266399D01*
X1541599Y-2266399D01*
X1546999Y-2264499D01*
X1550699Y-2259099D01*
X1552500Y-2250000D01*
X1552500Y-2244499D01*
X1550699Y-2235500D01*
X1546999Y-2230000D01*
X1541599Y-2228200D01*
X1538000Y-2228200D01*
X1308500Y-2318200D02*
G01*
X1308500Y-2356399D01*
X1308500Y-2318200D02*
G01*
X1321199Y-2318200D01*
X1326700Y-2320000D01*
X1330299Y-2323600D01*
X1332100Y-2327300D01*
X1333999Y-2332700D01*
X1333999Y-2341799D01*
X1332100Y-2347300D01*
X1330299Y-2350900D01*
X1326700Y-2354499D01*
X1321199Y-2356399D01*
X1308500Y-2356399D01*
X1346000Y-2325500D02*
G01*
X1349600Y-2323600D01*
X1355000Y-2318200D01*
X1355000Y-2356399D01*
X1366999Y-2325500D02*
G01*
X1370699Y-2323600D01*
X1376099Y-2318200D01*
X1376099Y-2356399D01*
X1420900Y-2310900D02*
G01*
X1388100Y-2369099D01*
X1432899Y-2318200D02*
G01*
X1432899Y-2356399D01*
X1432899Y-2318200D02*
G01*
X1447399Y-2356399D01*
X1461999Y-2318200D02*
G01*
X1447399Y-2356399D01*
X1461999Y-2318200D02*
G01*
X1461999Y-2356399D01*
X1484899Y-2318200D02*
G01*
X1481199Y-2320000D01*
X1477600Y-2323600D01*
X1475799Y-2327300D01*
X1473999Y-2332700D01*
X1473999Y-2341799D01*
X1475799Y-2347300D01*
X1477600Y-2350900D01*
X1481199Y-2354499D01*
X1484899Y-2356399D01*
X1492100Y-2356399D01*
X1495799Y-2354499D01*
X1499399Y-2350900D01*
X1501199Y-2347300D01*
X1503000Y-2341799D01*
X1503000Y-2332700D01*
X1501199Y-2327300D01*
X1499399Y-2323600D01*
X1495799Y-2320000D01*
X1492100Y-2318200D01*
X1484899Y-2318200D01*
X1540500Y-2323600D02*
G01*
X1536899Y-2320000D01*
X1531400Y-2318200D01*
X1524099Y-2318200D01*
X1518699Y-2320000D01*
X1515000Y-2323600D01*
X1515000Y-2327300D01*
X1516899Y-2330900D01*
X1518699Y-2332700D01*
X1522299Y-2334499D01*
X1533199Y-2338200D01*
X1536899Y-2340000D01*
X1538699Y-2341799D01*
X1540500Y-2345500D01*
X1540500Y-2350900D01*
X1536899Y-2354499D01*
X1531400Y-2356399D01*
X1524099Y-2356399D01*
X1518699Y-2354499D01*
X1515000Y-2350900D01*
X1552500Y-2318200D02*
G01*
X1552500Y-2356399D01*
X2363599Y-2338200D02*
G01*
X2383599Y-2338200D01*
X2372700Y-2352700D01*
X2378199Y-2352700D01*
X2381800Y-2354499D01*
X2383599Y-2356399D01*
X2385500Y-2361799D01*
X2385500Y-2365500D01*
X2383599Y-2370900D01*
X2380000Y-2374499D01*
X2374499Y-2376399D01*
X2369099Y-2376399D01*
X2363599Y-2374499D01*
X2361800Y-2372700D01*
X2360000Y-2369099D01*
X2397500Y-2338200D02*
G01*
X2411999Y-2376399D01*
X2426499Y-2338200D02*
G01*
X2411999Y-2376399D01*
X2442200Y-2338200D02*
G01*
X2462200Y-2338200D01*
X2451300Y-2352700D01*
X2456700Y-2352700D01*
X2460399Y-2354499D01*
X2462200Y-2356399D01*
X2463999Y-2361799D01*
X2463999Y-2365500D01*
X2462200Y-2370900D01*
X2458500Y-2374499D01*
X2453100Y-2376399D01*
X2447600Y-2376399D01*
X2442200Y-2374499D01*
X2440399Y-2372700D01*
X2438500Y-2369099D01*
X2374499Y-2228200D02*
G01*
X2360000Y-2266399D01*
X2374499Y-2228200D02*
G01*
X2389099Y-2266399D01*
X2365500Y-2253600D02*
G01*
X2383599Y-2253600D01*
X2401099Y-2228200D02*
G01*
X2401099Y-2266399D01*
X2401099Y-2228200D02*
G01*
X2417500Y-2228200D01*
X2422899Y-2230000D01*
X2424700Y-2231799D01*
X2426499Y-2235500D01*
X2426499Y-2239099D01*
X2424700Y-2242700D01*
X2422899Y-2244499D01*
X2417500Y-2246399D01*
X2401099Y-2246399D01*
X2413800Y-2246399D02*
G01*
X2426499Y-2266399D01*
X2438500Y-2228200D02*
G01*
X2438500Y-2266399D01*
X2438500Y-2228200D02*
G01*
X2462200Y-2228200D01*
X2438500Y-2246399D02*
G01*
X2453100Y-2246399D01*
X2438500Y-2266399D02*
G01*
X2462200Y-2266399D01*
X2474200Y-2228200D02*
G01*
X2474200Y-2266399D01*
X2474200Y-2228200D02*
G01*
X2497799Y-2228200D01*
X2474200Y-2246399D02*
G01*
X2488699Y-2246399D01*
X2374499Y-2138200D02*
G01*
X2360000Y-2176399D01*
X2374499Y-2138200D02*
G01*
X2389099Y-2176399D01*
X2365500Y-2163600D02*
G01*
X2383599Y-2163600D01*
X2411999Y-2138200D02*
G01*
X2406499Y-2140000D01*
X2402899Y-2145500D01*
X2401099Y-2154499D01*
X2401099Y-2160000D01*
X2402899Y-2169099D01*
X2406499Y-2174499D01*
X2411999Y-2176399D01*
X2415600Y-2176399D01*
X2421099Y-2174499D01*
X2424700Y-2169099D01*
X2426499Y-2160000D01*
X2426499Y-2154499D01*
X2424700Y-2145500D01*
X2421099Y-2140000D01*
X2415600Y-2138200D01*
X2411999Y-2138200D01*
X2374499Y-2028200D02*
G01*
X2360000Y-2066399D01*
X2374499Y-2028200D02*
G01*
X2389099Y-2066399D01*
X2365500Y-2053600D02*
G01*
X2383599Y-2053600D01*
X2401099Y-2035500D02*
G01*
X2404700Y-2033600D01*
X2410200Y-2028200D01*
X2410200Y-2066399D01*
X2374499Y-1938200D02*
G01*
X2360000Y-1976399D01*
X2374499Y-1938200D02*
G01*
X2389099Y-1976399D01*
X2365500Y-1963600D02*
G01*
X2383599Y-1963600D01*
X2402899Y-1947300D02*
G01*
X2402899Y-1945500D01*
X2404700Y-1941799D01*
X2406499Y-1940000D01*
X2410200Y-1938200D01*
X2417500Y-1938200D01*
X2421099Y-1940000D01*
X2422899Y-1941799D01*
X2424700Y-1945500D01*
X2424700Y-1949099D01*
X2422899Y-1952699D01*
X2419300Y-1958200D01*
X2401099Y-1976399D01*
X2426499Y-1976399D01*
X2374499Y-1828200D02*
G01*
X2360000Y-1866399D01*
X2374499Y-1828200D02*
G01*
X2389099Y-1866399D01*
X2365500Y-1853600D02*
G01*
X2383599Y-1853600D01*
X2404700Y-1828200D02*
G01*
X2424700Y-1828200D01*
X2413800Y-1842699D01*
X2419300Y-1842699D01*
X2422899Y-1844499D01*
X2424700Y-1846399D01*
X2426499Y-1851799D01*
X2426499Y-1855500D01*
X2424700Y-1860900D01*
X2421099Y-1864499D01*
X2415600Y-1866399D01*
X2410200Y-1866399D01*
X2404700Y-1864499D01*
X2402899Y-1862699D01*
X2401099Y-1859099D01*
X2374499Y-1728200D02*
G01*
X2360000Y-1766399D01*
X2374499Y-1728200D02*
G01*
X2389099Y-1766399D01*
X2365500Y-1753600D02*
G01*
X2383599Y-1753600D01*
X2419300Y-1728200D02*
G01*
X2401099Y-1753600D01*
X2428400Y-1753600D01*
X2419300Y-1728200D02*
G01*
X2419300Y-1766399D01*
X2374499Y-1628200D02*
G01*
X2360000Y-1666399D01*
X2374499Y-1628200D02*
G01*
X2389099Y-1666399D01*
X2365500Y-1653600D02*
G01*
X2383599Y-1653600D01*
X2422899Y-1628200D02*
G01*
X2404700Y-1628200D01*
X2402899Y-1644499D01*
X2404700Y-1642699D01*
X2410200Y-1640900D01*
X2415600Y-1640900D01*
X2421099Y-1642699D01*
X2424700Y-1646399D01*
X2426499Y-1651799D01*
X2426499Y-1655500D01*
X2424700Y-1660900D01*
X2421099Y-1664499D01*
X2415600Y-1666399D01*
X2410200Y-1666399D01*
X2404700Y-1664499D01*
X2402899Y-1662699D01*
X2401099Y-1659099D01*
X2374499Y-1538200D02*
G01*
X2360000Y-1576399D01*
X2374499Y-1538200D02*
G01*
X2389099Y-1576399D01*
X2365500Y-1563600D02*
G01*
X2383599Y-1563600D01*
X2422899Y-1543600D02*
G01*
X2421099Y-1540000D01*
X2415600Y-1538200D01*
X2411999Y-1538200D01*
X2406499Y-1540000D01*
X2402899Y-1545500D01*
X2401099Y-1554499D01*
X2401099Y-1563600D01*
X2402899Y-1570900D01*
X2406499Y-1574499D01*
X2411999Y-1576399D01*
X2413800Y-1576399D01*
X2419300Y-1574499D01*
X2422899Y-1570900D01*
X2424700Y-1565500D01*
X2424700Y-1563600D01*
X2422899Y-1558200D01*
X2419300Y-1554499D01*
X2413800Y-1552699D01*
X2411999Y-1552699D01*
X2406499Y-1554499D01*
X2402899Y-1558200D01*
X2401099Y-1563600D01*
X2374499Y-1428200D02*
G01*
X2360000Y-1466399D01*
X2374499Y-1428200D02*
G01*
X2389099Y-1466399D01*
X2365500Y-1453600D02*
G01*
X2383599Y-1453600D01*
X2426499Y-1428200D02*
G01*
X2408400Y-1466399D01*
X2401099Y-1428200D02*
G01*
X2426499Y-1428200D01*
X2020000Y-1239998D02*
G01*
X2020000Y-1278198D01*
X2020000Y-1239998D02*
G01*
X2036400Y-1239998D01*
X2041800Y-1241799D01*
X2043599Y-1243598D01*
X2045500Y-1247298D01*
X2045500Y-1250898D01*
X2043599Y-1254499D01*
X2041800Y-1256298D01*
X2036400Y-1258198D01*
X2020000Y-1258198D01*
X2032700Y-1258198D02*
G01*
X2045500Y-1278198D01*
X2057500Y-1239998D02*
G01*
X2057500Y-1278198D01*
X2057500Y-1239998D02*
G01*
X2081099Y-1239998D01*
X2057500Y-1258198D02*
G01*
X2071999Y-1258198D01*
X2057500Y-1278198D02*
G01*
X2081099Y-1278198D01*
X2118500Y-1245399D02*
G01*
X2114899Y-1241799D01*
X2109499Y-1239998D01*
X2102200Y-1239998D01*
X2096700Y-1241799D01*
X2093100Y-1245399D01*
X2093100Y-1249099D01*
X2094899Y-1252698D01*
X2096700Y-1254499D01*
X2100399Y-1256298D01*
X2111300Y-1259998D01*
X2114899Y-1261799D01*
X2116700Y-1263598D01*
X2118500Y-1267298D01*
X2118500Y-1272698D01*
X2114899Y-1276298D01*
X2109499Y-1278198D01*
X2102200Y-1278198D01*
X2096700Y-1276298D01*
X2093100Y-1272698D01*
X2130500Y-1239998D02*
G01*
X2130500Y-1278198D01*
X2130500Y-1239998D02*
G01*
X2154200Y-1239998D01*
X2130500Y-1258198D02*
G01*
X2145100Y-1258198D01*
X2130500Y-1278198D02*
G01*
X2154200Y-1278198D01*
X2178900Y-1239998D02*
G01*
X2178900Y-1278198D01*
X2166199Y-1239998D02*
G01*
X2191599Y-1239998D01*
D12*
X2940000Y-2371100D02*
G01*
X2940000Y-2401799D01*
X2941999Y-2408000D01*
X2946099Y-2412100D01*
X2952299Y-2414099D01*
X2956400Y-2414099D01*
X2962500Y-2412100D01*
X2966599Y-2408000D01*
X2968599Y-2401799D01*
X2968599Y-2371100D01*
X2986199Y-2371100D02*
G01*
X3008699Y-2371100D01*
X2996499Y-2387500D01*
X3002600Y-2387500D01*
X3006700Y-2389600D01*
X3008699Y-2391599D01*
X3010799Y-2397700D01*
X3010799Y-2401799D01*
X3008699Y-2408000D01*
X3004600Y-2412100D01*
X2998500Y-2414099D01*
X2992399Y-2414099D01*
X2986199Y-2412100D01*
X2984200Y-2410000D01*
X2982100Y-2405900D01*
D10*
X2727299Y-3109099D02*
G01*
X2725500Y-3105399D01*
X2721800Y-3101799D01*
X2718199Y-3099998D01*
X2710900Y-3099998D01*
X2707299Y-3101799D01*
X2703599Y-3105399D01*
X2701800Y-3109099D01*
X2700000Y-3114499D01*
X2700000Y-3123598D01*
X2701800Y-3129099D01*
X2703599Y-3132698D01*
X2707299Y-3136298D01*
X2710900Y-3138198D01*
X2718199Y-3138198D01*
X2721800Y-3136298D01*
X2725500Y-3132698D01*
X2727299Y-3129099D01*
X2727299Y-3123598D01*
X2718199Y-3123598D02*
G01*
X2727299Y-3123598D01*
X2739300Y-3099998D02*
G01*
X2739300Y-3138198D01*
X2739300Y-3099998D02*
G01*
X2764700Y-3138198D01*
X2764700Y-3099998D02*
G01*
X2764700Y-3138198D01*
X2776700Y-3099998D02*
G01*
X2776700Y-3138198D01*
X2776700Y-3099998D02*
G01*
X2789499Y-3099998D01*
X2794899Y-3101799D01*
X2798500Y-3105399D01*
X2800399Y-3109099D01*
X2802200Y-3114499D01*
X2802200Y-3123598D01*
X2800399Y-3129099D01*
X2798500Y-3132698D01*
X2794899Y-3136298D01*
X2789499Y-3138198D01*
X2776700Y-3138198D01*
X2855500Y-3105399D02*
G01*
X2851800Y-3101799D01*
X2846400Y-3099998D01*
X2839099Y-3099998D01*
X2833599Y-3101799D01*
X2830000Y-3105399D01*
X2830000Y-3109099D01*
X2831800Y-3112698D01*
X2833599Y-3114499D01*
X2837299Y-3116298D01*
X2848199Y-3119998D01*
X2851800Y-3121799D01*
X2853599Y-3123598D01*
X2855500Y-3127298D01*
X2855500Y-3132698D01*
X2851800Y-3136298D01*
X2846400Y-3138198D01*
X2839099Y-3138198D01*
X2833599Y-3136298D01*
X2830000Y-3132698D01*
X2867500Y-3107298D02*
G01*
X2871099Y-3105399D01*
X2876499Y-3099998D01*
X2876499Y-3138198D01*
X2945500Y-3105399D02*
G01*
X2941800Y-3101799D01*
X2936400Y-3099998D01*
X2929099Y-3099998D01*
X2923599Y-3101799D01*
X2920000Y-3105399D01*
X2920000Y-3109099D01*
X2921800Y-3112698D01*
X2923599Y-3114499D01*
X2927299Y-3116298D01*
X2938199Y-3119998D01*
X2941800Y-3121799D01*
X2943599Y-3123598D01*
X2945500Y-3127298D01*
X2945500Y-3132698D01*
X2941800Y-3136298D01*
X2936400Y-3138198D01*
X2929099Y-3138198D01*
X2923599Y-3136298D01*
X2920000Y-3132698D01*
X2959300Y-3109099D02*
G01*
X2959300Y-3107298D01*
X2961099Y-3103598D01*
X2962899Y-3101799D01*
X2966499Y-3099998D01*
X2973800Y-3099998D01*
X2977500Y-3101799D01*
X2979300Y-3103598D01*
X2981099Y-3107298D01*
X2981099Y-3110898D01*
X2979300Y-3114499D01*
X2975600Y-3119998D01*
X2957500Y-3138198D01*
X2982899Y-3138198D01*
X3010000Y-3099998D02*
G01*
X3010000Y-3138198D01*
X3035500Y-3099998D02*
G01*
X3010000Y-3125399D01*
X3019099Y-3116298D02*
G01*
X3035500Y-3138198D01*
X3047500Y-3123598D02*
G01*
X3069300Y-3123598D01*
X3069300Y-3119998D01*
X3067500Y-3116298D01*
X3065600Y-3114499D01*
X3061999Y-3112698D01*
X3056499Y-3112698D01*
X3052899Y-3114499D01*
X3049300Y-3118198D01*
X3047500Y-3123598D01*
X3047500Y-3127298D01*
X3049300Y-3132698D01*
X3052899Y-3136298D01*
X3056499Y-3138198D01*
X3061999Y-3138198D01*
X3065600Y-3136298D01*
X3069300Y-3132698D01*
X3083100Y-3112698D02*
G01*
X3093999Y-3138198D01*
X3104899Y-3112698D02*
G01*
X3093999Y-3138198D01*
X3090399Y-3145399D01*
X3086700Y-3149099D01*
X3083100Y-3150898D01*
X3081300Y-3150898D01*
X3151800Y-3099998D02*
G01*
X3133599Y-3099998D01*
X3131800Y-3116298D01*
X3133599Y-3114499D01*
X3139099Y-3112698D01*
X3144499Y-3112698D01*
X3150000Y-3114499D01*
X3153599Y-3118198D01*
X3155500Y-3123598D01*
X3155500Y-3127298D01*
X3153599Y-3132698D01*
X3150000Y-3136298D01*
X3144499Y-3138198D01*
X3139099Y-3138198D01*
X3133599Y-3136298D01*
X3131800Y-3134499D01*
X3130000Y-3130898D01*
X3167500Y-3099998D02*
G01*
X3181999Y-3138198D01*
X3196499Y-3099998D02*
G01*
X3181999Y-3138198D01*
D12*
X399998Y-2450000D02*
G01*
X399998Y-2492899D01*
X399998Y-2450000D02*
G01*
X418398Y-2450000D01*
X424499Y-2451999D01*
X426599Y-2454000D01*
X428598Y-2458099D01*
X428598Y-2462199D01*
X426599Y-2466300D01*
X424499Y-2468400D01*
X418398Y-2470399D01*
X399998Y-2470399D01*
X414299Y-2470399D02*
G01*
X428598Y-2492899D01*
X442098Y-2450000D02*
G01*
X442098Y-2492899D01*
X442098Y-2450000D02*
G01*
X468699Y-2450000D01*
X442098Y-2470399D02*
G01*
X458499Y-2470399D01*
X442098Y-2492899D02*
G01*
X468699Y-2492899D01*
X482199Y-2450000D02*
G01*
X482199Y-2492899D01*
X482199Y-2492899D02*
G01*
X506799Y-2492899D01*
X520299Y-2458099D02*
G01*
X524398Y-2456100D01*
X530498Y-2450000D01*
X530498Y-2492899D01*
X401100Y-2600000D02*
G01*
X401100Y-2642899D01*
X401100Y-2600000D02*
G01*
X419501Y-2600000D01*
X425601Y-2601999D01*
X427701Y-2604000D01*
X429701Y-2608099D01*
X429701Y-2612199D01*
X427701Y-2616300D01*
X425601Y-2618400D01*
X419501Y-2620399D01*
X401100Y-2620399D01*
X415401Y-2620399D02*
G01*
X429701Y-2642899D01*
X443200Y-2600000D02*
G01*
X443200Y-2642899D01*
X443200Y-2600000D02*
G01*
X469801Y-2600000D01*
X443200Y-2620399D02*
G01*
X459600Y-2620399D01*
X443200Y-2642899D02*
G01*
X469801Y-2642899D01*
X483301Y-2600000D02*
G01*
X483301Y-2642899D01*
X483301Y-2642899D02*
G01*
X507901Y-2642899D01*
X523400Y-2610200D02*
G01*
X523400Y-2608099D01*
X525500Y-2604000D01*
X527501Y-2601999D01*
X531601Y-2600000D01*
X539801Y-2600000D01*
X543901Y-2601999D01*
X545900Y-2604000D01*
X548000Y-2608099D01*
X548000Y-2612199D01*
X545900Y-2616300D01*
X541801Y-2622500D01*
X521401Y-2642899D01*
X550001Y-2642899D01*
X401100Y-2750000D02*
G01*
X401100Y-2792899D01*
X401100Y-2750000D02*
G01*
X419501Y-2750000D01*
X425601Y-2751999D01*
X427701Y-2754000D01*
X429701Y-2758099D01*
X429701Y-2762199D01*
X427701Y-2766300D01*
X425601Y-2768400D01*
X419501Y-2770399D01*
X401100Y-2770399D01*
X415401Y-2770399D02*
G01*
X429701Y-2792899D01*
X443200Y-2750000D02*
G01*
X443200Y-2792899D01*
X443200Y-2750000D02*
G01*
X469801Y-2750000D01*
X443200Y-2770399D02*
G01*
X459600Y-2770399D01*
X443200Y-2792899D02*
G01*
X469801Y-2792899D01*
X483301Y-2750000D02*
G01*
X483301Y-2792899D01*
X483301Y-2792899D02*
G01*
X507901Y-2792899D01*
X525500Y-2750000D02*
G01*
X548000Y-2750000D01*
X535700Y-2766300D01*
X541801Y-2766300D01*
X545900Y-2768400D01*
X548000Y-2770399D01*
X550001Y-2776500D01*
X550001Y-2780599D01*
X548000Y-2786799D01*
X543901Y-2790900D01*
X537701Y-2792899D01*
X531601Y-2792899D01*
X525500Y-2790900D01*
X523400Y-2788800D01*
X521401Y-2784699D01*
X398998Y-2900000D02*
G01*
X398998Y-2942899D01*
X398998Y-2900000D02*
G01*
X417399Y-2900000D01*
X423499Y-2901999D01*
X425599Y-2904000D01*
X427599Y-2908099D01*
X427599Y-2912199D01*
X425599Y-2916300D01*
X423499Y-2918400D01*
X417399Y-2920399D01*
X398998Y-2920399D01*
X413299Y-2920399D02*
G01*
X427599Y-2942899D01*
X441098Y-2900000D02*
G01*
X441098Y-2942899D01*
X441098Y-2900000D02*
G01*
X467698Y-2900000D01*
X441098Y-2920399D02*
G01*
X457498Y-2920399D01*
X441098Y-2942899D02*
G01*
X467698Y-2942899D01*
X481199Y-2900000D02*
G01*
X481199Y-2942899D01*
X481199Y-2942899D02*
G01*
X505799Y-2942899D01*
X539699Y-2900000D02*
G01*
X519299Y-2928600D01*
X549998Y-2928600D01*
X539699Y-2900000D02*
G01*
X539699Y-2942899D01*
X401100Y-3050000D02*
G01*
X401100Y-3092899D01*
X401100Y-3050000D02*
G01*
X419501Y-3050000D01*
X425601Y-3051999D01*
X427701Y-3054000D01*
X429701Y-3058099D01*
X429701Y-3062199D01*
X427701Y-3066300D01*
X425601Y-3068400D01*
X419501Y-3070399D01*
X401100Y-3070399D01*
X415401Y-3070399D02*
G01*
X429701Y-3092899D01*
X443200Y-3050000D02*
G01*
X443200Y-3092899D01*
X443200Y-3050000D02*
G01*
X469801Y-3050000D01*
X443200Y-3070399D02*
G01*
X459600Y-3070399D01*
X443200Y-3092899D02*
G01*
X469801Y-3092899D01*
X483301Y-3050000D02*
G01*
X483301Y-3092899D01*
X483301Y-3092899D02*
G01*
X507901Y-3092899D01*
X545900Y-3050000D02*
G01*
X525500Y-3050000D01*
X523400Y-3068400D01*
X525500Y-3066300D01*
X531601Y-3064299D01*
X537701Y-3064299D01*
X543901Y-3066300D01*
X548000Y-3070399D01*
X550001Y-3076500D01*
X550001Y-3080599D01*
X548000Y-3086799D01*
X543901Y-3090900D01*
X537701Y-3092899D01*
X531601Y-3092899D01*
X525500Y-3090900D01*
X523400Y-3088800D01*
X521401Y-3084699D01*
X403099Y-3200000D02*
G01*
X403099Y-3242899D01*
X403099Y-3200000D02*
G01*
X421500Y-3200000D01*
X427600Y-3201999D01*
X429699Y-3204000D01*
X431700Y-3208099D01*
X431700Y-3212199D01*
X429699Y-3216300D01*
X427600Y-3218400D01*
X421500Y-3220399D01*
X403099Y-3220399D01*
X417399Y-3220399D02*
G01*
X431700Y-3242899D01*
X445199Y-3200000D02*
G01*
X445199Y-3242899D01*
X445199Y-3200000D02*
G01*
X471799Y-3200000D01*
X445199Y-3220399D02*
G01*
X461599Y-3220399D01*
X445199Y-3242899D02*
G01*
X471799Y-3242899D01*
X485300Y-3200000D02*
G01*
X485300Y-3242899D01*
X485300Y-3242899D02*
G01*
X509899Y-3242899D01*
X547899Y-3206100D02*
G01*
X545900Y-3201999D01*
X539699Y-3200000D01*
X535599Y-3200000D01*
X529499Y-3201999D01*
X525399Y-3208099D01*
X523400Y-3218400D01*
X523400Y-3228600D01*
X525399Y-3236799D01*
X529499Y-3240900D01*
X535599Y-3242899D01*
X537699Y-3242899D01*
X543800Y-3240900D01*
X547899Y-3236799D01*
X550000Y-3230599D01*
X550000Y-3228600D01*
X547899Y-3222500D01*
X543800Y-3218400D01*
X537699Y-3216300D01*
X535599Y-3216300D01*
X529499Y-3218400D01*
X525399Y-3222500D01*
X523400Y-3228600D01*
X3428599Y-3226100D02*
G01*
X3424499Y-3222001D01*
X3418400Y-3220001D01*
X3410200Y-3220001D01*
X3404099Y-3222001D01*
X3400000Y-3226100D01*
X3400000Y-3230201D01*
X3401999Y-3234301D01*
X3404099Y-3236300D01*
X3408199Y-3238400D01*
X3420500Y-3242501D01*
X3424499Y-3244501D01*
X3426599Y-3246500D01*
X3428599Y-3250601D01*
X3428599Y-3256801D01*
X3424499Y-3260900D01*
X3418400Y-3262901D01*
X3410200Y-3262901D01*
X3404099Y-3260900D01*
X3400000Y-3256801D01*
X3442100Y-3220001D02*
G01*
X3442100Y-3262901D01*
X3442100Y-3220001D02*
G01*
X3468699Y-3220001D01*
X3442100Y-3240401D02*
G01*
X3458500Y-3240401D01*
X3442100Y-3262901D02*
G01*
X3468699Y-3262901D01*
X3482200Y-3220001D02*
G01*
X3482200Y-3262901D01*
X3482200Y-3220001D02*
G01*
X3500600Y-3220001D01*
X3506800Y-3222001D01*
X3508800Y-3224000D01*
X3510900Y-3228101D01*
X3510900Y-3232201D01*
X3508800Y-3236300D01*
X3506800Y-3238400D01*
X3500600Y-3240401D01*
X3482200Y-3240401D01*
X3496499Y-3240401D02*
G01*
X3510900Y-3262901D01*
X3524399Y-3220001D02*
G01*
X3540699Y-3262901D01*
X3557100Y-3220001D02*
G01*
X3540699Y-3262901D01*
X3570600Y-3228101D02*
G01*
X3574700Y-3226100D01*
X3580799Y-3220001D01*
X3580799Y-3262901D01*
X3418599Y-3086100D02*
G01*
X3414499Y-3082001D01*
X3408400Y-3080001D01*
X3400200Y-3080001D01*
X3394099Y-3082001D01*
X3390000Y-3086100D01*
X3390000Y-3090201D01*
X3391999Y-3094301D01*
X3394099Y-3096300D01*
X3398199Y-3098400D01*
X3410500Y-3102501D01*
X3414499Y-3104501D01*
X3416599Y-3106500D01*
X3418599Y-3110601D01*
X3418599Y-3116801D01*
X3414499Y-3120900D01*
X3408400Y-3122901D01*
X3400200Y-3122901D01*
X3394099Y-3120900D01*
X3390000Y-3116801D01*
X3432100Y-3080001D02*
G01*
X3432100Y-3122901D01*
X3432100Y-3080001D02*
G01*
X3458699Y-3080001D01*
X3432100Y-3100401D02*
G01*
X3448500Y-3100401D01*
X3432100Y-3122901D02*
G01*
X3458699Y-3122901D01*
X3472200Y-3080001D02*
G01*
X3472200Y-3122901D01*
X3472200Y-3080001D02*
G01*
X3490600Y-3080001D01*
X3496800Y-3082001D01*
X3498800Y-3084000D01*
X3500900Y-3088101D01*
X3500900Y-3092201D01*
X3498800Y-3096300D01*
X3496800Y-3098400D01*
X3490600Y-3100401D01*
X3472200Y-3100401D01*
X3486499Y-3100401D02*
G01*
X3500900Y-3122901D01*
X3514399Y-3080001D02*
G01*
X3530699Y-3122901D01*
X3547100Y-3080001D02*
G01*
X3530699Y-3122901D01*
X3562600Y-3090201D02*
G01*
X3562600Y-3088101D01*
X3564700Y-3084000D01*
X3566700Y-3082001D01*
X3570799Y-3080001D01*
X3578999Y-3080001D01*
X3583100Y-3082001D01*
X3585100Y-3084000D01*
X3587200Y-3088101D01*
X3587200Y-3092201D01*
X3585100Y-3096300D01*
X3581000Y-3102501D01*
X3560600Y-3122901D01*
X3589200Y-3122901D01*
X400000Y-3360000D02*
G01*
X400000Y-3402899D01*
X400000Y-3360000D02*
G01*
X418400Y-3360000D01*
X424499Y-3361999D01*
X426599Y-3364000D01*
X428600Y-3368099D01*
X428600Y-3372199D01*
X426599Y-3376300D01*
X424499Y-3378400D01*
X418400Y-3380399D01*
X400000Y-3380399D01*
X414299Y-3380399D02*
G01*
X428600Y-3402899D01*
X442100Y-3360000D02*
G01*
X442100Y-3402899D01*
X442100Y-3360000D02*
G01*
X468699Y-3360000D01*
X442100Y-3380399D02*
G01*
X458499Y-3380399D01*
X442100Y-3402899D02*
G01*
X468699Y-3402899D01*
X482199Y-3360000D02*
G01*
X482199Y-3402899D01*
X482199Y-3402899D02*
G01*
X506799Y-3402899D01*
X548899Y-3360000D02*
G01*
X528499Y-3402899D01*
X520300Y-3360000D02*
G01*
X548899Y-3360000D01*
X3428599Y-2866100D02*
G01*
X3424499Y-2861999D01*
X3418400Y-2860000D01*
X3410200Y-2860000D01*
X3404099Y-2861999D01*
X3400000Y-2866100D01*
X3400000Y-2870200D01*
X3401999Y-2874299D01*
X3404099Y-2876300D01*
X3408199Y-2878400D01*
X3420500Y-2882500D01*
X3424499Y-2884499D01*
X3426599Y-2886500D01*
X3428599Y-2890599D01*
X3428599Y-2896799D01*
X3424499Y-2900900D01*
X3418400Y-2902899D01*
X3410200Y-2902899D01*
X3404099Y-2900900D01*
X3400000Y-2896799D01*
X3442100Y-2860000D02*
G01*
X3442100Y-2902899D01*
X3442100Y-2860000D02*
G01*
X3468699Y-2860000D01*
X3442100Y-2880399D02*
G01*
X3458500Y-2880399D01*
X3442100Y-2902899D02*
G01*
X3468699Y-2902899D01*
X3482200Y-2860000D02*
G01*
X3482200Y-2902899D01*
X3482200Y-2860000D02*
G01*
X3510900Y-2902899D01*
X3510900Y-2860000D02*
G01*
X3510900Y-2902899D01*
X3553000Y-2866100D02*
G01*
X3548900Y-2861999D01*
X3542799Y-2860000D01*
X3534600Y-2860000D01*
X3528500Y-2861999D01*
X3524399Y-2866100D01*
X3524399Y-2870200D01*
X3526400Y-2874299D01*
X3528500Y-2876300D01*
X3532500Y-2878400D01*
X3544799Y-2882500D01*
X3548900Y-2884499D01*
X3551000Y-2886500D01*
X3553000Y-2890599D01*
X3553000Y-2896799D01*
X3548900Y-2900900D01*
X3542799Y-2902899D01*
X3534600Y-2902899D01*
X3528500Y-2900900D01*
X3524399Y-2896799D01*
X3566499Y-2868099D02*
G01*
X3570600Y-2866100D01*
X3576700Y-2860000D01*
X3576700Y-2902899D01*
X3408599Y-2706100D02*
G01*
X3404499Y-2701999D01*
X3398400Y-2700000D01*
X3390200Y-2700000D01*
X3384099Y-2701999D01*
X3380000Y-2706100D01*
X3380000Y-2710200D01*
X3381999Y-2714299D01*
X3384099Y-2716300D01*
X3388199Y-2718400D01*
X3400500Y-2722500D01*
X3404499Y-2724499D01*
X3406599Y-2726500D01*
X3408599Y-2730599D01*
X3408599Y-2736799D01*
X3404499Y-2740900D01*
X3398400Y-2742899D01*
X3390200Y-2742899D01*
X3384099Y-2740900D01*
X3380000Y-2736799D01*
X3422100Y-2700000D02*
G01*
X3422100Y-2742899D01*
X3422100Y-2700000D02*
G01*
X3448699Y-2700000D01*
X3422100Y-2720399D02*
G01*
X3438500Y-2720399D01*
X3422100Y-2742899D02*
G01*
X3448699Y-2742899D01*
X3462200Y-2700000D02*
G01*
X3462200Y-2742899D01*
X3462200Y-2700000D02*
G01*
X3490900Y-2742899D01*
X3490900Y-2700000D02*
G01*
X3490900Y-2742899D01*
X3533000Y-2706100D02*
G01*
X3528900Y-2701999D01*
X3522799Y-2700000D01*
X3514600Y-2700000D01*
X3508500Y-2701999D01*
X3504399Y-2706100D01*
X3504399Y-2710200D01*
X3506400Y-2714299D01*
X3508500Y-2716300D01*
X3512500Y-2718400D01*
X3524799Y-2722500D01*
X3528900Y-2724499D01*
X3531000Y-2726500D01*
X3533000Y-2730599D01*
X3533000Y-2736799D01*
X3528900Y-2740900D01*
X3522799Y-2742899D01*
X3514600Y-2742899D01*
X3508500Y-2740900D01*
X3504399Y-2736799D01*
X3548500Y-2710200D02*
G01*
X3548500Y-2708099D01*
X3550600Y-2704000D01*
X3552600Y-2701999D01*
X3556700Y-2700000D01*
X3564899Y-2700000D01*
X3568999Y-2701999D01*
X3571000Y-2704000D01*
X3573100Y-2708099D01*
X3573100Y-2712199D01*
X3571000Y-2716300D01*
X3566999Y-2722500D01*
X3546499Y-2742899D01*
X3575100Y-2742899D01*
X3408599Y-2566100D02*
G01*
X3404499Y-2561999D01*
X3398400Y-2560000D01*
X3390200Y-2560000D01*
X3384099Y-2561999D01*
X3380000Y-2566100D01*
X3380000Y-2570200D01*
X3381999Y-2574299D01*
X3384099Y-2576300D01*
X3388199Y-2578400D01*
X3400500Y-2582500D01*
X3404499Y-2584499D01*
X3406599Y-2586500D01*
X3408599Y-2590599D01*
X3408599Y-2596799D01*
X3404499Y-2600900D01*
X3398400Y-2602899D01*
X3390200Y-2602899D01*
X3384099Y-2600900D01*
X3380000Y-2596799D01*
X3422100Y-2560000D02*
G01*
X3422100Y-2602899D01*
X3422100Y-2560000D02*
G01*
X3448699Y-2560000D01*
X3422100Y-2580399D02*
G01*
X3438500Y-2580399D01*
X3422100Y-2602899D02*
G01*
X3448699Y-2602899D01*
X3462200Y-2560000D02*
G01*
X3462200Y-2602899D01*
X3462200Y-2560000D02*
G01*
X3490900Y-2602899D01*
X3490900Y-2560000D02*
G01*
X3490900Y-2602899D01*
X3533000Y-2566100D02*
G01*
X3528900Y-2561999D01*
X3522799Y-2560000D01*
X3514600Y-2560000D01*
X3508500Y-2561999D01*
X3504399Y-2566100D01*
X3504399Y-2570200D01*
X3506400Y-2574299D01*
X3508500Y-2576300D01*
X3512500Y-2578400D01*
X3524799Y-2582500D01*
X3528900Y-2584499D01*
X3531000Y-2586500D01*
X3533000Y-2590599D01*
X3533000Y-2596799D01*
X3528900Y-2600900D01*
X3522799Y-2602899D01*
X3514600Y-2602899D01*
X3508500Y-2600900D01*
X3504399Y-2596799D01*
X3550600Y-2560000D02*
G01*
X3573100Y-2560000D01*
X3560799Y-2576300D01*
X3566999Y-2576300D01*
X3571000Y-2578400D01*
X3573100Y-2580399D01*
X3575100Y-2586500D01*
X3575100Y-2590599D01*
X3573100Y-2596799D01*
X3568999Y-2600900D01*
X3562899Y-2602899D01*
X3556700Y-2602899D01*
X3550600Y-2600900D01*
X3548500Y-2598800D01*
X3546499Y-2594699D01*
X3408599Y-2461599D02*
G01*
X3404499Y-2457500D01*
X3398400Y-2455500D01*
X3390200Y-2455500D01*
X3384099Y-2457500D01*
X3380000Y-2461599D01*
X3380000Y-2465700D01*
X3381999Y-2469800D01*
X3384099Y-2471799D01*
X3388199Y-2473899D01*
X3400500Y-2478000D01*
X3404499Y-2480000D01*
X3406599Y-2481999D01*
X3408599Y-2486100D01*
X3408599Y-2492300D01*
X3404499Y-2496399D01*
X3398400Y-2498400D01*
X3390200Y-2498400D01*
X3384099Y-2496399D01*
X3380000Y-2492300D01*
X3422100Y-2455500D02*
G01*
X3422100Y-2498400D01*
X3422100Y-2455500D02*
G01*
X3448699Y-2455500D01*
X3422100Y-2475900D02*
G01*
X3438500Y-2475900D01*
X3422100Y-2498400D02*
G01*
X3448699Y-2498400D01*
X3462200Y-2455500D02*
G01*
X3462200Y-2498400D01*
X3462200Y-2455500D02*
G01*
X3490900Y-2498400D01*
X3490900Y-2455500D02*
G01*
X3490900Y-2498400D01*
X3533000Y-2461599D02*
G01*
X3528900Y-2457500D01*
X3522799Y-2455500D01*
X3514600Y-2455500D01*
X3508500Y-2457500D01*
X3504399Y-2461599D01*
X3504399Y-2465700D01*
X3506400Y-2469800D01*
X3508500Y-2471799D01*
X3512500Y-2473899D01*
X3524799Y-2478000D01*
X3528900Y-2480000D01*
X3531000Y-2481999D01*
X3533000Y-2486100D01*
X3533000Y-2492300D01*
X3528900Y-2496399D01*
X3522799Y-2498400D01*
X3514600Y-2498400D01*
X3508500Y-2496399D01*
X3504399Y-2492300D01*
X3566999Y-2455500D02*
G01*
X3546499Y-2484099D01*
X3577200Y-2484099D01*
X3566999Y-2455500D02*
G01*
X3566999Y-2498400D01*
X1740000Y-3413000D02*
G01*
X1782899Y-3413000D01*
X1740000Y-3413000D02*
G01*
X1740000Y-3386399D01*
X1760399Y-3413000D02*
G01*
X1760399Y-3396599D01*
X1782899Y-3413000D02*
G01*
X1782899Y-3386399D01*
X1740000Y-3372899D02*
G01*
X1782899Y-3372899D01*
X1740000Y-3372899D02*
G01*
X1782899Y-3344299D01*
X1740000Y-3344299D02*
G01*
X1782899Y-3344299D01*
X1740000Y-3330799D02*
G01*
X1782899Y-3330799D01*
X1740000Y-3330799D02*
G01*
X1740000Y-3316500D01*
X1741999Y-3310300D01*
X1746099Y-3306199D01*
X1750200Y-3304200D01*
X1756300Y-3302100D01*
X1766499Y-3302100D01*
X1772700Y-3304200D01*
X1776800Y-3306199D01*
X1780900Y-3310300D01*
X1782899Y-3316500D01*
X1782899Y-3330799D01*
X1750200Y-3286599D02*
G01*
X1748100Y-3286599D01*
X1743999Y-3284499D01*
X1741999Y-3282500D01*
X1740000Y-3278400D01*
X1740000Y-3270200D01*
X1741999Y-3266100D01*
X1743999Y-3264099D01*
X1748100Y-3261999D01*
X1752200Y-3261999D01*
X1756300Y-3264099D01*
X1762500Y-3268200D01*
X1782899Y-3288600D01*
X1782899Y-3260000D01*
X860000Y-3828099D02*
G01*
X864099Y-3826100D01*
X870199Y-3820000D01*
X870199Y-3862899D01*
X885799Y-3830200D02*
G01*
X885799Y-3828099D01*
X887800Y-3824000D01*
X889899Y-3821999D01*
X894000Y-3820000D01*
X902100Y-3820000D01*
X906199Y-3821999D01*
X908299Y-3824000D01*
X910300Y-3828099D01*
X910300Y-3832199D01*
X908299Y-3836300D01*
X904200Y-3842500D01*
X883699Y-3862899D01*
X912399Y-3862899D01*
X925900Y-3820000D02*
G01*
X942199Y-3862899D01*
X958600Y-3820000D02*
G01*
X942199Y-3862899D01*
X972100Y-3877199D02*
G01*
X1008900Y-3877199D01*
X1022399Y-3820000D02*
G01*
X1022399Y-3862899D01*
X1035900Y-3820000D02*
G01*
X1035900Y-3862899D01*
X1035900Y-3820000D02*
G01*
X1064499Y-3862899D01*
X1064499Y-3820000D02*
G01*
X1064499Y-3862899D01*
X1049998Y-3725500D02*
G01*
X1052699Y-3724099D01*
X1056799Y-3720000D01*
X1056799Y-3748699D01*
X1240002Y-3820000D02*
G01*
X1240002Y-3862899D01*
X1240002Y-3820000D02*
G01*
X1256401Y-3862899D01*
X1272701Y-3820000D02*
G01*
X1256401Y-3862899D01*
X1272701Y-3820000D02*
G01*
X1272701Y-3862899D01*
X1298501Y-3820000D02*
G01*
X1294402Y-3821999D01*
X1290302Y-3826100D01*
X1288302Y-3830200D01*
X1286202Y-3836300D01*
X1286202Y-3846500D01*
X1288302Y-3852700D01*
X1290302Y-3856799D01*
X1294402Y-3860900D01*
X1298501Y-3862899D01*
X1306701Y-3862899D01*
X1310802Y-3860900D01*
X1314902Y-3856799D01*
X1316902Y-3852700D01*
X1319002Y-3846500D01*
X1319002Y-3836300D01*
X1316902Y-3830200D01*
X1314902Y-3826100D01*
X1310802Y-3821999D01*
X1306701Y-3820000D01*
X1298501Y-3820000D01*
X1346801Y-3820000D02*
G01*
X1346801Y-3862899D01*
X1332502Y-3820000D02*
G01*
X1361102Y-3820000D01*
X1386902Y-3820000D02*
G01*
X1382802Y-3821999D01*
X1378702Y-3826100D01*
X1376602Y-3830200D01*
X1374602Y-3836300D01*
X1374602Y-3846500D01*
X1376602Y-3852700D01*
X1378702Y-3856799D01*
X1382802Y-3860900D01*
X1386902Y-3862899D01*
X1395002Y-3862899D01*
X1399102Y-3860900D01*
X1403202Y-3856799D01*
X1405302Y-3852700D01*
X1407301Y-3846500D01*
X1407301Y-3836300D01*
X1405302Y-3830200D01*
X1403202Y-3826100D01*
X1399102Y-3821999D01*
X1395002Y-3820000D01*
X1386902Y-3820000D01*
X1420802Y-3820000D02*
G01*
X1420802Y-3862899D01*
X1420802Y-3820000D02*
G01*
X1439201Y-3820000D01*
X1445402Y-3821999D01*
X1447402Y-3824000D01*
X1449502Y-3828099D01*
X1449502Y-3832199D01*
X1447402Y-3836300D01*
X1445402Y-3838400D01*
X1439201Y-3840399D01*
X1420802Y-3840399D01*
X1435101Y-3840399D02*
G01*
X1449502Y-3862899D01*
X1489998Y-3725500D02*
G01*
X1492699Y-3724099D01*
X1496799Y-3720000D01*
X1496799Y-3748699D01*
X3249997Y-3725500D02*
G01*
X3249997Y-3756100D01*
X3251998Y-3762300D01*
X3256098Y-3766399D01*
X3262298Y-3768400D01*
X3266397Y-3768400D01*
X3272497Y-3766399D01*
X3276598Y-3762300D01*
X3278598Y-3756100D01*
X3278598Y-3725500D01*
X3292097Y-3733600D02*
G01*
X3296198Y-3731599D01*
X3302398Y-3725500D01*
X3302398Y-3768400D01*
X3317897Y-3735700D02*
G01*
X3317897Y-3733600D01*
X3319997Y-3729499D01*
X3321998Y-3727500D01*
X3326098Y-3725500D01*
X3334297Y-3725500D01*
X3338397Y-3727500D01*
X3340397Y-3729499D01*
X3342497Y-3733600D01*
X3342497Y-3737700D01*
X3340397Y-3741799D01*
X3336297Y-3748000D01*
X3315897Y-3768400D01*
X3344498Y-3768400D01*
D14*
X3636400Y-3423598D02*
G01*
X3636400Y-3456399D01*
X3620000Y-3439998D02*
G01*
X3652700Y-3439998D01*
X3480000Y-3438198D02*
G01*
X3480000Y-3476399D01*
X3480000Y-3438198D02*
G01*
X3492700Y-3438198D01*
X3498199Y-3439998D01*
X3501800Y-3443598D01*
X3503599Y-3447298D01*
X3505500Y-3452698D01*
X3505500Y-3461799D01*
X3503599Y-3467298D01*
X3501800Y-3470898D01*
X3498199Y-3474499D01*
X3492700Y-3476399D01*
X3480000Y-3476399D01*
X3407299Y-3447298D02*
G01*
X3405500Y-3443598D01*
X3401800Y-3439998D01*
X3398199Y-3438198D01*
X3390900Y-3438198D01*
X3387299Y-3439998D01*
X3383599Y-3443598D01*
X3381800Y-3447298D01*
X3380000Y-3452698D01*
X3380000Y-3461799D01*
X3381800Y-3467298D01*
X3383599Y-3470898D01*
X3387299Y-3474499D01*
X3390900Y-3476399D01*
X3398199Y-3476399D01*
X3401800Y-3474499D01*
X3405500Y-3470898D01*
X3407299Y-3467298D01*
X3280000Y-3438198D02*
G01*
X3280000Y-3476399D01*
X3280000Y-3438198D02*
G01*
X3305500Y-3476399D01*
X3305500Y-3438198D02*
G01*
X3305500Y-3476399D01*
X3344700Y-3447298D02*
G01*
X3342899Y-3443598D01*
X3339300Y-3439998D01*
X3335600Y-3438198D01*
X3328400Y-3438198D01*
X3324700Y-3439998D01*
X3321099Y-3443598D01*
X3319300Y-3447298D01*
X3317500Y-3452698D01*
X3317500Y-3461799D01*
X3319300Y-3467298D01*
X3321099Y-3470898D01*
X3324700Y-3474499D01*
X3328400Y-3476399D01*
X3335600Y-3476399D01*
X3339300Y-3474499D01*
X3342899Y-3470898D01*
X3344700Y-3467298D01*
X3160000Y-3460000D02*
G01*
X3192700Y-3460000D01*
D15*
X1750000Y-1250000D02*
G01*
X1750000Y-1450000D01*
X1850000Y-1450000D01*
X1850000Y-1250000D01*
X1750000Y-1250000D01*
D16*
X40000Y-3500000D02*
G01*
X640000Y-3500000D01*
X2100000Y-1500000D02*
G01*
X2100000Y-1700000D01*
D15*
X375000Y-3500000D02*
G01*
X375000Y-3000000D01*
X650000Y-3000000D01*
X650000Y-3500000D01*
D17*
X200000Y-2000000D02*
G01*
X200000Y-1900000D01*
D15*
X50000Y-1691799D02*
G01*
X50000Y-1941799D01*
X250000Y-1941799D01*
X250000Y-1691799D01*
X50000Y-1691799D01*
D16*
X3250000Y-3500000D02*
G01*
X3600000Y-3500000D01*
D18*
X2880000Y-3400000D02*
G01*
X2880000Y-3700000D01*
X2980000Y-3400000D02*
G01*
X2980000Y-3700000D01*
X3080000Y-3400000D02*
G01*
X3080000Y-3700000D01*
D15*
X205000Y-3574000D02*
G01*
X599000Y-3574000D01*
X599000Y-3574000D02*
G01*
X599000Y-3641999D01*
X599000Y-3641999D02*
G01*
X599000Y-3840999D01*
X599000Y-3840999D02*
G01*
X599000Y-3870000D01*
X599000Y-3870000D02*
G01*
X205000Y-3870000D01*
X205000Y-3870000D02*
G01*
X205000Y-3840999D01*
X205000Y-3840999D02*
G01*
X205000Y-3641999D01*
X205000Y-3641999D02*
G01*
X205000Y-3636999D01*
X205000Y-3636999D02*
G01*
X205000Y-3614000D01*
X205000Y-3614000D02*
G01*
X205000Y-3574000D01*
X205000Y-3614000D02*
G01*
X181999Y-3608000D01*
X181999Y-3608000D02*
G01*
X181999Y-3643000D01*
X181999Y-3643000D02*
G01*
X205000Y-3636999D01*
X205000Y-3641999D02*
G01*
X599000Y-3641999D01*
X205000Y-3840999D02*
G01*
X599000Y-3840999D01*
X1700000Y-3450000D02*
G01*
X1700000Y-3650000D01*
X1600000Y-3650000D01*
X1600000Y-3450000D01*
X1700000Y-3450000D01*
X30000Y-10000D02*
G01*
X3880000Y-10000D01*
X3880000Y-2360000D01*
X30000Y-2360000D01*
X30000Y-10000D01*
X80000Y-410000D02*
G01*
X3830000Y-410000D01*
X3830000Y-1960000D01*
X80000Y-1960000D01*
X80000Y-410000D01*
X330000Y-60000D02*
G01*
X1980000Y-60000D01*
X1980000Y-760000D01*
X330000Y-760000D01*
X330000Y-60000D01*
X1150000Y-3420000D02*
G01*
X1550000Y-3420000D01*
X1550000Y-2720000D01*
X750000Y-2720000D01*
X750000Y-3420000D01*
X1150000Y-3420000D01*
X2248819Y-3333090D02*
G01*
X2780320Y-3333090D01*
X2780320Y-3766160D01*
X2248819Y-3766160D01*
X2248819Y-3333090D01*
X1600000Y-2600000D02*
G01*
X2300000Y-2600000D01*
X2300000Y-2600000D02*
G01*
X2300000Y-900000D01*
X2300000Y-900000D02*
G01*
X1600000Y-900000D01*
X1600000Y-900000D02*
G01*
X1600000Y-2600000D01*
X1800000Y-2450000D02*
G01*
X1800000Y-2750000D01*
X2100000Y-2750000D01*
X2100000Y-2450000D01*
X1800000Y-2450000D01*
X50000Y-2450000D02*
G01*
X350000Y-2450000D01*
X350000Y-2550000D01*
X50000Y-2550000D01*
X50000Y-2450000D01*
X50000Y-2600000D02*
G01*
X350000Y-2600000D01*
X350000Y-2700000D01*
X50000Y-2700000D01*
X50000Y-2600000D01*
X50000Y-2750000D02*
G01*
X350000Y-2750000D01*
X350000Y-2850000D01*
X50000Y-2850000D01*
X50000Y-2750000D01*
X50000Y-2900000D02*
G01*
X350000Y-2900000D01*
X350000Y-3000000D01*
X50000Y-3000000D01*
X50000Y-2900000D01*
X50000Y-3050000D02*
G01*
X350000Y-3050000D01*
X350000Y-3150000D01*
X50000Y-3150000D01*
X50000Y-3050000D01*
X50000Y-3200000D02*
G01*
X350000Y-3200000D01*
X350000Y-3300000D01*
X50000Y-3300000D01*
X50000Y-3200000D01*
X3900000Y-3300000D02*
G01*
X3600000Y-3300000D01*
X3600000Y-3200000D01*
X3900000Y-3200000D01*
X3900000Y-3300000D01*
X3900000Y-3150000D02*
G01*
X3600000Y-3150000D01*
X3600000Y-3050000D01*
X3900000Y-3050000D01*
X3900000Y-3150000D01*
X50000Y-3350000D02*
G01*
X350000Y-3350000D01*
X350000Y-3450000D01*
X50000Y-3450000D01*
X50000Y-3350000D01*
X3900000Y-2950000D02*
G01*
X3600000Y-2950000D01*
X3600000Y-2850000D01*
X3900000Y-2850000D01*
X3900000Y-2950000D01*
X3900000Y-2800000D02*
G01*
X3600000Y-2800000D01*
X3600000Y-2700000D01*
X3900000Y-2700000D01*
X3900000Y-2800000D01*
X3900000Y-2650000D02*
G01*
X3600000Y-2650000D01*
X3600000Y-2550000D01*
X3900000Y-2550000D01*
X3900000Y-2650000D01*
X3900000Y-2500000D02*
G01*
X3600000Y-2500000D01*
X3600000Y-2400000D01*
X3900000Y-2400000D01*
X3900000Y-2500000D01*
X1850000Y-3450000D02*
G01*
X1850000Y-3650000D01*
X1750000Y-3650000D01*
X1750000Y-3450000D01*
X1850000Y-3450000D01*
X705000Y-3454000D02*
G01*
X1098999Y-3454000D01*
X1098999Y-3454000D02*
G01*
X1098999Y-3521999D01*
X1098999Y-3521999D02*
G01*
X1098999Y-3720999D01*
X1098999Y-3720999D02*
G01*
X1098999Y-3750000D01*
X1098999Y-3750000D02*
G01*
X705000Y-3750000D01*
X705000Y-3750000D02*
G01*
X705000Y-3720999D01*
X705000Y-3720999D02*
G01*
X705000Y-3521999D01*
X705000Y-3521999D02*
G01*
X705000Y-3516999D01*
X705000Y-3516999D02*
G01*
X705000Y-3494000D01*
X705000Y-3494000D02*
G01*
X705000Y-3454000D01*
X705000Y-3494000D02*
G01*
X681999Y-3488000D01*
X681999Y-3488000D02*
G01*
X681999Y-3523000D01*
X681999Y-3523000D02*
G01*
X705000Y-3516999D01*
X705000Y-3521999D02*
G01*
X1098999Y-3521999D01*
X705000Y-3720999D02*
G01*
X1098999Y-3720999D01*
X1145000Y-3454000D02*
G01*
X1538999Y-3454000D01*
X1538999Y-3454000D02*
G01*
X1538999Y-3521999D01*
X1538999Y-3521999D02*
G01*
X1538999Y-3720999D01*
X1538999Y-3720999D02*
G01*
X1538999Y-3750000D01*
X1538999Y-3750000D02*
G01*
X1145000Y-3750000D01*
X1145000Y-3750000D02*
G01*
X1145000Y-3720999D01*
X1145000Y-3720999D02*
G01*
X1145000Y-3521999D01*
X1145000Y-3521999D02*
G01*
X1145000Y-3516999D01*
X1145000Y-3516999D02*
G01*
X1145000Y-3494000D01*
X1145000Y-3494000D02*
G01*
X1145000Y-3454000D01*
X1145000Y-3494000D02*
G01*
X1121999Y-3488000D01*
X1121999Y-3488000D02*
G01*
X1121999Y-3523000D01*
X1121999Y-3523000D02*
G01*
X1145000Y-3516999D01*
X1145000Y-3521999D02*
G01*
X1538999Y-3521999D01*
X1145000Y-3720999D02*
G01*
X1538999Y-3720999D01*
X3140000Y-3340000D02*
G01*
X3660000Y-3340000D01*
X3660000Y-3880000D01*
X3140000Y-3880000D01*
X3140000Y-3340000D01*
G75*
G01
X322000Y-3626000D02*
G03X322000Y-3626000I-18000J0D01*
G75*
G01
X518000Y-3626000D02*
G03X518000Y-3626000I-18000J0D01*
G75*
G01
X2721250Y-3451200D02*
G03X2721250Y-3451200I-59040J0D01*
G75*
G01
X3405910Y-2880000D02*
G03X3405910Y-2880000I-455910J0D01*
G75*
G01
X3068110Y-2880000D02*
G03X3068110Y-2880000I-118110J0D01*
G75*
G01
X822000Y-3506000D02*
G03X822000Y-3506000I-18000J0D01*
G75*
G01
X1018000Y-3506000D02*
G03X1018000Y-3506000I-18000J0D01*
G75*
G01
X1262000Y-3506000D02*
G03X1262000Y-3506000I-18000J0D01*
G75*
G01
X1458000Y-3506000D02*
G03X1458000Y-3506000I-18000J0D01*
G75*
G01
X3440000Y-3690000D02*
G03X3440000Y-3690000I-150000J0D01*
M02*
