G04 Layer: TopLayer*
G04 EasyEDA v6.5.22, 2022-10-29 19:00:30*
G04 5be05e293c7e4e71b3140c0fb3691092,8a7c3c78bece4b5180208520edf53e9d,10*
G04 Gerber Generator version 0.2*
G04 Scale: 100 percent, Rotated: No, Reflected: No *
G04 Dimensions in millimeters *
G04 leading zeros omitted , absolute positions ,4 integer and 5 decimal *
%FSLAX45Y45*%
%MOMM*%

%ADD10C,0.7000*%
%ADD11O,1.9999959999999999X2.4999949999999997*%
%ADD12C,0.6096*%

%LPD*%
D10*
X365556Y2378425D02*
G01*
X174983Y2380013D01*
G75*
G01*
X1854987Y2170016D02*
G03*
X3074985Y2170016I609999J0D01*
G75*
G01*
X1754988Y2170016D02*
G03*
X3174985Y2170016I709998J0D01*
G75*
G01*
X3174985Y2170016D02*
G03*
X1654988Y2170016I-759999J0D01*
G75*
G01*
X1654988Y2170016D02*
G03*
X3274985Y2170016I809998J0D01*
G75*
G01*
X3274985Y2170016D02*
G03*
X1554988Y2170016I-859999J0D01*
G75*
G01*
X1554988Y2170016D02*
G03*
X3374984Y2170016I909998J0D01*
G75*
G01*
X3374984Y2170016D02*
G03*
X1454988Y2170016I-959998J0D01*
G75*
G01*
X1454988Y2170016D02*
G03*
X3474984Y2170016I1009998J0D01*
G75*
G01*
X3474984Y2170016D02*
G03*
X1354988Y2170016I-1059998J0D01*
G75*
G01*
X1354988Y2170016D02*
G03*
X3574984Y2170016I1109998J0D01*
G75*
G01*
X3574984Y2170016D02*
G03*
X1254989Y2170016I-1159998J0D01*
G75*
G01*
X1254989Y2170016D02*
G03*
X3674984Y2170016I1209997J0D01*
G75*
G01*
X3674984Y2170016D02*
G03*
X1154989Y2170016I-1259998J0D01*
G75*
G01*
X1154989Y2170016D02*
G03*
X3774984Y2170016I1309997J0D01*
G75*
G01*
X3774984Y2170016D02*
G03*
X1054989Y2170016I-1359998J0D01*
G75*
G01*
X1054989Y2170016D02*
G03*
X3874983Y2170016I1409997J0D01*
G75*
G01*
X3874983Y2170016D02*
G03*
X954989Y2170016I-1459997J0D01*
G75*
G01*
X954989Y2170016D02*
G03*
X3974983Y2170016I1509997J0D01*
G75*
G01*
X3974983Y2170016D02*
G03*
X854989Y2170016I-1559997J0D01*
G75*
G01*
X854989Y2170016D02*
G03*
X4074983Y2170016I1609997J0D01*
G75*
G01*
X4074983Y2170016D02*
G03*
X754990Y2170016I-1659997J0D01*
G75*
G01*
X754990Y2170016D02*
G03*
X4174983Y2170016I1709996J0D01*
G75*
G01*
X4174983Y2170016D02*
G03*
X654990Y2170016I-1759997J0D01*
G75*
G01*
X654990Y2170016D02*
G03*
X4274983Y2170016I1809996J0D01*
G75*
G01*
X4274983Y2170016D02*
G03*
X554990Y2170016I-1859997J0D01*
G75*
G01*
X554990Y2170016D02*
G03*
X4374982Y2170016I1909996J0D01*
G75*
G01*
X4374982Y2170016D02*
G03*
X454990Y2170016I-1959996J0D01*
G75*
G01*
X454990Y2170016D02*
G03*
X4474982Y2170016I2009996J0D01*
G75*
G01*
X4474982Y2170016D02*
G03*
X365559Y2378433I-2059996J13D01*
G75*
G01*
X2970660Y2100557D02*
G03*
X1854987Y2170016I-555674J69469D01*
G75*
G01*
X3074985Y2170016D02*
G03*
X1754988Y2170016I-659999J0D01*
D11*
G01*
X175006Y2380005D03*
G01*
X175006Y1960016D03*
D12*
G01*
X2971418Y2233295D03*
G01*
X2970656Y2100554D03*
M02*
